<?xml version="1.0" encoding="UTF-8"?>
<svg id="Capa_1" data-name="Capa 1" xmlns="http://www.w3.org/2000/svg" viewBox="0 0 172 43">
  <defs>
    <style>
      .cls-1 {
        fill: #fff;
      }
    </style>
  </defs>
  <path class="cls-1" d="m9.25,33.36c.11,0,.17.06.17.17v.72c0,.11-.06.17-.17.17h-3.78c-.15,0-.25.04-.31.11-.06.08-.09.18-.09.31v.26c0,.28.13.42.39.42h2.83c.44,0,.77.11.99.34.22.22.33.54.33.96v.6c0,.37-.11.66-.32.89-.22.23-.55.34-1.01.34h-4.18c-.12,0-.17-.06-.17-.17v-.72c0-.11.06-.17.17-.17h3.96c.15,0,.25-.04.31-.11.06-.08.09-.18.09-.31v-.31c0-.28-.13-.42-.39-.42h-2.83c-.44,0-.77-.11-.99-.34-.22-.22-.33-.54-.33-.96v-.55c0-.37.11-.66.32-.89.22-.23.55-.34,1.01-.34h4Z"/>
  <path class="cls-1" d="m17.77,33.36c.58,0,.99.13,1.24.39.25.26.38.65.38,1.16v.56c0,.51-.13.9-.38,1.16-.25.26-.67.39-1.24.39h-3.12v1.45c0,.11-.06.17-.17.17h-.81c-.12,0-.17-.06-.17-.17v-4.89c0-.15.08-.23.23-.23h4.05Zm-3.12,2.67h2.89c.26,0,.44-.06.54-.17.11-.11.16-.28.16-.51v-.29c0-.23-.05-.39-.16-.51-.11-.11-.29-.17-.54-.17h-2.79c-.07,0-.1.03-.1.09v1.54Z"/>
  <path class="cls-1" d="m27.54,33.36c.38,0,.71.04.98.11.27.07.49.19.66.35.17.16.29.36.37.61.08.25.11.56.11.92v1.3c0,.36-.04.67-.11.92-.08.25-.2.46-.37.62-.17.16-.39.27-.66.34-.27.07-.59.11-.98.11h-2.33c-.38,0-.71-.03-.97-.11-.27-.07-.48-.18-.65-.34-.17-.16-.29-.36-.37-.62-.08-.25-.12-.56-.12-.92v-1.3c0-.36.04-.67.12-.92.08-.25.2-.46.37-.61.17-.16.39-.27.65-.35.27-.07.59-.11.97-.11h2.33Zm-3.29,3.21c0,.2.02.36.05.49.03.13.09.24.16.32.08.08.18.13.31.17.13.03.29.05.49.05h2.24c.2,0,.36-.02.49-.05.13-.03.23-.09.31-.17.07-.08.13-.18.16-.32.03-.13.05-.3.05-.49v-1.13c0-.2-.02-.36-.05-.49-.03-.13-.09-.24-.16-.32-.08-.08-.18-.13-.31-.17-.13-.03-.29-.05-.49-.05h-2.24c-.2,0-.36.02-.49.05-.13.03-.23.09-.31.17-.08.08-.13.18-.16.32-.03.13-.05.3-.05.49v1.13Z"/>
  <path class="cls-1" d="m37.88,33.36c.58,0,.99.13,1.24.39.25.26.38.65.38,1.16v.43c0,.43-.09.77-.26,1.03-.18.25-.46.41-.86.48l1.29,1.6s.03.06.02.11c-.01.05-.05.08-.12.08h-.97c-.07,0-.11,0-.14-.02-.02-.02-.05-.04-.08-.08l-1.19-1.57h-2.44v1.5c0,.11-.06.17-.17.17h-.81c-.12,0-.17-.06-.17-.17v-4.89c0-.15.08-.23.23-.23h4.05Zm-3.12,2.69h2.89c.26,0,.44-.06.54-.17.11-.11.16-.28.16-.51v-.32c0-.23-.05-.39-.16-.51-.11-.11-.29-.17-.54-.17h-2.79c-.07,0-.1.03-.1.09v1.57Z"/>
  <path class="cls-1" d="m49.09,33.36c.12,0,.17.06.17.17v.74c0,.12-.06.17-.17.17h-2.37v4.04c0,.11-.06.17-.17.17h-.82c-.11,0-.17-.06-.17-.17v-4.04h-2.37c-.12,0-.17-.06-.17-.17v-.74c0-.11.06-.17.17-.17h5.89Z"/>
  <path class="cls-1" d="m58.2,33.36c.11,0,.17.06.17.17v.72c0,.11-.06.17-.17.17h-3.78c-.15,0-.25.04-.31.11-.06.08-.09.18-.09.31v.26c0,.28.13.42.39.42h2.83c.44,0,.77.11.99.34.22.22.33.54.33.96v.6c0,.37-.11.66-.32.89-.22.23-.55.34-1.01.34h-4.18c-.12,0-.17-.06-.17-.17v-.72c0-.11.06-.17.17-.17h3.96c.15,0,.25-.04.31-.11.06-.08.09-.18.09-.31v-.31c0-.28-.13-.42-.39-.42h-2.83c-.44,0-.77-.11-.99-.34-.22-.22-.33-.54-.33-.96v-.55c0-.37.11-.66.32-.89.22-.23.55-.34,1.01-.34h4Z"/>
  <path class="cls-1" d="m69.47,33.36c.11,0,.21,0,.29.02.08.02.15.04.21.09.06.04.11.1.16.17.05.07.1.17.15.29l1.57,3.62s.06.07.11.07h.09s.09-.02.11-.07l1.57-3.62c.05-.12.1-.22.15-.29.05-.07.1-.13.16-.17.06-.04.13-.07.21-.09.08-.01.17-.02.28-.02h.81c.26,0,.44.06.53.18.09.12.14.32.14.61v4.33c0,.11-.06.17-.17.17h-.77c-.11,0-.17-.06-.17-.17v-3.94c0-.05-.02-.08-.06-.08h-.07c-.05,0-.08.02-.1.06l-1.52,3.38c-.06.14-.12.25-.18.34-.06.09-.13.17-.2.23-.07.06-.16.1-.25.13-.09.03-.2.04-.33.04h-.36c-.13,0-.24-.01-.33-.04-.09-.02-.18-.07-.25-.13-.07-.06-.14-.14-.2-.23-.06-.09-.12-.21-.18-.34l-1.52-3.38s-.05-.06-.1-.06h-.07s-.06.02-.06.08v3.94c0,.11-.06.17-.17.17h-.77c-.12,0-.17-.06-.17-.17v-4.33c0-.29.05-.49.14-.61.09-.12.27-.18.54-.18h.82Z"/>
  <path class="cls-1" d="m83.35,33.36c.19,0,.35.04.48.12.13.08.26.23.38.46l2.5,4.53c.02.05.03.09.02.12-.01.03-.05.05-.11.05h-.96c-.09,0-.14-.03-.17-.1l-.54-.97h-3.54l-.52.97c-.03.07-.09.1-.17.1h-.98c-.07,0-.1-.02-.12-.05-.01-.03,0-.07.02-.12l2.47-4.53c.13-.23.25-.38.37-.46.12-.08.26-.12.42-.12h.44Zm-1.46,3.33h2.59l-1.2-2.21s-.05-.05-.08-.05h-.05s-.06.02-.08.05l-1.18,2.21Z"/>
  <path class="cls-1" d="m91.72,33.36c.12,0,.22,0,.3.01.08,0,.15.03.21.06.06.03.12.08.17.14.06.06.12.13.19.23l2.81,3.68s.05.05.1.05h.07s.06-.02.06-.08v-3.94c0-.11.06-.17.17-.17h.79c.11,0,.17.06.17.17v4.33c0,.31-.06.51-.17.62-.11.11-.28.16-.51.16h-.65c-.12,0-.21,0-.29-.01-.08,0-.15-.03-.21-.06-.06-.03-.12-.07-.18-.13s-.12-.14-.2-.24l-2.81-3.68s-.06-.05-.1-.05h-.07s-.06.02-.06.08v3.94c0,.11-.06.17-.17.17h-.79c-.12,0-.17-.06-.17-.17v-4.33c0-.31.06-.51.17-.62.11-.11.28-.16.51-.16h.66Z"/>
  <path class="cls-1" d="m104.12,33.36c.19,0,.35.04.48.12.13.08.26.23.38.46l2.5,4.53c.02.05.03.09.02.12-.01.03-.05.05-.11.05h-.96c-.09,0-.14-.03-.17-.1l-.54-.97h-3.54l-.52.97c-.04.07-.09.1-.17.1h-.98c-.07,0-.1-.02-.12-.05-.01-.03,0-.07.02-.12l2.47-4.53c.13-.23.25-.38.37-.46.12-.08.26-.12.42-.12h.45Zm-1.46,3.33h2.59l-1.2-2.21s-.05-.05-.08-.05h-.05s-.06.02-.08.05l-1.18,2.21Z"/>
  <path class="cls-1" d="m116.71,33.36c.11,0,.17.06.17.17v.74c0,.12-.06.17-.17.17h-3.78c-.2,0-.36.02-.49.05-.13.03-.23.09-.31.17-.07.08-.13.18-.16.31-.03.13-.05.3-.05.5v1.09c0,.2.02.37.05.5.03.13.09.24.16.32.08.08.18.13.31.17.13.03.29.05.49.05h2.49c.13,0,.23-.03.29-.1.06-.07.09-.19.09-.36v-.61c0-.07-.03-.1-.09-.1h-2.21c-.11,0-.17-.06-.17-.17v-.57c0-.12.06-.17.17-.17h3.15c.15,0,.23.07.23.23v1.76c0,.42-.08.72-.24.89-.16.17-.39.26-.69.26h-3.05c-.38,0-.71-.03-.97-.11-.27-.07-.48-.18-.65-.34-.17-.16-.29-.36-.37-.62-.08-.25-.12-.56-.12-.92v-1.3c0-.36.04-.67.12-.92.08-.25.2-.46.37-.62.17-.16.39-.27.65-.35.27-.07.59-.11.97-.11h3.82Z"/>
  <path class="cls-1" d="m126.21,33.36c.12,0,.17.06.17.17v.72c0,.11-.06.17-.17.17h-3.3c-.2,0-.36.02-.49.05-.13.03-.23.09-.31.17-.08.08-.13.18-.16.32-.03.13-.05.3-.05.49v.08h4.26c.11,0,.17.06.17.17v.6c0,.11-.06.17-.17.17h-4.26v.13c0,.2.02.36.05.49.03.13.08.24.16.32.08.08.18.13.31.17.13.03.29.05.49.05h3.3c.12,0,.17.06.17.17v.72c0,.11-.06.17-.17.17h-3.32c-.38,0-.71-.03-.97-.11-.27-.07-.48-.18-.65-.34-.17-.16-.29-.36-.37-.62-.08-.25-.12-.56-.12-.92v-1.3c0-.36.04-.67.12-.92s.2-.46.37-.62c.17-.16.39-.27.65-.35.27-.07.59-.11.97-.11h3.32Z"/>
  <path class="cls-1" d="m131.76,33.36c.11,0,.21,0,.29.02.08.02.15.04.21.09.06.04.11.1.16.17.05.07.1.17.15.29l1.57,3.62s.06.07.11.07h.09c.05,0,.09-.02.11-.07l1.57-3.62c.05-.12.1-.22.15-.29.05-.07.1-.13.16-.17.06-.04.13-.07.21-.09.08-.01.17-.02.28-.02h.81c.26,0,.44.06.53.18.09.12.14.32.14.61v4.33c0,.11-.06.17-.17.17h-.77c-.11,0-.17-.06-.17-.17v-3.94c0-.05-.02-.08-.06-.08h-.07c-.05,0-.08.02-.1.06l-1.52,3.38c-.06.14-.12.25-.18.34-.06.09-.13.17-.2.23-.07.06-.16.1-.25.13-.09.03-.2.04-.33.04h-.36c-.13,0-.24-.01-.33-.04-.09-.02-.18-.07-.25-.13-.07-.06-.14-.14-.2-.23-.06-.09-.12-.21-.18-.34l-1.52-3.38s-.05-.06-.1-.06h-.07s-.06.02-.06.08v3.94c0,.11-.06.17-.17.17h-.77c-.12,0-.17-.06-.17-.17v-4.33c0-.29.04-.49.14-.61.09-.12.27-.18.54-.18h.82Z"/>
  <path class="cls-1" d="m147.66,33.36c.12,0,.17.06.17.17v.72c0,.11-.06.17-.17.17h-3.3c-.2,0-.36.02-.49.05-.13.03-.23.09-.31.17-.08.08-.13.18-.16.32-.03.13-.05.3-.05.49v.08h4.26c.11,0,.17.06.17.17v.6c0,.11-.06.17-.17.17h-4.26v.13c0,.2.02.36.05.49.03.13.08.24.16.32.08.08.18.13.31.17.13.03.29.05.49.05h3.3c.12,0,.17.06.17.17v.72c0,.11-.06.17-.17.17h-3.32c-.38,0-.71-.03-.97-.11-.27-.07-.48-.18-.65-.34-.17-.16-.29-.36-.37-.62-.08-.25-.12-.56-.12-.92v-1.3c0-.36.04-.67.12-.92.08-.25.2-.46.37-.62.17-.16.39-.27.65-.35.27-.07.59-.11.97-.11h3.32Z"/>
  <path class="cls-1" d="m153.06,33.36c.12,0,.22,0,.3.01.08,0,.15.03.21.06.06.03.12.08.17.14.06.06.12.13.19.23l2.81,3.68s.05.05.1.05h.07s.06-.02.06-.08v-3.94c0-.11.06-.17.17-.17h.79c.11,0,.17.06.17.17v4.33c0,.31-.06.51-.17.62-.11.11-.28.16-.51.16h-.65c-.12,0-.21,0-.29-.01-.08,0-.15-.03-.21-.06-.06-.03-.12-.07-.18-.13-.06-.06-.12-.14-.2-.24l-2.81-3.68s-.06-.05-.1-.05h-.07s-.06.02-.06.08v3.94c0,.11-.06.17-.17.17h-.79c-.12,0-.17-.06-.17-.17v-4.33c0-.31.06-.51.17-.62.11-.11.28-.16.51-.16h.66Z"/>
  <path class="cls-1" d="m167.85,33.36c.12,0,.17.06.17.17v.74c0,.12-.06.17-.17.17h-2.37v4.04c0,.11-.06.17-.17.17h-.82c-.11,0-.17-.06-.17-.17v-4.04h-2.37c-.12,0-.17-.06-.17-.17v-.74c0-.11.06-.17.17-.17h5.89Z"/>
  <path class="cls-1" d="m26.29,4.36h8.96v12.33c.03,8.67-7.07,11.17-15.67,11.18-8.6-.02-15.71-2.51-15.67-11.18V4.36h8.95v11.76c-.03,3.77,3.06,4.42,6.73,4.47,3.65-.05,6.76-.7,6.71-4.47V4.36Z"/>
  <path class="cls-1" d="m61.39,4.4c4.73-.05,8.74,3.93,8.67,8.67.07,4.73-3.94,8.74-8.67,8.67h-13.16v5.6h-8.95V4.4h22.11Zm-2.24,10.62c.53,0,.99-.19,1.37-.56.39-.39.58-.85.58-1.38s-.19-1.01-.58-1.38c-.38-.39-.84-.58-1.37-.58h-10.93v3.91h10.93Z"/>
  <path class="cls-1" d="m94.6,4.4c4.73-.05,8.74,3.93,8.67,8.67.07,4.73-3.94,8.74-8.67,8.67h-13.16v5.6h-8.95V4.4h22.11Zm-2.24,10.62c.53,0,.99-.19,1.37-.56.39-.39.58-.85.58-1.38s-.19-1.01-.58-1.38c-.38-.39-.84-.58-1.37-.58h-10.93v3.91h10.93Z"/>
  <polygon class="cls-1" points="105.71 4.4 132.56 4.4 132.56 10.27 114.65 10.27 114.65 13.21 132.56 13.21 132.56 18.52 114.65 18.52 114.65 21.45 132.56 21.45 132.56 27.34 105.71 27.34 105.71 4.4"/>
  <path class="cls-1" d="m159.42,4.38c4.73-.05,8.74,3.93,8.67,8.67,0,1.72-.46,3.3-1.38,4.7-.9,1.38-2.12,2.44-3.62,3.14l5,6.44h-9.53l-4.32-5.6h-7.99v5.6h-8.95V4.38h22.11Zm-13.16,6.71v3.91h10.91c.55,0,1.01-.19,1.38-.56.39-.39.58-.85.58-1.38,0-1.09-.87-1.96-1.96-1.96h-10.91Z"/>
</svg>