<?xml version="1.0" encoding="UTF-8"?>
<svg id="Capa_2" data-name="Capa 2" xmlns="http://www.w3.org/2000/svg" viewBox="0 0 513.9 178">
  <defs>
    <style>
      .cls-1 {
        fill: #000;
      }

      .cls-1, .cls-2 {
        stroke-width: 0px;
      }

      .cls-2 {
        fill: #fff;
      }
    </style>
  </defs>
  <g id="Capa_1-2" data-name="Capa 1">
    <g id="Capa_1-2" data-name="Capa 1-2">
      <g>
        <path class="cls-2" d="M336.69,66.26c-.94-.05-1.57-.1-2.2-.1-42.24,0-84.5,0-126.75-.03-1.56,0-2.23.46-2.66,1.99-9.93,35.93-19.88,71.84-29.84,107.75-.16.59-.25,1.2-.39,1.92.77.07,1.33.15,1.9.15,18.87,0,37.75,0,56.62.05,1.59,0,2.03-.67,2.41-2,6.3-22.8,12.63-45.59,18.9-68.41.48-1.72,1.13-2.35,3-2.35,20.23.08,40.46.05,60.7.05,2.43,0,5.56.82,7.09-.38,1.61-1.26,1.74-4.46,2.41-6.84,2.94-10.48,5.82-20.98,8.83-31.79h-.02Z"/>
        <path class="cls-1" d="M195.08,0c-14.17,50.96-28.32,101.91-42.52,152.87-2.62,9.42-7.48,17.39-17.16,20.79-5.46,1.92-11.34,3.18-17.11,3.56-10.89.71-21.85.66-32.79.72-17.37.1-34.76.05-52.14,0-7.09,0-13.94-1.35-20.29-4.59-6.58-3.38-11.7-8.24-12.83-15.83-.49-3.35-.16-7.05.74-10.34,9.76-35.68,19.7-71.31,29.6-106.96,3.53-12.71,7.04-25.41,10.55-38.13.18-.67.23-1.38.33-2.07h60.93c-.15.48-.33.94-.46,1.43-6.2,22.31-12.39,44.64-18.59,66.95-5.73,20.61-11.45,41.21-17.16,61.82-1.18,4.27.43,7.04,4.71,8.24.69.2,1.39.39,2.1.39,5.28.02,10.6.18,15.86-.07,5.73-.28,7.74-2.17,9.27-7.73.44-1.57.87-3.17,1.31-4.74,11.75-42.11,23.44-84.21,35.16-126.31h60.5Z"/>
        <path class="cls-1" d="M513.9,0c-3.59,12.96-7.17,25.94-10.79,39h-2.72c-20.88,0-41.75,0-62.64.03-1.43,0-2.85.11-4.28.26-5.41.56-7.37,2.21-8.83,7.46-4.13,14.9-8.28,29.79-12.4,44.71-3.49,12.63-6.99,25.28-10.48,37.91-1.59,5.76.92,9.25,6.99,9.47,4.64.16,9.29.08,13.94.08h57.35c-.16.84-.23,1.49-.41,2.13-3.22,11.68-6.46,23.35-9.65,35.04-.38,1.41-.98,1.9-2.49,1.9-32.25-.05-64.49.03-96.74-.08-8.2-.03-16.01-1.94-22.93-6.61-8.42-5.69-11.52-14.09-8.81-23.85,8.14-29.32,16.27-58.65,24.43-87.97,3.23-11.6,6.38-23.23,9.74-34.8,2.85-9.79,8.15-17.8,18.46-20.87,5.69-1.69,11.73-2.26,17.62-3.33.97-.18,1.95-.31,2.92-.48h101.7l.03-.02Z"/>
        <path class="cls-1" d="M355.13,0c-3.61,12.96-7.22,25.9-10.84,38.91h-130.87c.16-.74.28-1.39.46-2.03,3.2-11.6,6.41-23.2,9.61-34.81.18-.67.23-1.38.33-2.07h131.31,0Z"/>
        <path class="cls-1" d="M336.69,66.26c-3,10.81-5.89,21.31-8.83,31.79-.67,2.38-.8,5.58-2.41,6.84-1.51,1.2-4.66.38-7.09.38-20.23,0-40.46.03-60.7-.05-1.87,0-2.54.62-3,2.35-6.27,22.8-12.62,45.61-18.9,68.41-.36,1.33-.82,2-2.41,2-18.87-.07-37.75-.03-56.62-.05-.56,0-1.12-.08-1.9-.15.15-.72.23-1.33.39-1.92,9.96-35.91,19.92-71.82,29.84-107.75.43-1.53,1.08-1.99,2.66-1.99,42.24.05,84.5.03,126.75.03.64,0,1.26.05,2.2.1h.02Z"/>
      </g>
    </g>
  </g>
</svg>