<?xml version="1.0" encoding="UTF-8"?>
<svg id="Capa_2" data-name="Capa 2" xmlns="http://www.w3.org/2000/svg" viewBox="0 0 171.74 177">
  <defs>
    <style>
      .cls-1 {
        fill: #000;
        stroke-width: 0px;
      }
    </style>
  </defs>
  <g id="Capa_1-2" data-name="Capa 1">
    <g>
      <path class="cls-1" d="M30.77,59.22c2.62-.85,5.21-2.29,7.88-2.44,6.34-.36,12.71-.12,20.03-.12-.36-9.38.9-18.48,6.45-27.48H26.52c-7.81,7.81-16.42,16.42-25.88,25.89V5.57c25.59,0,51.02-.12,76.45.09,5.83.05,11.57-.27,16.75-2.74,8.81-4.19,18.11-1.24,27.03-2.59,10.91-1.64,20.31,2.95,28.45,8.23,7.65,4.96,14.79,11.99,17.43,21.82,1.11,4.16,2.59,8.22,4.14,13.09-3.65.13-7.7.33-11.75.4-4.25.07-8.51.12-12.75-.02-3.36-.11-4.76-2.29-5.84-5.35-3.49-9.89-10.17-14.83-19.69-15.05-2.12-.05-4.26.15-6.37-.03-12.07-1.03-19.58,5.67-23.71,15.7-3.45,8.39-4.94,17.59-7.84,28.49-6.11,5.57-13.87,12.64-21.66,19.68-.21.19-.8-.03-1.73-.1-.38-2.21-.78-4.55-1.24-7.2H25.86v53.01H.11c0-13.42-.09-26.89.11-40.36.03-1.79,1.59-3.55,2.44-5.32.85-.85,1.7-1.7,2.55-2.55.85-.85,1.7-1.7,2.55-2.55.85-.85,1.7-1.7,2.55-2.55.85-.85,1.7-1.7,2.55-2.55.85-.85,1.7-1.7,2.55-2.55.85-.85,1.7-1.7,2.55-2.55.85-.85,1.7-1.7,2.55-2.55.85-.85,1.7-1.7,2.55-2.55.85-.85,1.7-1.7,2.55-2.55.85-.85,1.7-1.7,2.55-2.55.85-.85,1.7-1.7,2.55-2.55Z"/>
      <path class="cls-1" d="M89.53,94.99c.73.3,1.62.42,2.15.93,12.88,12.27,12.87,12.18,29.55,11.89,7.71-.13,13.18-3.64,16.79-10.16,2.29-4.12,4.17-8.47,6.39-13.04,8.71,1.5,18.19-2.47,26.23,2.61-5.59,21.2-16.18,37.45-37.65,43.44-26.21,7.32-48.42-2.41-61.16-16.32.79-1.35,1.58-2.69,2.36-4.03.85-.85,1.7-1.7,2.55-2.55.85-.85,1.7-1.7,2.55-2.55.85-.85,1.7-1.7,2.55-2.55.85-.85,1.7-1.7,2.55-2.55s1.7-1.7,2.55-2.55,1.7-1.7,2.55-2.55Z"/>
      <path class="cls-1" d="M56.07,176.48h-7.04v-37.8c2.03-.09,4.33-.2,7.59-.34v15.36c.59.02,1.17.04,1.76.06.27-4.84.53-9.68.82-14.92h6.74v37.57h-6.91v-14.55c-3.71,4.3-2.16,9.09-2.95,14.62Z"/>
      <path class="cls-1" d="M167.76,176.74h-14.35c0-6.17,0-12.39-.01-18.62,0-6.32,0-12.64,0-19.7,2.53,0,4.56,0,6.59,0,11.12.06,13.69,3.69,10.46,14.86-.43,1.49-2,3.65-1.51,4.25,5.69,6.99,1.37,13.01-1.18,19.2ZM163.19,143.95c-.74.04-1.48.07-2.21.11.21,3.11.42,6.22.63,9.33.53-.04,1.06-.07,1.59-.11v-9.33ZM163.19,159.28c-.74.04-1.48.07-2.21.11.21,3.11.42,6.22.63,9.33.53-.04,1.06-.07,1.59-.11v-9.33Z"/>
      <path class="cls-1" d="M132.96,138.68h7.81v32.78c3.4-10.62,1.67-21.41,2.7-32.55h7.21c-.78,12.1,2.85,24.85-2.82,37.1-.92.27-1.68.71-2.44.7q-12.43-.16-12.46-12.74c-.01-8.09,0-16.18,0-25.29Z"/>
      <path class="cls-1" d="M37.88,136.49c2.39,1.65,5.58,3.85,8.81,6.08q-6.16,7.79-10.05-.37c-.38,4.48-.64,7.51-.94,11.06h9.93c.16,4.48.73,8.59.34,12.61-.34,3.48-1.78,6.85-2.69,10.1-1.1.32-1.86.75-2.61.74q-12.42-.17-12.45-12.74c0-4.26.32-8.54-.07-12.76-.7-7.38.69-13.25,9.73-14.72ZM38.01,159.33c-1.34,3.94-3.28,8.08,0,14.76v-14.76Z"/>
      <path class="cls-1" d="M104.03,136.53c6.11,2.14,11.23,5.72,7.63,14.4h-6.29c-.34-2.4-.68-4.75-1.02-7.09-2.87,9.18-1.67,18.38-.14,27.68.32-3.04.64-6.08,1.02-9.61h6.85c0,3.49,1.22,8.02-.27,11.33-2.65,5.88-8.77,3-13.45,3.43-3.41-4.68-4.14-9.79-3.76-15.25.24-3.39.33-6.84-.02-10.2-.76-7.38.68-13.25,9.44-14.68Z"/>
      <path class="cls-1" d="M7.78,176.49H.5v-37.47h14.23c-1.03,6.68-1.64,7.16-6.09,4.44-.24,2.96-3.43,6.11,2.02,7.82,4.04,1.26,2.74,6.44,1.38,6.72-5.74,1.18-4.15,5.13-4.25,8.53-.09,3.28-.02,6.56-.02,9.96Z"/>
      <path class="cls-1" d="M122.32,168.62c3.24.34,5.24.55,7.66.81v6.68h-14.48v-37.48h6.82v29.98Z"/>
      <path class="cls-1" d="M81.15,176.51h-6.95c0-6.84-.29-13.5.09-20.11.33-5.67-.2-10.69-5.15-14.38-.4-.3-.05-1.59-.05-3h14.46c-.77,12.07-1.55,24.25-2.4,37.5Z"/>
      <path class="cls-1" d="M18.42,138.65h6.81v37.86h-6.81v-37.86Z"/>
      <path class="cls-1" d="M2.67,87.32c-3.63-6.14-3.67-7.66.59-12.04,6.76-6.94,13.67-13.72,20.99-21.04,2.09,1.6,4.31,3.28,6.52,4.97-.85.85-1.7,1.7-2.55,2.55-.85.85-1.7,1.7-2.55,2.55-.85.85-1.7,1.7-2.55,2.55-.85.85-1.7,1.7-2.55,2.55-.85.85-1.7,1.7-2.55,2.55-.85.85-1.7,1.7-2.55,2.55-.85.85-1.7,1.7-2.55,2.55-.85.85-1.7,1.7-2.55,2.55-.85.85-1.7,1.7-2.55,2.55-.85.85-1.7,1.7-2.55,2.55-.85.85-1.7,1.7-2.55,2.55Z"/>
      <path class="cls-1" d="M74.2,110.32c-4.11.96-5.86-1.93-7.24-3.48,6.85-6.85,13.32-13.32,20.81-20.81,2.61.79,1.68,5.11,1.76,8.96-.85.85-1.7,1.7-2.55,2.55s-1.7,1.7-2.55,2.55c-.85.85-1.7,1.7-2.55,2.55-.85.85-1.7,1.7-2.55,2.55-.85.85-1.7,1.7-2.55,2.55-.85.85-1.7,1.7-2.55,2.55Z"/>
      <path class="cls-1" d="M24.76,40.96c.49,1.79,1.12,2.94.84,3.25C17.65,52.73,9.61,61.17.1,68.89c.54-1.63.62-3.7,1.69-4.82,7.33-7.61,14.87-15.02,22.97-23.11Z"/>
      <path class="cls-1" d="M59.27,97.45c9.88-8.88,17.67-15.89,25.49-22.86.18-.16.76.12,1.16.2-7.76,11.6-17.71,20.8-26.65,22.67Z"/>
    </g>
  </g>
</svg>