<?xml version="1.0" encoding="UTF-8"?>
<svg id="Capa_2" data-name="Capa 2" xmlns="http://www.w3.org/2000/svg" viewBox="0 0 530.62 178">
  <defs>
    <style>
      .cls-1 {
        fill: #000;
        stroke-width: 0px;
      }
    </style>
  </defs>
  <g id="Capa_1-2" data-name="Capa 1">
    <g>
      <path class="cls-1" d="M0,178c-.03-.62.15-1.21.3-1.8.1-.37.17-.75.22-1.14.04-.3,0-.6.17-.9.13-.23-.04-.53.16-.81.17-.23,0-.57.17-.89.17-.31.13-.76.17-1.14.1-.8.45-1.57.39-2.39.23-.3.04-.74.2-.96.27-.34-.01-.74.25-1.05.23-.26-.11-.7.24-.95-.06-.46.08-.89.17-1.33.08-.38.05-.8.2-1.15.16-.39,0-.86.19-1.14.25-.37.05-.76.28-1.13.23-.37.15-.92.21-1.4.06-.41.1-.83.21-1.23.15-.53.24-1.07.34-1.62.12-.73.27-1.45.45-2.18.11-.45.12-.93.23-1.4.09-.38.05-.8.2-1.15.17-.39,0-.87.19-1.14.26-.37-.08-.84.32-1.11-.05-.82.32-1.58.37-2.4.04-.65.34-1.28.33-1.96.26-.19.14-.47.18-.72.04-.24.15-.48.16-.72.05-.61.28-1.19.34-1.78.06-.61.2-1.19.35-1.79.13-.48.06-1.02.21-1.5.21-.69.21-1.41.47-2.08.08-.2.01-.46.05-.68.03-.21.13-.42.17-.63.07-.38.06-.79.19-1.15.16-.42.15-.83.16-1.25.4-.27-.04-.81.35-1.08-.05-.82.27-1.59.39-2.39.11-.72.18-1.46.47-2.16.14-.34.04-.76.18-1.15.16-.46.07-1.02.26-1.47.19-.45,0-.96.28-1.38.06-.09,0-.27,0-.47,1.58.18,3.09-.27,4.62-.15.87-.25,1.78-.05,2.64-.21.81-.15,1.59-.11,2.39-.13.46-.01.86-.26,1.33-.2.46.06.97.12,1.39-.01.74-.23,1.48-.09,2.22-.15.47-.04.94-.14,1.42-.17.5-.03,1.03.11,1.48-.03.63-.2,1.25-.16,1.87-.13.55.02,1.06-.2,1.59-.19.53,0,1.08.11,1.57-.02.8-.22,1.6-.12,2.39-.14.46-.01.86-.26,1.33-.2.46.06.97.12,1.39-.01.71-.23,1.42-.09,2.13-.15.47-.04.94-.14,1.42-.17.5-.03,1.02.1,1.48-.03.77-.22,1.55-.03,2.3-.17.94-.18,1.88-.12,2.83-.17.3-.01.59-.14.91-.22.22.65-.08,1.21-.19,1.76-.07.39-.18.81-.24,1.2-.15.9-.29,1.79-.55,2.67-.06.22.01.47-.02.7-.02.18-.13.36-.16.54-.07.38-.05.8-.2,1.15-.17.42,0,.92-.2,1.22-.24.37-.05.76-.27,1.13-.22.38-.12.93-.22,1.39-.16.72-.27,1.46-.45,2.18-.11.45-.11.93-.23,1.4-.1.37-.06.8-.2,1.15-.16.39,0,.86-.19,1.14-.25.37-.05.76-.28,1.13-.23.37-.12.93-.22,1.39-.1.45-.16.91-.29,1.37-.1.36-.15.76-.22,1.14-.09.47-.04.97-.2,1.41-.25.68-.15,1.43-.51,2.07.08.46-.1.89-.17,1.33-.07.38-.05.8-.2,1.15-.16.39-.15.77-.16,1.16-.4.27-.08.73-.31,1.1-.23.37-.14.92-.22,1.39-.12.71-.17,1.44-.42,2.1-.16.43.1.93-.28,1.29.03.82-.41,1.57-.35,2.4-.23.3-.04.74-.2.96-.25.35.01.74-.25,1.05-.23.27,0,.63-.21.97-.18.29-.13.76-.18,1.14-.1.8-.3,1.59-.43,2.39-.11.68-.21,1.4-.45,2.08-.14.39-.09.88-.2,1.32-.09.38-.06.8-.2,1.15-.16.39,0,.86-.19,1.14-.25.37-.05.76-.28,1.13-.23.37-.12.93-.22,1.39-.1.45-.11.93-.3,1.36-.07.17-.05.39-.07.57-.95.33-1.94.14-2.89.28-.86.12-1.73.02-2.56.18-.83.16-1.67.02-2.47.16-.89.16-1.79.03-2.64.19-.78.14-1.55.01-2.3.16-.94.19-1.91.02-2.82.19-.75.14-1.49.02-2.21.16-.94.18-1.9.04-2.82.19-.8.14-1.61,0-2.38.16-.89.18-1.79.02-2.65.18-.83.15-1.67.01-2.47.17-.89.18-1.79,0-2.65.18-.8.16-1.61.02-2.38.17-.98.2-1.94.11-2.91.16-.05,0-.09.11-.14.17H0Z"/>
      <path class="cls-1" d="M530.62,4.75s-.14.04-.14.06c.03,1.02-.35,1.96-.56,2.93,0,.03,0,.06,0,.14-.84,0-1.66.34-2.52.2-.47-.08-.87.21-1.33.19-.44-.02-.91-.11-1.31.02-.88.27-1.77.07-2.71.18.3-.57.08-1.13.18-1.67-.16-.15-.31-.29-.47-.45-.36-.05-.77.08-1.14-.17-.12-.08-.38-.08-.51,0-.46.28-.95.13-1.43.16-1.23.07-2.48.05-3.69.21-.65.09-1.31.04-1.94.17-.54.11-1.07.07-1.6.16-.95.17-1.93.2-2.86.51-.83.28-1.46,1.06-1.48,1.91,0,.26,0,.53,0,.79.23.32.53.42.93.49.48.08.96.22,1.42.13,1.58-.32,3.18.02,4.75-.19,1.24-.17,2.49.01,3.7-.17,1.12-.17,2.24-.12,3.35-.14,1.11-.02,2.22,0,3.33,0,.76-.01,1.96.29,2.87.69.75.34,1.14.92,1.4,1.64.12.34.19.69.19,1.07-.02,1.05-.09,2.07-.32,3.11-.21.93-.45,1.86-.74,2.77-.43,1.34-1.05,2.55-1.94,3.68-1.03,1.32-2.43,1.93-3.89,2.46-.88.32-1.8.54-2.76.55-.3,0-.59.12-.89.16-.27.04-.58-.08-.81.18-.03.03-.11,0-.17,0-.91.06-1.82.13-2.73.17-.45.02-.86.25-1.33.2-.41-.05-.86-.13-1.24.15-.04.03-.11,0-.17,0-1.2.06-2.41.13-3.61.17-.6.02-1.16.25-1.77.19-.58-.06-1.2-.13-1.75.01-1.15.29-2.31.2-3.44.11-1.14-.09-2.31-.11-3.41-.63-1.02-.48-1.52-.85-1.84-1.84-.24-.77-.24-1.4,0-2.48.08-.35-.16-.76.18-1.07-.06-.63.23-1.19.35-1.78.02-.11,0-.22,0-.34.5-.08.96-.19,1.43-.23.46-.04.96.09,1.4-.03.74-.2,1.5-.03,2.21-.18.82-.18,1.65-.08,2.46-.19.31-.04.45.06.37.33-.21.78-.19,1.35.02,1.8.09.2.18.32.41.37.56.1,1.13.3,1.68.16.94-.25,1.9-.02,2.82-.19.83-.15,1.67-.02,2.47-.17.68-.13,1.38-.02,2.03-.18.63-.16,1.26-.03,1.86-.16,1-.22,2.03-.18,3.04-.46.95-.27,1.33-.89,1.67-1.67.2-.46.15-.94.18-1.42.02-.25-.13-.4-.31-.46-.31-.1-.65-.17-.98-.18-.67-.03-1.36-.1-2.01.01-1.53.26-3.07-.02-4.57.19-1.65.22-3.3-.02-4.93.18-.86.1-1.71.12-2.56.14-.88.02-1.76.05-2.63,0-.85-.06-1.68-.21-2.44-.66-.95-.56-1.48-1.33-1.5-2.44,0-.58.02-1.17,0-1.75-.03-.85.25-1.65.42-2.46.14-.68.4-1.35.64-2.01.62-1.74,1.54-3.3,3.02-4.44.77-.6,1.67-1.03,2.61-1.3.87-.24,1.76-.45,2.67-.56.47-.06.97-.05,1.42-.17.48-.13.97-.05,1.42-.18.57-.16,1.15-.04,1.68-.17.65-.16,1.32-.05,1.94-.18.66-.14,1.33-.02,1.94-.18.8-.2,1.62,0,2.38-.17,1.06-.23,2.14,0,3.17-.18.98-.18,1.95-.2,2.91-.12,1.07.09,2.17.13,3.2.51.43.16.88.32,1.24.59.54.42.93.97.92,1.71,0,.13-.07.31.17.31v1.58Z"/>
      <path class="cls-1" d="M366.69,153.63c.34-1.2.36-2.37.74-3.47.07-.21-.01-.47.02-.7.02-.18.13-.36.17-.54.13-.59.28-1.18.34-1.78.06-.58.19-1.14.35-1.7.12-.45.09-.95.2-1.41.16-.72.27-1.46.45-2.18.12-.45.1-.93.23-1.4.11-.37.06-.79.2-1.14.16-.39,0-.86.19-1.14.25-.37.05-.76.28-1.13.23-.37.13-.93.22-1.39.1-.45.16-.91.29-1.37.1-.37.14-.76.22-1.14.09-.44.04-.92.21-1.32.17-.42.13-.86.29-1.28.14-.39.11-.88.21-1.32.09-.38.06-.8.2-1.15.16-.39,0-.86.19-1.14.25-.37.05-.76.28-1.13.23-.37.14-.92.22-1.39.07-.43.17-.86.26-1.3.01-.05.09-.1.08-.14-.08-.38.12-.71.18-1.07.07-.44.04-.92.2-1.32.17-.42.15-.86.29-1.28.13-.39.12-.88.21-1.32.08-.38.05-.8.2-1.15.16-.39,0-.87.19-1.14.25-.37.05-.76.28-1.13.23-.37.15-.92.21-1.39.06-.41.05-.86.22-1.22.15-.29,0-.6.14-.82.18-.27.1-.55.17-.81.18-.72.28-1.45.46-2.17.11-.45.12-.93.23-1.4.09-.38.13-.77.18-1.15.06-.39.27-.75.18-1.15.39-.27.06-.74.32-1.11.19-.27.13-.75.18-1.13.1-.8.3-1.59.43-2.39.11-.68.21-1.4.45-2.08.14-.39.1-.88.2-1.32.09-.38.06-.8.2-1.15.16-.39,0-.86.19-1.14.25-.37.05-.76.28-1.13.23-.37.12-.93.22-1.39.1-.45.16-.91.29-1.37.1-.36.15-.76.22-1.14.09-.44.04-.92.2-1.32.17-.42.15-.86.29-1.28.13-.39.11-.88.21-1.32.08-.38.05-.8.2-1.15.16-.39,0-.87.19-1.14.25-.37.05-.76.28-1.13.23-.37.15-.92.21-1.39.06-.41.05-.86.22-1.22.15-.29,0-.6.14-.82.17-.27.1-.55.17-.81.17-.72.28-1.45.46-2.17.11-.45.12-.93.23-1.4.09-.38.05-.8.2-1.15.16-.39,0-.87.19-1.14.25-.37.05-.76.28-1.13.23-.37.15-.92.21-1.4.06-.41.09-.83.21-1.23.16-.53.23-1.08.33-1.62.14-.73.27-1.45.45-2.17.11-.45.12-.93.23-1.4.09-.38.05-.8.2-1.15.17-.39,0-.87.19-1.14.26-.37.05-.76.28-1.13.23-.37.15-.92.21-1.39.06-.41.1-.83.21-1.23.15-.53.27-1.07.32-1.62.03-.33.14-.65.22-1.01.29-.2.66-.26,1.07-.23,1.18.08,2.34-.3,3.52-.17.69-.31,1.43-.05,2.12-.19.83-.17,1.67-.03,2.47-.19.66-.14,1.3-.08,1.95-.14.45-.04.89-.14,1.33-.17.44-.03.92.11,1.31-.03.6-.21,1.19-.09,1.78-.15.45-.05.89-.14,1.33-.17.47-.03.97.1,1.4-.03.71-.22,1.44-.03,2.12-.17.8-.16,1.61-.04,2.38-.19.74-.14,1.49-.03,2.21-.17.8-.16,1.61-.03,2.38-.18.72-.14,1.43-.03,2.12-.16.83-.16,1.67-.03,2.47-.19.72-.15,1.43-.02,2.12-.16.8-.16,1.61-.04,2.38-.19.74-.14,1.49-.03,2.21-.17.8-.16,1.61-.03,2.38-.18.72-.14,1.43-.03,2.12-.16.83-.16,1.67-.03,2.47-.19.72-.15,1.43-.02,2.12-.16.8-.16,1.61-.04,2.38-.19.74-.14,1.49-.03,2.21-.17.8-.16,1.61-.03,2.38-.18.72-.14,1.43-.03,2.12-.16.83-.16,1.67-.03,2.47-.19.72-.15,1.44-.01,2.12-.16.86-.18,1.73-.04,2.56-.19.75-.14,1.49-.03,2.21-.17.8-.16,1.61-.02,2.38-.18.75-.16,1.5-.01,2.21-.17.77-.17,1.55-.03,2.3-.18.77-.16,1.56-.02,2.3-.18.77-.16,1.56-.02,2.3-.18.75-.16,1.49-.03,2.21-.17.8-.16,1.61-.02,2.38-.18.72-.15,1.43-.03,2.12-.16.83-.16,1.67-.03,2.47-.19.72-.15,1.44-.02,2.12-.16.8-.16,1.61-.04,2.38-.19.75-.14,1.49-.02,2.21-.17.8-.16,1.61-.02,2.38-.19.72-.15,1.43-.02,2.12-.16.83-.17,1.67-.03,2.47-.19.69-.14,1.37-.03,2.04-.16.85-.17,1.73-.03,2.56-.19.63-.12,1.25-.08,1.86-.14.45-.04.89-.14,1.33-.17.47-.03.98.11,1.39-.04.55-.19,1.08-.16,1.6-.13.5.03.94-.21,1.42-.2.5.01,1.03.11,1.48-.02.69-.21,1.38-.03,2.04-.17.85-.17,1.73-.03,2.56-.19.63-.12,1.25-.05,1.86-.15.91-.14,1.82-.2,2.74-.17.5-.31,1.07-.19,1.59-.16.5.03.94-.21,1.42-.2.5.01,1.03.11,1.48-.02.69-.21,1.38-.03,2.04-.17.85-.17,1.73-.03,2.56-.19.63-.12,1.25-.08,1.86-.14.47-.05.94-.14,1.42-.17.47-.03.97.1,1.4-.03.74-.23,1.48-.09,2.22-.16.15-.01.3-.07.52-.13-.04.4.1.82-.13,1.28-.16.33-.04.75-.18,1.15-.17.49-.08,1.07-.22,1.58-.2.77-.2,1.58-.48,2.34-.14.38-.04.82-.18,1.24-.16.5-.07,1.08-.22,1.58-.25.82-.19,1.69-.49,2.51-.13.35-.03.76-.18,1.15-.14.38-.17.82-.19,1.24-.02.42-.31.8-.18,1.24-.32.8-.21,1.69-.51,2.51-.13.35-.03.76-.18,1.15-.14.38-.17.82-.19,1.24-.02.42-.31.8-.18,1.24-.32.8-.18,1.7-.53,2.5.13.52-.15,1-.19,1.5-.04.46-.11.93-.28,1.37-.15.39-.04.81-.2,1.23-.19.48-.14,1.05-.21,1.58-.04.27-.12.54-.17.8-.06.3-.12.59-.18.89-.05.27,0,.53-.14.82-.16.35-.11.81-.18,1.23-.09.49-.34.98-.21,1.5-.38.38-.1.91-.32,1.36-.22.45-.14,1.05-.21,1.58-.04.27-.13.53-.17.81-.04.25-.09.49-.14.72-.09.4-.13.82-.2,1.24-.12.83-.32,1.64-.4,2.48-.03.35-.04.74-.17,1.06-.14.37-.05.75-.17,1.07-.28.73-.12,1.55-.51,2.24.13.52-.19.99-.19,1.51,0,.27-.11.53-.16.8-.05.27,0,.53-.14.82-.16.32-.06.75-.18,1.15-.16.5-.13,1.06-.2,1.58-.03.21-.13.42-.17.63-.04.22-.02.42-.14.65-.16.33.07.79-.22,1.14.13.52-.12,1.01-.2,1.5-.15.87-.24,1.75-.45,2.61-.11.45-.14.93-.22,1.4-.08.47-.26.93-.18,1.42-.43.33.07.92-.35,1.26.1.49-.1.95-.18,1.42-.1.57-.11,1.15-.32,1.71-.08.2,0,.46-.03.69-.03.21-.12.42-.17.63-.21.91-.21,1.87-.53,2.76.13.52-.12,1.01-.2,1.5-.09.54-.1,1.09-.3,1.62-.14.37-.1.82-.17,1.24-.09.49-.34.98-.21,1.5-.38.38.03.97-.35,1.35.13.52-.12,1.01-.2,1.5-.12.81-.19,1.64-.46,2.43-.14.39.07.85-.22,1.22.03.91-.22,1.78-.39,2.65-.21,1.13-.29,2.29-.65,3.4-.16.5-.13,1.06-.2,1.59-.04.27-.12.53-.17.81-.04.24-.04.47-.15.73-.14.34-.06.75-.18,1.15-.16.5-.13,1.06-.2,1.58-.03.21-.13.42-.17.63-.04.22-.04.42-.14.65-.16.37-.04.81-.2,1.23-.16.44-.14.94-.2,1.41-.03.26-.17.43-.43.42-.95-.04-1.87.28-2.82.2-.44-.04-.88.12-1.33.15-.44.03-.91-.1-1.31.03-.66.22-1.31.09-1.95.15-.45.04-.89.14-1.33.17-.44.03-.91-.1-1.31.03-.6.21-1.19.17-1.78.13-.5-.04-.94.21-1.42.2-.5-.01-1.03-.11-1.48.02-.72.22-1.44.03-2.12.17-.83.17-1.67.03-2.47.19-.66.14-1.3.08-1.95.14-.45.04-.89.14-1.33.17-.44.03-.92-.1-1.31.03-.6.21-1.19.17-1.78.13-.5-.03-.94.21-1.42.2-.5-.01-1.03-.11-1.48.02-.72.22-1.44.03-2.12.17-.8.16-1.61.04-2.38.19-.74.14-1.49.02-2.21.17-.86.17-1.73.02-2.56.18-.72.14-1.43.03-2.12.16-.83.16-1.67.03-2.47.19-.72.15-1.43.02-2.12.16-.8.16-1.61.04-2.38.19-.8.16-1.61.02-2.39.17-.8.15-1.61.03-2.38.18-.72.14-1.43.03-2.12.16-.83.16-1.67.03-2.47.19-.72.15-1.43.02-2.12.16-.8.16-1.61.04-2.38.19-.8.16-1.61.02-2.39.17-.8.15-1.61.03-2.38.18-.72.15-1.43.03-2.12.16-.83.16-1.67.03-2.47.19-.72.15-1.44.01-2.12.16-.86.18-1.73.04-2.56.19-.75.14-1.49.03-2.21.17-.8.16-1.61.02-2.38.18-.75.16-1.5,0-2.21.17-.77.17-1.56.02-2.3.18-.83.18-1.67.01-2.47.18-.77.16-1.56.02-2.3.18-.75.16-1.49.03-2.21.17-.8.16-1.61.02-2.38.18-.72.15-1.43.03-2.12.16-.83.16-1.67.03-2.47.19-.75.16-1.49.02-2.21.16-.86.17-1.73.03-2.56.19-.63.12-1.25.08-1.86.14-.45.04-.89.14-1.33.17-.47.03-.98-.11-1.39.04-.57.21-1.13.09-1.69.15-.5.05-1,.14-1.51.17-.5.03-1.03-.1-1.48.03-.69.21-1.38.03-2.04.17-.85.17-1.73.03-2.56.19-.63.12-1.25.08-1.86.14-.45.04-.89.14-1.33.17-.47.03-.98-.11-1.39.04-.57.21-1.13.11-1.69.14-1,.06-1.99.28-3,.18-.66.31-1.37.06-2.03.19-.85.17-1.73.03-2.56.19-.63.12-1.25.05-1.86.15-.91.14-1.82.2-2.74.17-.53.32-1.12.14-1.68.17-1,.06-1.99.27-3,.19-.27-.02-.5.22-.8.17-.26-.04-.52,0-.9,0ZM461.31,108.73c0-.3-.1-.61.02-.74.31-.36-.02-.87.33-1.19-.01-.65.23-1.25.35-1.87.06-.33.11-.66.18-.98.14-.65.22-1.32.39-1.95.19-.72.33-1.45.46-2.16.14-.73.27-1.48.43-2.21.16-.72.3-1.45.45-2.17.15-.73.42-1.45.38-2.22.37-.26.07-.69.27-1.03.18-.32.19-.74.26-1.12.07-.35.04-.75.2-1.06.18-.36.07-.73.19-1.06.25-.73.34-1.5.48-2.25.1-.5.13-.59.6-.61.65-.03,1.3.06,1.95-.15.43-.13.93-.07,1.39-.01.47.06.88-.19,1.33-.2.8-.02,1.58.02,2.39-.13.86-.16,1.76-.03,2.64-.19.75-.14,1.52-.01,2.3-.16.83-.16,1.7-.07,2.56-.18,1.34-.17,2.7-.15,4.05-.2.06,0,.12,0,.18,0,.24.02.36-.14.44-.33.07-.17.17-.36.17-.54-.02-.54.19-1.04.26-1.57.07-.52.19-1.04.32-1.54.09-.36.03-.74.18-1.06.29-.61.33-1.28.45-1.91.14-.73.3-1.47.41-2.21.13-.84.33-1.67.51-2.5.08-.36.04-.79.2-1.05.24-.39.05-.81.28-1.21.21-.36.14-.87.21-1.31.02-.12.09-.23.17-.4-.75.09-1.44,0-2.16.16-.82.18-1.7.03-2.55.2-.66.13-1.37-.11-2.03.19-1.01-.1-2,.12-3,.18-.56.03-1.15-.15-1.68.17-.92-.03-1.83.03-2.74.17-.61.09-1.23.02-1.86.15-.83.16-1.7.02-2.56.19-.66.13-1.35-.05-2.04.17-.4.13-.87,0-1.31.03-.42.03-.83.13-1.24.16-.74.07-1.47-.02-2.22.15-.76.17-1.58.02-2.38.18-.71.15-1.49-.1-2.2.2-1.07-.13-2.11.2-3.17.18-1.03-.02-2.05.3-3.09.17-.06,0-.12-.01-.17,0-.39.1-.57.35-.63.77-.14,1.01-.48,1.99-.54,3.02-.31.24-.05.61-.19.89-.32.6-.3,1.27-.47,1.91-.22.82-.28,1.68-.54,2.5-.12.39-.12.83-.19,1.24-.06.38-.26.75-.17,1.16-.38.31.02.86-.35,1.17-.03.58-.23,1.13-.33,1.7-.1.6-.26,1.19-.34,1.78-.05.39-.2.75-.22,1.15-.02.36-.01.79-.21,1.04-.27.36-.03.76-.28,1.13-.21.31-.14.81-.21,1.22-.06.38-.25.75-.17,1.16-.38.31-.08.79-.32,1.19-.21.35-.04.93-.24,1.3-.23.42.04.92-.32,1.27.04.54-.18,1.04-.24,1.57-.07.52-.2,1.04-.32,1.54-.09.36-.05.73-.18,1.06-.23.62-.3,1.27-.47,1.91-.21.82-.28,1.68-.54,2.5-.12.39-.12.83-.19,1.24-.06.38-.26.75-.17,1.15-.38.31.02.86-.35,1.17-.04.58-.22,1.14-.33,1.7-.11.6-.25,1.19-.36,1.78-.2,1.11-.36,2.22-.71,3.3-.13.39-.12.83-.19,1.24-.06.38-.26.75-.17,1.16-.38.31.02.86-.35,1.17-.05,1.06-.47,2.06-.53,3.11-.37.31-.08.79-.32,1.19-.21.34-.14.84-.19,1.3.71-.06,1.35-.02,2.01-.15.8-.15,1.64-.03,2.47-.19.69-.13,1.41.04,2.12-.17.43-.13.93,0,1.4-.03.45-.03.89-.12,1.33-.17.65-.06,1.3.08,1.95-.15.39-.14.87,0,1.31-.03.42-.03.83-.13,1.24-.17.74-.07,1.47.01,2.22-.14.79-.16,1.64-.03,2.47-.19.69-.13,1.41-.02,2.12-.16.77-.16,1.58-.03,2.38-.18.78-.15,1.58-.01,2.39-.17.77-.15,1.58-.03,2.38-.19.69-.14,1.41.05,2.12-.17.43-.13.93,0,1.4-.03.47-.03.95-.18,1.42-.16,1.21.05,2.4-.3,3.61-.2.44.04.79-.36.84-.8.06-.44.04-.92.19-1.32.27-.7.34-1.44.48-2.16.14-.73.26-1.48.42-2.21.2-.93.4-1.87.63-2.79.13-.5.21-1.03.28-1.55.07-.52.29-1.01.28-1.55.36-.32-.01-.85.34-1.17,0-.69.23-1.34.36-2.04-.9.1-1.72-.02-2.55.16-.85.18-1.76.02-2.64.19-.75.15-1.52.01-2.3.16-.86.16-1.76.03-2.64.19-.75.14-1.52.03-2.3.16-.92.15-1.87.07-2.82.18-1.37.16-2.76.14-4.13.21-.13,0-.25.09-.44.16ZM446.86,72.47c-.05,0-.13-.02-.21-.03-.46-.05-.89.1-1.33.16-.79.1-1.58-.01-2.39.16-.77.16-1.58.03-2.38.18-.72.14-1.46.03-2.21.17-.77.14-1.58.03-2.38.19-.69.14-1.4.01-2.12.16-.8.16-1.64.03-2.47.19-.75.14-1.52,0-2.3.16-.77.16-1.58.03-2.38.18-.72.14-1.46.03-2.21.17-.77.14-1.58.03-2.38.19-.69.14-1.4.01-2.12.16-.8.16-1.64.03-2.47.19-.75.14-1.52,0-2.3.16-.8.16-1.64.03-2.47.19-.69.13-1.41-.01-2.12.18-.58.16-.6.08-.73.67-.03.13-.14.24-.17.37-.07.41-.11.83-.18,1.24-.07.38-.25.75-.17,1.15-.38.31.02.86-.35,1.17-.03.58-.23,1.13-.33,1.7-.1.6-.25,1.19-.35,1.78-.08.52-.21,1.04-.28,1.56-.07.52-.18,1.04-.32,1.54-.1.36-.06.72-.18,1.06-.22.62-.33,1.27-.46,1.91-.14.73-.25,1.49-.42,2.21-.23,1.01-.41,2.04-.63,3.06-.16.72-.41,1.45-.38,2.21-.38.28.04.81-.34,1.09.06.4-.12.77-.18,1.15-.07.38-.05.8-.2,1.15-.15.36-.07.73-.19,1.06-.43,1.2-.55,2.46-.82,3.69-.16.73-.29,1.47-.41,2.21-.14.83-.32,1.67-.51,2.5-.08.36-.08.73-.19,1.06-.16.5-.23,1.02-.33,1.53-.1.51-.29,1.01-.33,1.52-.06.7-.34,1.34-.41,2.04-.05.47-.17.97-.3,1.44-.15.5-.18,1.02-.34,1.52-.12.39-.05.86-.21,1.23-.18.42-.1.86-.31,1.28-.18.36-.15.82-.2,1.23-.05.39-.28.75-.18,1.15-.35.32,0,.85-.35,1.17-.03.98-.37,1.9-.53,2.85-.05.32-.14.63-.22.97.17.02.25.04.33.03.77-.04,1.53.04,2.3-.15.74-.17,1.52-.02,2.3-.17.8-.16,1.64-.03,2.47-.19.72-.14,1.46,0,2.21-.16.79-.16,1.64-.03,2.47-.19.69-.14,1.43.11,2.12-.19,1.18.13,2.34-.27,3.52-.17.38.03.72-.11,1.07-.18.25-.06.4-.19.39-.47,0-.39.29-.74.17-1.15.34-.68.35-1.44.49-2.15.14-.73.41-1.45.38-2.21.35-.35.1-.85.32-1.27.19-.37.08-.89.22-1.31.12-.33.06-.69.18-.98.19-.47.17-.97.33-1.44.16-.5.23-1.02.32-1.52.06-.33.21-.64.2-.97-.01-.34.19-.63.21-.98.02-.32.05-.68.17-.97.18-.44.11-.93.32-1.36.1-.22.19-.39.47-.39.8,0,1.59.01,2.39-.15.72-.15,1.46-.03,2.21-.16.86-.15,1.76-.02,2.64-.19.66-.13,1.35.05,2.04-.17.4-.13.87,0,1.31-.03.42-.03.83-.13,1.24-.16.44-.03.88.02,1.31-.02.44-.04.87-.15,1.34-.24.19-.96.37-1.94.58-2.9.21-.97.41-1.93.59-2.9.19-1,.42-2,.61-3,.18-.95.33-1.91.59-2.87-.61.04-1.19-.01-1.79.15-.49.13-1.05.05-1.57.02-.52-.03-.98.24-1.51.2-.52-.04-1.06-.07-1.6.13-.42.15-.93,0-1.39.04-.45.03-.89.18-1.33.16-1.21-.05-2.4.32-3.61.19-.06,0-.13-.02-.17,0-.59.38-1.23.06-1.81.18-.16-.3.03-.47.09-.67.11-.4.13-.82.19-1.24.06-.38.26-.75.17-1.15.38-.31-.02-.86.35-1.17.04-1.06.4-2.06.56-3.11.07-.44.11-.92.3-1.36.12-.27.21-.44.52-.43.38,0,.76.02,1.14,0,.36-.03.71-.13,1.07-.16.71-.06,1.41.07,2.13-.16.43-.13.93,0,1.4-.03.45-.03.89-.12,1.33-.17.59-.06,1.18.06,1.78-.15.39-.14.87,0,1.31-.03.45-.03.89-.12,1.33-.17.65-.06,1.29.06,1.95-.15.45-.14.99-.04,1.48-.02.48.02.92-.28,1.42-.19.33.06.69.01,1,.01,1.06-5.22,2.11-10.39,3.17-15.58Z"/>
      <path class="cls-1" d="M328.27,109.37c.01-.63.13-1.15.25-1.65.16-.69.21-1.4.46-2.08.13-.36.08-.82.19-1.23.11-.4.02-.89.22-1.22.23-.39.05-.82.29-1.21.18-.3-.06-.78.21-1.13-.03-.82.28-1.59.39-2.39.1-.69.19-1.4.46-2.08.14-.35-.07-.79.2-1.14-.03-.82.28-1.59.39-2.39.1-.69.19-1.4.46-2.08.14-.35-.07-.79.2-1.14-.02-.82.41-1.57.35-2.4.23-.3.04-.74.2-.96.25-.35,0-.74.25-1.05.23-.27-.11-.7.25-.95-.05-.46.06-.89.17-1.33.09-.38.06-.8.2-1.15.16-.39,0-.86.19-1.14.25-.37.05-.76.28-1.13.23-.37.12-.93.22-1.39.1-.45.16-.91.29-1.37.1-.36.14-.76.22-1.14.09-.44.04-.92.2-1.32.17-.42.15-.86.29-1.28.13-.39.11-.88.21-1.32.08-.38.05-.8.2-1.15.16-.39,0-.87.19-1.14.25-.37-.08-.84.32-1.11-.05-.8.3-1.53.37-2.31.06-.71.16-1.44.41-2.11.16-.43-.1-.93.28-1.29-.03-.82.28-1.59.39-2.39.1-.69.15-1.42.47-2.07.06-.12,0-.29.01-.43.02-.7.33-1.02,1.04-1.06,1.38-.07,2.76-.11,4.14-.18.47-.03.94-.13,1.42-.16.47-.03.97.1,1.4-.03.74-.23,1.48-.09,2.22-.15.47-.04.94-.14,1.42-.17.5-.03,1.03.11,1.48-.03.6-.19,1.19-.12,1.78-.14,1.09-.04,2.17-.29,3.26-.18.77-.33,1.59-.14,2.38-.16.46-.01.86-.26,1.33-.2.46.06.97.12,1.39-.01.74-.23,1.48-.09,2.22-.15.47-.04.94-.14,1.42-.17.5-.03,1.03.11,1.48-.03.6-.19,1.19-.12,1.78-.14,1.09-.04,2.17-.29,3.26-.18.86-.33,1.79,0,2.64-.2.95-.23,1.89-.04,2.89-.18-.06.49-.01.97-.2,1.33-.15.29-.09.55-.15.82-.05.24-.13.48-.17.72-.07.38-.05.8-.2,1.15-.16.39,0,.87-.19,1.14-.25.37-.05.76-.28,1.13-.23.37-.15.92-.21,1.39-.06.41-.08.84-.21,1.23-.15.48-.21.96-.32,1.44-.09.41-.22.81-.17,1.24-.37.31-.09.79-.32,1.19-.22.38-.14.93-.21,1.4-.12.71-.18,1.44-.42,2.1-.16.43.1.93-.27,1.29.02.82-.28,1.59-.39,2.39-.1.68-.19,1.4-.46,2.08-.14.34.07.79-.2,1.15.02.82-.27,1.59-.39,2.39-.11.68-.18,1.41-.46,2.08-.14.34-.02.76-.18,1.15-.16.4-.03.93-.23,1.31-.22.42,0,.89-.3,1.29-.11.15,0,.46-.03.69-.02.18-.13.36-.16.54-.07.38-.05.8-.2,1.15-.18.42,0,.91-.2,1.22-.24.37-.05.75-.27,1.13-.22.38-.11.93-.22,1.39-.16.72-.28,1.45-.46,2.18-.11.45-.12.93-.23,1.4-.09.38-.06.8-.2,1.15-.16.39,0,.86-.19,1.14-.25.37-.05.76-.28,1.13-.23.37-.15.92-.21,1.4-.06.41-.09.83-.21,1.23-.15.48-.21.96-.32,1.45-.09.41-.06.89-.21,1.23-.18.4-.06.81-.28,1.21-.21.39-.13.93-.21,1.4-.12.71-.18,1.44-.42,2.1-.16.43.1.93-.27,1.29.02.82-.27,1.59-.39,2.39-.11.68-.18,1.41-.46,2.08-.14.34-.11.77-.16,1.15-.1.8-.45,1.57-.39,2.39-.23.3-.04.74-.2.96-.26.34.01.74-.25,1.05-.23.26.12.7-.24.95.06.46-.07.89-.17,1.33-.08.38-.05.8-.2,1.15-.16.39,0,.87-.19,1.14-.25.37-.05.76-.28,1.13-.23.37-.15.92-.21,1.39-.06.41-.05.86-.22,1.22-.15.29,0,.6-.14.82-.18.27-.1.55-.17.81-.17.72-.28,1.45-.46,2.17-.11.45-.12.93-.23,1.4-.09.38-.05.8-.2,1.15-.16.39,0,.87-.19,1.14-.25.37-.05.76-.28,1.13-.23.37-.15.92-.21,1.4-.06.41-.09.83-.21,1.23-.14.48-.22.96-.32,1.45-.09.41-.06.88-.21,1.23-.17.4-.08.81-.28,1.2-.21.43-.13.99-.22,1.49-.12.65-.35,1.28-.34,1.96-.4.38.04.97-.35,1.35.02.82-.27,1.6-.4,2.39-.11.68-.16,1.41-.46,2.08-.11.24-.02.58-.02.87-.6.33-1.27.31-1.91.25-.59-.06-1.11.2-1.68.19-.58,0-1.2-.12-1.75.03-.78.21-1.55.01-2.3.17-.91.19-1.84.03-2.73.19-.8.15-1.61.01-2.38.17-.89.18-1.79.02-2.65.18-.86.16-1.73,0-2.56.18-.81.17-1.6.11-2.39.13-.46.01-.86.26-1.33.2-.46-.06-.97-.12-1.39.01-.74.23-1.49.03-2.21.17-.94.18-1.9.03-2.82.19-.78.13-1.55.02-2.3.16-.94.18-1.91.02-2.82.19-.78.15-1.55,0-2.3.16-.94.19-1.88.12-2.83.16-.15,0-.3.11-.52.19-.38-.82-.74-1.66-1.13-2.48-.65-1.34-1.32-2.67-1.98-4-1-2.04-2.03-4.07-2.97-6.14-.84-1.85-1.85-3.61-2.67-5.47-.85-1.94-1.87-3.78-2.75-5.7-.86-1.87-1.87-3.67-2.7-5.55-.91-2.06-1.99-4.02-2.94-6.06-.8-1.72-1.65-3.41-2.47-5.11-.98-2.02-1.95-4.04-2.92-6.07-.49-1.02-.98-2.05-1.48-3.1-.1.13-.26.24-.26.34.01.82-.29,1.59-.4,2.39-.09.69-.22,1.4-.44,2.09-.11.36-.14.76-.22,1.14-.09.44-.04.92-.21,1.32-.17.42-.14.86-.29,1.28-.14.39-.11.88-.21,1.32-.09.38-.06.8-.2,1.15-.16.39,0,.87-.19,1.14-.25.37-.05.76-.28,1.13-.23.37-.17.92-.21,1.4-.04.42-.14.83-.24,1.22-.07.28,0,.6-.13.81-.17.27-.1.55-.17.81-.17.72-.28,1.45-.46,2.18-.11.45-.12.93-.23,1.4-.09.38-.06.8-.2,1.15-.16.39,0,.86-.19,1.14-.25.37.08.83-.32,1.11.05.82-.32,1.58-.37,2.4-.04.65-.34,1.28-.33,1.96-.24.2-.15.47-.18.72-.03.24-.15.48-.16.72-.04.61-.29,1.19-.34,1.78-.06.61-.19,1.2-.35,1.79-.12.46-.08.95-.2,1.41-.18.72-.28,1.45-.46,2.17-.11.45-.14.93-.23,1.4-.07.38-.05.8-.2,1.15-.17.39-.15.77-.16,1.16-.4.27-.09.73-.31,1.1-.22.37-.14.93-.22,1.4-.12.71-.22,1.42-.42,2.11-.12.43-.14.86-.27,1.29-.13.42-.02.94-.22,1.31-.21.4-.02.83-.29,1.21-.2.29.14.75-.2,1.05.1.44-.2.81-.18,1.31-.83-.08-1.61.25-2.44.2-1.21-.07-2.4.29-3.61.17-.74.33-1.53.11-2.3.18-.47.04-.94.14-1.42.17-.47.03-.97-.11-1.39.03-.69.23-1.36.08-2.04.15-1,.1-1.99.25-3,.17-.75.31-1.55.05-2.29.2-.94.19-1.91.02-2.82.19-.75.14-1.49.02-2.21.16-.94.18-1.9.04-2.82.19-.8.13-1.61.01-2.38.17-.89.18-1.79.02-2.65.18-.83.15-1.67.02-2.47.17-.89.18-1.79.01-2.65.18-.74.14-1.47.12-2.25.15-.13-.55.18-1.04.22-1.55.03-.4.2-.79.27-1.2.05-.3-.04-.6.16-.9.14-.21-.06-.54.16-.81.18-.23-.02-.57.17-.89.18-.31-.07-.79.22-1.13-.03-.74.31-1.41.36-2.13.03-.36.2-.69.19-1.07,0-.38.03-.82.22-1.12.23-.34,0-.7.25-1.05.19-.27.13-.75.18-1.13.1-.8.3-1.59.43-2.39.11-.68.18-1.41.46-2.08.14-.34.12-.77.16-1.15.1-.8.3-1.59.43-2.39.11-.68.18-1.41.46-2.08.14-.34.03-.76.18-1.15.15-.41.03-.94.23-1.31.23-.42-.04-.92.32-1.27-.08-.83.23-1.6.38-2.39.21-1.07.27-2.19.67-3.22-.08-.83.23-1.6.38-2.39.21-1.07.27-2.19.67-3.22-.08-.83.23-1.61.38-2.39.21-1.07.31-2.17.66-3.23.15-.47.06-1.02.21-1.5.21-.69.21-1.41.47-2.08.08-.2.01-.46.05-.68.03-.21.12-.42.17-.63.12-.59.28-1.18.34-1.78.06-.58.2-1.14.35-1.7.13-.48.1-1.01.2-1.5.12-.65.36-1.28.34-1.96.3-.22.13-.53.18-.8.05-.24.13-.48.17-.72.07-.38.05-.8.2-1.15.16-.39,0-.86.19-1.14.25-.37-.08-.83.31-1.11-.02-.37.08-.71.16-1.07.17-.76.2-1.55.38-2.3.23-.94.32-1.91.53-2.85.21-.92.31-1.85.52-2.76.22-.95.32-1.91.53-2.85.21-.92.3-1.85.52-2.76.22-.95.33-1.91.54-2.85.1-.45.16-.91.3-1.36.14-.45.05-.97.21-1.4.25-.68.2-1.41.48-2.08.14-.34.12-.77.16-1.15.1-.8.3-1.59.43-2.39.11-.68.18-1.41.46-2.08.14-.34.12-.77.16-1.15.1-.8.3-1.59.43-2.39.11-.69.2-1.4.45-2.09.13-.37.08-.82.19-1.23.11-.4.02-.89.22-1.22.23-.39-.04-.87.31-1.19-.1-.55.21-1.05.19-1.59-.01-.28.17-.46.42-.43.9.11,1.76-.27,2.65-.18.49.05.95-.13,1.42-.17.46-.04.97.1,1.4-.03.68-.21,1.38-.04,2.04-.17.85-.17,1.73-.03,2.56-.19.63-.12,1.25-.05,1.86-.15.94-.15,1.9-.06,2.82-.21.78-.12,1.55,0,2.3-.15.92-.19,1.85-.02,2.73-.19.95-.18,1.9,0,2.83-.16,1.12-.19,2.26,0,3.35-.19,1.07-.19,2.12-.09,3.18-.13,1.08-.04,2.17-.09,3.24.01,1.01.1,2.02.29,3,.57.94.28,1.84.68,2.67,1.17.96.57,1.87,1.23,2.51,2.21.35.53.82.99,1.02,1.6.42,1.24,1.11,2.35,1.61,3.54.52,1.25,1.19,2.43,1.76,3.66.69,1.47,1.45,2.91,2.09,4.4.59,1.37,1.31,2.67,1.94,4.02.69,1.47,1.45,2.91,2.09,4.4.54,1.25,1.19,2.43,1.76,3.66.73,1.57,1.48,3.13,2.23,4.69.58,1.22,1.16,2.44,1.75,3.66.7,1.46,1.4,2.93,2.11,4.39.64,1.31,1.32,2.61,1.92,3.94.53,1.18,1.08,2.36,1.73,3.63Z"/>
      <path class="cls-1" d="M253.2,101.17c0,.61-.04,1.23,0,1.84.1,1.19-.23,2.34-.2,3.52,0,.28-.18.57-.17.89,0,.27.06.54-.09.84-.13.25,0,.63-.08.93-.16.65-.23,1.31-.38,1.95-.15.63-.1,1.32-.49,1.89-.09,1.1-.5,2.14-.72,3.21-.18.87-.6,1.68-.85,2.54-.5,1.72-1.17,3.37-1.86,5.02-.73,1.75-1.56,3.45-2.47,5.11-.72,1.31-1.46,2.62-2.27,3.89-.64,1-1.27,1.99-1.94,2.96-.6.87-1.2,1.74-1.85,2.57-.73.93-1.49,1.84-2.23,2.76-1.46,1.83-3.14,3.46-4.79,5.11-.49.5-.98,1-1.49,1.48-.35.33-.73.62-1.1.93-.34.29-.63.64-1.03.89-.42.27-.77.66-1.17.98-.98.78-2,1.53-2.99,2.3-1.49,1.16-3.12,2.1-4.66,3.19-.86.61-1.86,1.02-2.76,1.57-1.53.94-3.16,1.69-4.77,2.45-1.32.62-2.67,1.17-4.03,1.7-1.49.58-2.99,1.12-4.51,1.61-1.17.38-2.33.75-3.53,1.01-.47.11-.93.3-1.41.4-.64.14-1.28.31-1.92.45-.35.08-.75.04-1.06.2-.49.25-1.03.2-1.54.3-.87.17-1.75.44-2.66.39-.43.29-.97.05-1.4.23-.46.2-.93,0-1.35.14-.56.19-1.15.05-1.68.18-.86.21-1.73.02-2.56.18-1.21.23-2.41.12-3.62.15-1.2.03-2.4.02-3.6,0-.47,0-.94-.13-1.42-.16-.47-.03-.97.1-1.39-.03-.51-.16-1.06,0-1.5-.18-.63-.26-1.27-.02-1.9-.29-.47-.21-1.05-.12-1.58-.21-.62-.1-1.28-.15-1.85-.41-.34-.15-.66-.09-.97-.18-.97-.27-1.92-.62-2.91-.81-.4-.08-.81-.2-1.16-.37-1-.48-2.09-.75-3.08-1.26-.84-.43-1.75-.74-2.57-1.2-1.24-.69-2.46-1.44-3.64-2.23-.81-.54-1.59-1.14-2.34-1.77-.98-.83-2.03-1.6-2.87-2.56-.87-1-1.76-1.99-2.58-3.03-.71-.9-1.33-1.86-1.97-2.79-.75-1.1-1.38-2.28-1.94-3.49-.76-1.64-1.4-3.34-1.96-5.06-.22-.69-.34-1.42-.66-2.09-.13-.27-.12-.65-.17-.97-.18-1.07-.57-2.1-.55-3.2-.31-.52-.04-1.13-.24-1.65-.22-.57.03-1.16-.12-1.7-.31-1.05-.11-2.12-.15-3.18-.04-1.08-.11-2.17.03-3.24.09-.71.04-1.43.17-2.12.09-.48.05-.97.17-1.42.12-.45.01-.95.19-1.32.23-.48.05-.98.29-1.46.2-.4.09-.95.22-1.4.27-.95.56-1.89.69-2.87.35-.25.09-.69.33-1.01.2-.26.19-.67.28-1.01.09-.34.19-.68.31-1.01.12-.33.22-.67.33-1,.11-.33.21-.67.34-1,.42-1.11.95-2.18,1.38-3.29.6-1.52,1.38-2.94,2.12-4.38.5-.97,1.12-1.87,1.65-2.83.7-1.25,1.52-2.43,2.36-3.58.44-.6.84-1.24,1.31-1.82.81-1.01,1.58-2.06,2.45-3.03.32-.36.64-.72.95-1.09,1.01-1.23,2.16-2.34,3.29-3.46.97-.95,1.94-1.9,2.97-2.78,1.24-1.07,2.5-2.11,3.8-3.1,1.88-1.41,3.81-2.76,5.79-4.02,1.01-.64,2.03-1.28,3.09-1.85,1.81-.98,3.6-2.02,5.48-2.87,1.58-.71,3.15-1.43,4.76-2.07,1.13-.45,2.27-.88,3.4-1.31,1-.38,2.02-.85,3.12-.94,1.23-.62,2.64-.63,3.88-1.21.62,0,1.19-.22,1.78-.37.77-.2,1.58-.22,2.33-.53.52.13.99-.18,1.51-.19.3,0,.59-.11.89-.16.3-.05.64.14.89-.17.01-.01.06,0,.09,0,.71-.06,1.43-.05,2.12-.19.88-.18,1.79-.02,2.64-.19,1.07-.21,2.12-.09,3.18-.14.79-.03,1.58.03,2.37-.01,1.21-.06,2.4.29,3.61.2.3-.02.64.15.98.17.33.01.65-.08,1,.13.25.16.7-.03,1.03.04.68.15,1.38.2,2.05.36.66.16,1.38.13,1.98.5.87,0,1.67.33,2.5.53.39.1.78.23,1.17.35.75.22,1.52.4,2.25.7,1.02.42,2.07.77,3.09,1.21,1.1.47,2.16,1,3.22,1.55,1.34.69,2.64,1.43,3.87,2.3,1.1.78,2.17,1.59,3.21,2.45,1.23,1.03,2.34,2.17,3.43,3.32,1.12,1.17,2.07,2.5,2.96,3.85.83,1.25,1.56,2.55,2.19,3.91.36.78.71,1.58.98,2.4.23.69.51,1.37.72,2.07.18.6.29,1.22.49,1.81.11.34.07.75.26,1.03.23.34-.03.71.25,1.05.2.24.04.68.17,1.06.19.54.15,1.17.21,1.76.08.79.22,1.58.18,2.38-.04.79,0,1.58,0,2.37ZM180.56,123.37c0,.73-.16,1.51.04,2.18.21.69-.08,1.42.31,2.06-.07.74.21,1.44.42,2.11.35,1.16.71,2.33,1.39,3.37.43.65.85,1.31,1.37,1.88.74.81,1.66,1.36,2.65,1.85.96.48,1.97.64,2.98.83.59.11,1.23.07,1.84,0,.6-.06,1.2-.12,1.79-.32.3-.1.66-.02.98-.18.27-.14.62-.12.87-.22.3-.12.62-.21.91-.35,1.68-.79,3.26-1.76,4.62-3.03,1.02-.96,1.99-1.97,2.81-3.12.72-1.01,1.45-2.02,2.01-3.12.62-1.2,1.31-2.37,1.76-3.65.22-.64.6-1.22.78-1.87.18-.66.43-1.29.61-1.95.42-1.5,1-2.95,1.16-4.51.43-.88.43-1.86.68-2.78.22-.83.29-1.71.34-2.57.05-.8.24-1.58.22-2.38-.02-.85,0-1.69,0-2.54,0-.12.05-.26,0-.35-.22-.34-.21-.72-.15-1.07.06-.39-.19-.7-.19-1.07.01-.73-.26-1.41-.46-2.09-.24-.86-.62-1.67-1.04-2.46-.7-1.33-1.59-2.5-2.84-3.37-1.56-1.07-3.26-1.7-5.17-1.71-.8,0-1.59-.09-2.39.14-.41.12-.86.18-1.28.31-1.17.37-2.28.83-3.34,1.46-1.07.64-2.14,1.3-3.05,2.14-1.46,1.35-2.93,2.71-4.03,4.37-1.11,1.68-2.21,3.36-3.01,5.23-.5,1.17-.98,2.34-1.41,3.54-.45,1.25-.74,2.56-1.11,3.84-.13.45-.01,1-.22,1.4-.24.48.04,1.03-.32,1.45-.1.83-.26,1.66-.31,2.49-.05.91-.24,1.81-.22,2.73.01.44,0,.88,0,1.31Z"/>
      <path class="cls-1" d="M163.61,68.42c-.44.57-.8,1.07-1.2,1.54-.69.83-1.44,1.62-2.1,2.47-.48.63-1,1.22-1.5,1.83-.64.78-1.23,1.6-1.87,2.38-.41.51-.89.97-1.29,1.49-.38.49-.81.93-1.14,1.45-.28.45-.69.83-1.04,1.24-.7.82-1.44,1.61-2.1,2.47-.78,1.01-1.61,1.96-2.41,2.95-.77.94-1.53,1.88-2.31,2.81-.84.99-1.67,1.99-2.48,3.01-.54.69-1.09,1.37-1.67,2.03-.66.76-1.24,1.59-1.87,2.37-.37.47-.81.88-1.17,1.36-.62.83-1.39,1.54-1.94,2.44-.28.45-.69.83-1.04,1.24-.7.82-1.44,1.61-2.1,2.46-.8,1.03-1.65,2-2.47,3.01-.74.92-1.49,1.83-2.25,2.74-.83,1-1.65,2-2.48,3-.83,1-1.68,1.98-2.47,3.01-.48.63-.99,1.23-1.51,1.82-.24.28-.28.53-.1.84.62,1.11,1.1,2.3,1.78,3.39.64,1.03,1.08,2.18,1.63,3.26,1.44,2.82,2.89,5.64,4.34,8.46,1.07,2.07,2.13,4.14,3.2,6.21,1.1,2.14,2.22,4.28,3.31,6.43,1.07,2.1,2.04,4.25,3.21,6.3,1.19,2.08,2.16,4.26,3.3,6.36,1.06,1.95,1.95,3.99,3.02,5.93.52.95,1.03,1.9,1.52,2.86-.3.24-.66.24-1.04.23-.5-.01-1.01-.09-1.49.02-.85.19-1.73.03-2.56.19-.83.16-1.67.02-2.47.16-.89.16-1.79.03-2.64.19-.81.15-1.59.11-2.39.13-.46.01-.86.26-1.33.2-.46-.06-.97-.12-1.39.01-.77.24-1.54.08-2.3.15-.47.04-.94.14-1.42.17-.47.03-.97-.11-1.39.03-.66.22-1.31.09-1.95.15-1.03.1-2.05.25-3.09.17-.78.32-1.59.15-2.38.17-.46.01-.86.26-1.33.2-.46-.06-.97-.12-1.39.01-.74.23-1.49.03-2.21.17-.94.18-1.9.04-2.82.19-.77.13-1.55.02-2.3.16-.94.18-1.9.03-2.82.19-.75.13-1.48.09-2.21.14-.27.02-.43-.09-.54-.32-.21-.44-.43-.88-.66-1.31-1.31-2.46-2.49-5-3.8-7.45-1.27-2.37-2.37-4.82-3.66-7.16-1.24-2.26-2.29-4.62-3.53-6.87-1.23-2.23-2.33-4.53-3.46-6.81-.28-.56-.64-1.08-.96-1.62-.13.75-.23,1.54-.42,2.31-.27,1.07-.29,2.18-.69,3.22.08.46-.1.89-.17,1.33-.06.38-.05.8-.2,1.15-.16.39-.15.77-.16,1.16-.4.27-.08.73-.31,1.1-.23.37-.14.93-.22,1.39-.12.71-.21,1.43-.41,2.11-.12.4-.12.81-.26,1.2-.15.44-.04.98-.23,1.4-.19.42-.02.89-.3,1.28-.11.15,0,.46-.03.69-.02.18-.13.36-.16.54-.07.38-.05.8-.2,1.15-.17.42,0,.92-.2,1.22-.24.37-.05.76-.27,1.13-.22.38-.12.93-.22,1.39-.16.72-.27,1.46-.45,2.18-.12.45-.1.93-.23,1.4-.1.37-.06.79-.2,1.14-.16.39,0,.86-.19,1.14-.25.37.03.78-.29,1.13-.17.19-.01.56-.17.89-.19.41-.16.93-.22,1.39-.68.33-1.4.23-2.1.25-1.09.03-2.17.27-3.26.17-.69.31-1.41.11-2.12.18-.5.05-1,.14-1.51.17-.5.03-1.03-.11-1.48.03-.6.19-1.19.12-1.78.14-1.09.05-2.16.29-3.26.18-.74.33-1.55.04-2.29.19-.91.19-1.84.03-2.73.19-.8.15-1.61.01-2.38.17-.92.18-1.85.01-2.73.18-.78.15-1.55.02-2.3.16-.94.19-1.91.01-2.82.19-.78.15-1.55,0-2.3.16-.91.19-1.84.02-2.73.19-.83.15-1.65.1-2.48.15-.15,0-.3.08-.51.14.07-.53.01-1.11.23-1.56.23-.48-.05-1.03.32-1.45,0-.82.43-1.57.35-2.4.32-.65.24-1.39.5-2.07.14-.37.05-.82.18-1.24.18-.57.29-1.18.36-1.78.06-.58.28-1.14.33-1.7.07-.81.3-1.59.42-2.39.11-.72.21-1.45.45-2.17.13-.39.11-.88.21-1.32.08-.38.05-.8.2-1.15.16-.39,0-.87.19-1.14.25-.37.05-.76.28-1.13.23-.37.15-.92.21-1.4.06-.41.09-.83.21-1.23.16-.53.23-1.08.33-1.62.13-.73.24-1.46.46-2.17.06-.21.02-.46.06-.68.04-.21.13-.42.17-.63.07-.41,0-.9.21-1.22.25-.39.04-.82.29-1.21.18-.29-.05-.78.21-1.13-.02-.82.27-1.59.39-2.39.11-.68.18-1.4.46-2.08.14-.34-.06-.79.2-1.15-.02-.82.27-1.59.39-2.39.11-.68.18-1.41.46-2.08.14-.34.11-.77.16-1.15.1-.8.3-1.59.43-2.39.11-.68.18-1.41.46-2.08.14-.34.02-.76.18-1.15.16-.41.03-.94.23-1.31.22-.42-.03-.92.32-1.27-.08-.83.23-1.6.38-2.39.2-1.08.29-2.18.67-3.22-.08-.83.23-1.6.38-2.39.2-1.08.28-2.18.67-3.22-.08-.83.23-1.6.38-2.39.21-1.08.31-2.17.66-3.23.15-.44.09-.95.2-1.41.18-.72.28-1.45.46-2.17.11-.45.14-.93.23-1.4.08-.38.05-.8.2-1.15.17-.39,0-.87.19-1.14.26-.37.07-.75.28-1.13.23-.41.13-.99.22-1.48.12-.65.35-1.28.34-1.96.4-.38-.04-.97.35-1.35-.02-.82.27-1.59.39-2.39.11-.68.18-1.4.46-2.08.14-.34.02-.76.18-1.15.16-.4.03-.93.23-1.31.22-.42,0-.89.3-1.29.11-.15,0-.46.03-.69.02-.18.13-.36.16-.54.07-.38.05-.8.2-1.15.18-.42,0-.91.2-1.22.24-.37.05-.75.27-1.13.22-.38.12-.93.22-1.39.16-.72.25-1.46.46-2.17.07-.24.06-.51.08-.77.62-.32,1.31-.26,1.99-.24.57.02,1.12-.12,1.68-.17.55-.05,1.14.11,1.66-.04.78-.22,1.54-.08,2.3-.15.47-.04.94-.14,1.42-.17.5-.03,1.02.1,1.48-.03.83-.23,1.67-.02,2.47-.17.94-.18,1.9-.02,2.82-.19.78-.14,1.55-.01,2.3-.16.92-.18,1.85-.02,2.73-.19.86-.16,1.73,0,2.56-.17.92-.18,1.85-.01,2.73-.18.78-.15,1.54-.17,2.3-.13,1.78.1,3.48.44,4.98,1.54.47.35.92.73,1.24,1.17.28.39.66.73.79,1.24.12.46.39.89.61,1.32.13.25-.08.59.23.78.06.56.11,1.12.18,1.68.05.42.18.83.16,1.24-.02.59.12,1.18-.13,1.78-.21.51.13,1.14-.21,1.67.06.8-.3,1.53-.36,2.31-.03.36-.2.69-.19,1.07,0,.38-.03.82-.23,1.12-.23.34,0,.7-.25,1.05-.19.27-.13.75-.18,1.13-.1.8-.45,1.57-.39,2.39-.23.3-.04.74-.2.96-.26.34.01.74-.25,1.05-.23.26.12.7-.24.95.06.46-.09.89-.17,1.33-.18,1.07-.49,2.11-.54,3.2,0,.12-.13.23-.21.35.23.16.29-.05.35-.13.28-.37.53-.78.82-1.15.75-.97,1.5-1.95,2.26-2.91.52-.66,1.02-1.35,1.58-1.99.72-.83,1.43-1.67,2.03-2.58.26-.4.65-.67.86-1.13.18-.4.56-.7.84-1.05.67-.83,1.34-1.66,1.98-2.51.57-.76,1.17-1.5,1.73-2.27.66-.9,1.37-1.76,2.03-2.65.48-.65,1-1.29,1.51-1.93.74-.91,1.42-1.86,2.14-2.79.27-.36.56-.7.85-1.05.72-.9,1.5-1.76,2.16-2.71.62-.89,1.34-1.7,1.96-2.59.41-.59.91-1.14,1.35-1.73.09-.12.27-.26.41-.27.74,0,1.46-.3,2.21-.19.23.03.47,0,.7,0,.46.03.86-.25,1.34-.19.46.06.97.12,1.39-.01.8-.25,1.61-.02,2.39-.17.88-.17,1.79-.03,2.64-.19.83-.15,1.67-.02,2.47-.16.89-.16,1.79-.03,2.64-.19.78-.15,1.55,0,2.3-.16.94-.19,1.91-.02,2.82-.19.75-.14,1.49-.02,2.21-.16.94-.18,1.9-.04,2.82-.19.8-.13,1.61-.01,2.38-.17.89-.18,1.79-.02,2.65-.18.83-.15,1.67-.02,2.47-.17.89-.18,1.79,0,2.65-.18.83-.16,1.67,0,2.47-.17.86-.18,1.72-.03,2.56-.17.65-.11,1.28-.17,2.06-.14Z"/>
      <path class="cls-1" d="M38.51,77.52c.43,0,.72-.03,1.01,0,.48.05.95-.11,1.44.13.39.19.91-.1,1.31.22,1.57.15,3,.77,4.41,1.41.8.36,1.52.88,2.22,1.42.31.24.63.48.92.75,1.31,1.21,2.24,2.69,3,4.28.45.94.81,1.91.88,2.96.4.51.07,1.14.3,1.72.2.5.07,1.15.05,1.73-.02.36-.11.71-.17,1.07-.06.35.07.7-.14,1.08-.17.3-.08.75-.18,1.14-.32,1.24-.75,2.43-1.23,3.61-.59,1.49-1.47,2.79-2.32,4.12-.47.73-1.08,1.37-1.64,2.04-.31.37-.65.7-.95,1.09-.3.4-.8.64-1.14,1.01-.92,1.02-2.13,1.68-3.14,2.59-.75.23-1.26.84-1.98,1.14-.54.22-1.02.61-1.57.86-.84.37-1.7.7-2.54,1.06-.76.33-1.55.47-2.31.77-.33.13-.69.18-1.03.25-.3.07-.59.13-.89.17-.27.04-.58-.07-.81.18-.01.01-.06,0-.09,0-.76.06-1.53.14-2.29.17-.76.03-1.53.09-2.28-.02-.83-.11-1.68-.14-2.48-.36-.75-.21-1.54-.34-2.26-.67-.81-.37-1.65-.67-2.43-1.12-1.19-.69-2.23-1.52-3.17-2.5-.8-.83-1.4-1.77-1.95-2.78-.61-1.14-.97-2.35-1.34-3.56-.18-.58-.16-1.23-.19-1.85-.03-.64,0-1.28,0-1.93,0-.38-.09-.79.02-1.13.12-.36.04-.76.18-1.06.16-.33,0-.75.32-1.01.44-2.48,1.18-3.72,2.3-5.79.48-.89,1.1-1.71,1.69-2.54.88-1.24,1.92-2.35,3.04-3.38.8-.74,1.68-1.4,2.55-2.07,1.12-.86,2.33-1.54,3.55-2.23,1.35-.76,2.78-1.34,4.24-1.82.77-.25,1.57-.47,2.36-.66.39-.09.81-.05,1.15-.18.37-.14.74-.05,1.07-.16.88-.28,1.77-.1,2.51-.16Z"/>
      <path class="cls-1" d="M239.71,22.83c1.1-.01,2.09-.31,3.1-.19.6-.31,1.24-.09,1.86-.18.91-.14,1.82-.2,2.74-.17.5-.31,1.06-.12,1.59-.18.44-.05.89-.14,1.33-.17.47-.03.97.1,1.4-.03.77-.25,1.53-.08,2.33-.16-.12.59-.14,1.17-.35,1.68-.27.65-.26,1.34-.49,1.99-.2.59-.33,1.21-.47,1.82-.13.62-.26,1.24-.42,1.85-.36,1.37-.61,2.77-1,4.14-.16.57-.26,1.18-.4,1.77-.14.59-.18,1.21-.37,1.78-.19.57-.34,1.16-.46,1.73-.17.81-.36,1.61-.57,2.4-.16.61-.16,1.27-.38,1.86-.21.57-.31,1.16-.46,1.73-.15.57-.27,1.18-.4,1.77-.06.3-.12.59-.17.89-.05.27-.21.37-.48.38-.91.02-1.82.15-2.73.21-.85.06-1.74,0-2.55.18-.78.17-1.52.05-2.3.15,1.57-6.41,3.12-12.74,4.67-19.08,0,0-.05-.05-.1-.05-1.03-.01-1.02,0-1.6.86-.5.73-1.01,1.46-1.54,2.17-1.11,1.49-2.14,3.04-3.27,4.52-.79,1.03-1.45,2.15-2.2,3.2-.69.98-1.44,1.92-2.15,2.88-.41.56-.78,1.14-1.18,1.7-.59.84-1.2,1.66-1.8,2.5-.36.52-.68,1.07-1.06,1.57-.37.48-.84.82-1.53.76-1.21-.11-2.4.29-3.61.17-.54.29-1.12.14-1.68.18-.32.02-.44-.14-.5-.45-.16-.72-.36-1.43-.56-2.13-.29-.99-.58-1.98-.85-2.98-.17-.63-.31-1.28-.53-1.88-.19-.51-.36-1.04-.47-1.55-.11-.51-.32-.99-.42-1.51-.12-.6-.32-1.21-.5-1.8-.37-1.22-.84-2.42-1.05-3.69-.39-.61-.3-1.38-.69-1.99-.05-.08,0-.23,0-.34-.41-.31-.74.15-1.13.11-.08,0-.26.19-.26.3,0,.65-.29,1.24-.39,1.87-.14.83-.33,1.67-.54,2.49-.17.63-.33,1.28-.45,1.91-.12.65-.41,1.27-.4,1.94-.35.29-.05.74-.3,1.11-.2.29-.11.76-.21,1.13-.22.82-.36,1.66-.56,2.49-.16.66-.3,1.33-.47,1.99-.29,1.09-.5,2.2-.71,3.3-.09.49-.51.55-.84.74-.04.03-.12,0-.17,0-1.21-.13-2.4.24-3.61.19-.41-.02-.83.13-1.24.16-.44.03-.88-.02-1.31.02-.27.02-.52.15-.85.25-.03-.35-.15-.62.12-.86-.01-.68.34-1.28.39-1.95.04-.54.22-1.08.38-1.59.21-.66.3-1.33.46-2,.13-.56.27-1.12.41-1.68.16-.66.27-1.34.47-1.99.36-1.12.53-2.29.83-3.42.16-.6.26-1.24.42-1.85.3-1.14.44-2.31.83-3.42.09-.27.17-.59.19-.88.02-.28.1-.54.18-.81.16-.58.18-1.21.38-1.77.23-.65.25-1.34.5-1.98.17-.46.25-.95.36-1.43.06-.24.17-.43.45-.4,1.1.13,2.17-.23,3.26-.19.44.02.89-.13,1.33-.16.44-.03.91.09,1.31-.03.74-.22,1.49-.03,2.21-.18.74-.15,1.5-.02,2.21-.18.75-.17,1.48-.08,2.22-.15.24-.02.48-.14.72-.16.26-.03.52,0,.81,0,.11.94.43,1.82.62,2.73.14.66.25,1.34.48,1.99.21.59.32,1.21.47,1.82.15.58.25,1.18.4,1.76.37,1.43.64,2.88,1.04,4.3.22.79.32,1.61.55,2.41.08.26.15.52.23.82,3.94-5.69,7.66-11.46,11.54-17.04Z"/>
      <path class="cls-1" d="M151.3,45.92c-.59.12-1.12-.13-1.59.21-.04.03-.11,0-.17,0-1.17.06-2.35.11-3.52.18-.42.03-.83.14-1.24.16-.44.03-.91-.1-1.31.03-.83.27-1.65.07-2.56.18.06-.38.05-.76.19-1.06.21-.44.16-.91.32-1.36.2-.57.21-1.2.43-1.75.1-.26.03-.51.13-.74.07-.15.26-.37.38-.36.75.05,1.47-.18,2.21-.18,1.15,0,2.28-.32,3.44-.19.69-.31,1.41-.15,2.12-.17.4-.01.74-.26,1.16-.19.37.06.79.11,1.13,0,.68-.24,1.38-.04,2.04-.17.8-.16,1.61-.03,2.38-.19.63-.14,1.25-.08,1.86-.14.25-.02.48.05.74-.13.17-.12.49-.02.73-.02.19.55,0,1.05-.14,1.51-.22.65-.32,1.33-.48,1.99-.19.8-.44,1.58-.61,2.39-.23,1.11-.62,2.19-1,3.26-.3.85-.72,1.63-1.25,2.38-.97,1.38-2.31,2.22-3.8,2.89-.72.32-1.49.53-2.27.66-.19.03-.36.12-.54.17-.62.15-1.25.22-1.88.32-.41.06-.81.22-1.24.21-.39,0-.8-.07-1.16.17-.02.01-.06,0-.09,0-.88.06-1.78.04-2.64.2-.74.13-1.5.03-2.21.18-.69.15-1.38.02-2.03.17-.83.19-1.67,0-2.47.18-1.15.24-2.31,0-3.44.17-.83.13-1.65.14-2.47.15-.71,0-1.4-.18-2.12-.21-.66-.02-1.35-.25-1.97-.51-.97-.4-1.77-1.05-2.1-2.1-.12-.37-.23-.75-.19-1.15.04-.38.02-.76,0-1.14-.02-.88.18-1.72.32-2.58.12-.74.28-1.47.41-2.21.14-.83.31-1.68.55-2.49.24-.78.45-1.57.63-2.36.3-1.36.7-2.69,1.16-3.99.41-1.15.95-2.25,1.66-3.26.71-1.02,1.81-1.95,2.87-2.56.79-.45,1.65-.67,2.49-.99.34-.13.76-.19,1.14-.21.45-.02.86-.31,1.33-.19.33-.42.92.07,1.26-.35.45-.01.88-.04,1.34-.15.68-.16,1.41-.16,2.11-.19.42-.02.8-.26,1.24-.2.38.05.8.11,1.15-.16.02-.01.06,0,.09,0,1.09-.06,2.17-.11,3.26-.18.53-.04,1.06-.14,1.59-.16.52-.03,1.08.1,1.57-.03.97-.26,1.95-.11,2.92-.15.96-.03,1.94-.1,2.89.02,1.01.12,2.05.16,3.03.5.58.2,1.12.48,1.55.89.41.39.67.95.79,1.5.12.53-.02,1.11.04,1.66.06.56-.15,1.06-.2,1.59-.05.49-.15.97-.31,1.45-.08.23-.04.51-.05.74-.85.32-1.72.14-2.55.27-.74.11-1.5.03-2.21.18-.75.16-1.48.09-2.21.15-.35.03-.69.13-1.1.21.07-.48-.03-.85.18-1.25.18-.34-.17-.93-.57-1.03-.37-.1-.73-.24-1.14-.23-.96.03-1.93,0-2.89.02-.47.01-.94.13-1.42.16-.47.03-.97-.1-1.4.03-.74.23-1.48.08-2.21.16-.39.04-.75.21-1.16.18-.39-.03-.79-.07-1.16.16-.06.04-.17,0-.26,0-.71.06-1.42.07-2.12.19-.64.11-1.27.31-1.89.52-.53.18-.96.49-1.36.95-.82.95-1.06,2.08-1.36,3.22-.12.45-.4.85-.35,1.35-.25.16-.15.41-.18.63-.03.21-.13.42-.17.63-.16.95-.36,1.9-.57,2.84-.14.64-.11,1.25-.13,1.86-.02.67.48,1.11,1.15,1.34.6.2,1.21.24,1.77.13,1.06-.22,2.14,0,3.17-.18.86-.14,1.73-.01,2.56-.18.69-.14,1.36-.08,2.04-.15.39-.04.75-.21,1.16-.18.39.03.77.03,1.16-.15.24-.11.59.03.87-.03.84-.17,1.68-.2,2.52-.46,1.05-.33,1.53-1.01,1.84-1.94.13-.39.24-.78.39-1.3Z"/>
      <path class="cls-1" d="M87.24,39.73c-.07.82-.08,1.65-.22,2.46-.12.68-.2,1.37-.36,2.04-.15.66-.13,1.37-.5,1.98,0,.87-.33,1.67-.53,2.5-.26,1.03-.52,2.06-.8,3.08-.23.84-.5,1.66-.78,2.49-.4,1.19-.88,2.36-1.63,3.35-.59.79-1.35,1.47-2.21,2.01-1.17.74-2.68,1.17-3.8,1.43-.83.19-1.7.18-2.51.49-.03,0-.06,0-.09,0-.77.06-1.53.13-2.3.17-.4.02-.74.24-1.16.2-.38-.03-.81-.18-1.16.15-.03.03-.11,0-.17,0-1,.06-2,.11-3,.18-.45.03-.89.13-1.33.16-.44.03-.92-.11-1.31.03-.6.23-1.19.09-1.78.15-.71.06-1.41.14-2.12.17-.73.03-1.49-.12-2.19.04-1.04.23-2.06.14-3.09.13-1.02,0-2.04-.17-3.03-.5-1.24-.42-1.9-1.28-2.24-2.52-.23-.83-.18-1.66-.12-2.47.03-.4.14-.82.14-1.24,0-.42.12-.84.21-1.24.22-.99.22-2.03.67-2.96,0-.87.33-1.67.53-2.5.26-1.03.52-2.06.8-3.08.23-.84.5-1.66.78-2.49.4-1.19.86-2.38,1.63-3.35,1.14-1.45,2.58-2.55,4.42-3.06.77-.22,1.54-.4,2.32-.55.42-.08.86-.04,1.24-.17.43-.15.83-.15,1.25-.14.34,0,.61-.25.98-.2.29.04.64.14.89-.15.02-.03.11,0,.17,0,.97-.06,1.94-.13,2.91-.17.45-.02.86-.25,1.33-.2.41.04.86.13,1.24-.15.04-.03.11,0,.17,0,1.26-.06,2.52-.13,3.79-.17.6-.02,1.16-.25,1.77-.19.58.06,1.2.13,1.75-.02.83-.23,1.65-.11,2.48-.14.82-.03,1.64-.05,2.45,0,.57.04,1.15.17,1.69.35.51.17,1.01.41,1.46.71.62.42.85,1.14,1.14,1.8.23.52.16,1.06.2,1.6ZM57.59,54.85c.32.21.49.65.95.78.24.07,2.14.39,2.29.27.19-.16.38-.1.57-.12,1.12-.07,2.23.09,3.35-.15.8-.17,1.64,0,2.47-.18.65-.15,1.35,0,2.03-.17.56-.14,1.18-.1,1.77-.17.87-.09,1.73-.2,2.57-.4.83-.2,1.63-.5,2.24-1.15.89-.96,1.23-2.18,1.54-3.39.16-.61.38-1.21.4-1.86.01-.34.22-.66.31-1,.09-.35.12-.71.18-1.07s.14-.71.17-1.07c.03-.38-.02-.76.01-1.14.03-.38-.1-.73-.27-1.03-.19-.33-.56-.48-.98-.58-.27-.07-.53-.16-.81-.14-1,.06-2-.12-3,.15-.46.12-.99,0-1.48.03-.5.03-1,.13-1.51.16-1.09.07-2.17.12-3.26.18-.03,0-.07-.01-.09,0-.35.27-.77.19-1.16.16-.41-.03-.77.17-1.16.17-.88,0-1.73.2-2.57.38-.93.19-1.77.68-2.27,1.46-.62.98-1.02,2.09-1.28,3.23-.18.8-.39,1.6-.57,2.4-.21.92-.54,1.82-.46,2.77.02.25-.24.4-.1.68.11.21.07.5.1.79Z"/>
      <path class="cls-1" d="M376.35,37.37c.07-.48.07-.91.22-1.29.35-.9.42-1.87.69-2.78.39-1.34.61-2.72,1-4.06.17-.57.23-1.18.4-1.76.14-.47.28-.95.34-1.43.06-.47.19-.91.32-1.36.13-.47.28-.96.35-1.43.13-.85.36-1.66.57-2.49.23-.93.31-1.89.7-2.78.01-1.23.57-2.35.73-3.56.11-.88.45-1.74.68-2.61.06-.24.17-.44.44-.41,1.13.12,2.22-.24,3.35-.19.47.02.94-.13,1.42-.16.47-.03.97.11,1.39-.03.6-.2,1.19-.1,1.78-.15.45-.04.89-.14,1.33-.17.44-.03.92.11,1.3-.03.57-.22,1.13-.16,1.69-.13.47.02.87-.22,1.33-.2.44.02.91.11,1.31-.02.68-.22,1.36-.1,2.04-.16.39-.03.77-.14,1.16-.16.41-.03.86.1,1.22-.03.65-.24,1.3-.13,1.95-.14.66-.01,1.27-.27,1.95-.2.64.06,1.3.09,1.92-.02.3-.05.55.07.83.04.29-.03.58,0,.88,0,.32,0,.66-.07.96.01.66.17,1.33.3,1.98.52.84.29,1.74,1.32,2.06,2.33.27.85.52,2.58.32,3.27-.1.37-.12.71-.15,1.07-.03.36-.08.72-.18,1.07-.28.95-.28,1.96-.69,2.87.04.68-.34,1.28-.37,1.96-.02.45-.23.9-.36,1.34-.28.93-.48,1.89-.84,2.8-.54,1.37-1.13,2.7-1.95,3.93-1.07,1.59-2.57,2.67-4.3,3.36-.92.37-1.93.61-2.94.75-.41.06-.87.05-1.23.19-.41.16-.83,0-1.16.16-.42.21-.84.11-1.25.16-.36.04-.71.14-1.07.17-.38.03-.8-.1-1.13.03-.62.23-1.25.08-1.86.16-.85.12-1.7.22-2.56.17-.53.32-1.12.19-1.68.16-.47-.03-.87.22-1.33.2-.47-.02-.98-.12-1.39.02-.55.19-1.07.09-1.6.15-.47.05-.94.14-1.42.17-.5.03-1.03-.11-1.48.03-.63.2-1.26.03-1.86.16-.82.18-1.67.04-2.47.19-.69.13-1.36.1-2.04.15-.18.01-.36.13-.54.16-.2.03-.41,0-.73,0ZM385.83,29.97c.48.06.87,0,1.29-.12.38-.11.81,0,1.22-.03.42-.03.83-.12,1.24-.17.65-.07,1.29.07,1.95-.15.42-.14.93,0,1.39-.03.47-.03.95-.17,1.42-.16,1.07.03,2.1-.32,3.17-.19.03,0,.07.01.09,0,.35-.27.77-.21,1.15-.16.45.06.82-.21,1.24-.19.71.03,1.38-.17,2.04-.37.74-.22,1.47-.53,1.96-1.2.63-.87,1.03-1.86,1.3-2.88.16-.58.25-1.2.42-1.76.18-.6.14-1.26.48-1.81-.11-.41.17-.76.17-1.15,0-.55.01-1.11,0-1.67-.01-.57-.68-1.39-1.23-1.42-.62-.04-1.22-.3-1.86-.19-.33.06-.65.14-.98.17-.91.07-1.82-.06-2.74.15-.68.16-1.4.04-2.12.17-.77.14-1.58.03-2.38.19-.69.14-1.43-.12-2.12.19-1.1-.13-2.17.25-3.26.18-.26-.02-.52,0-.83,0-.07.26-.14.52-.21.78-.15.59-.23,1.2-.4,1.77-.4,1.37-.62,2.77-1.02,4.13-.19.66-.34,1.33-.47,1.99-.17.89-.54,1.74-.59,2.66-.02.4-.22.78-.36,1.26Z"/>
      <path class="cls-1" d="M300.63,34.88c-.06.31-.07.54-.15.74-.37.97.4,2.04,1.41,1.93.4-.04.82-.03,1.23,0,.52.03.98-.27,1.51-.19.49.07,1.03.12,1.48-.01.69-.21,1.38-.03,2.04-.17.8-.16,1.61-.04,2.38-.19.57-.11,1.14-.03,1.69-.16.97-.22,2-.07,2.95-.5.54-.24.92-.5,1.18-.93.33-.53.32-1.15.55-1.7.08-.18-.24-.8-.42-.87-.26-.09-.53-.17-.8-.19-.58-.03-1.19-.11-1.75.01-1.29.29-2.6-.01-3.88.18-1.73.26-3.47-.01-5.19.19-1.07.12-2.12.11-3.18.14-1.05.02-2.11.05-3.16,0-1.09-.06-2.14-.33-2.92-1.19-.34-.37-.51-.82-.66-1.31-.23-.74-.11-1.48-.15-2.21-.02-.36.26-.67.18-1.07-.07-.33.2-.62.19-.98,0-.33.2-.67.3-1.01.09-.31.16-.64.25-.95.26-.83.61-1.62,1.01-2.38.76-1.43,1.8-2.58,3.31-3.28,1.07-.5,2.15-.95,3.34-1.04.38-.28.87-.05,1.23-.2.43-.18.84-.11,1.25-.15.33-.03.62-.24.98-.19.3.04.63.1.89-.16.01-.01.06,0,.09,0,.84.13,1.64-.19,2.47-.18.94.02,1.87-.3,2.82-.17.74-.33,1.55-.04,2.29-.19,1.23-.26,2.47-.09,3.7-.16.3-.02.6-.16.89-.16.94.02,1.87.26,2.82.17.7.29,1.47.36,2.17.69.72.33,1.12.9,1.36,1.59.11.33.26.67.21,1.06-.06.43,0,.88-.02,1.31-.03.42-.08.83-.18,1.24-.12.51-.34.99-.36,1.52,0,.11-.22.26-.36.3-.35.09-.68.23-1.07.2-1.18-.11-2.34.3-3.52.17-.66.28-1.35.13-2.03.18-.27.02-.53.12-.8.19-.36-.59.26-1.1.01-1.74-.15-.13-.37-.32-.65-.56-1.18,0-2.47-.09-3.74.03-.83.08-1.67.02-2.47.18-.69.14-1.36.08-2.04.15-.39.04-.75.21-1.16.18-.39-.03-.78.1-1.16.12-.54.04-1.06.18-1.59.23-1.53.13-2.37,1.19-2.41,2.58-.01.39.22.6.49.73.26.13.59.17.89.18.73.02,1.48.11,2.19-.01,1.41-.25,2.84.01,4.22-.18,1.33-.19,2.66.03,3.96-.17,1.59-.25,3.17-.07,4.76-.14.44-.02.88,0,1.32,0,.42,0,.83.14,1.24.21.6.1,1.2.36,1.72.69.39.25.79.66.91,1.09.25.85.73,1.72.26,2.66-.06.12-.05.3,0,.43.13.47-.18.88-.19,1.33,0,.41-.22.79-.29,1.19-.15.84-.48,1.61-.75,2.41-.36,1.09-1.14,2.39-1.86,3.18-.8.86-1.72,1.49-2.8,1.92-.76.3-1.53.57-2.35.68-.27.04-.53.13-.81.17-.25.04-.52-.06-.72.18-.02.03-.11,0-.17,0-.74.06-1.49.04-2.2.2-.63.14-1.26.05-1.86.18-.68.14-1.38.03-2.03.18-.72.17-1.45,0-2.12.17-.72.19-1.44.02-2.12.17-1.03.22-2.08,0-3.08.19-1.36.25-2.71.03-4.05.16-.59.05-1.11-.22-1.68-.19-.54.03-1.03-.18-1.52-.36-.75-.26-1.52-.52-1.88-1.34-.09-.2-.22-.39-.24-.6-.06-.61-.55-1.2-.09-1.85.06-.08.02-.23,0-.35-.06-.85.3-1.64.39-2.47.01-.13.12-.25.13-.38.09-.72.08-.7.74-.74.45-.02.89-.13,1.33-.16.44-.03.91.09,1.31-.03.71-.21,1.45,0,2.12-.18.78-.2,1.54-.08,2.45-.18Z"/>
      <path class="cls-1" d="M117.41,48.01c.39.04.76.14,1.14.22,1.11.23,1.77,1.07,1.82,2.1.05,1.1-.2,2.16-.46,3.22-.15.61-.3,1.23-.4,1.85-.12.76-.34,1.49-.56,2.26-.39.07-.79.18-1.2.22-.41.04-.82-.01-1.23.01-.39.03-.77.13-1.16.16-.41.03-.85-.1-1.22.03-.71.24-1.42.09-2.13.16-.29.03-.58.12-.92.2,0-.29-.01-.5.07-.77.2-.62.27-1.29.43-1.93.14-.53.12-1.09.31-1.62.17-.46-.01-.96-.17-1.4-.08-.24-.34-.44-.65-.51-.16-.03-.32-.11-.48-.11-.53-.01-1.05-.03-1.58,0-.45.03-.89.13-1.33.16-.44.03-.91-.1-1.31.03-.68.22-1.38.04-2.04.17-.83.17-1.67.04-2.47.19-.69.13-1.38.02-2.03.17-.8.18-1.6.08-2.39.17-.35.04-.7.19-1.08.14-.51,2.14-1.02,4.27-1.54,6.47-.69-.02-1.42.33-2.19.2-.5-.09-.94.2-1.42.19-.5-.01-1.03-.11-1.48.02-.71.21-1.42.09-2.13.16-.24.02-.47.1-.72.16-.29-.43.06-.83.14-1.2.1-.48.16-.97.3-1.44.4-1.33.62-2.71.99-4.06.17-.6.26-1.23.42-1.85.36-1.37.61-2.77,1-4.14.17-.57.27-1.18.39-1.77.23-1.1.47-2.2.73-3.3.21-.87.36-1.76.66-2.61.2-.59.17-1.27.39-1.86.21-.57.19-1.18.49-1.73.13-.25,0-.58.17-.89.17-.29.15-.69.22-1.1.35,0,.7-.05,1.03.01.5.09.94-.2,1.42-.19.5.02,1.03.12,1.48-.02.66-.21,1.31-.09,1.95-.15.42-.04.83-.14,1.24-.17.41-.03.86.1,1.22-.03.6-.22,1.19-.1,1.78-.15.44-.04.89-.14,1.33-.17.44-.03.92.11,1.3-.03.54-.2,1.08-.16,1.6-.13.5.04.94-.21,1.42-.2.5.01,1.03.12,1.48-.02.63-.2,1.26-.04,1.86-.16.85-.18,1.72-.04,2.56-.19.92-.16,1.85,0,2.73-.18,1.07-.22,2.12-.1,3.18-.14.89-.03,1.64.42,2.33.93.33.25.63.55.84.96.18.34.28.65.28,1.03,0,.22-.11.47.13.65.03.02.05.12.03.16-.33.47-.1,1.01-.17,1.51-.06.39-.26.75-.17,1.15-.34.55-.24,1.22-.5,1.81-.24.54-.21,1.19-.39,1.77-.53,1.65-1.23,3.21-2.64,4.34-.53.43-1.82.97-2.77,1.25ZM97.96,46.49c.09,0,.2-.02.31,0,.72.12,1.41-.16,2.12-.19.59-.02,1.2.15,1.77-.17.89.07,1.77-.15,2.64-.16,1.18,0,2.34-.33,3.52-.2.06,0,.14.03.17,0,.38-.33.83-.11,1.25-.17.44-.07.89-.13,1.33-.18.59-.07,1.18-.11,1.77-.18.07,0,.14-.08.21-.12.7-.44,1.33-.93,1.55-1.8.13-.5.34-.97.48-1.46.13-.46-.07-.97.21-1.4-.29-.18-.07-.61-.4-.8-.29-.17-.54-.38-.9-.37-.32,0-.64-.02-.96,0-.33.03-.65.13-.98.16-.76.07-1.52-.03-2.3.15-.76.17-1.58,0-2.38.18-.65.14-1.34.03-2.03.17-.77.15-1.58.06-2.38.18-1.16.17-2.34.14-3.52.2-.02,0-.05.03-.05.03-.47,2.03-.94,4.04-1.42,6.11Z"/>
      <path class="cls-1" d="M191.09,41.85c-.58.1-1.05.2-1.52.24-.46.04-.97-.11-1.39.03-.66.22-1.31.09-1.95.15-.45.04-.89.14-1.33.17-.44.03-.92-.1-1.31.03-.57.2-1.13.1-1.69.15-.45.04-.89.14-1.33.17-.44.03-.91-.1-1.31.03-.65.21-1.32.04-1.95.17-.8.17-1.61.04-2.38.19-.74.14-1.48.1-2.21.15-.42.03-.81.21-1.24.18-.26-.02-.36.19-.39.46-.1.88-.55,1.68-.52,2.59-.27.19-.16.47-.18.78.76-.04,1.52.19,2.27-.15.02-.01.06,0,.09,0,.5,0,1,.06,1.49-.02.44-.07.88-.18,1.33-.16,1.12.05,2.22-.3,3.35-.17.63-.3,1.31-.06,1.94-.19.8-.18,1.61-.04,2.38-.19.69-.13,1.38-.02,2.03-.17.8-.18,1.62-.01,2.38-.18.75-.17,1.48-.08,2.21-.15.21-.02.42-.14.63-.16.23-.03.46,0,.71,0,.21.55-.08,1.04-.18,1.54-.14.67-.36,1.32-.47,2-.09.57-.25,1.12-.39,1.68-.09.34-.21.67-.32,1.04-.39.07-.79.18-1.2.22-.41.04-.82-.01-1.23.01-.42.03-.83.13-1.24.16-.44.03-.91-.1-1.31.03-.65.21-1.32.04-1.95.17-.8.17-1.61.04-2.38.19-.72.13-1.44.01-2.12.17-.75.17-1.5.02-2.21.17-.8.17-1.62.02-2.38.18-.69.15-1.38.01-2.03.17-.77.18-1.55.03-2.3.18-.74.15-1.49.04-2.21.17-.74.14-1.5.03-2.21.18-.75.16-1.49.04-2.21.16-.65.11-1.28.18-1.92.14-.09-.32.05-.56.11-.83.25-1.23.55-2.45.87-3.67.14-.55.22-1.13.38-1.69.14-.47.28-.95.34-1.43.06-.47.19-.91.32-1.36.13-.47.28-.96.35-1.43.12-.85.37-1.66.57-2.49.08-.32.12-.65.18-.98.06-.3.02-.68.2-.87.27-.29-.03-.72.33-.93,0-1.23.57-2.35.73-3.56.1-.75.34-1.49.54-2.23.17-.66.29-1.33.47-1.99.17-.61.42-1.21.38-1.87,0-.11.13-.23.23-.38.38-.07.81-.18,1.25-.22.43-.04.88.01,1.31-.02.42-.03.83-.13,1.24-.16.44-.03.91.1,1.31-.03.65-.21,1.32-.03,1.95-.17.8-.18,1.61-.03,2.38-.19.75-.15,1.49-.02,2.21-.17.74-.15,1.5-.02,2.21-.18.72-.16,1.42-.11,2.13-.14.4-.01.73-.27,1.16-.2.37.06.79.11,1.13,0,.65-.23,1.3-.1,1.95-.16.45-.04.89-.14,1.33-.17.44-.03.91.1,1.31-.03.57-.2,1.13-.07,1.69-.16.91-.15,1.82-.19,2.74-.17.47-.33,1.01-.1,1.55-.21-.48,2.05-.94,4.06-1.42,6.11-.51.3-1.14.24-1.76.23-.97,0-1.93.3-2.91.18-.5.31-1.07.19-1.59.16-.5-.04-.94.21-1.42.2-.5-.01-1.03-.11-1.48.02-.66.2-1.32.03-1.95.17-.8.18-1.61.04-2.38.19-.69.13-1.38.02-2.03.17-.8.18-1.62.02-2.38.18-.72.16-1.42.09-2.13.15-.27.02-.54.1-.8.18-.07.02-.12.15-.16.24-.32.81-.35,1.71-.69,2.52-.08.2-.01.45-.01.73.27-.02.49.07.75-.1.17-.11.44-.07.67-.06,1.15.04,2.28-.3,3.44-.18.6-.31,1.24-.1,1.86-.18.85-.11,1.7-.22,2.56-.17.53-.32,1.12-.19,1.68-.16.47.02.87-.22,1.33-.2.44.02.91.11,1.31-.02.68-.22,1.38-.04,2.04-.17.85-.17,1.72-.05,2.56-.19.54-.1,1.06-.1,1.59-.15-.46,1.94-.91,3.84-1.35,5.72Z"/>
      <path class="cls-1" d="M451.3,31.34c-.57.09-1.07.19-1.57.23-.49.04-1.03-.1-1.48.03-.66.19-1.32.04-1.95.17-.83.17-1.65.13-2.47.16-.27.01-.5.22-.81.18-.25-.04-.52,0-.83,0-.24-.85-.49-1.68-.7-2.52-.12-.48-.43-.91-.38-1.43,0-.02-.12-.36-.36-.15-.06.05-.15.06-.23.07-.8.03-1.59.03-2.39.15-1.19.18-2.41.07-3.6.23-.8.11-1.61.03-2.38.18-.69.13-1.38.02-2.03.17-.8.17-1.62.02-2.38.18-.75.17-1.48.08-2.21.15-.24.02-.48.14-.72.16-.26.03-.52,0-.85,0-1.07,1.49-2.15,3-3.26,4.56-.22,0-.48-.02-.74,0-.88.1-1.76.24-2.65.17-.57.3-1.18.12-1.77.18-.47.04-.94.14-1.42.17-.47.03-.96-.08-1.4.03-.36.1-.69.14-1.15.15.15-.3.22-.54.36-.72.99-1.31,2.02-2.59,2.92-3.96.57-.86,1.27-1.64,1.91-2.46.53-.68,1.01-1.4,1.53-2.09.45-.6.9-1.2,1.33-1.81.54-.77,1.11-1.53,1.67-2.29.39-.54.75-1.11,1.19-1.61.64-.74,1.15-1.59,1.76-2.35.42-.53.81-1.12,1.23-1.67.59-.78,1.1-1.62,1.76-2.35.48-.52.84-1.17,1.25-1.75.58-.81,1.16-1.63,1.76-2.43.39-.52.83-1.01,1.26-1.52.39,0,.77.04,1.14,0,.94-.11,1.88-.22,2.82-.17.53-.31,1.12-.12,1.68-.18.44-.05.89-.14,1.33-.17.44-.03.91.1,1.31-.03.68-.22,1.38-.03,2.03-.18.62-.14,1.23-.14,1.9-.15.3.93.62,1.85.9,2.78.33,1.09.67,2.18,1.01,3.26.23.75.52,1.49.7,2.25.18.78.5,1.5.69,2.26.26,1.09.66,2.13.96,3.2.28,1.04.7,2.05.96,3.1.27,1.08.67,2.12.97,3.2.34,1.23.77,2.43,1.15,3.64.1.31.15.63.23.96ZM436.85,13.22c-.39.04-.71.12-1.04.11-.29,0-.51.06-.67.29-.52.75-1.03,1.5-1.56,2.24-.5.7-1.02,1.39-1.53,2.08-.54.74-1.09,1.47-1.62,2.22-.54.74-1.09,1.47-1.58,2.24-.18.28-.48.52-.55,1,.26-.1.42-.21.59-.22.41-.03.82.01,1.22-.02.42-.03.83-.12,1.24-.17.65-.07,1.29,0,1.95-.14.73-.16,1.52-.09,2.29-.18,1.28-.16,2.58-.14,3.86-.2.02,0,.04-.04.04-.04-.14-.47-.27-.93-.41-1.39-.21-.64-.4-1.3-.57-1.95-.3-1.19-.7-2.34-1.03-3.51-.22-.79-.42-1.58-.63-2.35Z"/>
      <path class="cls-1" d="M280.62,44.87c-.39-1.38-.79-2.76-1.17-4.1-.37.03-.76.11-1.14.1-1.1-.05-2.16.31-3.26.18-.69.31-1.43.05-2.12.19-.8.16-1.61.05-2.38.19-.69.13-1.38.03-2.03.17-.8.16-1.61.03-2.38.18-.69.14-1.36.09-2.04.15-.27.02-.53.14-.81.16-.29.03-.58,0-.9,0-1.08,1.51-2.16,3.02-3.25,4.55-1.1-.04-2.16.31-3.26.19-.78.26-1.61.06-2.38.21-.69.13-1.36.07-2.04.16-.47.06-.91.26-1.39.11-.01-.03-.02-.06-.03-.08,0-.03-.01-.07,0-.09,6.61-8.93,13.22-17.86,19.82-26.78.44,0,.82.04,1.19,0,.94-.11,1.88-.22,2.82-.17.56-.33,1.18-.11,1.77-.18.44-.05.89-.14,1.33-.17.44-.03.92.11,1.31-.03.51-.19,1.01-.1,1.52-.15.65-.06,1.3-.14,1.95-.17.42-.02.41.01.59.52.56,1.59.97,3.21,1.52,4.8.27.76.52,1.55.72,2.33.2.77.48,1.5.7,2.25.12.42.2.84.37,1.25.15.37.2.79.33,1.18.45,1.28.82,2.58,1.21,3.88.32,1.04.65,2.07.94,3.12.33,1.23.77,2.43,1.14,3.64.17.54.3,1.1.45,1.68-.91.09-1.77.29-2.66.24-.41-.02-.83.13-1.24.16-.44.03-.91-.1-1.31.03-.68.22-1.36.09-2.04.16-.61.06-1.22.28-1.86.14ZM275.25,26.04c-.39.04-.77.1-1.15.1-.26,0-.41.1-.55.32-.3.49-.61.98-.96,1.44-1.01,1.29-1.93,2.64-2.91,3.96-.51.69-.99,1.41-1.52,2.09-.49.64-.88,1.35-1.44,1.94-.03.04.02.15.03.28.21-.07.38-.18.55-.19.41-.03.82.01,1.22-.01.39-.03.77-.13,1.15-.16.68-.06,1.35,0,2.04-.14.8-.16,1.64-.07,2.46-.18,1.22-.16,2.46-.15,3.68-.21.02,0,.04-.04.09-.09-.06-.16-.13-.33-.18-.51-.24-.84-.46-1.67-.71-2.51-.1-.34-.27-.65-.34-.99-.22-.98-.55-1.93-.81-2.91-.2-.76-.45-1.5-.67-2.21Z"/>
      <path class="cls-1" d="M336.41,40.53c-.25-.88-.5-1.71-.73-2.55-.26-.95-.49-1.9-.75-2.85-.21-.76-.44-1.51-.65-2.27-.26-.94-.51-1.89-.77-2.84-.21-.76-.43-1.52-.63-2.28-.25-.92-.47-1.85-.74-2.76-.24-.81-.46-1.62-.67-2.44-.24-.89-.5-1.78-.75-2.67-.22-.79-.44-1.57-.65-2.36-.15-.55-.3-1.1-.47-1.7.07-.04.21-.17.36-.18,1.11-.08,2.24-.05,3.34-.21.83-.12,1.68-.01,2.47-.18.89-.19,1.77-.06,2.67-.16.12.81.4,1.56.61,2.32.2.72.22,1.52.67,2.17.1,1.3.59,2.51.92,3.75.29,1.13.53,2.27.93,3.38.2.54.29,1.11.43,1.66.21.79.45,1.57.62,2.37.18.8.49,1.56.61,2.38.02.15.15.29.2.37.47-.07.89-.13,1.37-.2.57-.86,1.12-1.83,1.81-2.68.8-1,1.47-2.09,2.2-3.13.73-1.04,1.43-2.09,2.16-3.13,1.07-1.54,2.13-3.09,3.21-4.63.92-1.31,1.87-2.61,2.74-3.95.55-.84,1.19-1.62,1.77-2.4.44,0,.82.02,1.2,0,.39-.03.77-.13,1.16-.16.41-.03.85.09,1.22-.03.65-.22,1.3-.1,1.95-.16.45-.04.89-.14,1.33-.17.47-.03.94,0,1.4-.01.08,0,.17-.1.34-.21-.05.25-.03.44-.11.55-.86,1.12-1.61,2.32-2.43,3.46-.63.88-1.28,1.76-1.88,2.65-.99,1.46-2.04,2.88-3.02,4.35-.79,1.2-1.64,2.36-2.47,3.54-.82,1.15-1.58,2.34-2.43,3.46-.99,1.31-1.88,2.69-2.87,4-.69.93-1.36,1.88-2,2.85-.41.62-.88,1.2-1.25,1.84-.08.15-.27.24-.43.33-.07.04-.17,0-.26.01-1.23.06-2.47.11-3.7.18-.39.02-.77.14-1.16.16-.41.03-.86-.1-1.22.03-.65.23-1.31.09-1.95.16-.42.04-.83.14-1.24.17-.41.03-.85-.09-1.22.03-.4.13-.77.13-1.24.15Z"/>
      <path class="cls-1" d="M18.71,54.54c1.28.15,2.58-.29,3.9-.16.72-.26,1.49-.07,2.2-.21.54-.1,1.06-.13,1.68-.15-.06.36-.03.74-.19,1.03-.23.41-.13.86-.3,1.28-.15.38-.03.86-.03,1.27.47.66,1.12.84,1.88.82.76-.02,1.52.02,2.28-.01.82-.03,1.66-.04,2.47-.19.84-.15,1.67-.32,2.5-.51,1.01-.24,2.09-1.37,2.26-2.47.13-.85.5-1.64.54-2.5.31-.37.17-.85.33-1.27.23-.61.35-1.26.49-1.9.13-.59.25-1.18.4-1.77.31-1.16.54-2.34.83-3.51.21-.85.39-1.71.58-2.57.21-.96.47-1.91.69-2.87.04-.15.03-.24.23-.28.36-.06.69-.2,1.07-.17,1.12.07,2.22-.3,3.35-.17.66-.31,1.35-.12,2.03-.18.21-.02.42-.14.63-.16.23-.03.46,0,.77,0-.09.5-.2.96-.28,1.44-.11.65-.38,1.26-.43,1.93-.04.54-.35,1.04-.34,1.61-.33.26-.15.68-.32,1.01-.13.26-.15.64-.2.96-.09.57-.38,1.1-.36,1.69-.28.25-.03.69-.2.87-.27.28-.04.61-.25.88-.17.21-.14.57-.23.86-.18.61-.17,1.27-.39,1.86-.21.57-.29,1.16-.46,1.73-.16.54-.27,1.12-.38,1.69-.13.67-.36,1.31-.54,1.97-.18.66-.45,1.28-.66,1.92-.53,1.65-1.57,2.92-2.84,3.99-.87.73-1.94,1.19-3.04,1.54-.76.24-1.53.43-2.32.55-.77.11-1.56.19-2.3.38-.69.18-1.42-.08-2.06.3-.07.04-.17,0-.26,0-1.24-.03-2.46.31-3.7.18-.93.31-1.88.15-2.82.17-.94.02-1.87.02-2.81,0-.5-.01-1.01-.08-1.51-.17-.45-.08-.92-.17-1.34-.35-1.26-.54-2.05-1.66-2.07-2.93,0-.41-.01-.82,0-1.23.01-.36-.04-.72.16-1.08.15-.28-.14-.69.19-.97-.02-.9.35-1.73.55-2.58.12-.52.1-1.12.62-1.56Z"/>
      <path class="cls-1" d="M480.2,29.1c-1.09.05-2.13.3-3.2.2-.63.3-1.31.06-1.94.19-.8.17-1.61.04-2.38.19-.75.15-1.49.02-2.21.17-.74.15-1.5.03-2.21.19-.72.16-1.43.02-2.12.16-.83.17-1.67.04-2.47.19-.66.13-1.32.02-1.95.16-.8.17-1.61.04-2.38.19-.69.13-1.38.03-2.03.17-.8.17-1.61.04-2.38.18-.56.1-1.1.15-1.74.13.42-1.1.55-2.21.89-3.27.16-.48.19-1.02.34-1.52.14-.47.11-.98.39-1.42,0-1.23.61-2.34.72-3.56.05-.56.35-1.09.44-1.65.11-.63.25-1.24.41-1.85.37-1.37.62-2.77,1-4.14.16-.6.26-1.24.42-1.85.29-1.14.45-2.3.84-3.42.2-.59.26-1.24.38-1.86.06-.3.09-.6.19-.89.05-.13.22-.31.34-.32.34-.02.61-.24.98-.2,1.21.12,2.4-.29,3.61-.16.69-.27,1.42-.09,2.12-.2.5-.08.98-.21,1.52-.11-.17.8-.3,1.61-.52,2.39-.23.79-.34,1.61-.55,2.4-.21.77-.31,1.56-.55,2.31-.25.78-.37,1.59-.6,2.38-.23.79-.45,1.59-.55,2.4-.1.83-.43,1.59-.57,2.41-.12.78-.3,1.57-.52,2.32-.24.79-.37,1.59-.56,2.5.4-.1.75.11,1.04-.2.03-.03.11,0,.17,0,1.16.13,2.28-.21,3.44-.19.44,0,.89-.13,1.33-.16.47-.03.97.11,1.39-.03.6-.2,1.19-.09,1.78-.15.45-.04.89-.14,1.33-.17.44-.03.92.11,1.3-.03.54-.2,1.08-.16,1.6-.13.5.04.94-.21,1.42-.2.5.01,1.03.12,1.48-.03.66-.22,1.3-.07,2.02-.17-.11,1.18-.45,2.25-.71,3.33-.26,1.09-.5,2.19-.76,3.34Z"/>
      <path class="cls-1" d="M377.95,11.94c-.24,1.01-.47,1.96-.69,2.91-.14.59-.22,1.19-.39,1.77-.2.66-.28,1.34-.48,1.99-.35,1.12-.48,2.29-.85,3.41-.19.56-.26,1.18-.37,1.77-.11.6-.29,1.18-.4,1.77-.11.57-.22,1.17-.46,1.73-.11.25-.17.58-.19.88-.02.29-.11.54-.18.81-.16.58-.19,1.2-.38,1.77-.29.88-.39,1.81-.68,2.7-.19.57-.18,1.21-.38,1.77-.21.57-.16,1.2-.5,1.72-.04.06,0,.17,0,.26-.06.41-.16.56-.51.5-.5-.08-.94.2-1.42.19-.47-.01-.96-.09-1.4.02-.71.18-1.44.03-2.12.18-.77.17-1.53.12-2.3.15-.06,0-.12-.02-.17,0-.19.07-.36.33-.57.02-.15-.22.06-.39.09-.58.08-.6.23-1.19.37-1.77.13-.54.29-1.1.44-1.64.23-.81.37-1.66.56-2.49.27-1.14.52-2.29.83-3.42.15-.58.23-1.18.4-1.76.14-.47.28-.95.34-1.43.06-.47.19-.91.32-1.36.13-.47.28-.96.35-1.42.13-.85.37-1.66.57-2.49.08-.32.12-.65.18-.98.06-.3.02-.69.2-.87.28-.29-.03-.72.33-.93.01-1.23.64-2.34.71-3.56,0-.08.05-.16.1-.22.2-.22-.1-.64.25-.76.29-.1.61-.1.92-.1.97,0,1.93-.3,2.91-.18.53-.32,1.12-.14,1.68-.17.82-.05,1.63-.28,2.47-.18.14.02.28,0,.43,0Z"/>
      <path class="cls-1" d="M488.93,10.66c-.74.09-1.34.17-1.93.24-.24-.6-.01-1.15.14-1.62.21-.66.26-1.34.48-1.99.21-.62.34-1.27.47-1.9.13-.65.34-1.28.41-1.94.04-.31.16-.48.48-.46.03,0,.06,0,.09,0,1.2-.06,2.42-.03,3.6-.2.8-.12,1.61-.02,2.38-.18.69-.15,1.34-.09,1.98-.15-.04.29-.06.53-.11.76-.04.21-.11.42-.17.63-.18.6-.33,1.21-.46,1.82-.13.62-.27,1.23-.42,1.85-.37,1.56-.63,3.16-1.22,4.67.08.56-.29.99-.46,1.48-.16.48-.47.92-.75,1.36-.41.65-.97,1.11-1.59,1.46-.63.36-1.28.76-2.07.72-.44.29-.97.04-1.4.23-.49.21-.99-.02-1.43.14-.93.33-1.87.06-2.85.17.25-1.08.48-2.08.71-3.09.06-.27.21-.5.2-.8,0-.18.18-.34.42-.33.26.01.53.01.79,0,1.46-.07,1.92-.56,2.43-1.65.15-.32.16-.7.27-1.2Z"/>
    </g>
  </g>
</svg>