<?xml version="1.0" encoding="UTF-8"?>
<svg id="Capa_2" data-name="Capa 2" xmlns="http://www.w3.org/2000/svg" viewBox="0 0 290.46 178">
  <defs>
    <style>
      .cls-1 {
        fill: #000;
        stroke-width: 0px;
      }
    </style>
  </defs>
  <g id="Capa_1-2" data-name="Capa 1">
    <g>
      <g>
        <path class="cls-1" d="M68.77,155.3h-14.7c-5.57-10.77-13.42-20.17-19.8-31.4v5.69c0,5.13-.02,10.26,0,15.39.02,3.37-.32,6.76.93,10.22h-13.58v-51.94h13.22c.2.38.53,1.02.88,1.64,2.37,4.31,5.07,8.41,7.81,12.48,2.47,3.67,5.08,7.25,7.54,10.93,1.32,1.98,2.43,4.11,3.78,6.4.07-.76.17-1.34.17-1.93.01-8.36,0-16.72,0-25.09,0-.77.07-1.56-.08-2.31-.39-1.94-.25-2.25,1.49-2.27,3.34-.04,6.69-.02,10.03,0,.41,0,.88.08,1.21.29.26.17.58.8.5.89-.82.87-.39,1.92-.4,2.85-.03,14.94-.03,29.88,0,44.82,0,1.03-.49,2.23,1,3.33Z"/>
        <path class="cls-1" d="M290.46,155.34c-4.39,0-8.94.01-13.49,0-1.02,0-1.59-.62-1.63-1.62-.15-3.63-1.7-6.86-2.81-10.32h-17.07c-1.63,3.72-2.65,7.74-3.66,11.85h-14.67c2.32-4.4,3.19-9.25,5.28-13.72.98-2.09,1.47-4.51,2.28-6.75.8-2.23,1.97-4.38,2.44-6.67.46-2.28,1.63-4.26,2.26-6.47.57-2,1.36-4.09,2.28-6.07,1.56-3.35,2.43-7.03,3.57-10.57.59-1.84.58-1.87,2.39-1.88,4.68-.02,9.37,0,14.15,0,2.8,8.86,6.2,17.51,9.36,26.24,3.11,8.61,6.18,17.23,9.32,25.99ZM269.47,132.51c-.35-.95-.63-1.61-.83-2.28-1.13-3.75-2.2-7.51-3.38-11.25-.35-1.1-.99-2.11-1.63-3.45-1.45,4.64-2.86,8.83-4.03,13.1-.34,1.23-1.47,2.37-.83,3.89h10.7Z"/>
        <path class="cls-1" d="M195.16,119.01c-2.01.52-3.88,1.1-5.8,1.48-1.03.2-2.06.06-3.1.64-.86.48-2.19-.39-3.07.7-.07.09-.8-.21-1.07-.48-.28-.27-.45-.71-.53-1.1-.89-4.52-4.38-6.16-8.25-7.01-2.17-.48-4.34.58-6.36,1.48-1.82.81-3.14,2.17-3.98,3.97-1.31,2.79-2.36,5.63-2.19,8.8.09,1.67-.12,3.36.04,5.01.37,3.86,1.45,7.39,4.37,10.25,1.3,1.27,2.84,1.92,4.43,2.26,2.96.63,5.79.42,8.63-1.28,2.83-1.69,3.66-4.14,4.19-7.19,1.86.34,3.85-.57,5.65.72,2.53-.45,4.86.87,7.61.69-.73,3.42-1.61,6.47-3.35,9.42-2.78,4.75-7.32,6.68-11.97,8.63-4.05-.05-8.05,1.68-12.19.08-1.31-.51-2.94-.02-4.39-.72-2.52-1.23-5.04-2.35-7.4-3.97-4.77-3.27-6.49-8.29-8.29-13.28-.77-2.14-1.34-12.13-.6-14.04.53-1.38.31-2.74.71-4.05.55-1.78,1.72-3.32,1.9-5.24,2.29-2.52,3.62-5.81,6.72-7.7,2.86-1.75,5.77-3.16,9.05-4.05,3.84-1.04,7.69-.75,11.44-.46,4.01.31,8.72,2.4,12.2,6.05,2.82,2.96,4.58,6.26,5.6,10.39Z"/>
        <path class="cls-1" d="M106.43,155.34h-16.08c-5.67-17.42-12.18-34.5-18.18-52.07.87-.07,1.48-.15,2.1-.15,3.68-.01,7.36,0,11.04-.01,1.01,0,1.74.37,1.86,1.4.29,2.62,1.21,5.05,2,7.54,1.19,3.75,2.2,7.56,3.38,11.32,1.76,5.62,3.07,11.39,5.27,16.88.26.66.11,1.49.19,3.07.64-1.26.98-1.82,1.21-2.42.23-.58.34-1.2.52-1.79,1.34-4.35,2.73-8.69,4.06-13.03,1.3-4.25,2.53-8.55,3.74-12.85.93-3.3,1.83-6.61,2.78-10.04h14.37c0,.53.19,1.16-.03,1.56-2.47,4.47-3.44,9.51-5.39,14.16-2.2,5.24-3.33,10.85-5.84,15.99-1.17,2.39-1.56,5.14-2.45,7.68-1.09,3.11-2.42,6.15-3.28,9.34-.16.61-.22,1.24-.43,1.83-.21.58-.56,1.12-.81,1.6Z"/>
        <path class="cls-1" d="M213.73,114.49c-3.45,0-6.69-.22-9.88.07-2.23.2-4.41.92-6.77.43v-11.75h46.72v11.68c-2.74.95-5.34-.47-8.01-.44-2.78.03-5.57,0-8.59,0v40.76h-13.8c.73-4.4.22-8.86.31-13.3.09-4.46.02-8.92.02-13.39v-14.07Z"/>
        <path class="cls-1" d="M.12,155c0-1.78-.3-3.63.05-5.34,1.19-5.81.44-11.65.58-17.47.14-5.91.07-11.82.02-17.74-.04-3.7-1.26-7.34-.39-11.35,3.99,0,8.2-.04,12.4.05.58.01,2.03.16.84,1.61-.39.47-.11,1.5-.11,2.27,0,14.84-.01,29.67.02,44.51,0,1.14.33,2.27.52,3.43-2.3.48-11.02.51-13.93.02Z"/>
        <path class="cls-1" d="M142.77,155.34c-4.64,0-8.99,0-13.33,0-.2,0-.4-.11-.75-.22,0-.38-.12-.85.02-1.22,1.06-2.87.62-5.84.63-8.77.04-11.61.03-23.21,0-34.82,0-1.82.28-3.68-.63-5.43-.22-.42-.03-1.06-.03-1.68h13.91c.76,2.79-.83,5.46-.57,8.29.26,2.88.06,5.8.06,8.7v17.74c0,2.9.19,5.82-.05,8.7-.24,2.88.8,5.59.74,8.71Z"/>
      </g>
      <g>
        <path class="cls-1" d="M165.1,166.72c1.13,2.59,2.15,4.95,3.2,7.35.94-1.83,2.01-3.58,2.75-5.47.57-1.44,1.32-2.14,2.88-1.9.41.06.84,0,1.42.2-1.44.6-2.3,1.39-2.03,3.05.36,2.21.52,4.45.77,6.62.51.17.89.31,1.99.69h-5.42c2.4-2.01.93-4.62,1.51-7.39-2.16,2.48-2.59,5.31-4.02,7.89-2.18-2.31-2.21-5.33-3.83-8-.56,1.56-.19,2.83-.35,4.04-.19,1.38.21,2.5,1.73,3.52h-4.19c-.39-.78.73-.78.89-1.31.3-.99,1.08-1.76.95-2.97-.16-1.54-.04-3.11-.04-4.65-.41-.41-.81-.81-1.41-1.41.57-.11.98-.23,1.41-.26.55-.04,1.11,0,1.81,0Z"/>
        <path class="cls-1" d="M49.23,177.32h-5.62c2.63-1.43,1.6-3.38,1.88-5.17h-4.74c.18,1.77-.73,3.69,1.8,5.15h-5.17c2.47-2.32.91-5.2,1.38-7.76.22-1.23-.68-1.76-1.48-2.62,1.6-.38,3.1-.09,4.86-.25-.56.88-1.14,1.48-1.34,2.19-.21.71-.05,1.52-.05,2.42h4.56c.2-1.6.56-3.17-1.54-4.28,1.8-.49,3.29-.12,5.33-.42-.77.88-1.39,1.31-1.61,1.9-.22.58-.05,1.32-.05,1.98,0,.44-.04.89,0,1.33.21,1.9-.95,4.05,1.78,5.53Z"/>
        <path class="cls-1" d="M142.87,177.34h-5.46c2.42-1.45,1.62-3.35,1.82-5.17h-4.69c.07,1.73-.71,3.63,1.63,5.11h-4.97c2.23-2.3.91-5.12,1.32-7.69.2-1.25-.65-1.77-1.48-2.66,1.59-.42,3.08-.09,4.81-.26-.53.85-1.1,1.44-1.3,2.14-.2.72-.05,1.53-.05,2.45h4.53c.44-1.65.39-3.16-1.58-4.44h5.04c-.46.68-1.04,1.25-1.24,1.93-.21.72-.05,1.54-.05,2.32,0,1,.14,2.03-.03,3-.25,1.38.43,2.25,1.7,3.27Z"/>
        <path class="cls-1" d="M227.58,177.82c-3.45-1.87-4.67-5.03-7.32-7.33.25,2.42-1.02,4.78,1.5,6.77h-4.37c.54-.54,1.1-.87,1.3-1.36.23-.57.18-1.28.19-1.92.02-1.45-.11-2.91.04-4.34.16-1.56-.75-2.09-1.98-2.78,1-.06,2-.11,3.03-.17,1.04,1.3,2.03,2.57,3.05,3.82.95,1.16,2.43,1.9,3.02,4.25.36-2.49.33-4.32.14-6.09-.07-.64-1.15-1.18-1.85-1.84h4.57c-.45.67-1.04,1.24-1.24,1.92-.21.72-.05,1.55-.05,2.32v6.74Z"/>
        <path class="cls-1" d="M209.8,166.72c4.18,3.21,4.13,7.42-.02,10.71-1.05,0-2.36.05-3.67-.01-2.21-.1-3.88-1.81-3.98-4.03-.04-.89-.04-1.77,0-2.66.07-1.79,2.23-3.95,4-4.01,1.22-.04,2.44,0,3.66,0ZM204.14,171.78c0,1.97.36,2.96,1.46,4.11,1.17,1.22,2.42,1.21,3.67.13,1.17-1,1.14-2.46,1.51-3.72.45-1.55-.8-2.83-1.52-3.99-.99-1.62-3.36-.91-4.54.73-.7.98-.44,1.86-.58,2.74Z"/>
        <path class="cls-1" d="M27.71,176.78c2.52-.16,2.59-.48,3.07-1.77.61-1.61-1.91-1.34-1.29-2.93h3.77c-.2,1.46-.28,2.71-.59,3.91-.14.54-.75,1.4-1.1,1.38-2.02-.12-4.1.61-6.08-.57-2.18-1.3-3.41-3.78-2.82-6.23.47-1.94,2.8-3.77,4.93-3.83,1-.03,2-.03,3,0,1.59.05,2.04.5,2.11,2.14.02.4-.09.81-.2,1.77-.59-.74-.88-1.06-1.12-1.41-.77-1.1-1.62-2.26-3.14-1.79-1.32.41-2.47.78-3.05,2.68-.71,2.34.03,3.79,1.25,5.38.34.44.78.79,1.27,1.29Z"/>
        <path class="cls-1" d="M86.7,178c-2.52-3.03-4.59-5.52-6.99-8.41v6.01c.37.34,1.07.98,1.89,1.72h-4.39c1.52-1.02,1.84-2.14,1.74-3.52-.12-1.77-.03-3.56-.03-5.33-.69-.44-1.37-.88-2.08-1.34.68-.68,3-.53,3.69.23.63.7,1.07,1.57,1.68,2.29,1.24,1.48,2.54,2.91,4.08,4.66,0-1.64-.11-3.06.03-4.45.16-1.62-.63-2.38-2.48-2.88,1.92-.45,3.42-.16,5.36-.34-3.24,3.3-1.81,7.26-2.49,11.35Z"/>
        <path class="cls-1" d="M102.93,177.44c-1.91,0-3.58.05-5.25-.01-2.29-.08-3.92-1.73-4.01-4.03-.05-1.22,0-2.45,0-3.66.96-.96,1.91-1.91,2.93-2.93h6.31v3.28c-2.25-3.5-4.66-3.41-7.24-.31.12,1.7-.27,3.42.64,5.09.65,1.19,1.81,1.37,2.79,1.86.83.42,1.83-.41,1.81-.94-.03-.74,1.1-2.09-.71-2.4-.26-.05-.44-.57-.85-1.15h4.34c-.22.91-.51,1.78-.64,2.66-.12.84-.09,1.7-.12,2.54Z"/>
        <path class="cls-1" d="M255.79,166.84c-.83.57-1.48,1.01-2.1,1.44,0,1.99.13,3.89-.04,5.77-.15,1.67.48,2.61,1.99,3.24h-4.82c.46-.46.78-.7.99-1.01.71-1.03.76-2.89.13-3.62-.61-.7-3.46-.86-4.29-.24-.87.65-.94,2.65-.11,3.85.22.32.54.56.99,1.01h-4.82c1.51-.63,2.15-1.57,1.99-3.24-.17-1.88-.04-3.78-.04-5.77-.62-.43-1.27-.87-2.1-1.44h4.7c-.44.64-1.02,1.2-1.22,1.88-.21.72-.05,1.55-.05,2.6,1.7.19,3.42.04,5.16.1.38-1.75.51-3.31-1.57-4.58h5.2Z"/>
        <path class="cls-1" d="M183.49,173.37q-.03,2.31,1.36,3.87c-1.6.39-3.1.09-5.21.28,2.33-1.71,1.71-3.71,1.72-5.56,0-1.76.57-3.69-1.55-5.15h6.68c.43.43.9.9,1.48,1.48v3.57c-1.11,1.1-2.5,1.81-4.48,1.51ZM183.38,172.13q2.71-.38,2.57-3.88c-.79-.29-1.59-.59-2.57-.95v4.83Z"/>
        <path class="cls-1" d="M278.51,171.03c-.89.89-1.59,1.59-2.34,2.34-.71.03-1.46.07-2.3.11v3.03c.37.18.78.38,1.63.79h-5.42c1.48-1.01,1.85-2.12,1.72-3.5-.12-1.21-.15-2.47,0-3.67.19-1.38-.35-2.31-1.9-3.42,1.84,0,3.15.07,4.44-.02,1.36-.1,2.51.38,3.54,1.14,1.1.81.39,2.05.63,3.19ZM273.84,172.06c2.4-.25,2.67-.48,2.62-2.08-.04-1.4-.91-2.21-2.62-2.37v4.45Z"/>
        <path class="cls-1" d="M152.94,166.61c1.04,3.1,1.94,6.05,3.05,8.92.25.63,1.25.97,2.19,1.66-1.71.46-3.19.12-4.69.28.16-.73.47-1.39.38-2-.1-.68-.56-1.31-.88-1.99-.92.02-1.96-.45-2.69.55-.8,1.09-.46,2.15.24,3.29h-4.33c2.88-2.07,3.24-5.1,4.37-7.73.48-1.11.64-2.47,2.36-2.99ZM152.93,172.69c-.4-.9-.52-1.77-.88-1.88-1.16-.37-.5,1.21-1.26,1.42-.03,0,.02.29.04.46h2.1Z"/>
        <path class="cls-1" d="M8.48,169.52c-1.58-.42-2.67-2.24-4.49-1.22v2.97c1.23.16,2.54.7,3.13-1.19v4.51c-.39-.94-.54-1.32-.73-1.76-.71,0-1.46,0-2.21,0-.09.19-.25.37-.25.56q0,2.26,1.41,3.91H.54c2.49-2.3.91-5.17,1.39-7.72.23-1.24-.65-1.76-1.43-2.59,1.2-.52,2.39-.18,3.53-.24,1.21-.07,2.42-.02,3.63-.02.26.9.51,1.74.82,2.8Z"/>
        <path class="cls-1" d="M125.35,170.03c-.09-.33-.07-.76-.28-.98-1.83-1.97-4.52-2.61-6.2.93-1.12,2.36-.08,5.28,2.13,6.4.86.44,1.49.59,2.32-.09.79-.65,1.77-1.07,2.96-1.77-.25,1.08-.44,1.88-.66,2.81h-6.3c-.82-.83-1.76-1.78-2.9-2.92,0-.77-.03-1.75,0-2.73.09-2.68,2.2-4.85,4.83-4.94,1.43-.05,2.87,0,4.42,0v3.25c-.11.02-.22.04-.33.06Z"/>
        <path class="cls-1" d="M289.07,166.89v2.71c-.46-.75-.69-1.3-1.07-1.69-.79-.8-1.86-.7-2.5.15-.56.74-.47,1.69.28,2.27.4.31.9.49,1.37.72,1.14.57,2.35,1.09,2.7,2.49.42,1.72-.37,2.95-1.74,3.9-.89,0-1.78.02-2.67,0-1.86-.05-2.19-.39-2.27-2.31-.01-.31.07-.62.18-1.46.64,1.07,1,1.75,1.45,2.37.56.77,1.58.97,2.27.51.9-.59,1.08-1.68.39-2.51-.35-.43-.72-1.03-1.18-1.14-1.84-.43-2.25-2.09-3.18-3.46.49-.85,1-1.75,1.46-2.54h4.52Z"/>
        <path class="cls-1" d="M233.07,173.87c1.21,1.18,1.52,2.76,3.33,2.91,1.48-.56,1.3-1.85,1.17-2.91-1.48-.96-2.79-1.81-3.95-2.55v-3.59c1.51-1.2,3.24-1.09,5.05-.99.25.79.52,1.63.92,2.9-.61-.4-1.02-.57-1.29-.86-.36-.38-.52-1.04-.93-1.24-.69-.33-1.45-.31-2.04.44-.56.71-.67,1.41-.06,2.04.42.43,1.03.71,1.6.96,2.14.92,3.29,2.38,2.68,4.87-.49.5-1.04,1.05-1.59,1.6-.89,0-1.78.01-2.67,0-1.92-.04-2.23-.34-2.34-2.25-.02-.31.06-.63.13-1.31Z"/>
        <path class="cls-1" d="M57.49,168.35c-1.83-1.09-2.56.36-3.76,1.62-.15-1.34-.24-2.14-.32-2.85.19-.19.26-.33.34-.33,2.97-.01,5.94,0,8.95,0v3.21c-.78-.9-1.19-1.37-1.67-1.92h-1.85c-.12.16-.34.32-.34.49-.02,2,.1,4.01-.05,5.99-.12,1.58.82,2.05,2.4,2.62-2.15.46-3.9.22-5.72.07,1.55-.58,2.21-1.49,2.06-3.17-.17-1.87-.04-3.77-.04-5.72Z"/>
        <path class="cls-1" d="M72.6,177.36h-5.17c2.54-2.36,1.09-5.2,1.43-7.76.15-1.08.02-1.09-1.42-2.66,1.57-.44,3.05-.06,4.92-.35-.45.93-1.25,1.26-1.42,1.84-.21.71-.05,1.54-.05,2.31,0,1.11.14,2.24-.03,3.32-.22,1.38.4,2.27,1.75,3.3Z"/>
        <path class="cls-1" d="M13,166.82h5.35c-1.45,1.03-1.82,2.11-1.74,3.49.13,2.08.03,4.18.03,6.21.53.19.91.33,1.75.63-1.88.49-3.37.17-5.39.37.74-.82,1.36-1.25,1.58-1.83.22-.58.05-1.31.05-1.98,0-1.22-.15-2.47.04-3.66.22-1.38-.47-2.22-1.68-3.23Z"/>
        <path class="cls-1" d="M193.06,177.32c1.5-1.02,1.87-2.12,1.74-3.5-.12-1.32-.13-2.67,0-3.98.13-1.28-.47-2.07-1.66-2.94h4.99c-.7.51-1.51.81-1.8,1.38-.32.62-.19,1.48-.21,2.23-.03,1.11-.01,2.22,0,3.32q.01,2.18,2.07,3.5h-5.13Z"/>
        <path class="cls-1" d="M265.85,166.84c-.84.57-1.48,1.01-2.12,1.44,0,2.07-.02,4.06,0,6.05.02,1.73.03,1.73,2.32,2.94h-5.05c1.95-1.44,1.41-3.44,1.35-5.27-.06-1.74.84-3.76-1.82-5.16h5.31Z"/>
      </g>
      <g>
        <path class="cls-1" d="M98.24,71.16c-1.8-1.8-3.29-3.42-4.8-5.02-2.92-3.1-5.48-6.45-7.07-10.43-.81-2.02-1.81-3.98-1.87-6.25-.03-1.14-.64-2.28-.59-3.4.1-2.13.46-4.24.78-6.35.02-.13.55-.18,1.09-.35-.2,7.45,2.1,13.69,8.43,18.41.2.07.1-.06,0-.19-.1.1-.2.2-.3.3.13.1.26.22.4.3.02.01.13-.13-.1-.4-.23-1.79-1.47-2.83-1.99-4.18-1.23-3.19-2.37-6.37-3.12-9.75-.56-2.51-.52-4.96-.53-7.43-.02-5.08,1.61-9.67,4.5-13.82.77-1.1,1.61-2.15,2.66-3.17-3.98,9.81-3.42,19.36,1.1,28.82,1.18-1.88,1.19-4.05,1.61-6.01.52-2.37,1.3-4.6,2.19-6.8.89-2.2,1.35-4.66,3.31-6.31,3.39-6.26,7.43-11.08,10.42-13.7,3.22-2.82,6.65-5.39,10.02-8.04.21-.16.65-.02.99-.02-2.12,2.91-4.24,5.82-6.38,8.71-2.92,3.95-4.84,8.43-6.84,12.87,0,2.57-1.35,4.81-1.67,7.37-.3,2.37-.47,4.72-.51,7.09-.09,4.84,1.32,9.33,3.35,13.64,1.54,3.26,3.71,6.08,5.9,8.94,2.54,3.32,5.81,5.63,8.97,8.18.49.39.8.99,1.19,1.5-2.39.19-4.19-1.34-5.98-2.43-3.12-1.9-6.1-4.14-8.44-7.01-3.99-4.89-7.17-10.2-8.43-16.54-.25-1.25-.13-2.72-.69-3.68-.77-1.32-.44-2.54-.54-3.79-.11-1.3-.02-2.62-.23-3.95-1.81,3.64-2.92,7.42-3.15,11.47-.24,4.12.53,7.99,2.57,11.76-.86-.41-1.71-.82-2.71-1.24-.05,0,.05,0,.15,0-.06-.17-.1-.37-.2-.51-.03-.04-.26.07-.41.11.1.13.21.26.46.4.15.33,0,.82.17.96,1.63,1.44,2.42,3.72,5.03,4.67-1.48.6-2.62.29-3.86.39-.05,0,.05,0,.15,0-.06-.17-.1-.37-.2-.51-.03-.04-.26.07-.41.11.1.13.21.26.46.4.15.22.05.55.16.65,1.81,1.74,2.54,4.46,5.12,5.55.85.36,1.53,1.18,2.24,1.84,2.07,1.91,4.88,2.19,7.3,3.34.18.09.4.12.58.21.04.02.03.15.09.46h-6.9c5.68,3.52,9.76,4.2,16.28,5.16-.45.07-.89.19-1.34.2-1.67.02-3.35.11-5.01-.02-1.49-.12-3.01.47-4.49-.43-1.28-.78-3.07.44-4.31-.88-4.48-.22-8.51-2-12.33-4.07-5.76-3.11-10.16-7.57-11.99-14.11-.21-.77-.56-1.49-.41-2.47,1.29,1.67,2.43,3.49,3.91,4.98,1.57,1.59,3.46,2.88,5.23,4.27.14.11.43.01.96.21.2.07.1-.06,0-.19-.1.1-.2.2-.3.3.13.1.26.22.4.3.02.01.13-.13-.1-.4Z"/>
        <path class="cls-1" d="M191.68,71.79c1.67-.38,2.92-1.41,4.02-2.54,2.06-2.12,4.5-3.89,5.94-6.56.25-.46.56-.89,1.12-1.13-.24,2.82-1.38,5.24-2.81,7.44-2.87,4.39-6.71,7.76-11.49,10.02-3.51,1.66-7.09,2.82-10.99,3.43-6.99,1.09-8.77,1.49-14.96,1,2.16-.88,4.06-.43,5.85-.93,1.79-.5,3.65-.87,5.42-1.53,1.74-.64,3.42-1.44,5.48-2.32-1.55-.56-2.82-.28-4.05-.33-1.19-.05-2.39-.01-3.57-.15,9.38-2.89,14.73-8.61,15.91-12.38-1.16.62-2.39.5-3.92.37,2.53-1.64,4.21-3.75,5.74-6.62-1.42.24-1.81,1.9-3.03,1.35.24-.79.36-1.65.73-2.37,1.29-2.49,2.07-5.25,1.83-7.88-.38-4.02-.92-8.13-2.91-11.93-.65,1.9-1.05,3.7-1.03,5.67.03,3.4-1.16,6.59-2.25,9.76-1.68,4.87-4.29,9.17-8.04,12.73-2.06,1.95-4.09,3.98-6.38,5.63-1.82,1.31-4.02,2.11-6.05,3.13-.54.27-1.1.52-1.68.8-.46-.87.28-1.11.58-1.32,4.29-2.98,8.07-6.43,11.35-10.56,2.26-2.85,3.98-5.92,5.56-9.11,1.35-2.73,2.19-5.65,2.31-8.76.05-1.25.36-2.51.65-3.74.35-1.48-.48-2.71-.7-4.07-.2-1.25.64-2.69-.65-3.74-.23-5.05-2.54-9.42-4.75-13.75-1.57-3.06-3.68-5.86-5.68-8.69-1.27-1.8-2.77-3.44-4.26-5.27.43,0,.82-.12,1.02.02,5.03,3.45,9.78,7.25,13.83,11.83,2.4,2.71,4.71,5.55,6.47,8.7,2.11,3.77,4.27,7.65,5.26,11.85.7,2.95,2.04,5.84,1.38,9.51,2.45-3.2,2.51-6.7,4.14-9.56-.13-3.17,1.36-6.28.62-9.42-.76-3.23-.93-6.64-2.61-9.62-.1-.17-.01-.44-.01-.66,1.86.6,2.48,2.45,3.25,3.82,2.12,3.75,3.94,7.69,3.47,12.26-.18,1.76-.05,3.56-.03,5.34.04,3.22-1.16,6.18-2.16,9.13-.86,2.51-2.16,4.86-3.35,7.49,4.32-3.17,8.23-8.94,9.19-18.74,2,5.09,1.09,9.97-.58,14.71-1.44,4.09-3.69,7.77-6.78,10.9-1.13,1.14-1.87,2.75-3.15,3.64-1.08.75-2.03,1.57-2.96,2.45-.14.13-.17.37-.24.71,0,.05,0-.05,0-.15-.17.06-.37.1-.51.2-.04.03.07.26.11.41.13-.1.26-.21.4-.46Z"/>
        <path class="cls-1" d="M142.8,48.87c-.41-.08-.94-.02-1.22-.26-2.04-1.73-4.39-2.48-7.04-2.43-1.56.03-3.15.17-4.68-.03-2.27-.31-4.62-.53-6.48-2.22.18-.17.32-.41.45-.4,5.64.23,10.49-2,14.96-5.09,4.3-2.97,8.77-5.63,13.39-8.07,1.53-.81,3.18-.94,4.74-1.49,1.72-.6,3.44.52,5.12,1.19,1.37.54,2.11,1.49,2.46,2.71.35,1.21.37,2.52.06,4.04-.33-.43-.7-.83-.99-1.28-.86-1.36-1.91-1.59-3.67-1.49-1.57.09-2.9.49-4.12,1.42-.67.51-1.54.86-2.04,1.5-1.84,2.38-1.07,4.09,1.83,5.27,1.42.58,2.52.83,3.85-.03.33-.21.98.06,1.75.14-1.11,2.18-2.99,2.82-4.74,3.07-1.51.21-3.24.65-4.76-.52-.41-.32-1.28-.05-2.1-.05,1.59,3.57,3.03,7.04,4.7,10.4.78,1.57,1.3,3.09,1.28,4.84-.01.83-.35,1.77.55,2.46.17.13.22.71.08.93-1.36,2.22-.41,4.8-1.18,7.2-.7,2.18-1.65,4.21-2.59,7.13-.14-1.21-.29-1.65-.21-2.03.89-3.98.45-8.47.14-12.51-.22-2.88-1.79-5.15-2.21-7.85-.11-.67-.55-1.4-1.04-1.89-1.94-1.93-2.13-4.71-3.43-6.97-.58-1.01-.27-2.62-.11-3.92.05-.43.87-.94,1.42-1.08.72-.19,1.52-.05,2.64-.05-.3-.42-.47-.6-.58-.81-1.26-2.45-1.24-2.45.61-4.38.44-.46.8-1.01,1.38-1.82.07-.2-.06-.1-.19,0,.1.1.2.2.3.3.1-.13.22-.26.3-.4.01-.02-.13-.13-.4.1-3.86.79-6.8,2.56-8.86,5.57-1.13,1.65-1,3.62-.32,5.53.38,1.07.64,2.18.95,3.27Z"/>
        <path class="cls-1" d="M135.65,8.1h7.17c.6-1.46,1.18-2.78,1.67-4.13.46-1.26.81-2.56,1.24-3.96,1.23,2.62,1.43,5.58,3.34,8.08h6.9c-1.78,1.31-3.11,2.33-4.48,3.29-1.5,1.04-1.5,1.01-.91,2.77.61,1.86,1.17,3.74,1.92,6.12-1.1-.7-1.77-1.07-2.36-1.53-.77-.6-1.45-1.32-2.23-1.9-.67-.49-1.44-.86-2.15-1.28-1.94,1.4-4.01,2.88-6.3,4.53.24-1.27.1-2.75.78-3.55.69-.82.24-1.71.8-2.39.77-.93.63-1.8-.31-2.51-.67-.51-1.39-.94-2.08-1.42-.86-.6-1.7-1.21-2.98-2.12Z"/>
        <path class="cls-1" d="M143.79,62.33c-1.63-2.83-2.06-6.16-5.44-7.57-1.47-.61-2.87-1.24-4.5-1.21-2.44.05-4.91.19-7.33-.04-2.26-.21-4.6-.53-6.45-2.17.15-.18.28-.44.38-.43,3.69.29,7.09-.89,10.55-1.9,4.36-1.27,8.96,1.1,11.18,5.22,1.19,2.19,1.31,4.58,1.93,6.87.1.37-.21.85-.32,1.25Z"/>
        <path class="cls-1" d="M143.47,62.26c.22,1.56.45,3.12.67,4.69-1.52-1.33-2.34-3.22-4-4.51-1.01-.79-2.37-.44-3.09-1.51-2.82.27-5.64-.29-8.51.43-2.81.71-5.78.54-8.52-.79-.26-.13-.42-.44-.65-.7,1.54-.78,3.19-.19,4.8-.6,2.64-.66,5.11-1.73,7.66-2.58,3.16-1.04,5.59,0,7.96,1.63,1.12.78,2.16,1.8,2.67,3.22.11.32.66.49,1.01.72Z"/>
        <path class="cls-1" d="M144.37,68.53c-.1-.71-.16-1.15-.23-1.59.22.26.48.49.65.79.05.09-.16.33-.42.8Z"/>
        <path class="cls-1" d="M143.47,49.54c-.22-.22-.45-.45-.67-.67.22.22.45.45.67.67Z"/>
        <path class="cls-1" d="M144.09,49.93c-.08.08-.19.22-.21.21-.15-.08-.27-.19-.4-.3.1-.1.2-.2.3-.3.11.13.21.26.32.39Z"/>
        <path class="cls-1" d="M186.33,61.22c-.13.1-.26.21-.4.31-.04-.14-.15-.37-.11-.41.14-.11.33-.14.51-.2,0,.1,0,.2,0,.3Z"/>
        <path class="cls-1" d="M130.02,76.04c-.08.08-.19.22-.21.21-.15-.08-.27-.19-.4-.3.1-.1.2-.2.3-.3.11.13.21.26.32.39Z"/>
        <path class="cls-1" d="M125.78,6.74c.08.08.22.19.21.21-.08.15-.19.27-.3.4-.1-.1-.2-.2-.3-.3.13-.11.26-.21.39-.32Z"/>
      </g>
    </g>
  </g>
</svg>