<?xml version="1.0" encoding="UTF-8"?>
<svg id="Capa_2" data-name="Capa 2" xmlns="http://www.w3.org/2000/svg" viewBox="0 0 208.25 178">
  <defs>
    <style>
      .cls-1 {
        fill: #000;
        stroke-width: 0px;
      }
    </style>
  </defs>
  <g id="Capa_1-2" data-name="Capa 1">
    <g>
      <path class="cls-1" d="M3.28,90.2h22.06c.28,0,.56-.03.83,0,.77.11,1.29.94,1.08,1.69-.06.22-.06.45-.09.68-.13.95-.29,1.89-.67,2.82h20.79c.36-1.22.64-2.5.79-3.79.16-1.31.83-2.51.74-3.87.51-1.21.59-2.53.9-3.78.32-1.26.53-2.57.77-3.86.24-1.29.53-2.56.83-3.97.55-.36,1.25-.69,2.07-.69,6.86,0,13.72,0,20.58,0,.34,0,.65.05.99.2.39.17.79.16,1.03.65.26.54.25,1.02.05,1.54-.3.81-.43,1.66-.57,2.5-.22,1.29-.46,2.58-.81,3.84-.15.54-.01,1.14-.39,1.62-.08,1.47-.52,2.86-.89,4.27-.16.61-.17,1.27-.31,1.9-.21.94-.29,1.91-.65,2.82-.18.45-.03.95-.27,1.44-.24.48-.12,1.13-.29,1.66-.15.49-.27,1-.4,1.49-.13.49-.18,1.03-.29,1.55-.24,1.12-.45,2.24-.93,3.3-.47,1.06-1.02,2.05-1.67,3-.5.72-.99,1.44-1.62,2.06-.54.53-1.08,1.05-1.6,1.6-1,1.06-2.25,1.81-3.44,2.62-1.71,1.18-3.63,1.98-5.6,2.54-1.28.36-2.6.66-3.95.85-1.92.27-3.83.16-5.74.17-10.71.03-21.42.02-32.12,0-1.13,0-2.24-.23-3.32-.6-.7-.24-1.44-.31-2.14-.58-.98-.37-1.86-.88-2.75-1.42-1.2-.71-2.11-1.69-3.06-2.65-.85-.86-1.43-1.92-2.05-2.95-.38-.63-.48-1.34-.64-1.99-.32-1.28-.66-2.59-.53-3.96.04-.38.04-.74.23-1.1.15-.29-.08-.65.17-1.01.27-.39.02-.94.3-1.42.23-.4.19-.95.27-1.43.08-.52.03-1.11.27-1.55.25-.45,0-1.02.44-1.37-.01-.92.37-1.77.45-2.66.08-.9.37-1.62,1.13-2.21ZM3.82,110.18c.61.85,1.15,1.58,1.98,2.12,1.12.73,2.22,1.45,3.44,2.03,2,.95,4.11,1.28,6.23,1.3,8.84.07,17.68.03,26.52.03,1.59,0,3.17.03,4.76,0,1.59-.04,3.2.18,4.78-.21.48-.12,1.08.09,1.5-.12.5-.25,1.11.12,1.51-.38,1.58-.25,3.06-.85,4.47-1.54,1.47-.72,2.86-1.59,4.15-2.64,2.53-2.07,2.46-2.03,4.05-4.1.43-.56.8-1.16,1.21-1.77-.25-.12-.41-.2-.55-.26.09-.16.17-.32.35-.65-.41.08-.67.08-.87.19-.23.13-.43.55-.6.53-.73-.1-.75.55-1.04.89-.14.16-.2.41-.36.56-1.11,1.04-2.07,2.24-3.34,3.13-1.19.84-2.33,1.74-3.66,2.37-.7.33-1.44.55-2.16.82-.41.16-.81.35-1.22.5-.38.14-.77.3-1.17.32-.46.03-.91.23-1.33.23-1.6-.01-3.17.37-4.78.29-1.78-.09-3.57,0-5.35-.03-.52,0-1.09.19-1.57-.22-.07-.06-.27-.06-.34,0-.52.43-1.13.22-1.69.22-8.53-.09-17.07.26-25.59-.23-.26-.01-.51-.13-.77-.13-.69-.01-1.31-.34-1.89-.61-.72-.35-1.49-.61-2.19-1.04-.93-.57-1.71-1.28-2.55-2.14-.14.41-.59.22-.78.72-.17.45-.64-.14-1.15-.12Z"/>
      <path class="cls-1" d="M140.55,117.09c-.27-.28-.54-.56-.84-.88.13-.44-.12-.92.22-1.43.24-.37-.15-1,.27-1.42.07-1.09.48-2.12.65-3.16.17-1.08.44-2.15.57-3.24.1-.8.41-1.58.51-2.4.06-.54.31-1.07.41-1.61.19-1.06.45-2.11.67-3.16.21-.98.39-2,.57-3,.15-.86.32-1.75.61-2.59.16-.46.12-.95.25-1.43.28-1.03.38-2.12.72-3.15.15-.44.16-.96.25-1.44.18-1.03.4-2.04.68-3.05.14-.49.25-1.03.28-1.55.04-.65.23-1.27.31-1.92.09-.71.35-1.43.52-2.15.15-.62.25-1.24.38-1.87.08-.4.14-.81.24-1.21.18-.72.9-.71,1.41-.97.13-.06.31,0,.47,0,6.98,0,13.96,0,20.94.01.4,0,.83.1,1.2.24.27.1.49.36.72.54,0,.55.15,1.13-.04,1.56-.2.45,0,1.01-.43,1.37.07,1.12-.42,2.15-.52,3.25-.05.59-.11,1.25-.41,1.84-.18.35-.17.8-.26,1.2-.08.36-.17.73-.23,1.09-.17.92-.19,1.9-.53,2.76-.21.54.02,1.16-.43,1.61.02,1.37-.46,2.66-.71,3.99-.03.15,0,.31,0,.54h1.19c12.01,0,24.03,0,36.04,0,.41,0,.8-.09,1.23.21.66.46.94.91.71,1.66-.04.14-.15.28-.14.41.08,1.01-.49,1.89-.53,2.88-.33.23-.13.58-.19.87-.06.29-.26.59-.21.85.1.57-.28,1.03-.27,1.57.01.49-.29.92-.4,1.38-.12.51-.19,1.03-.3,1.54-.13.63-.12,1.29-.26,1.92-.15.69-.48,1.34-.47,2.06-.5.43.03,1.16-.47,1.59.01,1.15-.38,2.2-.71,3.28-.06.18,0,.39,0,.6-.28.27-.56.55-.84.83-20.94,0-41.87,0-62.82,0ZM201.27,113.5c-1.04.02-2,.34-3.03.27-2.54-.17-5.1.24-7.64-.24-.96-.18-1.92.14-2.87.21-1.1.08-2.22.05-3.33,0-.88-.03-1.78.18-2.65-.21-.22-.1-.59-.07-.79.06-.56.35-1.22.27-1.7.12-.74-.24-1.46-.17-2.18-.18-1.59-.03-3.17-.03-4.76,0-.72.01-1.47-.18-2.17.22-.15.08-.48.09-.57-.01-.3-.34-.66-.2-.99-.2-.92,0-1.84.06-2.76.19-1.13.16-2.29.04-3.44.04s-2.22.05-3.33-.01c-1.12-.06-2.26.28-3.35-.22-.05-.02-.14.03-.21.05-1.01.24-1,.21-2.33-.03-.43-.08-.92-.15-1.36.13-.14.09-.4.13-.55.07-.7-.29-1.38-.35-2.07.01-1.39-.14-2.79.23-4.19-.21-.7-.22-1.41.02-2,.6-.54.54-1.18.98-1.84,1.51h60.69c.2,0,.4,0,.59,0,.36-.02.61-.23.57-.57-.05-.55.14-1.05.25-1.57.21-.98.36-1.97.63-2.94.15-.55.53-1.16.25-1.78-.19.08-.41.22-.45.19-.17-.17-.32-.38-.4-.61-.02-.06.2-.31.32-.31.27-.01.54.07.78.12.1-.64.2-1.27.28-1.91,0-.03-.1-.07-.18-.12-.04.24-.07.46-.1.69-.59.03-1.19-.11-1.61.41-.04.56.19,1.2-.45,1.6-.17.88-.39,1.76-.47,2.65-.04.47-.16.88-.36,1.29-.1.2-.14.42-.23.7ZM204.24,103.93c-.15.6-.61.5-.94.61.05.79.21.98.82.88.36-.06.69-.22,1.05-.33-.08-1.59.68-3.05.71-4.88-.19.39-.24.64-.34.67-.8.19-1.26.83-1.8,1.35v1.17c.18.2.36.39.5.54Z"/>
      <path class="cls-1" d="M101.28,93.06c-.41,1.41-.44,2.81-.98,4.1-.11.27-.04.61-.09.92-.05.29-.18.57-.23.85-.16,1.03-.35,2.05-.68,3.05-.15.45-.14.96-.25,1.44-.32,1.42-.46,2.87-.93,4.25-.16.45-.12.95-.25,1.44-.27,1.04-.49,2.11-.69,3.16-.2,1.07-.57,2.12-.55,3.24,0,.3-.2.63-.38.9-.17.26-.44.46-.67.69h-22.35c-.2,0-.4.02-.59,0-.76-.11-1.23-.93-1.06-1.71.14-.62.09-1.28.32-1.89.34-.87.33-1.82.68-2.69.11-.27,0-.63.04-.94.04-.29.2-.57.22-.85.02-.35.15-.65.23-.98.21-.83.4-1.67.52-2.53.17-1.21.42-2.42.76-3.6.05-.18.13-.35.16-.53.23-1.48.44-2.95.92-4.38.19-.56.13-1.21.29-1.79.27-1.04.37-2.12.69-3.16.24-.78.32-1.61.5-2.41.21-.94.29-1.91.65-2.82.18-.46,0-.96.27-1.44.23-.4.19-.95.27-1.43.08-.52.03-1.12.27-1.54.27-.45-.01-1.02.44-1.37-.05-1,.36-1.92.48-2.89.06-.48.15-.96.29-1.43.25-.82.96-1.09,1.71-1.25.27-.06.55,0,.83,0,19.86,0,39.72,0,59.58,0,.49,0,.97,0,1.46.22.74.32.99.69.86,1.57-.1.68-.15,1.36-.25,2.04-.05.33-.19.65-.22.97-.03.31-.14.57-.22.86-.24.78-.35,1.6-.5,2.41-.18.99-.32,1.98-.65,2.94-.18.53-.24,1.1-.3,1.66-.15,1.23-.39,2.44-.73,3.63-.1.35-.25.74-.51.96-.26.22-.68.27-1.04.34-.27.05-.55.01-.83.01h-37.48ZM138.25,89.75c-.88-.09-1.64.06-2.41-.23-.44-.17-1.02-.08-1.51.02-1.04.22-1.58.19-2.81-.01-.67-.11-1.37-.11-2.07.08-.57.15-1.25.17-1.81,0-.44-.14-.93-.22-1.24-.08-.66.31-1.3.2-1.94.19-7.81-.08-15.62.23-23.43-.21-.59-.03-1.2.12-1.8.24-.16.03-.34.2-.43.35-.13.21-.18.47-.27.69.48.36.92.7,1.37,1.04.27-.25.27-.19.79-.21.6-.03,1.21.18,1.82-.19.29-.18.87-.17,1.14.01.43.29.83.18,1.23.19.8.02,1.57-.27,2.4-.25,2.34.06,4.67.02,7.01.02.75,0,1.51-.04,2.26.01.72.05,1.48-.24,2.16.22.05.03.17,0,.21-.03.36-.39.82-.19,1.23-.19,6.14-.02,12.28-.01,18.42-.01h1.09c-.56-.65-.99-1.14-1.42-1.64ZM73,115.63h22c.08-.43.21-.83.21-1.23,0-.37.57-.68.22-1.01-.23,0-.39.05-.44,0-.29-.37-.38-.41-.59-.11-.17.24-.3.49-.47.76-.34-.43-.77-.27-1.13-.27-5.5-.01-11,.01-16.5-.03-.81,0-1.38.32-1.94.78-.24.2-.44.46-.68.66-.17.14-.37.24-.69.45Z"/>
      <path class="cls-1" d="M198.04,47.32v-1.12h.16c.02.2.08.42.05.62-.09.63.15,1.21.24,1.81.09.6-.18,1.25.24,1.81.02.03,0,.08,0,.12-.18,1.33.33,2.62.24,3.95-.07.97.42,1.9.24,2.88.41.56.17,1.2.24,1.8.07.56.19,1.12.23,1.69.04.55-.13,1.16.04,1.65.26.73.14,1.45.21,2.17.05.49.17.96.23,1.45.05.49-.11,1.01.24,1.45.04.05.01.16,0,.23-.16,1.33.35,2.62.24,3.95-.04.54.35,1,.25,1.57-.08.5-.15,1.08.01,1.53.28.77.15,1.53.21,2.29.04.45.3.85.24,1.33-.05.41-.1.85.22,1.21.02.02,0,.08,0,.12-.01,1.85.25,1.85-1.6,1.82-1.42-.02-2.84,0-4.35,0,0-.34,0-.65,0-.96.04-1.24-.42-2.46-.24-3.71-.37-.69-.1-1.46-.26-2.16-.26-1.08-.05-2.19-.26-3.23-.19-.97-.04-1.94-.22-2.88-.21-1.12-.06-2.26-.26-3.35-.15-.81.02-1.66-.24-2.39-.28-.79,0-1.57-.21-2.29-.31-1.04-.04-2.11-.26-3.11-.22-1.01-.04-2.02-.23-3-.19-1-.12-2.01-.24-3-.07-.56-.2-1.11-.22-1.69-.02-.56-.13-1.13-.23-1.68-.03-.17-.12-.39-.25-.48-1.22-.86-2.34-1.84-3.49-2.78-1.26-1.02-2.6-1.96-3.88-2.96-.55-.42-1.05-.9-1.59-1.34-1.36-1.12-2.69-2.28-4.08-3.36-1.5-1.17-3.03-2.31-4.49-3.53-1.34-1.12-2.77-2.12-4.13-3.22-.51-.41-.99-.85-1.49-1.27-1.44-1.19-2.92-2.31-4.41-3.44-1.01-.77-1.91-1.67-2.93-2.42-1.01-.74-1.91-1.61-2.97-2.3-.61-.4-1.12-.93-1.68-1.42-.97-.85-2.02-1.61-3.07-2.36-.5-.36-.95-.77-1.42-1.17-1.1-.94-2.23-1.85-3.4-2.7-.65-.47-1.24-1.05-1.84-1.59-.83-.74-1.85-1.24-2.58-2.1-.71-.16-1.08-.82-1.63-1.21-1.46-1.04-2.8-2.27-4.19-3.41-.17-.14-.39-.21-.65-.34-.03.09-.07.21-.14.39h-69.39c-1.39.97-2.46,2.12-3.78,2.98-.61.4-1.12.94-1.68,1.42-1.03.87-2.02,1.78-3.09,2.6-1.31.99-2.54,2.08-3.83,3.11-1.28,1.03-2.55,2.08-3.83,3.11-1.31,1.06-2.6,2.14-3.92,3.18-1.07.85-2.1,1.76-3.21,2.56-1.12.81-2.08,1.83-3.19,2.66-1.1.82-2.1,1.75-3.21,2.56-1.09.79-2.04,1.76-3.1,2.58-1.12.86-2.1,1.88-3.31,2.63-.48.3-.9.71-1.34,1.08-1.12.95-2.21,1.93-3.34,2.85-.97.79-2,1.51-2.98,2.28-.63.5-1.2,1.1-1.85,1.58-1.13.84-2.1,1.88-3.3,2.64-.5.32-.95.77-1.42,1.17-.72.63-1.48,1.2-2.25,1.76-.47.34-.78.83-.74,1.47.02.4.03.8,0,1.19-.05.6-.18,1.2-.22,1.81-.04.59.14,1.24-.04,1.77-.28.81-.13,1.61-.21,2.41-.05.53-.15,1.05-.24,1.57-.08.48.24,1.03-.23,1.45-.04.04-.01.15,0,.23.18,1.41-.33,2.78-.26,4.19.03.56-.17,1.12-.21,1.69-.04.59.14,1.24-.04,1.77-.28.81-.13,1.61-.21,2.41-.05.49-.17.96-.23,1.45-.06.49.12,1.01-.24,1.45-.02.02,0,.08,0,.12.18,1.25-.31,2.47-.23,3.71.08,1.25-.4,2.45-.26,3.71.03.31-.12.66-.26.95-.12.25-.36.35-.68.35-1.62-.02-3.25-.01-4.97-.01.08-.68-.26-1.36.21-2.01.04-.05.03-.15.02-.23-.17-1.25.33-2.47.22-3.71-.05-.57.26-1.03.27-1.57,0-.49-.2-1.02.22-1.45.04-.04,0-.15,0-.23.08-1.51.14-3.03.24-4.54.04-.56.16-1.12.23-1.69.06-.56-.16-1.17.24-1.69.02-.03,0-.08,0-.12.08-1.16.15-2.31.24-3.47.04-.49.18-.96.22-1.45.04-.51-.12-1.08.04-1.54.3-.85.14-1.69.21-2.53.05-.56.16-1.12.23-1.69.06-.53-.14-1.09.24-1.57.02-.02,0-.08,0-.12.08-1.16.14-2.31.24-3.47.07-.76.18-1.52.29-2.34,1.15-1.19,2.54-2.21,3.93-3.23.65-.48,1.2-1.09,1.85-1.58,1.12-.85,2.1-1.88,3.3-2.64.55-.34,1.01-.82,1.51-1.24,1.11-.95,2.2-1.94,3.34-2.85,1.29-1.02,2.59-2.02,3.84-3.1,1.21-1.05,2.46-2.06,3.73-3.04,1.5-1.15,2.86-2.44,4.34-3.61,1.34-1.06,2.66-2.14,4.04-3.14.62-.45,1.17-1,1.76-1.5.53-.45,1-1.02,1.6-1.31.61-.29.92-.88,1.53-1.17.6-.29.99-.93,1.59-1.33.74-.49,1.34-1.17,2.02-1.74.49-.41.98-.85,1.54-1.16.58-.33.88-.94,1.5-1.24.6-.29,1.07-.86,1.6-1.3,1.5-1.26,2.96-2.57,4.51-3.76.82-.63,1.58-1.32,2.39-1.96,1.44-1.15,2.92-2.25,4.27-3.51.69-.65,1.51-1.16,2.37-1.8h2.71C92.97.01,116.09.02,139.21,0c.91,0,1.57.29,2.27.88.95.8,1.92,1.6,2.95,2.32,1.03.73,1.93,1.65,2.94,2.41.91.68,1.77,1.41,2.71,2.05.5.34.94.79,1.42,1.17,1.47,1.17,2.88,2.42,4.35,3.6,1.27,1.02,2.61,1.95,3.89,2.96,1,.78,1.91,1.67,2.93,2.42,1.01.74,1.91,1.61,2.97,2.3.61.4,1.11.95,1.68,1.41,1.3,1.04,2.58,2.12,3.97,3.05.57.38,1.02.93,1.58,1.35,1.44,1.09,2.74,2.34,4.19,3.41,1.28.94,2.42,2.07,3.79,2.89.52.31.95.77,1.42,1.16,1.11.93,2.22,1.86,3.4,2.7.59.42,1.11.95,1.68,1.42.97.8,1.96,1.55,2.97,2.29.49.36.94.78,1.42,1.17,1.54,1.25,3.06,2.52,4.66,3.7.4.29.67.74,1.16.94.13.05.23.31.25.47.03.42.01.85.01,1.28.08,0,.17-.02.25-.02Z"/>
      <path class="cls-1" d="M147.56,178H60.03c0-.39-.13-.71-.43-1-1.17-1.13-2.38-2.23-3.44-3.45-1.92-2.2-4.1-4.14-6.05-6.3-1.82-2.01-3.83-3.83-5.62-5.86-1.85-2.1-3.92-3.98-5.8-6.04-.38-.41-.79-.81-1.12-1.28-.39-.54-.93-.97-1.41-1.44-.45-.45-.9-.9-1.35-1.35-.45-.45-.94-.86-1.34-1.35-1.73-2.15-3.91-3.89-5.7-5.97-1.57-1.83-3.39-3.4-4.98-5.19-2.07-2.32-4.38-4.41-6.44-6.72-1.6-1.8-3.42-3.37-4.98-5.19-1.38-1.62-2.92-3.07-4.39-4.6-.04-.05-.03-.14-.05-.22.01-.03.02-.07.04-.1.02-.03.06-.08.08-.08,2.38,0,4.76,0,7.13,0,.98.98,2.03,1.91,2.93,2.96,2.42,2.82,5.26,5.23,7.73,7.99,2.29,2.55,4.83,4.84,7.14,7.37,2.77,3.02,5.8,5.79,8.55,8.82,2.18,2.4,4.62,4.53,6.74,6.96,2.11,2.41,4.5,4.52,6.65,6.88,1.4,1.53,2.82,3.04,4.29,4.5,1.49,1.48,2.97,2.97,4.48,4.48h81.91c9.36-9.36,18.72-18.72,28.09-28.08.5-.5.93-1.06,1.47-1.53.54-.48,1.2-.9,1.46-1.64.83-.14.85-1.18,1.63-1.46.33-.12.47-.69.78-.94.28-.23.62-.32.75-.75.12-.39.75-.3.9-.8.11-.36.36-.67.81-.73.12-.01.26-.19.33-.32.42-.71,1.12-1.16,1.59-1.82.18-.26.59-.22.69-.65.06-.26.42-.46.64-.68,3.5-3.5,7.01-7.01,10.53-10.53h7.57c-.1.21-.16.37-.23.51-.09.16-.21.31-.29.48-.14.3-.2.65-.39.9-.29.37-.66.68-1,1.02-3,3-6.01,6-8.99,9.01-.4.41-.94.71-1.1,1.33-.76.26-.97,1.09-1.6,1.52-.52.35-.85.97-1.42,1.34-.34.22-.51.66-.81.96-5.18,5.19-10.37,10.38-15.55,15.57-.32.32-.65.62-.87,1.06-.24.47-.83.69-1.14,1.17-.23.36-.68.49-.93.9-.25.43-.7.74-1.07,1.11l-1.01,1.01c-.36.36-.73.73-1.09,1.09-.34.34-.67.67-1.01,1.01-.34.34-.67.67-1.01,1.01-.36.36-.73.73-1.09,1.09-.34.34-.67.67-1.01,1.01-.34.34-.67.67-1.01,1.01-.36.36-.73.73-1.09,1.09-.34.34-.67.67-1.01,1.01-.36.36-.73.73-1.09,1.09-.34.34-.67.67-1.01,1.01-.34.34-.67.67-1.01,1.01-.36.36-.73.73-1.09,1.09-.34.34-.69.66-1.01,1.01-.54.61-1.23,1.06-1.62,1.82-.14.27-.66.35-.77.61-.15.36-.43.46-.67.67-.51.45-.88,1.05-1.31,1.59Z"/>
      <path class="cls-1" d="M85.57,51.41h61.77c.08,0,.16,0,.24,0,.46,0,.91-.07,1.27.41.38.51.56,1.09.36,1.61-.32.84-.38,1.73-.65,2.58-.29.92-.33,1.92-.51,2.89-.13.65-.2,1.36-.5,1.93-.36.68-.14,1.4-.39,2.1-.23.64-.28,1.39-.45,2.08-.17.68-.31,1.37-.5,2.04-.16.55-.15,1.2-.29,1.79-.2.87-.42,1.73-.62,2.6-.06.26-.09.53-.13.84-.24.23-.52.51-.81.79h-61.73c-.08,0-.16,0-.24,0-.46,0-.91.07-1.27-.41-.38-.51-.6-1.14-.35-1.6.31-.54-.08-1.19.42-1.62.13-1.08.33-2.13.68-3.17.15-.44.15-.96.25-1.44.31-1.42.44-2.87.94-4.25.15-.42.05-.87.23-1.33.23-.58.19-1.27.28-1.91.03-.18.13-.34.17-.52.18-.76.38-1.51.53-2.28.11-.56.13-1.13.26-1.68.06-.28.23-.55.4-.78.19-.25.43-.46.64-.67ZM82.18,71.6h61.65c-.56-.68-1.06-1.29-1.53-1.87h-57.78c-.81.65-1.57,1.25-2.34,1.87ZM146.09,60.94c-.12-.65.53-1.22.2-1.95-.11.2-.19.35-.28.49-.22-.34-.42-.1-.48.07-.12.33-.27.44-.64.45-.56.01-.62.19-.53.93.31,0,.63-.05.93.01.26.06.5-.47.8,0Z"/>
      <path class="cls-1" d="M72.01,153.01h63.33c1.23-1.23,2.49-2.49,3.75-3.75,5.33-5.33,10.66-10.65,15.98-15.99.43-.43.9-.83,1.21-1.4.22-.41.83-.48,1.09-.96.16-.3.55-.46.78-.73.23-.27.29-.62.74-.77.33-.11.48-.67.81-.88.33-.22.63-.4.76-.79.04-.14.17-.31.29-.34.54-.15.68-.68,1.03-.97.35-.29.71-.49.89-.95.06-.14.31-.19.45-.31.23-.2.45-.41.66-.64.12-.14.18-.43.29-.45.56-.08.56-.74.92-.9.46-.21.66-.56.91-.93.17-.25.4-.42.78-.41,1.9.03,3.81.01,5.71.02.06,0,.13.07.22.12-.03.1-.04.28-.1.3-.58.19-.91.52-.88,1.18,0,.15-.16.33-.28.47-.28.35-.52.78-.88,1-.42.26-.56.74-.89.97-.86.6-1.4,1.48-2.14,2.19-.8.77-1.57,1.57-2.36,2.35-2.55,2.55-5.19,5.02-7.64,7.67-4.56,4.94-9.48,9.53-14.14,14.36-.56.58-1.12,1.15-1.62,1.8-.53.69-1.21,1.25-1.83,1.87-.62.62-1.23,1.23-1.87,1.87h-68.13c-.05-.23-.09-.45-.16-.65-.04-.1-.16-.17-.24-.26-2.55-2.63-5.16-5.21-7.64-7.91-2-2.17-4.18-4.18-6.13-6.39-1.65-1.86-3.47-3.53-5.16-5.35-.28-.3-.44-.79-.78-.96-.41-.21-.48-.63-.8-.87-.37-.29-.68-.66-1.02-1-.31-.31-.62-.62-.93-.93-.31-.31-.62-.62-.93-.93-.31-.31-.65-.59-.92-.93-1.6-2-3.59-3.63-5.27-5.54-1.22-1.39-2.53-2.68-3.8-4.01-.07-.07-.08-.2-.11-.29.05-.05.08-.11.1-.11,1.98,0,3.95,0,6.03,0,1.39,1.39,2.94,2.76,4.27,4.32,1.33,1.57,2.85,2.92,4.23,4.42.53.57,1.18,1.02,1.51,1.75.85.43,1.21,1.34,1.91,1.93.72.61,1.37,1.32,2.03,2.01,1.13,1.19,2.22,2.41,3.36,3.58,1.18,1.22,2.5,2.33,3.59,3.64,1.69,2.04,3.74,3.72,5.47,5.7,1.13,1.3,2.35,2.52,3.56,3.77Z"/>
      <path class="cls-1" d="M76.89,24.29c-1.47,1.27-2.85,2.52-4.3,3.69-.9.72-1.77,1.47-2.67,2.18-1.17.92-2.22,1.99-3.46,2.81-.51.34-.87.85-1.4,1.2-.74.48-1.35,1.16-2.02,1.74-.38.32-.77.62-1.16.93-.36.28-.64.63-1.06.88-.58.35-1.02.92-1.59,1.33-.75.54-1.36,1.27-2.11,1.82-1.21.88-2.24,1.96-3.47,2.8-.67.45-1.19,1.12-1.86,1.57-.9.6-1.53,1.5-2.47,2.05-.4.23-.68.66-1.02,1h-5.4s0-.09,0-.14c.56-.03,1.11-.06,1.67-.09,0-.05,0-.11,0-.16h-2.97c.8-.73,1.4-1.45,2.16-1.9.6-.35,1.01-.9,1.61-1.25.78-.47,1.37-1.26,2.12-1.8,1.11-.8,2.05-1.82,3.22-2.56.54-.34.95-.88,1.49-1.27.82-.58,1.52-1.33,2.28-1.99.31-.27.66-.51.99-.76.3-.23.47-.62.91-.69.13-.02.23-.21.34-.32.78-.79,1.66-1.48,2.57-2.11.6-.42,1.12-.94,1.68-1.42,1.11-.95,2.2-1.94,3.35-2.85.93-.74,1.85-1.5,2.75-2.27,1.04-.89,2.15-1.69,3.22-2.54.25-.2.45-.44.68-.67.7-.71,1.5-1.3,2.32-1.86.23-.15.41-.38.59-.58.51-.59,1.13-.81,1.93-.81,7.89.02,15.78.01,23.68.01h33.19c1.07.79,2.03,1.7,3.16,2.42.5.32.94.78,1.42,1.17,1.13.91,2.24,1.83,3.41,2.69.55.41,1.03.92,1.58,1.35,1.47,1.15,2.87,2.37,4.4,3.45,1,.7,1.87,1.6,2.85,2.33,1.53,1.14,2.88,2.49,4.47,3.55.54.36,1,.84,1.51,1.25.97.79,1.95,1.56,2.97,2.29.49.35.92.8,1.41,1.18,1.1.84,2.07,1.85,3.19,2.66,1.35.98,2.55,2.16,3.96,3.06.12.08.09.4.14.65h-6.46c.08-.12.12-.19.23-.35-.24-.16-.5-.3-.73-.5-.27-.23-.47-.6-.77-.73-.81-.34-1.26-1.09-1.96-1.57-1.38-.95-2.6-2.14-3.94-3.15-1.16-.87-2.25-1.82-3.41-2.69-1.4-1.05-2.69-2.22-4.13-3.23-.94-.66-1.79-1.44-2.67-2.17-1.33-1.09-2.64-2.21-4-3.27-1.23-.96-2.45-1.96-3.67-2.93-1.27-1.01-2.55-2.03-3.87-2.98-.25-.18-.45-.44-.64-.63-.48.07-.92.18-1.36.18-5.67.01-11.34,0-17.01,0h-35.82Z"/>
      <path class="cls-1" d="M76.31,73.07h-23.33c-.24-.27-.49-.56-.83-.94-.07-.76.29-1.58.37-2.43.08-.91.46-1.73.62-2.62.23-1.27.39-2.58.84-3.81.17-.46.11-.95.27-1.43.31-.96.28-2.02.55-2.99.2-.72.41-1.42.54-2.16.09-.55.27-1.08.39-1.62.17-.84.27-1.71.5-2.53.12-.41.48-.76.72-1.12h12.43c3.45,0,6.9.01,10.35-.01.48,0,.86.1,1.1.49.25.41.57.86.29,1.36-.28.51-.25,1.09-.37,1.63-.22,1.02-.41,2.04-.69,3.05-.14.49-.2,1.03-.29,1.55-.23,1.32-.47,2.63-.91,3.91-.16.46-.03.95-.26,1.44-.23.49-.11,1.14-.29,1.66-.17.49-.07,1.06-.45,1.48.04,1-.38,1.92-.48,2.9-.1,1.01-.29,1.43-1.07,2.21ZM74.18,69.74h-16.32c-.48,0-.95,0-1.43,0-.15,0-.33,0-.44.09-.46.35-1,.65-1.3,1.11-.23.36-.54.45-.83.66h21.84c-.54-.65-1.04-1.27-1.53-1.86Z"/>
      <path class="cls-1" d="M153.62,51.41c7.51,0,15,0,22.49,0,.92,0,1.34.23,1.58.98.11.34.16.82,0,1.1-.39.71-.38,1.51-.57,2.26-.28,1.04-.37,2.12-.71,3.16-.15.44-.13.96-.25,1.44-.33,1.33-.36,2.73-.94,4.02-.18.4-.13.88-.23,1.32-.24,1.09-.47,2.18-.71,3.27-.2.91-.37,1.84-.53,2.77-.14.86-.67,1.31-1.52,1.34-.2,0-.4,0-.59,0h-21.87c-.13-.15-.33-.35-.49-.57-.31-.44-.83-.87-.27-1.47-.03-1.41.83-2.67.71-4.1.4-.69.18-1.55.63-2.24.26-.4-.08-1,.32-1.41-.09-1.12.5-2.14.48-3.25.63-1.18.43-2.55.93-3.78.22-.54.04-1.26.3-1.78.28-.57.04-1.22.44-1.72-.14-.7.54-.89.81-1.33ZM170.82,69.74h-18.06c-.78.63-1.53,1.23-2.32,1.86h21.8c-.48-.63-.96-1.25-1.42-1.86Z"/>
    </g>
  </g>
</svg>