<?xml version="1.0" encoding="UTF-8"?>
<svg id="Capa_2" data-name="Capa 2" xmlns="http://www.w3.org/2000/svg" viewBox="0 0 176.69 177">
  <defs>
    <style>
      .cls-1 {
        fill: #000;
        stroke-width: 0px;
      }
    </style>
  </defs>
  <g id="Capa_1-2" data-name="Capa 1">
    <g>
      <path class="cls-1" d="M0,100.34c1.23.16,2.47.25,3.68.48,11.18,2.04,22.35,4.1,33.53,6.15,9.34,1.71,18.68,3.42,28.02,5.14,8.32,1.54,16.63,3.11,24.94,4.65,9.08,1.68,18.16,3.35,27.25,5,8.73,1.59,17.47,3.14,26.2,4.73,10.05,1.84,20.1,3.71,30.15,5.55.96.18,1.94.27,2.91.4v44.56h-28.05c-.45-.24-.87-.54-1.34-.72-10.98-4.39-21.96-8.78-32.94-13.16-11.03-4.4-22.05-8.82-33.08-13.21-9.92-3.95-19.86-7.87-29.78-11.82-15.56-6.2-31.12-12.42-46.68-18.61C3.24,118.84,1.61,118.35,0,117.79c0-5.82,0-11.63,0-17.45Z"/>
      <path class="cls-1" d="M147.08,0c-2.63,1.08-5.26,2.19-7.9,3.25-11.53,4.58-23.06,9.14-34.59,13.69-10.19,4.02-20.38,8-30.57,12.02-10.86,4.28-21.7,8.6-32.56,12.88-11.1,4.37-22.22,8.72-33.33,13.08-2.37.93-4.72,1.88-7.09,2.8-.33.13-.69.16-1.04.24,0-6.96,0-13.92,0-20.88.33-.14.68-.25.98-.44,10.02-6.37,20.03-12.75,30.04-19.13,7.3-4.65,14.61-9.3,21.89-13.98C54.63,2.42,56.28,1.18,57.96,0c29.71,0,59.42,0,89.12,0Z"/>
      <path class="cls-1" d="M0,134.31c2.3,1.4,4.61,2.78,6.89,4.21,7.91,4.96,15.82,9.93,23.72,14.92,8.38,5.29,16.74,10.61,25.11,15.91,3.42,2.16,6.86,4.3,10.28,6.46.56.36,1.08.79,1.62,1.19H16.2c-.32-.4-.6-.83-.96-1.18-2.83-2.79-5.66-5.57-8.52-8.33C4.5,165.34,2.24,163.23,0,161.11c0-8.93,0-17.87,0-26.8Z"/>
      <path class="cls-1" d="M15.58,0c-1.02,1.09-2.01,2.21-3.08,3.25-3.73,3.65-7.48,7.29-11.24,10.91C.91,14.5.42,14.7,0,14.96,0,9.97,0,4.99,0,0c5.19,0,10.39,0,15.58,0Z"/>
      <path class="cls-1" d="M79.47,72.61c-.13.14-.26.28-.44.47-.78-1.77-.55-3.52-.56-5.26,0-.77.04-1.58-1.46-1.46.57-.7.94-1.14,1.31-1.59-.08-.55-.16-1.11-.24-1.66-.18.06-.39.12-.79.25.1-.98.18-1.78.3-2.95.37.7.59,1.09.86,1.6v-2.67c-.37-.3-.76-.62-1.11-.89.11-.55.2-1.02.29-1.5,1.45-.45,2.94-.87,4.39-1.37,5.22-1.79,10.73-2.25,16.08-3.44,3.57.2,6.94-1,10.42-1.45.3-.04.6,0,1.08,0,0,1.01.05,1.93-.01,2.84-.07.97-.38,1.14-1.43,1.06-.79-.06-1.63-.28-2.33.63.76-.04,1.4-.08,2.16-.12v4.38h-1.4c1.51,1.91,1.56,3.94,1.52,6.03-.06,3.43-.02,6.85-.02,10.28,0,2.06.12,2.21,2.25,2.11,5.65-.26,11.31-.54,16.96-.83,7-.35,14-.82,21-.99,2.1-.05,4.15-.42,6.25-.4,2.07.02,4.15-.19,6.22-.29.47-.02.94-.08,1.4-.04,1.11.08,1.66.68,1.69,1.78.01.42.06.84-.01,1.24-.15.85.59,2.02-1,2.37-.89.2-1.59.58-2.63.24-1.06-.35-2.25-.41-3.53-.22-2.83.41-5.69,1.35-8.57.83-1.97-.36-3.95-.04-5.85-.38-4.04-.72-8.06.05-12.08-.12-1.28-.05-2.55-.37-3.82-.33-1.32.05-2.62.48-3.94.57-2.43.16-4.88.2-7.31.28-1.92.06-3.84.16-5.76.14-.91,0-1.83-.36-2.74-.34-3.22.05-6.49-.15-9.64.38-3.66.61-7.33.36-10.97.73-1.22.12-1.31.21-1.56,2.02h-6.52c-.54-2.03-.44-2.32,1.16-3.25.06.56.13,1.11.19,1.66.07,0,.14,0,.2-.01.08-.39.16-.79.24-1.18.09,0,.17,0,.26,0,.07.37.13.73.2,1.13.07-.04.17-.07.17-.11.07-1.05.12-2.11.2-3.16.1-1.24-.48-1.97-1.65-1.95v-1.42c.07-.01.14-.03.22-.04.11.3.22.6.39,1.06.18-.33.39-.55.42-.8.1-.68.46-1.04,1.12-1.07.96-.04,1.47-.35,1.18-1.45-.1-.36.1-.8.18-1.33h-2.97c0-.13,0-.25,0-.38.38-.36.78-.73-.16-1.24.08.53.14.9.2,1.27-.03.03-.08.07-.08.1.01.08.05.15.08.22ZM105.33,53.89s.06.05.09.07c-.04-.01-.08-.03-.12-.04l.03-.03ZM79.4,62.53c.13,0,.25,0,.38,0,.24-1.28.28-2.57,0-3.85h-.37v3.85ZM85.85,73.14c.07-.08.14-.17.22-.25-.39-.55-.06-1.51-1.1-1.75-.2.6-.39,1.15-.61,1.79.51.07,1,.14,1.49.21ZM85.14,76.81c1,.19.99-.41.89-.98-.04-.23-.33-.6-.48-.59-.68.04-.5.61-.52,1.04,0,.14.06.29.11.53ZM88.76,57.28c-.24-.4-.44-.72-.65-1.06q-.45.96.65,1.06ZM94.78,62.96l-.33-.27c-.41.5-.83.99-1.24,1.49.1.08.2.16.3.25.42-.49.85-.97,1.27-1.46ZM97.68,59.43c.11.12.23.25.34.37.27-.17.53-.35.8-.52-.14-.15-.28-.29-.42-.44-.24.2-.48.39-.72.59ZM85.46,79.11c-.06-.24-.06-.44-.15-.58-.08-.13-.26-.2-.5-.37-.1.6-.21,1.02.66.95ZM103.1,55.93c.02.08.04.16.05.24.34-.07.68-.14,1.02-.21-.02-.09-.04-.18-.06-.27-.34.08-.67.16-1.01.24ZM91.65,56.68c-.28-.11-.45-.19-.46-.17-.07.12-.12.25-.17.39.16-.05.32-.11.63-.21ZM100.12,58.11c-.12-.12-.24-.24-.36-.36-.17.21-.34.43-.51.64.11.1.22.19.33.29.18-.19.36-.38.54-.57ZM87.19,66.88c-.03.12-.08.23-.09.34,0,.03.21.1.23.08.07-.08.1-.2.15-.31-.08-.03-.16-.06-.29-.11ZM87.19,70.22c-.04.12-.09.23-.09.34,0,.03.21.11.22.09.07-.09.11-.21.15-.32-.08-.03-.16-.06-.28-.11ZM100.67,57.14c-.05.06-.11.12-.16.18.03.02.08.08.1.07.08-.03.14-.08.22-.12-.05-.04-.1-.08-.16-.13ZM86.57,69.52s.09-.05.13-.07c-.05-.05-.11-.1-.16-.14-.02.04-.06.09-.06.12,0,.03.06.06.09.09ZM79.95,66.84s-.07.06-.07.09c0,.04.03.08.05.11.03-.03.07-.06.07-.09,0-.03-.03-.07-.05-.11Z"/>
      <path class="cls-1" d="M51.43,76.98c-.29-.21-.84-.41-.84-.62,0-1.29-.95-1.09-2.09-1.28.7.83,1.21,1.45,1.82,2.17-1.26.13-1.34.99-1.33,2,.04,2.33.02,4.66,0,6.99,0,1.66-.03,1.79-1.62,1.69-2.05-.13-4.08-.62-6.13-.69-1.96-.07-3.58-1.19-5.57-1.5-.05.46-.09.88-.14,1.34,1.33.48,2.92-.2,4.1,1.4-1.65.18-3.1.05-4.79.08.16-8.21-.33-16.32.38-24.55,4.33-.82,8.63-1.64,13-2.46.23.41.42.74.65,1.15,2.77-.48,5.53-.94,8.28-1.42,3.83-.68,7.66-1.36,11.48-2.09,1.46-.28,2.89-.72,4.34-1.01.46-.09.96.06,1.5.11.02.52.14.9.04,1.22-.31.98-.21,1.91,0,2.89.15.7.17,1.48-.48,2.02-.22.18-.5.37-.78.4-3.13.39-6.27.7-9.4,1.12-1.84.25-3.66.71-5.5.96-2.66.37-5.34.62-8.01.96-1.33.17-1.33.2-1.36,1.55-.02.87,0,1.73,0,2.76,2.11-.22,4-.42,5.89-.63,4.49-.5,8.97-1.02,13.46-1.49,1.68-.18,1.77-.07,1.78,1.63,0,1.34,0,2.69,0,4.16-.61.08-1.1.18-1.61.22-4.35.33-8.69.65-13.04.97-1.18.09-2.36.17-3.54.22-.18,0-.36-.18-.54-.28.29-.13.57-.26.86-.39-.45-.14-.98-.37-.84.41ZM46.58,73.74c.11-.07.22-.13.33-.2-.34-.58-.53-1.36-1.03-1.7-1.88-1.28-3.17-3.09-4.61-4.78.75,3.07,2.98,4.91,5.32,6.68ZM35.29,84.1c.2.15.39.35.46.32.14-.07.3-.27.31-.41,0-.12-.21-.25-.32-.38-.12.13-.25.26-.45.47ZM41.35,65.13c0-.09,0-.18,0-.27,0,0-.07,0-.11,0,0,.09,0,.18,0,.27,0,0,.07,0,.11,0Z"/>
      <path class="cls-1" d="M80.72,87.86h-3.38c-.08-.23-.2-.54-.31-.83.13-.14.19-.26.27-.28,1.87-.36,3.75-.71,5.62-1.06.29-.05.64-.18.89-.09.83.31,1.31-.13,1.67-.74.32-.55.75-.68,1.35-.83,1.53-.37,2.99-.66,4.58-.21.57.16,1.29-.31,1.94-.31,2.47-.02,4.95-.28,7.36.58.41.15.93.07,1.39.02,1.17-.13,2.35-.28,3.52-.45.91-.13,1.82-.36,2.73-.43.76-.06,1.53.07,2.3.07.86,0,1.72,0,2.57-.11,1.6-.19,3.11-1.23,4.81-.38.23.12.66.05.89-.1.54-.35,1.04-.42,1.59-.07.04.03.1.06.15.05,2.28-.41,4.57.31,6.85-.04.2-.03.43-.03.61-.11,1.51-.75,2.98-.5,4.49.06.65.24,1.39.36,2.09.37,1.97.01,4.02-.4,5.9,0,1.98.41,3.9.24,5.85.31,1.04.04,2.08.02,3.11-.06.65-.05,1.29-.32,1.94-.39.86-.09,1.73-.16,2.6-.11.8.04,1.59.32,2.4.36.98.05,1.97-.09,2.96-.05,1.67.08,3.34.24,5.34.39-.42.62-.63.92-.89,1.31.2.27.43.58.68.93-.57.71-1.29.98-2.17.94-.75-.03-1.5,0-2.25,0-.01.11-.03.21-.04.32.25.09.54.13.75.29.21.16.34.42.5.64-.23.17-.47.48-.69.48-.82-.02-1.67-.03-2.44-.27-1.09-.33-2.09-.38-3.17.02-.42.16-1,.15-1.43,0-1-.35-1.89-.71-3.06-.41-.94.24-2.04-.11-3.07-.21-2.14-.22-4.28-.59-6.38.25-.29.11-.69-.03-1.03-.1-.45-.09-.93-.4-1.32-.3-1.83.48-3.63-.24-5.44-.02-.86.11-1.71.3-2.56.41-.56.07-1.22.26-1.68.05-1.41-.64-2.85-.41-4.29-.42-1.71-.02-3.43-.05-5.14.04-2.21.11-4.41.45-6.61.46-2.36,0-4.73-.39-7.09-.39-1.63,0-3.26.36-4.89.55-.54.06-1.09.12-1.64.12-2.11,0-4.22,0-6.33-.03-2.78-.04-5.56-.13-8.34-.18-1.14-.02-2.27-.02-3.41-.02,0,0,.03.03.03.03-.22,0-.45,0-.67,0l.03-.03ZM111.04,86.76c0-.12,0-.24-.01-.36-1.69.06-3.38-.12-5.05.36h5.06ZM91.94,86.49v-.19c-.21-.02-.43-.03-.65-.05,0,.08,0,.16,0,.24h.66ZM146.64,85.93s.07-.05.11-.08c-.08-.04-.15-.08-.23-.1-.03,0-.07.05-.11.08.07.04.15.07.23.11ZM85.37,86.5c0-.05,0-.11,0-.16-.16,0-.31.02-.47.02,0,.05,0,.09,0,.14h.47ZM120.22,86.37c-.07.04-.15.09-.22.13.07.05.14.13.21.13.07,0,.15-.08.22-.13-.07-.04-.14-.09-.22-.13ZM88.53,86.38s-.08.02-.11.03c0,.03.02.09.03.09.04,0,.08-.02.11-.02,0-.03-.02-.06-.03-.09Z"/>
      <path class="cls-1" d="M21.26,75.36c3.94,4.26,8.03,7.96,11.66,12.23-4.44,1-8.88.49-13.35.46.47-.11.95-.22,1.31-.31-.48-.6-1-1.24-1.5-1.89-1.19-1.56-2.4-3.1-3.53-4.71-.33-.47-.5-1.12-.55-1.7-.16-1.9-.29-3.81-.28-5.72,0-.67.33-1.39.69-1.99.31-.52.83-.93,1.31-1.31,1.05-.83,1.92-1.75,1.81-3.26.91-.27,1.56-.8,2.53.17,1.32,1.34,3.09.74,3.8-.97.11-.27.45-.56.74-.62.85-.19,1.72-.27,2.66-.4.12.44.23.82.35,1.27.98-.12,1.92-.24,3.17-.39-.7.72-1.33,1.17-1.66,1.78-.39.71-.99.92-1.61,1.29-1.24.73-2.36,1.67-3.47,2.58-1.35,1.1-2.64,2.27-4.05,3.49ZM28.18,66.39c0,.08,0,.16,0,.25.02-.03.06-.06.07-.1.01-.04,0-.09,0-.13,0-.01-.05-.01-.06-.02Z"/>
      <path class="cls-1" d="M5.07,73.64c-.14.5-.38,1-.41,1.51-.06,1.14-.01,2.28-.03,3.42,0,.22-.11.44-.35.64-.26-2.7-.55-5.39-.2-8.22.46.22.81.39,1.33.65.19-.65.35-1.22.57-1.99,1.7-.3,3.5-.61,5.54-.96v6.4q1.1,0,1.59.61.23-1.68,1.43-2.47c.07.13.19.25.19.38.06,1.92.1,3.84.14,5.75.01.64-.04,1.29-.72,1.59-2.91,1.29-2.79,3.68-2.31,6.21.04.2.07.4.14.77-2.53.48-5.04.29-7.6.33-.08-.23-.2-.42-.19-.59.19-1.76-.37-3.64.32-5.28,1.15-2.72.63-5.43.44-8.17-.01-.2.06-.41.09-.61.06-.3.11-.61.17-.91-.07,0-.14-.01-.21-.02.02.32.04.64.06.96ZM13.14,80.17s.04-.05.06-.07v-3.17s-.04,0-.06,0v3.24Z"/>
      <path class="cls-1" d="M38.84,89.56c-.05.3-.04.37-.06.38-1.73.85-1.87,1.14-1.33,2.8.23.7,1.42,2.51,1.89,2.86,1.75-.96,1.51-3.06,2.59-4.77.37,1.91-1.4,3.34-.14,5.04h-13.74c.09-1.13.26-2.1.22-3.07-.04-.97.4-2.05-.5-3,2.3-1.06,4.68.38,6.84-.33,0,1.11-.08,2.18.02,3.23.09,1-.53,2.21.7,3.01.53-.41.57-.87.23-1.36-.74-1.07-.38-1.99.48-2.73.62-.54.74-1.03.09-1.83,1.01-.09,1.84-.16,2.72-.24ZM31.82,89.75c-.46.44-.89.66-.9.9-.06,1.38-.07,2.77,0,4.14.01.26.44.5.82.9.28-.69.6-1.12.57-1.52-.08-1.35-.29-2.7-.5-4.42Z"/>
      <path class="cls-1" d="M104.41,91.92c-.09,1.31-.38,2.64.47,3.97h-1.81c.22-.85.5-1.61.6-2.39.1-.78.02-1.58.02-2.37.1-.02.2-.03.3-.05-.2-.23-.36-.53-.61-.67-.34-.18-.81-.41-1.1-.29-.25.1-.44.65-.44,1-.02,1.52.03,3.05.06,4.68-.33,0-.9,0-1.48,0-.53,0-1.07,0-1.61,0,.57-2.02.44-3.98.15-6.12.69-.57,1.71-.24,2.66-.26.83-.02,1.66.18,2.48.13,1.66-.08,2.19.16,2.94,1.58.23.44.49.86.87,1.51.51-1.23,0-2.09-.3-3.03.68.06,1.22.11,1.8.16-.72,1.41-1.07,2.82-.74,4.34.05.25.17.49.2.75.1.92-.59,1.47-1.31.91-.86-.68-1.52-1.63-2.23-2.48-.35-.42-.63-.9-.95-1.35-.03-.05-.06-.1-.09-.14,0,.03,0,.07.01.08.03.02.07.03.11.04Z"/>
      <path class="cls-1" d="M90.66,89.55c-.73,2-.19,4.03-.36,5.99-2.1.64-4.2.45-6.36.32.73-2.13.5-4.14.23-6.31h6.49ZM87.07,92.17c.69.16.95-.17.82-.65-.14-.53.33-1.37-.82-1.63v2.27ZM87.08,92.88v2.53c1.16-.7.63-1.62.78-2.46-.32-.03-.56-.05-.78-.08Z"/>
      <path class="cls-1" d="M115.24,89.64c.08-.32.13-.54.2-.82,1.22,1.03,1.31,1.51.58,3.02-.8-.72-1.07-2.14-2.71-1.82-.37,1.73-.6,3.52.42,5.59.61-1.2.47-2.01-.27-2.95h3.08c-.04.89-.08,1.7-.11,2.48-1.77.88-3.51,1.38-5.11.02-1.1-.94-1.24-2.69-.52-4,1.01-1.86,2.64-2.05,4.45-1.52Z"/>
      <path class="cls-1" d="M129.98,95.87c.53-2.19.49-4.13-.04-6.28h5.29v1.84c-.75-.56-1.35-1-2.16-1.6-.07.96-.11,1.62-.16,2.29l.31.12c.3-.25.6-.5,1.06-.88v2.55c-.42-.23-.78-.44-1.16-.65-.78.69-.18,1.34-.13,1.98,1.18.31,1.28-.92,2.06-1.27.65.56.56,1.19.17,1.91h-5.25Z"/>
      <path class="cls-1" d="M53.65,95.87c.77-2.22.64-4.17,0-6.3h5.45c.03.25.09.5.09.75,0,.3-.05.6-.12,1.21-.45-.41-.7-.68-1-.89-.33-.23-.7-.4-1.26-.72-.07.86-.13,1.52-.19,2.19.11.07.22.14.33.2.31-.28.63-.56.97-.87.64.8.24,1.63.33,2.43-.1.04-.21.08-.31.12-.36-.33-.73-.65-1.28-1.14v2.41c1.29.24,1.49-1,2.5-1.41v2.03h-5.5Z"/>
      <path class="cls-1" d="M91.38,89.52c1.6,0,2.99,0,4.39,0,.24,0,.48.04.71,0,1.44-.19,1.78.16,1.47,1.58-.06.26-.27.48-.52.9-.36-.84-.12-1.84-1.33-1.96-.09,1.92-.56,3.84.46,5.98-1.26-.06-2.34-.12-3.26-.17.12-1.95.23-3.8.34-5.68-1.31-.07-.97,1.19-1.82,1.7-.15-.78-.28-1.47-.44-2.36Z"/>
      <path class="cls-1" d="M139.53,93.69c-.31-1.33-.59-2.51-.9-3.79.81-.19,1.53-.37,2.4-.58.65,2.22,1.26,4.32,1.92,6.57-.92.04-1.97.1-3.09.15v-1.73c-.59-.07-1.12-.12-1.91-.21.13.64.22,1.13.35,1.75h-1.9c.69-1.54,1.39-3.1,2.08-4.66.09.02.17.03.26.05-.16.79-.32,1.57-.5,2.44h1.29Z"/>
      <path class="cls-1" d="M79.78,89.74c-.29.31-.84.61-.84.92,0,1.43.13,2.86.25,4.28.01.15.22.29.39.52.77-1.02.3-1.88-.19-2.85h2.8v2.57c-1.32.52-2.51,1.1-4.01.58-1.16-.4-1.65-1.24-1.89-2.19-.37-1.45.53-3.21,1.84-3.95.53-.3,1.14-.49,1.63.15l.02-.03Z"/>
      <path class="cls-1" d="M147.39,89.75c-.25.31-.71.61-.73.94-.12,1.56-.41,3.17.5,4.67.74-.92.74-1.31.02-2.71h2.92c-.07.95-.13,1.75-.2,2.59-1.25.32-2.31,1.09-3.73.54-1.46-.57-2.29-1.5-2.22-3.03.06-1.35.8-2.33,1.82-3.09.48-.36,1.11-.53,1.59.12l.02-.03Z"/>
      <path class="cls-1" d="M123.71,89.47c.58,0,1.08-.03,1.57,0,.49.04.97.17,1.36.24v5.49c1.32.47,1.32-1.23,2.4-1.45.08.66.14,1.26.22,1.91h-5.38c.29-2.03.43-3.96-.17-6.2Z"/>
      <path class="cls-1" d="M46.25,95.91c-.98.04-1.98.09-3.06.14v-1.68c-.41-.08-.82-.16-1.62-.31.6-.23.87-.34,1.21-.47-.26-1.17-.52-2.35-.81-3.66.75-.2,1.46-.39,2.33-.62.66,2.21,1.28,4.32,1.96,6.6Z"/>
      <path class="cls-1" d="M15.16,96.04v-1.69c-.44-.07-.84-.13-1.24-.19-.02-.08-.04-.16-.06-.25.29-.09.58-.17.95-.28-.27-1.19-.55-2.39-.85-3.71.74-.2,1.44-.38,2.34-.62.64,2.21,1.26,4.31,1.92,6.58-.95.05-2.02.1-3.05.16Z"/>
      <path class="cls-1" d="M72.6,89.6h3.12c-.35,2.07-.67,4.05.07,6.2h-3.34c.62-2,.45-3.95.15-6.2Z"/>
      <path class="cls-1" d="M6.92,95.94h-3.5c1.67-2.08,0-4.28.65-6.38h2.66c-.16,2.06-.45,4.19.19,6.38Z"/>
      <path class="cls-1" d="M158.91,95.86c.47-2.03.56-4.01-.07-6.09.88-.93,1.83.03,2.99.01,0,1,0,1.96,0,2.92,0,.8-.06,1.61-.04,2.41.02.6-.28.88-.82.88-.69,0-1.37-.08-2.07-.13Z"/>
      <path class="cls-1" d="M50.19,95.34c-.8,1.31-1.87.29-3.01.47.61-1.23,1.12-2.26,1.64-3.29.28-.55.59-1.08.83-1.65.47-1.09,1.56-1.63,2.66-1.25.12.04.2.22.36.4-.83,1.77-1.68,3.56-2.52,5.35l.03-.03Z"/>
      <path class="cls-1" d="M65.7,95.87c.72-2.18.85-4.24.08-6.36h2.73c.69,2.13-.74,4.34.62,6.36h-3.44Z"/>
      <path class="cls-1" d="M23.7,95.68c.79-1.4.47-2.91.41-4.38-.01-.25-.11-.5-.14-.76-.08-.9.27-1.24,1.19-1.09.56.09,1.1.25,1.68.39-.58,1.99-.42,3.97.11,6.16-1.07-.41-2.2.29-3.28-.35l.03.03Z"/>
      <path class="cls-1" d="M151.36,89.66c1.04-.38,2.05-.37,3.01-.04-.47,2.12-.63,4.13.2,6.12-1.63.5-2.79-.38-2.79-2.02,0-1.33.25-2.7-.42-4.06Z"/>
      <path class="cls-1" d="M8.2,89.79c.91-.1,1.68-.18,2.47-.26,0,.26.03.41,0,.43-2.14,1.15-1.7,1.31-.91,3.35.33.84.81,1.63,1.28,2.57h-3.27c-.08-.47-.02-1.08-.28-1.51-.65-1.1-.31-1.93.46-2.77.65-.71.62-.74.25-1.81Z"/>
      <path class="cls-1" d="M20.57,92.24c-.34-.83-.68-1.66-1.12-2.73.87.04,1.71.08,2.55.11.78.46.24,2.02,1.9,2-.49,1.46-.95,2.84-1.42,4.23-.12.02-.23.03-.35.05-.52-1.22-1.05-2.44-1.57-3.66h0Z"/>
      <path class="cls-1" d="M155.5,95.6c1.63-1.9.89-3.9.55-6.12.53.07,1.02.13,1.73.21-.99,1.28-.95,2.55-.83,3.84.04.49-.11,1.02-.25,1.5-.18.58-.58.82-1.19.56Z"/>
      <path class="cls-1" d="M11.69,95.88c.73-1.64,1.42-3.21,2.21-4.97.45,1.78-1.42,3.24-.03,4.97h-2.17Z"/>
      <path class="cls-1" d="M79.76,89.77c.22-.1.44-.29.66-.3.53-.01,1.06.07,1.72.12.12.68.36,1.44-.23,2.18-.74-.7-1.44-1.37-2.14-2.04l-.02.03Z"/>
      <path class="cls-1" d="M50.16,95.37c.73-.38,1.45-.77,2.32-1.22.07.41.19,1.03.33,1.84-.78,0-1.52.03-2.25-.03-.14-.01-.25-.4-.37-.62l-.03.03Z"/>
      <path class="cls-1" d="M147.37,89.78c.28-.11.55-.31.83-.32.53-.01,1.07.08,1.69.14.12.71.28,1.48-.16,2.11-.84-.71-1.59-1.33-2.34-1.96l-.02.03Z"/>
      <path class="cls-1" d="M71.38,91.72c-.99-.83-1.63-1.38-2.58-2.18h2.48c.03.56.05,1.18.1,2.18Z"/>
      <path class="cls-1" d="M162.17,89.48h2.05v1.98c-.85-.68-1.51-1.21-2.18-1.74.04-.08.09-.16.13-.24Z"/>
      <path class="cls-1" d="M161.86,95.85c.85-.75,1.47-1.31,2.1-1.87q.54.84.18,1.87h-2.27Z"/>
      <path class="cls-1" d="M49,89.77c-.39.68-.8,1.38-1.2,2.08-.14-.1-.28-.21-.42-.31.05-.25.12-.5.15-.76q.2-1.52,1.46-1.01Z"/>
      <path class="cls-1" d="M20.24,92.26c.11,0,.22,0,.33-.01h0c.02.3.08.61.04.91-.13,1,.06,1.88,1.24,2.72h-1.99c.14-1.22.28-2.43.43-3.65,0,0-.03.03-.03.03Z"/>
      <path class="cls-1" d="M161.85,92.76c.45-.51.8-.89,1.41-1.57.06,1.09.1,1.85.14,2.62-.11.06-.22.12-.33.17-.39-.4-.79-.79-1.22-1.22Z"/>
      <path class="cls-1" d="M70.3,91.41v2.62c-.57-.6-.9-.94-1.32-1.38.35-.49.67-.92.98-1.35.11.04.23.07.34.11Z"/>
      <path class="cls-1" d="M77.63,69.32c1.3.74-.47,1.74.48,2.5-1.38-.73.1-1.7-.48-2.5Z"/>
      <path class="cls-1" d="M151.92,88.76h-1.89c0-.12-.02-.24-.03-.36.63-.05,1.25-.1,1.88-.15.01.17.02.33.03.5Z"/>
      <path class="cls-1" d="M4.59,80.32c-.07.47-.14.95-.21,1.42h-.29c-.02-.48-.04-.96-.07-1.44.19,0,.38.01.57.02Z"/>
      <path class="cls-1" d="M77.8,67.42c-.01.32-.03.64-.04.95-.09,0-.19,0-.28.01-.03-.32-.05-.63-.08-.95.13,0,.27-.01.4-.02Z"/>
      <path class="cls-1" d="M4.16,69.86c.06.16.19.34.15.47-.04.13-.25.21-.38.31-.06-.17-.15-.34-.16-.52-.01-.13.08-.27.12-.4l.27.15Z"/>
      <path class="cls-1" d="M77.88,76.35c-.07.25-.13.51-.2.76-.11-.06-.22-.12-.34-.18.18-.19.37-.37.55-.56,0,0-.02-.02-.02-.02Z"/>
      <path class="cls-1" d="M78.69,88.37c-.04.09-.07.22-.13.24-.06.03-.17-.06-.26-.09.04-.08.06-.23.11-.24.08-.02.18.05.27.09Z"/>
      <path class="cls-1" d="M81.33,87.86c-.14.2-.28.4-.42.61-.06-.2-.12-.4-.18-.61l-.03.03c.22,0,.45,0,.67,0l-.03-.03Z"/>
      <polygon class="cls-1" points="106.89 87.99 106.89 88.1 106.76 88.04 106.89 87.99"/>
      <path class="cls-1" d="M20.27,92.23c-.09-.04-.17-.08-.26-.12.08.05.15.1.23.15,0,0,.03-.03.03-.03Z"/>
      <path class="cls-1" d="M77.91,76.37l-.02-.02.02.02Z"/>
      <path class="cls-1" d="M28.58,71.21s-.06.06-.09.08c-.03-.03-.08-.06-.07-.09,0-.03.05-.06.09-.08l.08.09Z"/>
      <path class="cls-1" d="M23.67,95.65s-.03.07-.05.11c.02-.03.05-.05.07-.08,0,0-.03-.03-.03-.03Z"/>
      <polygon class="cls-1" points="5.16 70.21 5.19 70.31 5.1 70.3 5.16 70.21"/>
    </g>
  </g>
</svg>