<?xml version="1.0" encoding="UTF-8"?>
<svg id="Capa_2" data-name="Capa 2" xmlns="http://www.w3.org/2000/svg" viewBox="0 0 385.44 178">
  <defs>
    <style>
      .cls-1 {
        fill: #000;
        stroke-width: 0px;
      }
    </style>
  </defs>
  <g id="Capa_1-2" data-name="Capa 1">
    <g>
      <path class="cls-1" d="M15.81,42.49h50.83c.26,1.66.52,3.36.87,5.55,1.03.17,2.21.37,3.52.59,2.12-2.73,4.13-5.32,5.74-7.4,3.72.41,6.72.99,9.73,1.02,12.19.12,24.38.07,36.57.08,2,0,4.01,0,6.36,0-4.91,17.99-9.6,35.21-14.34,52.57h-29.39c1.71-7.03,3.41-13.54,4.86-20.11,1.45-6.52,5.1-12.61,4.28-20.48-1.62,1-3.03,1.37-3.52,2.25-4.31,7.76-8.41,15.64-12.67,23.44-2.68,4.91-5.54,9.73-8.49,14.89h-22.91v-39.92c-2.29.23-3.86.39-5.48.55-3.71,13.53-6.17,26.96-11.52,39.47H1.71c2.49-9.09,4.89-17.74,7.22-26.41,2.34-8.68,3.87-17.6,6.89-26.08Z"/>
      <path class="cls-1" d="M267.35,42.68h26.51c0,3.19.18,6.03-.03,8.83-.52,6.95,3.25,11.91,9.88,12.6,1.54.16,3.11.04,4.66.04,16.59,0,33.18,0,49.77,0,2.53,0,5.06,0,8.28,0-2.94,10.18-5.64,19.56-8.53,29.57-2,0-4.01,0-6.01,0-19.18,0-38.37-.04-57.55.02-7.82.02-14.68-3.25-20.33-7.81-5.56-4.48-8.79-11.23-8.98-18.77-.21-8.17-.43-16.38,2.34-24.47Z"/>
      <path class="cls-1" d="M218.43,42.47c1.53,3.2,2.45,5.5,3.68,7.62,7.44,12.78,14.95,25.52,22.43,38.27,1.13,1.92,2.25,3.84,3.95,6.75-10.36.25-19.83.08-29.32.13-7.35-13.41-14.57-26.6-21.74-39.69-4.83-.25-9.67-.51-14.72-.77-6.03,13.24-8.53,27.24-13.22,40.24h-30.72c4.84-17.81,9.56-35.18,14.27-52.54h65.39Z"/>
      <path class="cls-1" d="M385.44,1.78c-2.63,8.9-4.91,16.62-7.28,24.64h-102.16c5.23-9.19,11.69-16.03,21.4-20.16,8.29-3.53,16.61-4.61,25.42-4.52,18.16.18,36.32.05,54.48.05,2.29,0,4.58,0,8.14,0Z"/>
      <path class="cls-1" d="M101.48.87c13.86,0,26.22-.02,38.57.06.59,0,1.18.93,1.82,1.47-2.46,8.06-4.86,15.92-7.32,23.97h-47.27c3.97-9.65,8.66-18.16,14.21-25.5Z"/>
      <path class="cls-1" d="M21.77,26.73c1.16-9.76,3.81-18.07,7-26.09C48.97-.57,62.21-.07,66.88,2.2v24.43c-7.42.03-14.84.08-22.25.1-7.22.02-14.44,0-22.85,0Z"/>
      <path class="cls-1" d="M33.89,107.72c.73,10.36,1.34,18.94,2.01,28.34,7.45-8.77,11.14-18.74,18.39-27.46,3.4,10.32,6.48,19.69,9.57,29.07-.12.21-.22.57-.37.6-1.99.32-3.98.59-5.82.85-1.26-1.75-2.28-3.17-3.32-4.62h-9.23c-.96,1.19-2.18,2.72-3.43,4.28h-13c-.17-2.1-.4-4.07-.49-6.05-.08-1.79-.02-3.59-.02-6.56-3.61,5.41-6.56,9.84-9.98,14.96-2.31-5.43-4.2-9.87-6.35-14.92-1.07,4.04-1.97,7.45-2.88,10.86q-3.02,1.63-7.33.98c3.14-9.59,6.25-19.1,9.66-29.55,4.75,5.92,5.09,12.67,9.19,18.31,4.2-5.98,8.2-11.69,13.39-19.08ZM48.95,129.06c1.14.45,2.41.96,4.15,1.65-.11-2.89.68-5.32-1.12-7.55-2.81,1.33-3.85,2.99-3.02,5.9Z"/>
      <path class="cls-1" d="M244.82,26.32h-35.54c7.96-8.89,15.04-16.82,21.74-24.3h39.33c-5.18,4.56-9.58,8.2-13.7,12.14-4.28,4.1-8.28,8.5-11.82,12.16Z"/>
      <path class="cls-1" d="M165.52,2.11h30.95c-1.38,8.54-4.09,16.28-6.55,24.32h-31.12c2.31-8.37,4.49-16.25,6.71-24.32Z"/>
      <path class="cls-1" d="M115.3,166.13c5.28-6.5,9.9-12.19,15.15-18.65.86,10.02,1.63,18.85,2.46,28.52-2.7.12-5.07.23-7.46.34-.7-3.42-1.28-6.28-2.18-10.7-3.67,4.88-6.34,8.44-9.28,12.35-4.83-2.76-4.5-9.09-8.55-12.41-1.24,3.48-2.4,6.75-3.69,10.35-2.12.12-4.03.22-5.59.31-1.84-2.22,4.57-19.79,9.68-27.85,3.05,5.73,6.01,11.27,9.45,17.73Z"/>
      <path class="cls-1" d="M199.73,177.82h-10.22c-2.18-1.75-5.5-3.76-7.94-6.55-3.23-3.7-3.06-8.69-.45-12.88,4.95-7.95,14.69-11.5,23.89-8.71.72.22,1.44.45,1.7.52,5.42,3.87,7.92,8.58,6.81,15.07-1.72,6.93-8.06,9.17-13.8,12.54ZM192.42,171.68c3.24-.19,5.78-.34,7.93-.46,4.47-3.9,4.22-8.45,3.6-13.36-1.04-1.08-2.1-2.19-2.93-3.06h-7.26c-1.76,1.88-3.35,3.57-4.92,5.25,0,2.47,0,4.79.01,7.11,0,.24.2.47.78,1.77.31.31,1.41,1.39,2.79,2.75Z"/>
      <path class="cls-1" d="M277.52,110c-.99,9.47,3.07,18.69,1.02,28.57h-7.27v-11.63c-3.53,4.94-6.11,8.55-9.25,12.96-2.47-4.34-4.53-7.96-6.77-11.9-1.32,3.76-2.45,6.98-3.69,10.51-2.35.1-4.27.19-6.6.29,1.09-3.89,1.9-7.25,2.98-10.52,1.03-3.14,2.07-6.33,3.58-9.25,1.59-3.08.14-7.4,4.57-9.84,2.53,6,5.05,11.95,7.77,18.39,4.21-6.28,8.19-12.22,12.16-18.15.5.2,1.01.39,1.51.59Z"/>
      <path class="cls-1" d="M282.6,149.97h7.47c-.48,3.05-.9,5.67-1.38,8.71h11.32c.64-2.87,1.28-5.74,1.95-8.73h8.28c-1.26,8.8-2.46,17.23-3.72,26.05h-8.85c.57-3.45,1.08-6.56,1.68-10.19h-12.2c-.17,3.1-.35,6.15-.55,9.72-1.27.28-2.68.55-4.07.91-1.42.37-2.82.83-4.28,1.27-.86-6.07,1.82-23.22,4.34-27.74Z"/>
      <path class="cls-1" d="M59.16,176h-8.57c.39-3.52.74-6.69,1.14-10.27h-10.63c-.78,2.89-1.68,6.23-2.79,10.37-2.11.09-4.83.21-8.33.37,2.07-9.1,1.47-18.02,4.92-26.51,1.14-.11,2.14-.27,3.13-.27,1.24,0,2.48.14,4.4.26-.24,3.13-.45,5.82-.69,8.83h10.76c.5-2.57,1.07-5.44,1.7-8.65h8.49c-1.2,8.77-2.35,17.22-3.53,25.88Z"/>
      <path class="cls-1" d="M224.11,176.17h-6.67c-2.54-4.95,1.07-9.47.96-14.24-.1-4.47,1.28-8.97,2.14-14.24,7.05,4.71,11.65,11.39,18.09,16.35,3.17-4.45-.77-10.18,3.47-14.08h6.71c-.41,5.03.23,10.19-1.47,14.39-1.74,4.32,1.2,9.57-3.36,13.38-5.81-5.04-11.56-10.03-17.3-15.01-.81,4.22-1.61,8.45-2.57,13.43Z"/>
      <path class="cls-1" d="M244.82,118.75c.06,12.82-3.57,17.36-16.79,21.53-2.11-.65-4.28-1.32-6.35-1.96q-6.62-6.34-6.5-14.65c2.76-8.37,7.8-14.01,16.98-14.48,6.62-.34,10.36,3.61,12.66,9.55ZM228.77,115.54c-7.15,6.97-7.53,10.46-2.09,18.26h5.14c1.75-1.87,3.48-3.71,5.14-5.48-.61-4.25,1.38-8.51-2.05-12.47-1.98-.1-4.22-.21-6.14-.31Z"/>
      <path class="cls-1" d="M75.36,128.67c-.76,2.99-1.57,6.16-2.51,9.88-1.89.12-4.08.26-7.17.45.56-4.95.99-9.38,1.59-13.78.62-4.52,1.4-9.01,2.27-14.48,1.25-2.41,4.52-1.82,7.06-1.29,4.3.9,9.41.46,12.26,5.62,1.41,5.38-2.78,8.55-5.76,11.92-.36,4.56,5.38,6.57,4.08,11.58h-6.22c-1.69-2.98-3.63-6.41-5.59-9.89ZM77.4,115.46c-.75,2.39-1.48,4.69-2.54,8.08,2.63-.7,4.35-1.16,6.03-1.61v-6.05c-1.26-.15-2.24-.26-3.49-.41Z"/>
      <path class="cls-1" d="M301.82,110.5c1.65,2.24,2.83,3.84,4.26,5.77-1.83,2.44-3.47,4.63-5.31,7.1,1.02,1.36,2.07,2.77,3.59,4.81-.76,2.4-1.65,5.24-2.27,7.18-6.52,5.46-13.08,2.88-19.88,3.7,1.49-10.21,2.86-19.63,4.19-28.7,5.68-2.8,10.15,1.58,15.43.15ZM292.48,126.53c-1.13,2.29-3.56,4.29-1.81,7.29,3.44.97,4.93-1.21,6.59-3.45-.68-1.27-1.37-2.58-2.04-3.84h-2.74ZM293.49,114.28c-.38,2.4-.76,4.83-1.15,7.28,3.2.26,5.06-.77,5.22-3.58.13-2.35-1.13-3.76-4.07-3.7Z"/>
      <path class="cls-1" d="M214.07,138.47c-2.94.21-5.17.36-7.61.54-2.53-3.7-4.95-7.24-7.57-11.07-1.01,3.8-1.9,7.14-2.82,10.63h-7.27c1.54-9.59,3.01-18.78,4.32-26.95,2.99-2.73,5.03-3.03,7.17-.83-.24,2.83-.48,5.75-.84,9.97,4.51-4.39,8.11-7.9,11.98-11.67,1.64.55,3.22,1.08,5.63,1.89-4.17,4.38-7.81,8.21-11.81,12.41,2.9,4.97,5.67,9.72,8.81,15.09Z"/>
      <path class="cls-1" d="M11.03,177.75c-2.44-1.21-4.95-2.46-7.58-3.77-5.51-6.36-3.71-12.64.48-18.94,7.63-5.46,15.47-10.14,25.41-3.57-.54,1.91-1.11,3.93-1.86,6.58-1.89-1.31-3.3-2.29-4.72-3.27-9.57-2.21-15.16,2.7-12.77,14.4,4.46,3.12,4.56,3.13,15.82.88,1.91,2.41.85,4.26-1.25,5.77-2.31,1.67-5.78,2.1-13.53,1.92Z"/>
      <path class="cls-1" d="M94.12,176.09h-7.44c-.84-.71-2.01-1.7-3.32-2.81h-11.35c-1.75,1.44-3.46,2.84-5.19,4.27-1.55-.74-2.87-1.38-4.74-2.27,6.57-9.04,12.96-17.82,19.95-27.44,4.08,9.54,7.87,18.4,12.08,28.24ZM82.96,168.17c-2.47-2.51-.81-6.12-4.34-6.92-1.05,2.22-2.09,4.4-3.28,6.92h7.62Z"/>
      <path class="cls-1" d="M274.4,150.88c-.69,1.55-1.39,3.13-2.07,4.65-2.84-.89-5.47-1.71-8.22-2.57-.78.96-1.59,1.67-2,2.56-.29.63-.06,1.51-.06,2.35,3.74,3.36,9.7,3.71,12.45,9.34-.68,1.74-1.5,3.84-2.3,5.88-2.5,1.64-4.85,3.18-7.06,4.64q-8.76.23-13.91-2.18v-5.61c3.26,1.01,6.07,1.88,9.43,2.92,1.11-.58,2.65-1.4,4.44-2.33-.41-1.34-.4-2.97-1.19-3.6-1.77-1.41-4.13-2.09-5.91-3.49-2.17-1.71-4-3.85-5.56-5.39.16-4.24,3.15-5.46,4.73-7.46,5.8-2.89,11.38-3.18,17.23.31Z"/>
      <path class="cls-1" d="M146.29,176.16h-8.97c.75-8.66,2.09-17.03,3.44-25.94,4.58-1.25,9.46-.17,14.8-.62,1.82.93,4.04,2.08,6.4,3.29.18,2.31.34,4.32.52,6.6-1.73,1.83-3.47,3.68-5.18,5.49-3.33.85-6.49,1.66-10.21,2.61-.22,2.34-.47,5.07-.8,8.58ZM154.55,160.9c-.35-2.75-.58-4.55-.78-6.08h-5.18v7.4c1.98-.44,3.53-.78,5.96-1.32Z"/>
      <path class="cls-1" d="M353.93,160.15c-1.73,1.57-3.44,3.12-5.39,4.88-2.93.75-6.11,1.56-9.52,2.44-.87,2.7-1.85,5.76-2.81,8.73h-6.54c-2.88-4.77.98-8.97.8-13.47-.17-4.18,1.08-8.41,1.75-12.95,7.38.4,14.68-2.03,21.31,3.49.12,2.05.25,4.28.4,6.89ZM339.95,161.86q6.15-.75,5.02-7.29c-1.61.08-3.23.16-5.02.25v7.05Z"/>
      <path class="cls-1" d="M144.86,134.44h-9.43c-.92,1.21-1.96,2.59-3.29,4.34-1.76-.1-3.65-.21-6.41-.36,6.36-10.23,12.23-19.69,18.63-29.98,4.57,10.14,6.56,20.05,10.37,30.01-2.71.21-4.91.38-6.97.54-1.03-1.62-1.84-2.89-2.89-4.55ZM142.52,121.47c-1.87,3.46-2.82,5.22-4.14,7.65h5.19c-.3-2.2-.55-3.96-1.06-7.65Z"/>
      <path class="cls-1" d="M321.97,108.08c3.67,10.98,6.81,20.33,10.14,30.3-2.52.25-4.7.47-6.67.66-1.26-1.77-2.28-3.19-3.27-4.58h-8.24c-1.38,1.29-2.88,2.69-4.4,4.12h-6.16c6.19-10.15,11.95-19.59,18.6-30.5ZM320.23,123.42l-1.23-.22c-.9,1.77-1.81,3.53-3.03,5.92h5.15c-.35-2.22-.62-3.96-.89-5.7Z"/>
      <path class="cls-1" d="M344.1,138.6h-7.35c.9-7.57,1.76-14.77,2.69-22.57-2.61-.24-5.32-.49-8.5-.78-.18-1.04-.39-2.21-.65-3.7,8.51-4.28,17.29-1.28,26.21-2.4v6.21c-2.82.14-5.55.27-8.56.41-1.29,7.68-2.55,15.12-3.84,22.83Z"/>
      <path class="cls-1" d="M104.73,138.57h-7.85c1.17-7.57,2.27-14.74,3.45-22.39-3-.4-5.42-.71-8.68-1.14.74-2.16,1.33-3.85,1.87-5.43h23.27v5.75c-2.85.13-5.37.24-8.5.38-1.17,7.51-2.36,15.14-3.56,22.84Z"/>
      <path class="cls-1" d="M176.37,135.93c-.78,1-1.4,1.79-2.11,2.7h-18.05c1.18-8.57,2.32-16.79,3.55-25.73q3.54-3.98,7.97-1.94c-.86,6.93-1.73,13.88-2.56,20.59,3.7,2.52,8.66-1.03,11.2,4.38Z"/>
      <path class="cls-1" d="M172.88,175.74c-2.15.61-3.81,1.07-5.42,1.53-.96-.44-1.89-.87-2.82-1.29-.15-.19-.46-.42-.42-.55.14-.49.54-.93.6-1.41.83-7.31,1.59-14.62,2.47-21.92.08-.65.9-1.21,1.59-2.09h6.95c1.76,8.79-1.78,16.93-2.96,25.75Z"/>
      <path class="cls-1" d="M316.57,149.95h9.12c-1.8,8.87-1.83,17.64-4.48,26.15h-7.92c-.23-8.92,2.73-17.14,3.27-26.15Z"/>
      <path class="cls-1" d="M122.71,138.61h-5.55c-.91-9.75,1.58-18.75,3.22-27.37,2.78-2.55,4.99-2.55,7.34.26-2.27,8.67-.48,18.32-5,27.11Z"/>
      <path class="cls-1" d="M351.86,141.23c-.16.13-.31.27-.47.4.02-.29.05-.58.07-.87.13.15.26.31.4.46Z"/>
    </g>
  </g>
</svg>