<?xml version="1.0" encoding="UTF-8"?>
<svg id="Capa_2" data-name="Capa 2" xmlns="http://www.w3.org/2000/svg" viewBox="0 0 382.49 176">
  <defs>
    <style>
      .cls-1 {
        fill: #000;
        stroke-width: 0px;
      }
    </style>
  </defs>
  <g id="Capa_1-2" data-name="Capa 1">
    <g>
      <path class="cls-1" d="M0,137.79V0c.23.17.38.24.46.35.47.74,1.16,1.26,1.74,1.89.38.4.81.76,1.17,1.18,1.15,1.36,2.51,2.52,3.68,3.86.98,1.13,2.12,2.1,3.09,3.23,1.07,1.26,2.34,2.33,3.41,3.58.97,1.14,2.12,2.1,3.09,3.23,1.12,1.32,2.45,2.44,3.57,3.75.87,1.02,1.88,1.89,2.76,2.89,1.17,1.34,2.51,2.53,3.68,3.86,1.05,1.21,2.28,2.24,3.31,3.45,1.03,1.23,2.28,2.24,3.3,3.46,1.05,1.25,2.31,2.28,3.36,3.52.98,1.16,2.16,2.13,3.13,3.29,1.05,1.25,2.31,2.28,3.36,3.52,1.03,1.23,2.28,2.24,3.3,3.46,1.05,1.25,2.31,2.28,3.36,3.52.98,1.16,2.16,2.13,3.14,3.29,1.05,1.25,2.31,2.28,3.36,3.52,1.03,1.23,2.28,2.24,3.3,3.46,1.03,1.23,2.27,2.24,3.3,3.46,1.02,1.2,2.24,2.2,3.24,3.4.98,1.17,2.16,2.13,3.14,3.29,1.1,1.3,2.42,2.4,3.52,3.69.9,1.06,1.96,1.96,2.87,3,1.19,1.36,2.55,2.57,3.74,3.92,1,1.14,2.17,2.13,3.14,3.29.86,1.03,1.85,1.91,2.81,2.96v-51.02h35.91v137.71c-.13-.06-.25-.1-.33-.16-.14-.12-.26-.26-.39-.39-6.51-6.51-12.96-13.08-19.55-19.51-4.26-4.15-8.44-8.38-12.66-12.56-4.24-4.19-8.38-8.48-12.67-12.62-2.38-2.3-4.71-4.65-7.07-6.97-2.39-2.35-4.74-4.73-7.11-7.1-2.35-2.35-4.69-4.71-7.05-7.05-3.06-3.03-6.16-6.04-9.22-9.07-3.05-3.03-6.08-6.08-9.12-9.12-.02.01-.04.02-.05.04-.02.02-.03.04-.03.06,0,15.4,0,30.8,0,46.23H0Z"/>
      <path class="cls-1" d="M164,83.22h80.41c-4.8,5.02-9.77,9.59-14.52,14.39-4.77,4.82-9.58,9.59-14.4,14.41h-51.49v27.75c-1.33,1.33-2.69,2.6-3.94,3.95-3.53,3.83-7.39,7.35-10.96,11.14-1.62,1.72-3.3,3.37-4.95,5.06-1.64,1.68-3.36,3.28-4.97,4.99-3.4,3.63-6.99,7.07-10.48,10.61-.17.17-.28.46-.67.44v-10.82c0-41.91,0-83.83,0-125.74,0-1-.03-.98.99-.98,39.28,0,78.55,0,117.83,0h.81v35.88s0,0-.02.02c-.02.01-.04.03-.07.03-27.85,0-55.7,0-83.58,0v8.86Z"/>
      <path class="cls-1" d="M346.5,74.05h-56.03v27.87h92.03c-.15.2-.22.33-.33.43-2.91,2.91-5.76,5.88-8.75,8.71-1.71,1.62-3.37,3.3-5.06,4.95-1.7,1.66-3.34,3.38-5.05,5.03-5.18,4.98-10.23,10.1-15.32,15.16-.51.51-1.09.95-1.68,1.46-30.48,0-61.02,0-91.57,0-.14-.71-.19-95.85-.06-99.21h127.76c-.11.17-.17.31-.26.4-2.87,2.88-5.69,5.8-8.64,8.6-1.58,1.5-3.11,3.04-4.66,4.56-1.55,1.51-3.01,3.11-4.6,4.57-3.35,3.08-6.4,6.47-9.73,9.56-2.74,2.54-5.27,5.29-8.06,7.9Z"/>
      <path class="cls-1" d="M294.91,155.62c-.86,1.14-1.21,2.41-1.97,3.42h-2.92c-.57-1.1-1.14-2.21-1.71-3.31-.03-.07-.11-.11-.24-.25.06.32.15.54.15.77.02.76.01,1.53,0,2.29,0,.39-.11.5-.51.5-.9,0-1.79.01-2.69,0-.39,0-.51-.21-.38-.61.04-.14.09-.29.09-.43,0-2.45,0-4.9,0-7.35,0-.17,0-.33-.1-.51-.18-.35.01-.58.43-.58,1.13,0,2.27,0,3.47,0,.97,1.93,1.95,3.89,2.93,5.85.98-1.95,1.95-3.9,2.92-5.84h3.77v9.48c-.95,0-1.9,0-2.84,0-.33,0-.45-.13-.45-.48,0-.95,0-1.9.04-2.94.02-.03-.02,0-.05.02.02.02.05.05.07.07.02-.03.05-.06.07-.1,0,0-.03-.03-.09,0Z"/>
      <path class="cls-1" d="M55.37,149.4v9.77c-.17,0-.37.02-.57.02-3.64,0-7.27,0-10.91,0-.16,0-.32.02-.47,0-.22-.03-.38-.15-.37-.4,0-.11,0-.21,0-.32v-8.38c0-.11,0-.21,0-.32,0-.25.15-.36.38-.39.1-.01.21,0,.32,0,3.79,0,7.59,0,11.38,0,.08,0,.15.01.25.02ZM51.42,152.07h-3.17c-.29,0-.58-.02-.87,0-.22.02-.37.14-.37.4,0,1.34,0,2.67,0,3.99h4.41v-4.39Z"/>
      <path class="cls-1" d="M77.74,156.67h-4.44v2.48h-3.98v-8.85c0-.18-.02-.37,0-.55.03-.22.14-.38.4-.37.13,0,.26,0,.4,0h10.76c.13,0,.26,0,.4,0,.24,0,.37.15.39.38,0,.1,0,.21,0,.32v9.1h-3.93v-2.5ZM73.28,152.08c0,.49,0,.91,0,1.33,0,.45.09.55.53.55,1.1,0,2.21,0,3.31,0,.2,0,.4-.02.56-.03v-1.86h-4.4Z"/>
      <path class="cls-1" d="M21.36,159.19v-2.5h-4.42v2.46h-3.95v-9.78h11.38c.18,0,.37,0,.55,0,.25,0,.36.15.39.38.02.13,0,.26,0,.4v8.31c0,.11,0,.21,0,.32-.02.27-.15.41-.43.41-.42.01-.84,0-1.27,0h-2.26ZM16.95,153.94h4.42c0-.34,0-.65,0-.96,0-.3-.01-.61-.02-.88h-4.4v1.85Z"/>
      <path class="cls-1" d="M227.94,149.55h11.85c0,.77,0,1.52,0,2.28,0,.25-.15.37-.37.39-.18.02-.37,0-.55,0h-7.28v4.24h4.68c.06-.92.06-.92-.83-.91-.22,0-.43,0-.66.13-.15.09-.45-.1-.68-.17,0-.7,0-1.35,0-2.01,0-.34.12-.48.44-.48,1.73,0,3.47,0,5.23,0v5.98h-11.82v-9.45Z"/>
      <path class="cls-1" d="M275.56,156.5c0,.87,0,1.66,0,2.45-.02.02-.03.04-.06.05-.02.01-.05.02-.07.02-1.21,0-2.42,0-3.65,0v-9.5h11.11c.16,0,.32,0,.47,0,.27.02.4.15.42.43,0,.11,0,.21,0,.32v7.99c0,.05,0,.11,0,.16-.01.53-.07.59-.57.59-1.11,0-2.21,0-3.37,0v-2.53h-4.28ZM279.8,153.95v-1.89c-1.39,0-2.76,0-4.12,0-.02,0-.05.01-.07.03-.02.01-.04.04-.03.03v1.83h4.22Z"/>
      <path class="cls-1" d="M64.86,153.86v-4.37c.05-.05.06-.07.08-.09.02-.01.04-.03.07-.03,1.1,0,2.21,0,3.34,0v9.79c-1.09.06-2.21,0-3.37.03-.35-.35-.69-.76-1.1-1.09-1.37-1.12-2.54-2.45-3.87-3.7v4.74h-3.67v-8.98c0-.13,0-.26,0-.4,0-.25.15-.39.38-.39.95-.01,1.9-.04,2.84.01.26.01.55.23.77.42.61.52,1.19,1.08,1.79,1.61.3.27.63.52.94.79.29.25.54.53.87.74.34.21.59.56.93.9Z"/>
      <path class="cls-1" d="M.03,149.39h3.36c1.62,1.4,3.27,2.83,4.97,4.3.01-.24.03-.43.03-.63,0-1.05,0-2.11,0-3.16,0-.4.11-.51.49-.51.9,0,1.79,0,2.69,0,.34,0,.46.12.46.47,0,.79,0,1.58,0,2.37v6.96h-3.69c-1.57-1.57-3.2-3.2-4.84-4.84v4.83c-1.17.05-2.31,0-3.48.03v-9.8Z"/>
      <path class="cls-1" d="M328.09,149.56v9.44h-11.78c-.12-.63-.16-6.7-.06-9.44h11.83ZM324.28,156.49v-4.26c-1.39,0-2.76,0-4.13,0-.02,0-.05.01-.07.03-.02.01-.04.04-.03.03v4.21h4.22Z"/>
      <path class="cls-1" d="M185.17,149.56v2.64h-8.22v.71c0,1.03,0,2.06,0,3.08,0,.39.11.5.5.5,1.39,0,2.79,0,4.21,0v-.92c-.41.01-.84-.12-1.3.09-.47.21-.72-.02-.72-.55,0-.68,0-1.37,0-2.08h5.46c.11.6.14,3.8.05,5.96h-11.61c-.11-.63-.15-7.11-.05-9.44h11.67Z"/>
      <path class="cls-1" d="M329.08,159.03v-9.46h3.54c.65.59,1.34,1.23,2.04,1.84.91.79,1.83,1.57,2.77,2.37v-4.23h3.46v9.46h-3.6c-1.54-1.54-3.12-3.12-4.77-4.77.28.73.16,1.42.17,2.1.02.71,0,1.42,0,2.13,0,.46-.09.55-.53.56-1.02,0-2.05,0-3.09,0Z"/>
      <path class="cls-1" d="M352.62,149.56v2.64h-7.07v.8h7.06v5.94c-.62.12-8.35.16-10.71.05v-2.5h7.23v-.94h-7.24v-6h10.73Z"/>
      <path class="cls-1" d="M223.51,159c-1.54-1.55-3.12-3.13-4.76-4.77v4.77h-3.47v-9.46h3.38c1.54,1.33,3.13,2.71,4.78,4.13.08-.71.03-1.37.04-2.04,0-.68,0-1.37,0-2.08h3.47v9.44h-3.44Z"/>
      <path class="cls-1" d="M246.45,159v-9.44h11.86v.81c0,.87,0,1.74,0,2.61,0,.39-.11.5-.5.51-.97,0-1.95,0-2.95,0v-1.14c-.05-.06-.06-.08-.08-.09-.02-.01-.04-.03-.07-.03-1.53,0-3.05,0-4.6,0v4.27h.57c1.19,0,2.37,0,3.56,0,.53,0,.58-.06.59-.58,0-.21,0-.42,0-.66h3.47v3.74h-11.84Z"/>
      <path class="cls-1" d="M197.66,159.02h-3.59v-3.43h-4.12v3.41h-3.79v-9.46c1.13,0,2.26,0,3.38,0,.27,0,.39.15.4.45,0,.74,0,1.48,0,2.22v.79h4.11v-3.45h3.62v9.47Z"/>
      <path class="cls-1" d="M270.62,159.03c-1.05,0-2.08,0-3.1,0-.39,0-.5-.11-.51-.5,0-.97,0-1.95,0-2.95h-4.11v3.42h-3.73c-.11-.63-.15-7.23-.05-9.44h3.75v3.43h4.14c0-.85.01-1.71,0-2.57-.02-.88.01-.91.91-.89.89.02,1.79,0,2.7,0v9.5Z"/>
      <path class="cls-1" d="M365.11,159.02h-3.59v-3.43h-4.12v3.41h-3.8v-9.46c1.12,0,2.25,0,3.38,0,.27,0,.4.15.4.44,0,.71,0,1.42,0,2.14v.88h4.12c0-.85.01-1.71,0-2.57-.02-.88.01-.91.91-.9.89.02,1.79,0,2.71,0v9.48Z"/>
      <path class="cls-1" d="M382.22,149.56v6.91h-7.73c-.03.43,0,.84-.01,1.25,0,.42,0,.84,0,1.28h-3.44v-9.44h11.18ZM378.57,153.8v-1.57c-1.29,0-2.55,0-3.81,0-.02,0-.05.01-.07.02-.02.01-.04.03-.03.03v1.52h3.9Z"/>
      <path class="cls-1" d="M310.35,156.5h-7.7v2.49h-3.48v-9.42h11.19v6.92ZM306.71,153.79v-1.53h-4.02c.16.53.12,1.03,0,1.53h4.02Z"/>
      <path class="cls-1" d="M156.86,159v-9.44h10.71v2.35h-.68c-1.92,0-3.85,0-5.77,0-.56,0-.81.33-.61.85.04.11.22.21.36.24.17.04.37.01.55.01h4.77c.07.54-.34.88-.47,1.31-.13.42-.34.81-.51,1.22-1.39,0-2.75,0-4.12,0-.52,0-.57.06-.58.59,0,.95,0,1.89,0,2.86h-3.63Z"/>
      <path class="cls-1" d="M33.56,159.19c-1.13,0-2.2,0-3.28,0-.43,0-.52-.1-.52-.56,0-2.21,0-4.42,0-6.69-1.14-.05-2.29,0-3.46-.03v-2.49h10.87v2.47c-1.16.05-2.36,0-3.61.03v7.27Z"/>
      <path class="cls-1" d="M202.27,159v-6.94c-1.02,0-2.02,0-3.01,0-.55,0-.62-.07-.62-.62,0-.63,0-1.25,0-1.91h10c.16,0,.32,0,.47,0,.32.02.44.14.44.48,0,.53,0,1.05,0,1.58,0,.34-.12.46-.46.46-.87,0-1.74,0-2.61,0h-.56v6.94h-3.65Z"/>
      <path class="cls-1" d="M90.44,156.31c.49.99.94,1.88,1.39,2.79-.69.13-6.68.17-9.18.06v-9.76c.22,0,.48-.02.73-.02.26,0,.53,0,.79,0,.53,0,1.05,0,1.58,0,.39,0,.5.11.51.5,0,.61,0,1.21,0,1.82,0,1.32,0,2.64,0,3.95,0,.21-.05.43-.08.66h4.27Z"/>
      <path class="cls-1" d="M38.33,149.38c1.11,0,2.18,0,3.26,0,.43,0,.51.1.51.57,0,1.47,0,2.95,0,4.43v4.78h-3.78v-9.78Z"/>
      <path class="cls-1" d="M315.1,159.02h-3.75v-9.43s0-.01.03-.03c.02-.01.05-.03.07-.03,1.21,0,2.42,0,3.65,0v9.48Z"/>
      <path class="cls-1" d="M210.53,159.03v-9.47c.18,0,.38-.02.58-.02.82,0,1.63.02,2.45,0,.58-.02.77.02.76.73-.02,2.5,0,5,0,7.5,0,.26,0,.53,0,.79,0,.34-.12.47-.45.47-1.1,0-2.2,0-3.32,0Z"/>
      <path class="cls-1" d="M168.73,159.01v-9.44h3.55c.11.65.15,7.11.05,9.44h-3.6Z"/>
      <path class="cls-1" d="M366.27,149.55h3.59v9.48c-1.17.01-2.37,0-3.59,0v-9.48Z"/>
    </g>
  </g>
</svg>