<?xml version="1.0" encoding="UTF-8"?>
<svg id="Capa_2" data-name="Capa 2" xmlns="http://www.w3.org/2000/svg" viewBox="0 0 278.8 176">
  <defs>
    <style>
      .cls-1 {
        fill: #000;
        stroke-width: 0px;
      }
    </style>
  </defs>
  <g id="Capa_1-2" data-name="Capa 1">
    <g>
      <path class="cls-1" d="M186.98,39.37c-.64-2.84,1.15-3.45,1.89-4.48,1.97.43,2.08,2.06,2.54,3.51.35,1.09.91,2.11,1.28,3.19.38,1.09.68,2.21.95,3.33.25,1.04.09,2.42.71,3.08.97,1.02-.1,2.55,1.16,3.29.21,1.88.2,3.82.67,5.63.72,2.81.42,5.63.62,8.45.09,1.25.65,2.44.62,3.78-.05,1.91-.93,3.68-.71,5.65.2,1.84.43,3.83-.05,5.56-.76,2.73-.89,5.56-1.66,8.29-.52,1.84-.85,3.79-1.25,5.69-.27,1.33.31,2.9.75,4.29.51,1.59.62,3.07-.04,4.63-.22.53-.12,1.19-.2,1.78-.35,2.78-1.3,5.28-3.33,7.32-1.17,1.18-2.79,1.29-4.2,1.86-.55.22-1.18.24-1.54.77-.93,1.37-2.05,2.67-2.66,4.17-.64,1.57-1.73,2.66-2.84,3.79-.65.67-1.67,1.22-1.89,2-.31,1.08-1.26,1.08-1.81,1.69-2.76,3.04-6.44,4.82-9.95,6.72-2.15,1.16-4.66,1.73-7.2,2.16-2.85.48-5.64.42-8.46.48-4.59.09-8.8-1.33-13.03-3.02-3.6-1.43-6.38-3.79-9.23-6.23-3.57-3.05-5.64-7.17-8.32-10.86-.08-2.04-1.66-3.45-2.14-5.54-3.77,4.19-6.71,8.93-11.79,11.81.46.56.88,1.1,1.32,1.61,1.59,1.84,3.48,3.35,4.92,5.39.9,1.27.83,2.07.17,3.17-.2.34-.42.66-.6.95-4.11.45-4.22.43-7.34-1v1.47c-.82.34-1.49.74-2.22.9-.86.19-1.71.31-2.53-.43-3.17-2.84-6.7-5.23-10.15-7.7-3.64-2.61-7.43-4.99-11.29-7.23-4.23-2.46-8.64-4.62-12.98-6.87-4.29-2.22-8.56-4.44-12.57-7.15-2.22-1.5-4.72-2.61-7.25-3.98,0,2.32-1.03,4.52-.8,6.96.09,1.03-.38,2.1-.57,3.15-.19,1.06.47,2.27-.6,3.17-.05.05-.02.19-.03.29-.21,2.71-.51,5.41-.58,8.13-.04,1.51-.29,2.95-.63,4.41-.31,1.34.35,2.77-.58,4.13-.39.56.02,1.62-.08,2.44-.42,3.68-1.25,7.25-3.07,10.62h-3c.12-2.72-1.95-4.74-2.82-7.3-.35.43-.6,1.04-1,1.18-1.43.49-2.27-.53-3.14-1.56,0-5.8-.43-11.73.13-17.57.48-5.01-.11-10.04.6-14.95.77-5.33.23-10.61.51-15.91.03-.62-.24-1.49.07-1.81,1.36-1.39.24-2.62-.45-3.39-1.51-1.68-1.81-3.76-1.99-5.69-.18-1.98.91-4.02,2.16-5.55,3.06-3.73,4.98-8.08,6.97-12.35,2.22-4.76,5.95-6.47,10.24-7.58,1.48-.38,2.92-.57,4.41-.57,3.24.01,4.08.35,6.45,2.72.35,2.65-.57,5-1.63,7.52-1.48,3.53-3.64,6.77-4.55,10.8.8-.12,1.08-.81,1.58-1.13,2.3-1.51,4.55-3.08,6.73-4.78,2.33-1.81,4.81-3.49,7.02-5.4,3.07-2.64,6.15-5.41,8.28-8.95.9-1.49,2.06-2.79,2.86-4.39.73-1.45.93-2.76.88-4.17-1.1-1.16-2.33-1.55-3.82-1.56-3.11-.02-6.09.76-9.13,1.15-4.2.55-8.15,1.99-12.3,2.67-3.02.49-6.02,1.4-8.9,2.47-2.63.98-5.54.96-8,2.43-3.19.03-5.91,1.75-8.88,2.58-4.22,1.18-8.2,3.2-12.39,4.53-1.96.62-3.96,1.58-6.29.58-3.28-1.41-4.43-1.97-6.02-5.16-.97-1.96-2.37-3.77-2.64-6.05-.05-.44-.5-1-.35-1.26.89-1.53.24-3.48,1.68-4.92,2.5-2.5,5.45-4.11,8.73-5.21,3.46-1.16,6.95-2.21,10.43-3.32,2.38-.76,4.79-1.43,7.12-2.31,3.42-1.28,6.95-2.19,10.4-3.36,1.55-.53,3.17-1.19,4.88-.94,1.07.16,1.89-.5,2.85-.66.96-.15,1.9-.4,2.85-.61,1.06-.24,2.13.29,3.27-.39.77-.46,1.98-.16,2.99-.24,1.17-.1,2.2-.81,3.47-.65,1.06.14,2.16.19,3.19-.54.42-.29,1.21-.05,1.83-.05,2.79,0,5.59-.08,8.38.02,2.82.1,5.68.14,8.42.68,2.02.4,3.93,1.47,5.81,2.42,4.58,2.31,7.73,6,9.59,10.71.6,1.52.61,3.28.82,4.94.22,1.72-.57,3.27-.98,4.87-1.22,4.7-3.69,8.69-6.74,12.44-1.76,2.16-3.3,4.51-5.32,6.47-1.73,1.68-3.23,3.53-5.35,4.89-1.97,1.26-3.73,2.93-5.65,4.36-1.9,1.42-3.78,2.89-5.66,4.35-3.23,2.52-6.75,4.62-10.2,7.16.31.38.55.87.94,1.09,2.44,1.43,4.58,3.28,7.03,4.73,3.16,1.87,6.55,3.3,9.6,5.37,2.97,2.01,6.12,3.76,9.08,5.77,1.2.81,2.01,2.22,3.94,2.32,0-2.38-.07-4.72.01-7.07.16-4.78.12-9.6.73-14.32.29-2.21.07-4.46.56-6.57.81-3.45.81-6.99,1.66-10.45.7-2.81,1.1-5.72,1.98-8.51,1.15-3.65,4.22-6.12,8.06-6.49,1.06-.1,2.1-.45,3.16-.59.97-.13,2.05.27,2.85-.64,1.04,1.06,2.8.06,3.8,1.36.56.73,1.39,1.26,1.94,2,.84,1.13,1.73,2.05.83,3.91-.8,1.65-1.15,3.78-1.23,5.64-.1,2.09-1.05,3.76-1.63,5.59-1.31,4.14-2.48,8.3-3.56,12.51-.71,2.79-1.21,5.65-2.28,8.36-.46,1.16.16,2.61-.75,3.73.15,2.41-.82,4.67-1.42,6.89-.67,2.48-.14,4.76-.44,7.4,4.06-3.75,7.35-7.64,10.18-11.94.56-.85,1.44-1.48,2.38-2.42-.3-1.56-.46-3.35-1.03-4.99-.25-.7-.33-1.35-.34-2.02-.03-2.9-.03-5.8,0-8.69,0-.68-.14-1.34.37-2.04.24-.33-.39-1.19-.34-1.79.09-1.17.47-2.31.56-3.47.1-1.23-.09-2.5.06-3.72.13-1.06.93-1.7,1.97-2.02.55-.17,1.06-.47,1.61-.6.94-.21,1.13-.81,1.4-1.67,1.3-4.11,2.74-8.19,4.94-11.92,1.97-3.35,3.87-6.76,6.3-9.82,1.53-1.93,2.77-4.22,4.63-5.74,4.03-3.31,7.97-6.75,12.51-9.44,2.88-1.71,5.97-2.72,9.11-3.5,3.08-.76,6.09.4,8.54,2.27,1,.77,1.81,2.27,1.78,3.87-.04,2.17.12,4.36-.05,6.52-.18,2.36-1.2,4.47-2.67,6.33-.48.61-1.14,1.07-2.05,1.92,2.98.18,5.56-.32,7.92.7,2.34,1.01,3.75,3.1,5.14,4.96,2.36-.06,3.04-2.87,5.57-2.66-1.77-5.72-2.62-11.62-6.45-16.52.47-.95.97-1.98,1.5-3.06.8-.37,1.43-.07,2.07.59,2.02,2.08,4.19,4.02,6.1,6.19,1.13,1.29,1.87,2.93,2.8,4.41.13.21.35.38.77,1.36.29.15.49-.07.44-.15-.15-.27-.39-.49-.6-.73.06.41.12.81.16.88ZM180.04,93.47c-1.85-.18-2.98-.99-4.44-.99-1.84,0-3.6-.85-5.3-1.41-3.42-1.11-4.64-1.79-6.44-1.63-.86.08-1.69.55-2.54.57-2.23.06-4.11,1.12-5.96,2.1-.86.45-1.85,1.22-2.1,2.48-.53,2.66-.95,5.34-1.8,7.93-.46,1.4.5,2.49,2.15,3.05,1,.33,1.94.86,2.96,1.08,2.35.52,4.6,1.7,7.05,1.34.9-3.48,1.77-6.84,2.64-10.21-1.44-.61-2.73-1.88-4.57-1.59-.03,0-.18-.73-.29-1.22.57.29.9.58,1.27.63,1.77.25,3.55.42,5.32.64,1.11.14,1.82,1.15,1.39,2.19-1.25,3.06-2.12,6.2-2.63,9.46-.22,1.37-.14,1.76,1.03,2.01,2.18.48,4.35.97,6.53,1.47.36.08.84.44,1.03.31.39-.25.88-.74.88-1.14.01-2.3,1.48-4.3,1.28-6.62-.07-.83.44-1.13,1.18-1.27.36,3.08-.49,6.02-.99,9,.9,0,1.86.2,2.69-.04,2.32-.68,4.63-1.38,7.04-1.74,2.12-.32,2.68-1.1,3.14-3.35.25-1.22.81-2.38,1.01-3.6.16-.94.18-2-.09-2.91-1.24-4.24-2.98-8.28-5.17-12.13-.57-1.01-1.14-1.77-2.13-2.37-1.34,2.93-2.21,5.94-4.15,7.93ZM169.43,83.07c0-1.3-.08-2.45.02-3.57.11-1.16-.34-2.33.52-3.53.54-.76-.21-2.15.66-3.14.19-.22-.15-.92-.25-1.4-.07-.35-.31-.77-.2-1.05.75-1.85.76-3.84,1.07-5.76.37-2.27.44-4.58.68-6.88.03-.26.36-.49.41-.75.42-2.64.58-5.19-1.79-7.18-1.18-.99-2.19-2.19-3.33-3.35-2.5.24-4.99.58-7.49.68-1.42.05-2.76.14-4.06,1.05.55,4.8-.49,9.71.66,14.59.44,1.86.07,3.92.07,5.88,0,1.86.23,3.76-.06,5.58-.3,1.84,1.17,3.6.08,5.4-.09.15-.1.5,0,.6,1.05.98.36,2.32.76,3.59,3.58,0,7.18.03,10.78-.04.52,0,1.03-.5,1.48-.73ZM145.64,54.1c-1.21-.26-2.38.29-3.34-.67-.19-.19-.85-.13-1.18.05-1.72.92-3.73.92-5.48,1.76-.99.48-1.48,1.43-1.32,2.53.31,2.13,1.14,4.12,1.69,6.15.61,2.23,1.06,4.52,1.6,6.75.43,1.79,1.15,3.49,1.44,5.34.53,3.33,2.07,6.44,2.47,9.84.07.63.72,1.27,1.58,1.08,1.33-.28,2.65-.58,3.96-.93,2.05-.54,4.08-1.13,6.09-1.7.05-.24.11-.43.11-.63.04-2.79-.6-5.48-1.19-8.19-.26-1.18.39-2.73-.15-3.65-.73-1.24-.3-2.38-.51-3.53-.21-1.15-.5-2.3-.6-3.47-.14-1.58-.71-3.07-.78-4.7-.04-1.04-.43-2.47-1.66-3.33-1.08-.76-1.91-1.87-2.74-2.71ZM184.65,81.46c.63-1.46,1.32-2.48,1.5-3.58.51-3.08,1.94-5.96,1.93-9.15,0-.44.39-.86.53-1.32.26-.83.46-1.67.68-2.51.73-2.8,1.42-5.61,2.18-8.4.42-1.53-.05-2.94-1.41-3.73-2.44-1.42-5.04-2.34-7.91-1.84-1.02.18-2.16.48-2.92,1.12-.78.65-1.31,1.71-1.14,2.9.06.4.18,1.02-.03,1.2-1.07.93-.08,2.34-.69,3.13-.91,1.18-.29,2.37-.51,3.53-.12.67-.25,1.33-.43,1.98-.64,2.34-1.7,4.63-1.47,7.17.04.45-.34.92-.36,1.38-.1,2.03-1.26,3.96-.75,5.97,3.7.73,7.24,1.43,10.77,2.13ZM128.05,93.31c2.9-1.37,5.69-2.35,8.51-3.27.98-.32,1.62-1.31,1.15-2.11-.9-1.52-1.19-3.24-1.77-4.85-.61-1.71-.98-3.56-1.56-5.25-.77-2.25-1.48-4.56-2.37-6.76-.74-1.84-.99-3.91-2.73-5.41-2.87-2.47-4.76-2.71-7.93-.54-1.51,1.04-3.12,1.93-4.81,2.96.28,2.29,2.06,4.01,2.76,6.23.68,2.17,1.92,4.16,2.92,6.22,1.04,2.15,2.19,4.26,3.07,6.47.85,2.12,1.73,4.21,2.76,6.31ZM139.1,109.17c1.81,2.88,4.02,4.07,6.36,5.1,1.21.54,2.69.25,3.73.72,2.13.96,4.24.51,6.3.42,1.43-.07,2.84-1.06,4.22-1.72.26-.12.34-.63.5-.96-2.2-.94-4.4-1.35-6.51-1.93-2.26-.62-4.77-.62-7.07-1.03-2.33-.42-4.57-.24-7.54-.59Z"/>
      <path class="cls-1" d="M228.57,23.23c-.36,1.83-.7,3.56-1.03,5.29-.39,2.09-.93,4.14-1.58,6.18-.73,2.29-1.04,4.73-2.2,6.85-.65,1.19.34,2.7-.92,3.66.11,2.7-1.19,5.18-1.27,7.87-.02.75-.51,1.48-.57,2.23-.09,1.19-.84,2.18-.71,3.47.11,1.02-.14,2.21-.61,3.12-.6,1.16-.26,2.4-.62,3.48-1.08,3.3-1.54,6.66-1.94,10.09-.23,1.99-.19,4.01-.54,5.96-.62,3.44-.62,6.95-1.31,10.33-.38,1.82-.32,3.57-.52,5.35-.12,1.06-.41,2.1-.6,3.16-.19,1.06.49,2.27-.61,3.17-.1.08,0,.4-.02.6-.2,3.23-.38,6.45-.64,9.68-.11,1.37-.42,2.72-.6,4.09-.17,1.27.42,2.66-.63,3.78.09,2.4-.47,4.64-1.1,6.98-.6,2.24-1.6,4.35-2.01,6.64-.03.19-.06.39-.11.69h-3.37c-.4-.85-1.03-1.73-.91-2.92.04-.41-.35-.87-.59-1.29-1.48-2.63-1.63-3.18-.75-5.75.44-1.27-.53-1.99-1.02-2.98v5.4q-2.82.22-4.44-1.38c0-1.45-.22-2.94.04-4.34.81-4.25.07-8.59.71-12.77.61-3.99-.02-7.96.55-11.86,1.1-7.47.08-14.96.66-22.4.21-2.71.16-5.47.63-8.11.38-2.11-.03-4.35.63-6.24.92-2.63-.27-5.43,1.09-7.92.22-.4-.03-1.03.04-1.53.21-1.47-.3-2.92.52-4.45.66-1.23-.02-2.85.59-4.4.7-1.79.5-3.93.75-5.9.15-1.16.39-2.32.61-3.47.23-1.15-.44-2.37.55-3.53.41-.48.07-1.6.07-2.73-.98,0-1.99.08-2.97-.02-.86-.09-1.68-.49-2.54-.58-3.22-.33-6.19-1.49-9.16-2.64-.98-.38-1.92-.84-2.93-1.19-2.27-.8-4.13-2.38-5.67-4.27-.22-.27-.19-.75-.34-1.09-1.61-3.53-1.42-7.29-1.13-10.97.12-1.61.98-3.55,2.17-4.58,1.21-1.06,3.09-1.92,4.96-1.34,1.45.46,2.8,1.23,4.23,1.78,2.32.89,4.68,1.69,7.02,2.54,2.34.85,4.72,1.41,7.25,1.26,1.65-.1,3.31-.02,5-.02,1.15-2.62,3.42-4.02,5.93-4.93,2.87-1.04,8.61-.72,11.29-.15,1.61.34,1.49,1.72,2.73,2.56,1.43-.27,3.24.74,4.92-.57.13-.1.4,0,.61-.02,2.5-.2,5.01-.38,7.5-.63,1.27-.13,2.52-.42,3.78-.6,1.26-.19,2.65.45,3.79-.61.11-.1.4,0,.61-.02,3.33-.2,6.72-.09,9.97-.71,3.05-.58,6.05-.52,9.07-.49,2.19.02,4.39.32,6.57.63.46.07,1.08.66,1.21,1.12.2.75.05,1.6.05,2.29-.8.3-1.58.38-2.02.81-.78.74-1.18,2.11-2.05,2.46-1.07.43-1.48,1.24-2.48,1.93,1.09,1.06,2.15,2,1.48,3.5-14.87,3.92-30.09,6.56-45.11,10.48Z"/>
      <path class="cls-1" d="M242.42,100.66c-1.07.26-2.01.48-2.86.69-1.2-1.08-1.17-2.35-1.21-3.65-.11-3.43-.97-6.83-.6-10.29-1.06-2.54-.2-5.26-.7-7.79-.48-2.42-.09-4.89-.64-7.18-.68-2.85,0-5.71-.6-8.44-.69-3.14-.45-6.25-.52-9.38-.07-3.2-.26-6.43.04-9.61.57-6.03,2.38-11.62,6.73-16.13.68-.7,1.09-1.67,1.79-2.34,1.46-1.39,2.94-2.77,4.58-3.92.82-.57,1.99-.8,3.03-.86,2.16-.13,4.36-.21,6.51,0,2.32.24,4.66.66,6.87,1.36,1.09.35,2.1,1.17,2.81,2.42.92,1.61-.1,2.81-.35,4.1-.38,1.98-1.73,3.63-2.78,5.34-1.45,2.34-2.99,4.6-4.73,6.76-.96,1.18-1.5,2.73-2.68,3.84-.38.36-.61,1.01-.69,1.55-.27,1.77-.41,3.55-.65,5.32-.17,1.26-.49,2.51-.59,3.78-.1,1.34.23,2.75-.07,4.02-1.14,4.86-.06,9.8-.63,14.64-1.02,8.7-.25,17.42-.64,26.12-.08,1.76-1,3.49-1.55,5.23-.2.64-.32,1.34-.68,1.89-1.12,1.69-3.01,1.58-4.04.12-1.19-1.68-2.43-3.33-3.6-5.03-.55-.79-1-1.64-1.55-2.57Z"/>
      <path class="cls-1" d="M257.63,120.98c-1.47.17-1.88,1.45-2.82,1.97-2.9,1.6-3.27,4.59-3.96,7.3-.79,3.11-2.48,4.08-5.46,2.65-1.29-.62-2.53-1.37-3.8-2.04-.34-.18-.74-.46-1.05-.4-1.26.26-2-.56-2.52-1.38-1.13-1.78-2.31-3.59-3.02-5.55-.52-1.45-.32-3.15-.43-4.54,2-1.91,4.36-2.25,6.58-2.81,1.62-.41,3.32-.54,5-.64,1.75-.1,3.51-.1,5.26,0,1.36.08,2.74.3,4.06.64,1.6.41,2.13,1.28,2.16,3.05,0,.52,0,1.03,0,1.74Z"/>
      <path class="cls-1" d="M114.44,40.99c-.98.98-2.23,2.22-3.46,3.46-.91.92-1.95,1.56-3.11,2.18-1.88,1.01-3.41.56-4.94-.43-2.97-1.93-4.37-4.99-5.54-8.15-.36-.99-.27-2.16-.68-3.12-.59-1.39.03-2.23.85-3.19.82-.96,2.01-.99,2.78-.63,1.98.92,3.98.36,5.96.55,2.28.22,4.57.45,6.94.69,1.35,1.13,2.43,2.56,2.1,4.54-.14.82-.73,1.55-1,2.36-.13.38.03.85.09,1.74Z"/>
      <path class="cls-1" d="M182.99,170.2c-1.03-.25-1.86-.54-2.71-.62-.96-.09-1.42.57-1.53,1.46-.2,1.55.25,2.79,1.9,3.53.6-.36,1.28-.77,2.49-1.49-1.21-.3-1.82-.46-2.48-.63.6-1,1.31-1.49,2.4-.76.56.37,1.03,1.89.62,2.48-.3.44-.91.85-1.43.92-1.01.14-2.06.04-3.31.04-.43-.61-1.15-1.27-1.37-2.06-.23-.84-.26-1.96.12-2.68.6-1.14,1.81-1.93,3.11-2.02.74-.05,1.53.61,2.28.98.06.03-.04.37-.09.84Z"/>
      <path class="cls-1" d="M108.75,172.76c-.59.79.59,2.26-1.41,2.43.15-2.36-.48-4.63.38-6.88.02-.05.38.02.79.05v2.97h2.39c.45-.92-.41-2.36,1.21-2.94.38,2.41.07,4.86-.24,7.36-.34-.95-.69-1.9-1.08-3h-2.04Z"/>
      <path class="cls-1" d="M98.78,172.81q-1.64-.24-2.04-1.2c1.12-.32,2.16-.47,3,.61-.16.39-.47.8-.47,1.21,0,1.36-.76,1.74-1.95,1.71-.92-.02-1.84,0-2.74,0-1.76-2.32-1.92-3.59-.92-5.32.61-1.07,1.86-.57,2.58-1.28.68-.67,1.01.24,1.51.34.59.12,1.06.23.86.87-.21.63-.71.55-1.17.15-.92-.79-1.56-.27-2.35.35-.92.71-.94,1.61-.76,2.47.39,1.76,2.24,2.18,3.65.91.23-.21.44-.43.82-.82Z"/>
      <path class="cls-1" d="M195.89,175.07c-4.8.37-4.11-.32-4.1-4.07,0-.61,0-1.22,0-1.81.69-.38,1.22-.5,1.24.49.02,1.03.09,2.07-.02,3.09-.11,1.06.65,1.33,1.35,2.17.5-.83,1.03-1.34,1.12-1.92.16-1.01-.05-2.06.08-3.08.07-.57.49-1.1,1-1.58-.01,2.29.81,4.61-.66,6.71Z"/>
      <path class="cls-1" d="M171,175.4c-2.8-1.06-3.44-1.07-6.39-.42.93-2.02,1.85-4.04,2.87-6.25,1.83,1.75,1.73,4.36,3.52,6.67ZM168.44,172.83c-.32-.63-.52-1.02-.72-1.42-.26.21-.7.39-.73.63-.06.42-.33,1.09.43,1.2.27.04.58-.23,1.02-.42Z"/>
      <path class="cls-1" d="M206.18,174.41c.86.09,1.62.17,2.37.24,0,.11,0,.23-.01.34h-3.62v-6.56h3.83c-.33.48-.5.99-.78,1.06-.56.14-1.18.04-1.83.04v1.86h2.47c-.67,1.23-1.34,1.65-2.43.62v2.38Z"/>
      <path class="cls-1" d="M153.85,172.87c.31,2.25,2.1,1.39,3.76,1.94-1.79.29-2.99.49-4.25.7v-7.19c1.21.18,2.56-.61,3.61.91-1.05.31-2.08.63-3.12.94,0,.2-.02.39-.02.59.99.3,1.98.61,2.98.91-.32,1.64-1.94.63-2.97,1.2Z"/>
      <path class="cls-1" d="M72.53,175.13c0-1.83,0-3.56,0-5.29,0-.97.59-1.42,1.48-1.53,1.18-.15,1.76.08,2.98,1.25h-3.16v1.89h2.36c.04.16.07.31.11.47-.75.32-1.51.64-2.26.96-.96.35.74,2.3-1.51,2.25Z"/>
      <path class="cls-1" d="M122.84,176c-1.81-2.07-1.03-4.24-1.31-6.33-.56-.08-1.13-.17-1.82-.27,1.31-2.06,3.24-.52,4.71-1.3q.14,1.32-1.58,1.56v6.33Z"/>
      <path class="cls-1" d="M141.57,175.43v-7.34c2.04,1.97.69,4.2,1.28,6.32.89.06,1.94.14,2.99.21,0,.11,0,.22,0,.33-1.4.16-2.8.31-4.27.47Z"/>
      <path class="cls-1" d="M84.44,175.02v-6.61c.73,2.19.41,4.41,0,6.61Z"/>
      <path class="cls-1" d="M55.81,172.3c-.86.72-1.96.16-3.41.54.38-.74.53-1.35.73-1.37.87-.08,1.76.02,2.64.05.01.26.02.52.04.78Z"/>
      <path class="cls-1" d="M229.34,172.61h-3.82c1.22-1.59,1.79-1.62,3.82,0Z"/>
    </g>
  </g>
</svg>