<?xml version="1.0" encoding="UTF-8"?>
<svg id="Capa_2" data-name="Capa 2" xmlns="http://www.w3.org/2000/svg" viewBox="0 0 186.1 178">
  <defs>
    <style>
      .cls-1 {
        fill: #000;
        stroke-width: 0px;
      }
    </style>
  </defs>
  <g id="Capa_1-2" data-name="Capa 1">
    <g>
      <path class="cls-1" d="M36.4,37.87c.72.49,1.45.98,2.26,1.53,2.06-1.16,3.77-2.78,5.56-4.29-.69-.97-1.26-1.77-1.82-2.57-.02-.04.07-.15.21-.46,1.24.45,2.12,2.03,3.39.72.74-.65,1.29-1.43,2.3-1.89,1.54-.7,1.56-1.46.81-3.91.7.25,1.22.43,1.76.62,1.89-1.47,3.79-2.96,5.67-4.43,2.04,1.58,4,3.08,6.01,4.64,1.86-1.55,3.58-2.99,5.2-4.34-.02-2.01-2.9-1.67-2.76-4.09,1.39.94,2.48,1.67,3.65,2.46,1.88-1.6,3.86-3.3,5.88-5.02,1.46,2.39,3.83,3.62,5.86,5.07,1.69-1.41,3.31-2.76,4.99-4.16-.25-.81-.47-1.55-.71-2.32,1.3.41,1.51.41,2.99,0-.43.94-1.35,1.93-.32,2.73,1.63,1.2,3.01,2.81,5.31,3.4,1.28-2,4.78-2.11,4.46-5.64h1.53c0,1.55.58,2.82,2.33,3.59,1.17.51,2.05,1.7,2.97,2.51,1.62-1.37,3.08-2.62,4.58-3.82.17-.14.62.07.94.12-1.07,2.11-3.91,2.6-5.22,4.85,1.65,1.95,3.69,3.22,5.81,4.57,1.66-1.51,3.4-2.99,5.14-4.32-.86-2.38-3.58-2.63-4.83-4.84,2.91.43,3.49,2.16,5.86,3.71.29-.56.54-1.03.84-1.61.72,1.42-.73,1.54-.87,2.57,1.45,1.91,3.65,3.1,5.68,4.5,1.36-.98,2.16-2.53,3.91-2.8.14,1.15-.87,1.42-1.36,2.04-.19.24-.68.21-.93.43-3.51,2.64,2.59,4.61,4.36,6.29,1.64-1.44,3.03-3.57,6.28-3.95-2.4,1.88-4.32,3.38-6.45,5.05,1.99,1.66,3.75,3.14,5.63,4.71,2.03-1.64,4.35-2.78,5.89-5.28,2.1,2.45-3.57,3.72-4.51,5.64-1.83,2.39,3.22,3.77,4.68,5.27,1.91-1.3,4.15-2.36,5.73-4.95.5.48.92.88,1.81,1.73-3.39.44-4.46,3.27-6.88,3.87-.51.68.57,2.02-1.15,2.15v-1.76c-6.17-4.22-3.97-5.59-10.1-.53-1.6,1.13-.27,1.89.8,2.43.17.17.07.61.12,1.29-.96-.65-1.61-1.08-2.21-1.49-1.21.37-1.56,2.36-3.45,1.47,5.73-3.64,1.78-3.76-1.44-6.6-1.51-1.77-4.73,2.56-6.43,3.41.06,2.45,3.19,2.36,3.97,4.61-1.77-.65-3.13-1.69-4.38-3.08-1.72,1.41-3.33,2.73-5.06,4.14h-2.01c-1.56-1.3-3.11-2.58-4.89-4.06-1.47,1.48-3.84,2.77-5.02,4.59.27,1.34-.9,1.22-1.66,1.72v-2.33c-1.81-1.37-3.44-2.61-5.16-3.92-1.11,1.44-6.7,3.96-4.51,5.92.94.76,2.2.99,2.1,2.58-4-4.21-5.72-1.03-8.85,2.01.31,2.07,3.17,1.87,3.47,4-.81.24-.87-.55-1.29-.75-1.19-.44-1.73-1.17-2.36-2.33-1.08.94-1.25,1.18-2.26,1.72-.12-.26-.27-.47-.24-.51.51-.55,1.14-1.02,1.53-1.64.18-.28-.03-1.21-.18-1.24-1.03-.19-1.44-1.11-2.15-1.65-1.31-.65-2.65-2.88-4.09-1.35-1.6,1.36-3.1,2.32-4.84,3.65-1.62-1.22-3.19-2.38-4.72-3.59-.97-.77-1.37-.79-2.33.02-1.11.94-2.22,1.87-3.36,2.77-1.06.84-1.19,1.6-.07,2.09,1.41.62,2.1,1.84,3,3.02-2.15-.35-2.95-3.38-5.4-2.52.18-.68.4-1.48.6-2.23-1.93-1.01-3.09-2.88-5.06-3.69-1.2-.41-1.67.9-2.46,1.47-1.07.77-2.17,1.48-3.26,2.21-.5,2.63,3.79,2.21,1.74,3.72-.72-.61-1.47-1.24-2.34-1.98-1.18.9-1.99,2.43-3.89,2.41.66-1.91,3.73-1.72,3.37-4.19-1.84-.95-3.07-2.86-4.97-3.64-1.21-.43-1.67.89-2.46,1.46-1.07.76-2.18,1.48-3.42,2.31.5,2.22,3.19,2.51,4.05,4.67-1.86-.47-2.86-1.83-4.56-2.97-2.01,1.72-4.07,3.48-6.13,5.25-1.05-.21.06-1.9-1.46-1.91-.63,0-1.23-1.01-1.87-1.53-.56-.46-1.15-.87-2.29-1.73,3.02-.04,3.71,1.8,5.84,3.4,2.01-1.3,3.88-2.73,5.76-4.59-1.78-1.04-4.96-5.65-6.66-4.05-.59.47-1.18,1.93-1.85,1.15-.95-1.12.64-1.24,1.29-1.69.56-.39.63-.7.8-2.46,2.36-.85,3.93-2.79,5.85-4.24.27-.2.21-.84.29-1.24-.63-.4-1.2-.76-2.31-1.47,1.06,0,1.75-.18,1.89.03.78,1.13,1.51.31,2.09-.06,3.01-2.35,5.78-2.74,2.04-6.31.13-.11.25-.22.38-.33ZM103.96,24.31c-6.9,5.26-7.13,4.25,0,9.38,6.58-4.84,6.33-4.47,0-9.38ZM97.61,38.9c.06.16.12.31.19.47.13-.16.25-.31.38-.47,1.96-.32,3.67-2.13,4.92-3.58.25-.43.47-1.02-.39-1.54-1.59-.96-3.01-2.22-4.49-3.34-3.19,1.71-4.3,2.63-5.77,4.8,1.43,1.22,2.86,2.45,4.33,3.65.17.14.54.02.82.02ZM98.19,18.44c-2.03,1.61-4.41,2.57-5.81,4.87,1.73.98,4.77,5.59,6.54,3.89,1.06-.97,2.2-1.86,3.31-2.77,1.37-1.12,1.43-1.21.3-2.29-1.31-1.24-2.74-2.35-4.33-3.71ZM85.51,18.48c-1.43,2.01-3.45,2.84-5.07,4.64,1.88,1.99,3.85,3.48,6.08,4.61,1.55-1.81,3.93-2.58,4.96-4.72-1.6-2.03-3.61-3.35-5.97-4.53ZM86.13,51.29c6.21-5.2,7.62-3.45.66-8.77-.27-.25-1.18-.25-1.45,0-7.13,5.4-5.3,3.6.79,8.78ZM50.62,51.2c1.09-1.61,7.54-3.8,4.55-5.96-1.42-.78-2.72-1.65-3.91-2.75-.26-.24-1.17-.21-1.45.05-1.32,1.22-2.77,2.23-4.29,3.17-1.42,2.22,3.77,4.16,5.09,5.49ZM103.27,46.1c-1.43-1.08-2.79-2.07-4.1-3.13-1.13-.92-1.48-.93-2.52-.03-.82,1.19-5.28,3.02-3.74,4.47,1.6,1.51,3.35,2.5,5.21,3.89.92-.81,1.81-1.7,2.81-2.45,1.04-.78,2.59-1.11,2.35-2.76ZM110.11,42.22c-2.23,1.17-4.35,2.43-5.97,4.78,1.92,1.45,3.78,2.86,5.67,4.29,6.59-5.38,7.34-3.66.3-9.07ZM80.14,57.14c7.34-4.97,6.06-4.16,0-9.39-6.08,5.22-7.29,4.48,0,9.39ZM62.33,39.5c7.14-5.22,7.3-3.82.27-9.15-1.93,1.42-4.17,2.54-5.8,4.75,1.93,1.53,3.73,2.96,5.53,4.4ZM74.3,51.17c5.94-4.93,7.84-3.46.64-8.69-.37-.21-1.18-.2-1.46.06-1.32,1.22-2.77,2.23-4.29,3.17-.93,1.17.53,2.18,1.5,2.77,1.21.9,2.42,1.8,3.62,2.69ZM74.47,18.47c-1.8,1.85-4.56,2.39-5.73,4.93,1.76,1.46,3.44,2.86,5.13,4.27,2.3-1.1,4.32-2.49,5.93-4.71-1.78-1.5-3.45-2.9-5.33-4.49ZM62.52,51.25c1.42-1.62,7.78-4.06,4.11-6.16-1.1-.75-2.16-1.56-3.22-2.37-1.69-1.59-4.62,2.57-6.43,3.53-.15.58.18,1.4.89,1.58,1.03.25,1.41,1.12,2.13,1.64.79.57,1.59,1.14,2.52,1.79ZM74.53,30.3c-2.03,1.44-4.26,2.59-5.89,4.81,1.94,1.54,3.75,2.97,5.54,4.39,1.91-1.59,4.29-2.49,5.59-4.84-1.77-1.47-3.44-2.87-5.24-4.36ZM32.98,46.76c2.19,1.7,4,3.1,5.81,4.51,1.64-1.95,4.89-2.21,5.38-5.08-6.99-5.47-4.48-4.88-11.19.57ZM73.37,51.72c-1.86-1.42-3.48-2.65-5.03-3.83-6.64,5.01-6.87,4.42-.03,9.21,1.84-1.73,5.55-2.51,5.06-5.38ZM115.73,45.2c7.34-4.6,5.74-4.39-.08-9.23-6.19,5.18-7.26,4.51.08,9.23ZM80.16,45.3c7.06-4.75,6.21-4.19.15-9.26-6.31,4.98-7.4,4.38-.15,9.26ZM68.31,35.88c-6.26,5.44-7.19,4.53.15,9.34,7.18-4.9,5.86-4.1-.15-9.34ZM44.72,45.35c7.04-5.04,6.13-4.15-.02-9.34-6.58,5.17-7.01,4.32.02,9.34ZM110.01,30.27c-2.08,1.56-4.25,2.67-5.92,4.86,1.96,1.49,3.8,2.89,5.65,4.3,3.64-2.27,4.03-2.62,5.43-4.81-1.65-1.39-3.31-2.79-5.16-4.35ZM127.22,34.78c-1.88-1.58-3.56-2.97-5.38-4.5-2,1.45-4.2,2.64-5.93,4.83,2,1.52,3.84,2.92,5.68,4.32,1.82-1.4,3.92-2.49,5.63-4.65ZM32.6,47.51c-.67.8-1.08,1.76-1.75,2-1.24.44-1.83,1.49-2.69,2.26-1.94,1.96,3.53,4.01,4.67,5.34,7.42-5.14,6.01-4.02-.22-9.6ZM62.07,52.09c-1.82-1.36-3.63-2.72-5.48-4.11-6.91,5.08-6.72,3.99.01,9.18,1.95-1.78,4.31-2.77,5.47-5.08ZM86.19,30.38c-2.09,1.53-4.17,2.64-5.74,4.71,1.94,1.54,3.75,2.99,5.55,4.42,1.9-1.55,4.23-2.5,5.65-4.87-1.86-1.45-3.63-2.83-5.46-4.26ZM92.05,45.22c6.98-4.71,6.23-4,.12-9.18-6.29,5.04-7.54,4.26-.12,9.18ZM56.28,36.23c-6.54,4.74-6.31,4.54.21,9.07,6.7-4.55,6.73-4.73-.21-9.07ZM127.59,36.11c-6.25,4.98-7.47,4.32.02,9.09,1.53-1.55,5.58-2.66,4.9-5.32-1.68-1.28-3.23-2.48-4.92-3.77ZM44.63,57.13c7.38-5.12,6.08-4.08-.08-9.39-.68.68-1.16,1.55-1.86,1.78-1.25.42-1.83,1.48-2.7,2.25-1.91,1.97,3.35,3.91,4.64,5.36ZM120.83,28.47c-1.65-.9-4.06-4.68-5.8-3.34-6.08,4-5.77,3.82.02,8.14,2.25.29,3.81-2.3,5.48-3.51.21-.2.17-.67.3-1.28ZM68.47,24.41c-5.69,4.31-7.88,4-.58,8.65,1.83.63,3.27-1.65,4.61-2.6,2.91-2.49-2.43-4.27-4.03-6.06ZM80.22,33.55c1.25-1.44,6.54-3.56,4.59-5.46-1.64-.96-3.33-3.73-5.31-3.26-6.68,4.84-5.17,4.32.71,8.71ZM98.48,40.33c.83,2.57,3.49,3.25,5.46,4.88,6.98-4.79,6.05-4.02.05-9.16-1.81,1.41-3.58,2.78-5.52,4.28ZM56.64,24.41c-5.43,4.57-8.08,3.84-.58,8.65,1.83.63,3.27-1.65,4.61-2.6,2.91-2.49-2.43-4.27-4.03-6.06ZM92.3,24.44c-1.82.7-2.89,2.49-4.69,3.39-2.87,1.9,3.56,4.89,5.05,5.61,1.06-1.17,1.84-1.81,3.09-2.54,3.79-2.33-1.88-4.84-3.45-6.46ZM44.67,34.95c2.27,1.7,4.11,3.08,5.95,4.47,1.57-1.76,4.19-2.23,5.4-4.59-1.55-1.84-3.52-3.1-5.59-4.38-1.85,1.45-3.61,2.82-5.76,4.5Z"/>
      <path class="cls-1" d="M150.58,130.07c-.07.46,0,.95-.22,1.13-1.37,1.14-2.79,2.21-4.29,3.38v2.26c-2.82-.03-3.92,2.79-6.32,3.83.16.56.32,1.13.45,1.58-1.83,1.26-4.97,2.18-5.93,4.35.09,1.07-.72,1.52-1.32,1.98-1.65,1-3.16,2.79-5.08,3.01,1.39-1.54,3-2.61,4.64-3.7.1-1.17.22-2.35-1.48-2.65-1.07-.93-2.29-2.01-3.56-2.84-1.72,1.35-3.33,2.6-5.02,3.92v1.56c1.83,1.29,3.55,2.51,5.42,3.71-.39,2.22-5.18-2.81-6.26-3.25-1.66,1.35-3.74,2.53-5.27,4.03-.21.3-.08,1.18.21,1.43.91.98,2.71,1.15,2.99,2.62-1.56.39-2.45-1.4-3.73-2.15-1.77,1.53-4.36,2.21-5.25,4.38-.49,1.77-2.14,2.22-1.32-.35-1.62-1.23-3.5-2.67-5.29-4.04-1.41,1.39-6.67,3.18-4.84,5.31.6.65,1.25,1.26,2.13,2.14-1.63-.1-2.52-.76-3.31-1.63-1.18.9-2.35,1.79-3.53,2.68-.21-.21-.41-.41-.68-.67,1.24-.91,2.47-1.82,3.76-2.77-.82-2.76-3.6-3.36-5.51-5.12-1.14,1.3-6.57,3.5-4.78,5.28.72.67,1.24,1.55,2.33,1.86.45.13,1.21.72.34,1.65-1.23-.97-2.49-1.95-3.67-2.88-1.21.8-2.35,1.56-3.49,2.31-.11-.13-.23-.26-.34-.39,5.42-4.56,1.91-4.45-2.12-7.72-1.28,1.38-6.64,3.05-4.77,5.29.57.62,1.19,1.2,2.03,2.04-.73-.16-1.14.02-1.51-.38-1.22-.91-1.54-.98-3.2-.67.11-1.24,1.26-3.01-.29-3.29-1.57-.82-2.3-2.07-4.21-2.88-1.95.8-3.2,2.93-5.73,3.45,1.06-1.8,2.63-2.51,3.98-3.46,3.75-2.25-2.63-4.46-4.1-6.01-4.86,3.97-8.3,3.03-1.49,7.99-.71.5-1.36.42-1.91-.25-.96-1.16-2.22-1.76-3.82-1.85,2.6-2.52-3.4-4.26-4.69-6.02-.93.5-1.33,2.09-2.85,1.53.63-.91,1.07-1.33,1.98-1.81-.02-1.09.33-2.12-1.37-2.73-1.35-.49-2.4-1.84-3.59-2.82-1.26.89-2.42,1.7-3.81,2.68-.08-.57-.28-1.05-.15-1.16.79-1.07,4.47-2.24,2.91-3.72-1.59-1.35-3.35-2.42-4.95-3.79-1.13.86-2.3,1.75-3.49,2.66.2-1.38.71-1.96,2.61-2.98.14-1.24.2-2.37-1.47-2.74-.5-.11-.88-.82-1.56-1.5,1.95.08,2.88,1.17,3.91,2.22,1.73-1.02,3.11-3.94,5.38-3.04-1.43,1.11-2.87,2.22-4.46,3.46v1.45c1.71,1.33,3.32,2.59,4.98,3.89,1.94-1.44,3.81-2.83,5.64-4.18-1.34-2.93-3.7-3.02-5.7-5.51,3.01.6,3.86,3.15,6.27,3.71,1.03-.88,2.17-2.36,3.67-3.01,1.32-.56,1.26-1.54,1.61-2.4.3,0,.63-.05.65,0,.17.49.16,1.36.44,1.46,1.31.47,1.85,1.93,2.96,2.36.98.38,1.35,1.22,2.3,1.72,1.28-1.06,2.61-2.24,4.02-3.3,1.4-1.05,1.43-.99.27-2.44-.35-.5.14-1.11.69-.93.3.13.52.44.76.67,1.02-.44,1.45-1.88,2.96-1.02-.82.82-1.61,1.61-2.58,2.58,1.96,1.51,3.79,2.91,5.64,4.34,1.01-1.27,7.6-4.12,4.68-5.79-1.16-.51-1.8-1.47-2.6-2.48,1.58.32,2.42,1.41,3.9,2.38,2.81-2.26,8.43-4.53,2.44-7.4-1.49-.17-.4-1.11-.57-1.74,1.31,1.04,2.62,2.08,4.06,3.23.78-.49,1.71-1.08,2.62-1.65.59.59.68.91-.14,1.25-1.06.43-1.91,1.13-1.72,2.36,1.69,1.32,3.31,2.58,4.98,3.88,2.62-1.18,4.44-3.35,6.66-5.51.15,1.53.56,2.39,1.84,2.94,1.21.52,2.17,1.6,3.39,2.55,2.03-1.28,4.47-2.27,5.73-4.97-.58-.41-1.98-.6-1.66-1.57.73-.75,1.36.43,1.93.84.8-.84,1.63-1.62,3.04-1.67-.54,1.47-2.58,1.84-2.25,3.51,1.69,1.32,3.31,2.59,5.09,3.97,1.7-1.85,4.68-2.19,5.59-5.06-1.22-1.09-3.29-1.66-3.86-3.29,1.58-.48,2.82,1.72,4.2,2.54,6.21-4.59,5.9-5.56,11.85.05,1.56-1.2,3.12-2.39,4.68-3.6.45-.35.76-.76.69-1.42-.02-.19.39-.43.61-.64.47.56.75,1.82,1.27,2.12,1.1.29,1.55,1.26,2.35,1.84.72.53,1.47,1.01,2.37,1.62,1.41-1.09,3.01-2.21,4.47-3.49,1.19-1.05,1.1-1.13-.31-2.3-.82-.4-.88-1.76.26-1.39.39.25.77.8,1.18,1.04,1.52-.19,2.32-2.12,3.95-1.64-1.13,1.05-2.23,2.07-3.47,3.22,1.49,1.31,2.86,2.51,4.22,3.71-1.9-.26-3-1.77-4.77-2.58-1.21,2.12-4.4,2.46-4.97,5.35,2.31,1.04,3.44,3.69,6.24,3.86-.5.79-.47,1.88-1.61,2.04.04-.73.06-1.53-.78-2.1-1.59-1.06-3.15-2.18-4.67-3.23-7.57,6.74-6.45,3.31.04,9.33,1.77-1.35,3.54-2.69,5.41-4.01ZM62.22,136.63c-7.41,5.27-6.08,3.66.14,9.25,1.72-1.01,2.99-2.47,4.69-3.52,1.05-.5,1.04-1.93-.03-2.42-1.78-.82-2.63-2.77-4.8-3.3ZM109.89,145.8c6.55-5.5,7.53-3.78-.17-9.29-7.12,5.63-7.22,3.75.17,9.29ZM133.48,145.88c6.49-5.56,7.74-3.83-.1-9.37-7.52,5.41-6.41,3.72.1,9.37ZM74.11,145.83c7.29-5.26,7.22-4.11.08-9.42-6.82,5.91-7.18,2.89-.08,9.42ZM86.16,148.39c-7.54,5.19-6.53,3.53-.25,9.25,7.11-4.78,7.29-4.29.25-9.25ZM121.71,133.98c7.02-5.4,6.89-3.82-.11-9.24-6.88,5.54-7.51,3.8.11,9.24ZM86.11,134.02c6.91-5.26,7.23-4.25-.13-9.27-6.85,5.93-6.89,3.64.13,9.27ZM50.5,145.88c1.82-1.45,3.58-2.85,5.56-4.42-.77-2.3-3.8-3.44-5.38-4.87-1.99.76-3.03,2.48-4.75,3.36-2.76,1.08,3.8,4.74,4.57,5.93ZM121.57,136.53c-1.86,1.43-3.68,2.83-5.65,4.34,1.89,2.04,3.54,3.47,5.73,5,6.36-5.42,7.74-3.81-.08-9.35ZM97.9,157.58c1.66-.84,2.96-2.38,4.61-3.37,1.08-.45,1.08-1.87.04-2.42-1.77-.94-2.93-2.63-4.77-3.46-1.64,1.73-4.35,2.55-5.38,4.93,1.99,1.56,3.76,2.95,5.5,4.32ZM85.99,145.88c1.83-1.46,3.59-2.86,5.46-4.34.16-.66-.13-1.43-.86-1.71-1.84-.72-2.65-2.75-4.73-3.21-7.06,5.66-6.56,3,.13,9.26ZM109.79,148.42c-1.48,1.48-5.49,2.69-5.46,4.92,1.9,1.49,3.67,2.88,5.46,4.29,6.31-5.35,7.69-4,0-9.21ZM109.8,124.7c-1.81,1.42-3.57,2.81-5.55,4.36.88,2.52,4.01,2.92,5.36,4.99,7.64-5.33,6.85-3.74.18-9.35ZM115.67,151.8c1.88-1.8,4.29-2.79,5.58-5.15-1.89-1.45-3.72-2.85-5.6-4.3-6.63,5.76-6.69,3.63.02,9.45ZM97.85,133.96c7.21-4.76,6.99-4.55,0-9.19-6.9,5.6-6.83,3.69,0,9.19ZM127.6,128.06c.96-.76,1.88-1.85,3.05-2.32,1.43-.57,1.8-1.65,2.34-2.73-1.96-1.46-3.8-2.83-5.59-4.15-6.37,5.39-7.03,4.33.19,9.21ZM103.85,139.85c1.46-.98,2.66-2.18,4.18-2.94,3.24-2.72-2.6-4.65-4.15-6.27-1.77,1.35-3.4,2.6-5.07,3.87v1.48c1.73,1.33,3.28,2.52,5.03,3.86ZM145,123.86c-1.43-2.41-3.97-3.26-5.71-5.15-6.28,5.45-7.18,4.55.25,9.31,1.79-1.37,3.63-2.77,5.45-4.16ZM56.48,151.65c1.7-1.3,3.33-2.54,5.03-3.84-.01-1.39-.15-1.94-.7-2.31-1.45-1-2.91-1.98-4.46-3.03-1.19.98-2.23,2.33-3.58,2.83-1.7.63-1.35,1.63-1.3,2.5,1.75,1.34,3.3,2.53,5.01,3.85ZM86.93,147.79c1.72,1.32,3.35,2.56,5.1,3.9,1.64-1.27,3.31-2.58,4.99-3.88v-1.6c-2.11-.72-2.91-3.3-5.19-3.62-1.16.92-2.17,2.16-3.45,2.63-1.6.58-1.55,1.54-1.45,2.58ZM68.44,152.77c1.87,1.57,3.39,2.85,4.91,4.14,1.1,1,2.28-.41,3.25-.95.94-.63,1.73-1.75,2.73-2.16.05-.5.27-1.12.06-1.49-1.34-1.6-3.56-2.7-5.14-3.96-1.84,1.4-3.66,2.79-5.81,4.42ZM97.92,136.52c-1.89,1.45-3.7,2.84-5.67,4.34,1.61,1.73,3.02,2.91,4.83,4.26,1.57,1.09,3.88-1.98,5.39-2.63,1.08-.77,1.24-2.03-.05-2.63-1.63-1.04-2.85-2.33-4.5-3.35ZM127.87,129.6c1.97,1.57,3.77,3.01,5.57,4.44,2.47-2.74,8.81-4.05,2.67-7.34-.88-.56-1.73-1.27-2.7-1.55-1.08-.31-1.34,1.15-2.14,1.47-1.54.6-2.32,1.9-3.39,2.97ZM68.27,142.51c-1.27,1.01-2.28,2.25-3.56,2.72-1.6.58-1.54,1.54-1.42,2.6,1.78,1.34,3.48,2.62,5.13,3.86,1.44-1.2,2.69-2.4,4.11-3.37.45-.31.92-.3.89-1.03-.03-.68-.06-1.27-.67-1.69-1.46-1-2.91-2-4.47-3.08ZM80.02,151.85c1.32-1.07,2.36-2.36,3.71-2.88,1.55-.6,1.57-1.53,1.47-2.65-1.74-1.33-3.43-2.61-5.09-3.87-1.75,1.37-3.37,2.62-5.12,3.99.46,2.79,3.58,3.21,5.04,5.41ZM80.21,139.85c1.61-1.26,3.22-2.52,4.95-3.88v-1.63c-2.14-.73-2.91-3.37-5.13-3.59-1.66,1.28-3.22,2.47-4.92,3.77v1.44c1.76,1.34,3.38,2.58,5.09,3.88ZM139.34,130.73c-6.79,4.71-6.57,4.7.04,9,6.79-4.27,6.75-4.73-.04-9ZM68.44,139.9c5.99-5.26,7.13-4.53-.21-9.23-1.64,1.27-3.31,2.56-4.96,3.84v1.46c1.74,1.32,3.36,2.56,5.16,3.93ZM91.99,139.81c1.72-1.31,3.35-2.55,5.05-3.85-.04-1.45-.1-1.8-.56-2.13-1.51-1.07-3.04-2.11-4.58-3.17-1.67,1.3-3.29,2.56-4.97,3.87v1.42c1.68,1.28,3.31,2.52,5.07,3.86ZM56.46,139.81c1.68-1.28,3.31-2.52,5.03-3.83v-1.48c-1.75-1.36-3.36-2.62-5.05-3.94-1.25,1.03-2.29,2.39-3.64,2.87-1.7.61-1.35,1.63-1.36,2.49,1.74,1.35,3.29,2.55,5.02,3.88ZM108.99,147.68c-.12-2.69-3.42-3.68-5.09-5.21-1.84,1.4-3.47,2.63-5.34,4.06.86,2.57,3.55,3.43,5.24,5.13,1.72-1.32,3.27-2.51,5.19-3.98ZM120.71,134.51c-1.74-1.33-3.42-2.61-5.1-3.89-1.75,1.36-3.37,2.62-5.04,3.93v1.42c1.76,1.33,3.46,2.61,5.08,3.84,1.73-1.32,3.36-2.56,5.06-3.85v-1.44ZM127.56,139.91c6.06-5.13,7.09-4.68-.08-9.18-6.87,4.94-6.41,4.21.08,9.18Z"/>
      <path class="cls-1" d="M74.63,95.82c1.44-.05,2.66.03,3.91-.51,1.11-.48,2.41,0,3.72-.52,1.62-.64,3.56-.45,5.35-.68.96-.12,1.91-.38,2.87-.55.96-.17,1.95.28,2.92-.48.47-.37,1.46,0,2.19-.11.69-.09,1.34-.47,2.02-.52,5.77-.53,7.36,5.97,6.78,10.86-1.79,4.86-6.5,6.29-11.08,7.81,3.14,2.07,5.42,4.62,8.49,6.12,1,.49.96,1.48.84,2.46-.86.91-2,.97-3.18.91-1.64-.09-3.16.95-4.83.56-1.11,1.26-1.97.08-2.73-.41-3.28-2.12-6.43-4.47-9.62-6.71-.36-.21-.86-.17-1.39-.26-2.84,14.78-.4,7.96-11.81,11.54-.63-4.48,1.29-8.23,2.03-12.46.28-1.31.02-2.89.68-3.93.79-1.26,0-2.67.96-3.87.53-.66-.36-2.01.63-2.81-.21-2.2.91-4.15,1.25-6.43ZM82.2,108.69c1.26-1.77,1.65-2.29,2.89-3.88.68-.26,1.65.23,2.66-.41.74-.47,2.01,0,3-.18,2.6-.97,3.93.17,3.37-3.55-3.83.88-7.61.81-11.02,2-.29,1.96-.56,3.74-.7,5.78v-.25c-.33.11-.55.1-.33.51.11-.09.22-.17.13-.02Z"/>
      <path class="cls-1" d="M17.12,113.74c1.55,1.69,3.6.65,5.53.41,2.77-.21,5.83-1.55,8.52-.56,8.17,3.66,5.72,17.89-3.89,17.64-1.22.04-2.28.46-3.42.64-1.05.17-2.26-.54-3.15.55-1.57-.24-3.04.32-4.55.56-1.14.18-2.28-.21-3.47.49-.92.54-2.21.12-3.42.53-1.73.59-3.71.43-5.86.62,1.29-3.16,2.9-5.91,4.7-8.29,6.27-.73,11.68-2.08,17.96-2.49.1-1.3-.12-3.15-1.74-2.65-2.78.66-5.67.64-8.42,1.41-1,.28-1.86.32-2.87-.06-8.21-3.16-7.49-12.06-1.21-16.69.74-.63,1.62-1.25,2.66-1,1.18.29,2.06-.58,3.15-.62,2.54.07,5.04-1.16,7.71-.99,3.26-.2,6.37-1.47,9.66-1.24,1.44-1.2,3.45.15,5.04-1.58-.02,1.03.28,1.44-.02,1.99-1.32,1.35-1.9,3.17-2.98,4.68-.47.65-1.18,1.02-1.51,1.91-.2.56-1.38.95-2.36.9-1.07-.05-2.11-.09-3.17.49-.9.49-2.21-.46-3.14.6-.12.14-.54,0-.82.02-2.54.55-8.09-.43-8.91,2.72Z"/>
      <path class="cls-1" d="M186.1,79.53c-.04.54.09,1.08-.12,1.4-1.43,2.23-2.83,4.5-4.47,6.58-.49.62-1.72.92-2.61.92-2.02,0-3.91.93-5.97.66-.73-.09-1.52.36-2.3.51-.78.15-1.53-.07-2.36.48-.65.43-1.82.08-2.75.1-1.88-.16-2.25,1.02-1.81,2.81,1.44,0,3.17.48,4.34-.12,1.4-.72,2.8-.2,4.19-.79,1.43-.61,3.31-.28,4.97-.16,3.02,1.17,4.72,4.72,4.95,7.93.1,4.07-2.3,8.97-6.58,9.52-5.5.68-10.98,1.96-16.52,2.22-1.21,1.25-3.05-.07-4.36,1.08-.37.33-1.27.02-1.93.06-.61.04-1.26-.21-1.84.38-.17.17-.89-.19-1.53-.35,1.21-2.23,2.31-4.26,3.43-6.27.55-.99,1.26-1.5,2.52-1.77,5.64-.73,10.93-1.54,16.56-2.36v-2.58c-1.12.09-2.28-.37-3.39.34-1.06.68-2.4-.39-3.43.58-1.48.68-3.34-.52-4.75.74-10.13-2.52-9.13-13.81-.84-17.99,3.03-.6,6.35-.76,9.34-1.29,1.54-.43,3.27.1,4.65-.99.17-.14.55,0,.83-.02,1.24-.15,2.47.22,3.75-.48.93-.51,2.22-.08,3.42-.56,1.34-.54,2.95-.41,4.6-.59Z"/>
      <path class="cls-1" d="M151.14,88.48c-.75,1.03-1.58,2.02-2.24,3.11-.92,1.55-2.65,1.76-3.97,1.85-2.88.2-5.66.79-8.49,1.18-6.39.2-4.85,2.19-5.59,6.82-.33.11-.55.1-.33.51,1.19-1.45,2.26-3.02,3.46-4.45,2.6-.07,5.19-.73,7.89-1.06,1.23-.39,2.71.21,3.97-.84.11.46.31.83.21.95-2.3,2.8-4.64,5.58-6.69,8.04-3.24.49-6.08.92-8.9,1.37-1.26.11-1.12,1.59-1.39,2.44.6.56.66-.14.93-.17,6.34-.35,11.94-2.12,18.39-2.34-.4,3.17-2.76,4.78-4,7.38-.97.62-1.84,1.34-3.19,1.18-.92-.11-1.89.38-2.85.49-3.62.65-7.18.88-10.86,1.63-1,.43-2.35-.18-3.39.64-2.22-.43-4.3.73-6.68.55-.12-1.16-.09-2.2.43-3.36,1.14-5.3,1.98-10.74,3.29-16.05,1.04-3.14.42-6.95,2.46-9.74,2.34-.23,4.77-.15,6.98-.8,1.54-.45,3.26.09,4.64-1,1.48-.23,3.04.28,4.57-.5,2.79-.62,6.05-1.05,9.05-1.21.71-.07,1.39.11,2.07-.5.35-.31,1.21-.05,2.04-.05-.3,1.73-1.53,2.38-1.8,3.93Z"/>
      <path class="cls-1" d="M51.53,107.13c-.63,2.06-1.19,3.99-1.27,6.59,1.26-1.7,2.18-2.94,3.08-4.16,3.97-.58,8.01-1.16,12.35-1.79-1.99,3.18-4.42,5.78-6.61,8.89-.93,0-2.15-.3-3.1.08-2.27.66-4.37.42-6.63,1.22-.23.71-.5,1.53-.85,2.57,2.46-1.04,5.15-.36,7.64-1.11,2.84-.75,5.84-.48,8.63-1.58.8-.32,1.84-.05,2.96-.05-.13,3.7-3.23,5.59-5.16,8.5-2.21-.5-4.25.47-6.44.63-2.46.17-4.97.62-7.41,1.11-4.03.3-7.77,1.5-11.72,1.59-.75-2.05,1.16-3.99.85-6.19,1.48-7.33,3.24-14.69,4.58-22.07.23-1.86,6.2-1.05,7.91-1.62.87-.09,1.72-.42,2.59-.53.8-.11,1.67.18,2.3-.58,1.76.34,3.4-.47,5.12-.55,1.08-.05,2.12-.07,3.16-.53.86-.38,2.05.4,2.84-.61,1.95-.17,3.9-.34,6.09-.53-1.87,3.78-3.57,8.66-8.22,8.97-1.35.1-2.66.01-4.01.51-1.13.42-2.56-.28-3.68.63-1.68-.39-3.19.66-5,.62Z"/>
      <path class="cls-1" d="M139.29,77.59c-1.33.3-2.36.56-3.41.74-1.05.18-2.23-.37-3.14.57-4.75.17-9.45,1.37-14.22,1.69-1.38,1.2-3.25-.04-4.7.91-.07.04-.54-.52-.82-.8,1.02-.88-.3-2.45.95-3.26.62-6.12,2.58-12.14,3.46-18.29.33-1.81,1.09-3.55,1.1-5.46,0-.42.48-1,.89-1.23,3.41-1.3,7.3-.68,10.82-1.72.87-.15,1.84.34,2.62-.52,1.85-.11,4-.48,5.92-.59,1.54-.06,2.96-1.01,4.55-.59,1.43-1.22,3.4.16,5.02-1.55,0,.88.12,1.28-.02,1.57-1.66,3.16-3.15,7.69-7.35,7.93-4.43.31-8.86,1.85-13.25,1.61-.44,2.31-.84,4.46-1.32,6.99,1.97-2.26,3.1-4.61,6.25-4.79,3.21-.21,5.67-1.43,9.1-.99-1.76,3.1-4.29,5.4-6.13,8.29-2.73,0-5.57,1.13-8.35,1.22-2.01-.13-2.23,1-1.88,2.86,3.05-.87,6.3-.6,9.32-1.74,3.26.33,6.36-.99,9.94-1.16-1.31,3.28-3.1,5.98-5.34,8.29Z"/>
      <path class="cls-1" d="M89.72,82.29c-7.48-5.09-7.84-13.42-3.25-20.63,1.25-2.26,5.56-5.15,7.98-5.78,3.56.11,6.92-1.37,10.48-1.2,1.13-.88,2.54-.24,3.68-.63,2.65-.66,4.84-.47,7.6-1.26v1.33c-1.98,2.12-3.15,5.95-5.75,7.29-1.02-.04-1.92.39-2.87.55-3.19.29-6.36,1.11-9.63,1.17-1.04.1-1.9.57-2.52,1.36-1.85,2.56-2.91,7.02-.08,9.35,1.11,1.01,2.35,2.31,3.97,2.21.94-.08,1.89-.39,2.75-.79.97-.46.53-1.47.62-2.51-1.86.21-3.68.42-5.79.66,1.29-2.36,2.37-4.41,3.53-6.42.5-.85,1.12-1.46,2.31-1.66,3.97-.31,7.75-1.72,11.73-1.47-1.33,5.66-2.37,11.31-3.87,16.92-.24,1.19-.76,1.42-1.83,1.55-2.2.27-4.47.24-6.58,1.09-3.71-.23-7.53.7-11.09-1.1-.37-.19-.93-.03-1.4-.03Z"/>
      <path class="cls-1" d="M46.57,91.13c2.27-5.02,5.05-9.47,7.78-14.19,3.54-5.29,5.77-11.82,10.11-16.44,3.38-.51,6.58-1,9.61-1.46,2.38,2.09,3.31,4.59,3.88,7.39,1.57,6.14,4.26,12.01,5.59,18.23.05.24.29.44.53.78-2.77,1.91-6.38.44-9.44,1.99-.69-1.65-1.39-3.31-2.07-4.96-1.61,2.12-2.62,5.87-5.82,5.99-.98.12-2.02-.19-2.86.58-1.95-.41-3.76.6-5.68.6-1.05,0-2.09.37-3.15.52-.97.14-2.03-.32-2.88.55-1.35.18-2.97-.32-4.27.56-.22.14-.67-.06-1.33-.14ZM62.53,80.84c1.85.91,3.37-.34,4.93-.2,1.69.15,3.11-.82,4.65-.67-1.12-3.46-2.21-6.8-3.39-10.44-2.2,4.01-4.19,7.65-6.19,11.31Z"/>
      <path class="cls-1" d="M52.24,62.53c-2.13,3.08-4.03,5.84-5.71,8.27-4.98.71-9.51,1.35-14.08,2.01-5.26,4.17-4.66,12.17,2.99,12.35,4.23-.12,7.82-1.44,12.12-1.56-1.89,3.65-3.63,8.66-8.42,8.88-5.26.67-11.09,1.43-15.55-2.15-4.75-3.64-5.91-10.28-3.63-15.47,1.61-4.85,6.39-9.39,11.79-9.5.95.02,1.9-.4,2.86-.51,5.94-.98,11.61-1.63,17.63-2.31Z"/>
      <path class="cls-1" d="M110.3,90.8c3.33-.54,6.75-1.1,10.31-1.68.03.27.23.79.08.93-1.14,1.06-.2,2.59-1.01,3.85-.7,2.2-.98,6.21-1.78,8.81-1.09,4.24-1.51,8.69-2.82,12.91-.16.78.45,1.82-.48,2.31-2.67,1.46-5.96,1.03-8.9,1.63-1.03.14-1.47-.12-1.31-1.03,1.57-5.8,2.21-11.78,3.93-17.52-.24-2.57,1.42-4.82,1.18-7.42-.07-.81.46-1.67.8-2.8Z"/>
      <path class="cls-1" d="M144.8,75.96c-.49-.56-.74-.84-.99-1.11.28-.15.55-.39.85-.42.25-.02.65.37.78.28,1.47-1.02,2.94-2.04,4.31-3.17,3.06-2.18-3.23-4.41-4.53-5.95-1.05.83-2.21,1.74-3.36,2.66-.11-.09-.23-.18-.34-.26.58-1.7,2.23-2.23,3.63-3.36-.92-.29-.42-1.46-1.51-1.56-.54-.05-1.35-.71-.55-1.88.74.64,1.41,1.23,2.25,1.97,1.58-1.26,3.28-2.53,4.88-3.92.68-.59.52-1.05-.44-1.73-.8-.57-1.22-1.63-2.36-1.79-.1-.01-.15-.47-.22-.72,1.5-.62,2.51,1.28,3.94,2.09,1.06-.75,2.21-1.57,3.38-2.41.8.18.82.91.27,1.08-1.48.45-1.99,1.86-3.29,2.69,1.62,1.98,4.03,2.84,5.49,4.64.41-.22.79-.41,1.56-.82-.31,1.19-.51,1.98-.73,2.79,1.14.52,2.07,1.11,2.1,2.6-.96-.7-1.92-1.4-2.86-2.08-.78,1.17-7.4,4.66-4.66,5.81,1.78.93,2.89,2.68,4.96,3.47.98-.81,2.15-1.79,3.54-2.94.17.41.43.88.36.93-1.02.81-2.09,1.57-3.28,2.45v1.54c1.71,1.36,3.37,2.68,5.02,4-1.79.14-2.85-1.15-4.17-1.87-.79-.71-1.65-1.84-2.73-.79-1.83,1.35-3.58,2.9-4.96,4.69-1.19-.08.14-1.62-1.25-1.79-.75-.09-1.34-1.2-2.05-1.79-.95-.76-2.2-2.01-3.45-1.17-1.58,1.22-3.08,2.56-4.22,3.52-.87,1.85,2.04,1.31,1.08,3.14-.68-.51-1.24-.93-1.93-1.44-1.21.6-1.67,2.45-3.45,1.51,1.28-1.11,4.49-2.2,1.88-3.85-.35-.29-.52-.81-.97-1.54,1.32.56,2.24.95,3.28,1.38,1.28-2.14,4.06-2.58,4.74-4.86ZM151.22,71.5c-6.81,4.97-6.87,4.5-.07,9.28,2-1.62,4.24-2.75,5.89-4.77-2.1-1.63-3.98-3.08-5.82-4.51ZM151.27,59.63c-6.82,4.98-6.99,4.52-.13,9.31,7.25-4.78,6.11-4.17.13-9.31Z"/>
      <path class="cls-1" d="M86.91,173.93c0-2.1-.02-3.68,0-5.25-.23-2.2,1.69-1.87,3.34-1.88-1.09,3.8-.18,7.5-.63,11.2h-2.66c-1.39-1.92-2.85-3.93-4.38-6.04-.68,1.74-.84,3.56-.74,5.46h-2.7c-.69-3.69,1.21-7.32.28-10.96,1.5-.48,2.5-.22,3.19.84,1.35,2.06,2.68,4.13,4.29,6.63Z"/>
      <path class="cls-1" d="M161.91,141.02c-.57.83-1.05,1.53-1.49,2.17-3.17-2.12-6.16-4.12-9.29-6.21,1.89-3.56,6.32-1.97,9.95-2.29-1.77-1.3-3.15-2.33-4.55-3.34-1.85-.99-.27-1.91.43-2.98,3.23,2.16,6.29,4.2,9.5,6.34-.61.68-1.28,1.42-2.08,2.32h-7.71c2.09,1.59,3.67,2.8,5.24,4Z"/>
      <path class="cls-1" d="M.87,84.65c.28-.28.68-.68,1.21-1.21h3.45c.99,1.41,1.89-.32,2.94-.12.99.19,2.11.72,3.18.09.11.13.31.27.31.4.32,3.44-.77,2.94-3.67,2.98-.47.51.21.55.27.84-.16.19-.34.38-.52.58,2.92,1.04,4.15-1.16,3.83,3.64-1.93,0-3.93.26-5.81-.09-1.54-.21-3.27-.83-4.74-.22-1.5,1.02-1.5-2.9-1.09-3.31.78-1.1.21-2.17.64-3.59ZM2.95,88.34h2.35c-1.09-1.6-1.75-1.92-2.35-1.24v1.24Z"/>
      <path class="cls-1" d="M118.84,16.25c-2.22.63-4.06-.61-6.02-1.06-.64-.15-1.15-.85-1.61-1.22-.44-2.28.81-4.06,1.33-6,.31-1.15.53-2.4,1.53-3.29.66-.59,1.17-1.01,2.14-.49,1.13.6,2.44.88,3.61,1.43,2.29,1.07,2.21,1.22,1.56,3.66-.63,2.35-1.39,4.64-2.52,6.98ZM116.46,13.62c.99-2.49,4.17-6.82-.8-6.27.07,2.03-1.57,3.54-1.07,5.45.62.27,1.17.51,1.87.82Z"/>
      <path class="cls-1" d="M101.43,1.08c1.68.2,3.57.35,5.42.66,3.35.15.22,9.39.12,11.8-.84-.24-1.66-.48-2.58-.75v-3.65h-1.47c-.27.97-.56,2.05-.88,3.2h-2.58c-.76-1.87.9-3.63.4-5.52.99-1.68.23-3.73,1.56-5.74ZM103.14,5.89c.12.1.23.2.35.3.67-.44,1.34-.88,2.08-1.37-.51-.43-.84-.72-1.34-1.14-.43.88-.76,1.54-1.09,2.21Z"/>
      <path class="cls-1" d="M19.95,33.87c1.25-.11,2.05.11,2.93.91,1.92,1.75,4.09,3.23,6.04,4.74-.26,1.75-1.65,2.48-2.19,3.63-.64,1.36-1.9,1.97-2.72,3.29-2.74-1.68-5.26-3.39-7.55-5.61-2.06-2.4,2.48-5.04,3.49-6.95ZM25.57,40.79c-1.63-1.31-3.1-2.49-4.15-3.33-.89.48-1.61.87-2.55,1.38,1.77,1.47,3.25,2.7,4.73,3.93.64-.64,1.23-1.23,1.97-1.97Z"/>
      <path class="cls-1" d="M72.17,9.83c1.74,2.11,1.85-.05,3-1.1.51-.39,1.28-.44,2.16-.71,0,.52-.11,1.16.03,1.75.13.54.87.82.24,1.63-1.17,2.1-4.07,1.55-6.11,2.13-1.7.19-1.6-2.11-2.04-3.25-.48-2.4-1.06-4.62-1.23-7.21,2.31-.79,5.72-2.39,7.79-.64.38,1.17.73,2.41.67,3.61-.03.64-.9,1.76-1.41,1.77-1.55.02-1.95,1.41-3.1,2.02ZM71.76,7c.87-1.02,1.72-1.16,1.58-2.35h-1.58v2.35Z"/>
      <path class="cls-1" d="M146.07,31.58c0,.78.62.61,1.01.54,1.56-.26,2.36.6,3.08,1.81-1.14.74-2.15,1.41-3.17,2.07-1.94-.76-3.13-2.44-4.5-3.86-.41-.43-.32-1.33-.44-1.89,2.08-2.08,3.99-4.02,5.94-5.93,1.93-2.22,4.3,2.49,5.9,3.52.7,2.29-1.5,2.93-2.38,4.27-1.82.32-3.07-.81-4.47-1.54-.44-.23-.9-.28-.96.44l-.47.19c.16.13.31.25.47.38ZM150.48,28.66c.08-.16.16-.33.24-.49-.47-.43-.93-.85-1.46-1.34-.36.74-.61,1.24-.89,1.83h2.11Z"/>
      <path class="cls-1" d="M66.76,15.08c-1.18-.1-1.95,1.12-2.92.45-.96-.67-.61-1.98-1.16-2.89-.13-.21-.12-.5-.18-.8-.9.27-1.73.52-2.58.78.17.75.28,1.52.51,2.25.58,1.88.6,1.87-.98,2.75-.3.17-.58.37-.93.59-1.48-3.77-2.8-7.43-3.86-11.2.79-.2,1.38-.34,2.33-.58,1.38.58,1.13,2.5,2.01,3.73.73-.23,1.47-.46,2.33-.73.14-.81-.81-1.77-.89-2.65-.65-1.9,1.07-1.95,2.46-2.68,1.25,3.57,2.54,7.23,3.85,10.97Z"/>
      <path class="cls-1" d="M14.97,58.84c.38-.73.62-1.19.88-1.7q-1.24-1.39-.15-3.73c2.26,1.54,3.47,1.26,2.54,4.44-.36,1.9-1.49,2.99-2.69,4.2-2.68-1.12-5.33-2.19-7.94-3.34-.81-.35-.59-.98-1.07-1.34-.67-.52.14-.9.34-1.35,1.01-2.35,1.6-6.08,4.97-4.21,1.03.4,1.86.97,2.21,1.91,1.08,2.14-2.03,3.63.91,5.11ZM11.35,57.18c.13-1.21.17-2.01-.87-2.42q-.97,1.18.87,2.42Z"/>
      <path class="cls-1" d="M72.62,176.31c-2.14.57-3.81-.93-5.75-1.15-.32-.04-.77-.85-.76-1.3.01-.96-.23-1.89.44-2.91.58-.89.58-2.22.62-3.37.05-1.62.98-2.64,2-3.56,2.48,1.08,7.6.49,6.19,4.51-.97,2.55-.31,6.06-2.73,7.78ZM68.9,173c.49,0,1.15-.19,1.34.03.74.85,1.3.11,1.38-.3.18-1.72.86-3.65.43-5.32h-1.84c-.41,1.76-.82,3.46-1.32,5.58Z"/>
      <path class="cls-1" d="M150.86,152.82c-.4-1.11-1.98-.94-2.12-2.23-1.22-.19-1.73-1.28-2.53-1.99-.84-.74-1.6-1.57-2.49-2.46.54-2.9,2.77-4.39,5.22-5.99,2.05,1.84,4.15,3.64,6.14,5.54,1.51,1.44,1.58,2.16.27,3.63-1.2,1.34-2.37,2.79-4.48,3.51ZM146.83,145.45c1.73,1.29,2.76,3,4.52,4.04.6-.71,1.12-1.31,1.68-1.98-1.6-1.32-3.05-2.52-4.19-3.47-.57.4-1.17.82-2.01,1.42Z"/>
      <path class="cls-1" d="M11.96,68.3h-1.81c-.94,1.32-1.86,2.62-2.79,3.92-1.58-.47-2.98-.89-4.33-1.29-.37-2.61.28-4.9,1.24-7.19h3.56c.57,1.28-.1,2.27-.69,3.43-.38-.19-.75-.39-1.22-.63v2.34c2.15-.57,2.14-2.69,3.4-3.99,1.9-.4,4.88.12,5.42,2.43-.35,1.89-.4,3.89-1.91,5.39-1.7,1.77-1.94-.96-3.72.43.21-1,.4-2,.64-2.99.03-.11.32-.27.44-.24,1.37.38,1.2-.93,1.77-1.61Z"/>
      <path class="cls-1" d="M166.07,59.63c.28.85.52,1.58.79,2.41-.39.71-.84,1.53-1.46,2.66.89.07,1.4.1,2.08.15.02-2.49-.6-6.25,2.81-6.24.66-.23,1.36-1,1.97-.48,2.29,1.62,2.36,4.46,2.65,6.96-1.09.53-2.02.98-2.96,1.44q-1.37-2.04.19-4.21c-.48-.19-1-.4-1.74-.69.32-.12.05-.1.02,0-.26.84-.98,1.58-.18,2.62.35.46.06,1.41.06,2.16-1.72.94-5.17,3.39-6.21.53-.33-1.35-.53-2.8-1.18-3.99-.98-2.2,1.81-2.51,3.15-3.31Z"/>
      <path class="cls-1" d="M116.86,173.89c-2.39.61-4.57,1.86-7.29,1.23-1.45-4.36-2.31-4.42,2.14-7.08-.04-.56.22-1.37-.43-2.01-.44.45-1.2.88-1.19,1.28.03,1.06-.33,1.28-1.3,1.23-.43-.02-.88.39-1.27.57-.53-.53.84-1-.21-1.34-.91-3.3,1.49-3.51,4.01-4.24,4.29-1.33,4.17,7.6,5.54,10.37ZM111.35,172.61c1.12-.19,1.6-.28,2.21-.38-.4-.82-.7-1.43-1.13-2.32-.35.88-.62,1.56-1.08,2.7Z"/>
      <path class="cls-1" d="M127.28,17.05c-2.98-3.54-2.34-4.32-.58-7.49,1.1-1.76,4.43,1.26,5.86,1.74,1.96,1.09.58,3.21-.38,4.52-2.04-.35-1.48-2.66-3.01-3.53-.38.31-.78.64-1.22,1.01.22.67.73,1.5,1.33,1.72,1.45.25,1.49,1.61,2.26,2.39-1.53,2.46-2.32,5.53-5.56,3.35-1.27-.77-2.86-1.53-3.47-2.96.13-.87.96-2.08,1.18-3.01.88.39,1.74.76,3.59,2.25.68.22.56-.36.27-.84-.14-.24-.8-.46-.89-.37-.47.5-1.05,1.48-.25,1.96.45.19.97.21.87-.74Z"/>
      <path class="cls-1" d="M140.32,162.38c-1.13-.82-1.69-1.91-1.56-3.24.13-1.33-.37-2.68.47-4.03.42-.67.07-1.81.07-2.78-1.45,1.01-1.57,1.01-1.65,2.29-.08,1.16-1.04,1.4-1.65,2.29-1.03-1.46-2.87-3.13-1.05-4.6,1.77-1.49,3.65-2.85,5.64-4.38,1.83,3.21.52,6.49,1.08,9.76.51-.25,1.05-.51,1.75-.85-.28-.44-.51-.81-.85-1.34.49-.55,1.02-1.14,1.53-1.7,1.57.33,1.77,1.77,2.52,2.7-.19,1.74-1.89,2.19-2.87,3.23-.91.97-2.12,1.65-3.44,2.63Z"/>
      <path class="cls-1" d="M128.66,169.42c-.78.2-1.36.35-2.27.59-.81-1.02-1.45-3.18-3.37-2.58.6,1.2,1.31,2.22,1.07,3.62-.61.3-1.23.61-2.03,1-1.83-3.27-2.99-6.75-4.69-10.23,1.24-.53,2.6-1.17,3.83-1.78.89-.44,1.84-1,2.77-.35,1.08.76,1.91,2.05,1.81,3.45-.07.76.14,1.13.9,1.62,1.12,1.06,1.36,3.07,1.98,4.66ZM123.13,162.58c-.2-.16-.4-.31-.6-.47-.46.43-.93.85-1.51,1.39.54.39.9.64,1.38.98.21-.55.48-1.23.74-1.91Z"/>
      <path class="cls-1" d="M164.1,122.3h-1.43c-.86,1.2.17,1.79.84,2.5-.47.7-.95,1.41-1.61,2.39-.79-1.25-2.26-1.34-2.64-2.69-.07-.25-.3-.57-.21-.74.74-1.38,1.48-2.78,2.35-4.09.56-.85,1.25-.94,2.32-.38,2.69,1.39,5.52,2.51,8.4,3.78-1.12,1.97-1.6,4.26-3.11,5.83-1.37.86-4.82-.89-4.9-2.5-.07-1.3-.01-2.6-.01-4.11ZM166.41,123.77c-.16,1.57.89,1.78,1.37,2.54.3-.64.52-1.1.74-1.55-.6-.28-1.22-.57-2.1-.98Z"/>
      <path class="cls-1" d="M38.07,147.73c.77.52,1.42.97,2.14,1.46-1.2,2.72-3.59,4.62-5.09,7.13.62.43,1.26.87,1.94,1.34,1.73-2.13,3.53-4.35,5.37-6.61.81.52,1.5.96,2.34,1.5-2.04,2.68-4.22,5.39-6.39,7.93q-2.51.09-6.11-3.51c-.2-1.61.42-2.84,1.59-3.94,1.54-1.63,2.75-3.54,4.21-5.29Z"/>
      <path class="cls-1" d="M62.98,166.69c-.82-.41-1.67-.84-2.66-1.34.2-.38.4-.75.6-1.13-.4-.21-.87-.45-1.37-.7-.19.36-.42.8-.69,1.31,4.56,3.56,3.82,3.39,1,8.16-1.97-.74-3.73-1.41-5.32-2.01-.65-1.65-.26-2.89.52-4.24.78.45,2.92.62,2.15,2.01-.31.55.92.89,1.98.14-.31-.72-.5-1.45-1.47-1.74-.48-.15-.78-.79-1.21-1.14-.9-.72-.77-1.65-.39-2.48.47-1.03.96-2.25,1.81-2.85,1.01-.7,2.17.5,3.35.57,2.82,1.06,3.12,2.98,1.68,5.44Z"/>
      <path class="cls-1" d="M159.39,41.34q-.98-2.14-.35-3.86c-.26-.25-.54-.51-.92-.87-1.93.4-2.99,2.32-5.06,3.17.59.56,1.05,1.34,1.41,1.3,1.62-.19,2.33.68,2.7,2.05-1.13.71-2.21,1.96-4.06,1.26-6.21-7.76-1.66-5.68,3.26-11.04h2.52c2.36,3.1,5.78,5.35.5,7.98Z"/>
      <path class="cls-1" d="M159.14,54.42c-.4-.75-.94-1.73-1.48-2.73,6.25-2.91,6.9-3.32,7.53-4.65q-1.5.4-2.87-2.05c.73-1.07,1.85-1.45,3.06-1.61,2.7,1.87,3.15,5.11,4.8,7.6.35.53.26,1.49.08,2.18-.35,1.35-2.01.65-2.89,1.64-.56-.74-2.09-2.97-.21-2.96.64-.65.09-.82-.52-1.09-2.54.9-4.97,2.52-7.49,3.68Z"/>
      <path class="cls-1" d="M48.77,23.16c-.54-2.5-3.15-7.15-4.38-7.92q-.46,2.3-2.86,3.47c-.4-1.88-1.77-3.98.43-4.96,1.94-1.16,3.97-2.18,6-3.19,1.11-.55,2.77-.65,2.94.99.07.44.69.79,1.14,1.27-.82.49-1.57.94-2.59,1.54-.2-.59-.4-1.16-.59-1.72l-.63.27c-.1.37-.2.73-.4,1.49,1.09,1.83,2.55,4.28,4.03,6.75-.94.62-1.94,1.27-3.09,2.02Z"/>
      <path class="cls-1" d="M87.4,12.09c.29-4.23.55-7.99.82-12.01,1.92.09,7.31-.89,7.7,2.02-.03,1.12,0,2.23,0,3.23-1.32,1.66-3.4,1.18-5.07,2.27-.11,1.65.74,5.12-2.34,3.88-.56-.1-.46.1-1.11.6ZM93.45,2.93h-2.61c.14.76-.16,1.62.28,2.14,0,0,1.99-1.83,2.33-2.14Z"/>
      <path class="cls-1" d="M52.22,161.73q-1.82-.28-2.11-2.78c-2.74-.39-2.17,2.65-3.64,3.61-.56.36-.08,1.36.8,2,.22-.42.46-.88.73-1.42,1.16.59,1.99,1.01,2.85,1.44-.68,1-1.26,1.86-1.81,2.66-2.44.77-3.83-1.2-5.61-2.02-.9-.41-.53-1.47-.31-2.23.22-.74.47-1.59,1-2.09,1.86-1.58,2.24-6.66,5.48-5.18,1.24.67,2.4,1.49,3.5,2.37,1.49,1.02-.31,2.5-.89,3.62Z"/>
      <path class="cls-1" d="M141.91,23.93c-1.84-.53-3.44-.99-4.82-1.38-.94,1.06-1.77,1.99-2.61,2.94-1.05-.51-1.98-.96-2.93-1.42.1-1.02,1.5-.77,1.79-1.9,1.37-2.47,3.95-4.66,5.11-7.35,1.65,1.21,3.62,2.29,5.09,3.81,1.08,1.05,1.13,1.08.4,2.39-.53.94-1.22,1.78-2.02,2.92ZM140.44,20.31c.16-.06.31-.12.47-.19-.58-.4-.87-.96-1.32-1.54-.3.59-.53,1.04-.79,1.53.65.48.87,1.14,1.64.19Z"/>
      <path class="cls-1" d="M30.56,28.19c.28,0,.65.11.83-.02.45-.34.79-.96.92.23.03.28.76.49,1.41.88-.77.88-3.65,2.44-2.3,3.32.82.14.69.65.96,1.05.3.44.74.77,1.02,1.05-.85.81-1.58,1.51-2.21,2.11-1.83-2.79-5.06-5.14-7.36-7.73,1.35-2.15,3.5-3.39,5.44-5.38.86.12,2.05-.41,2.98.81,1.39,1.6-.2,2.73-1.7,3.12-.24-.36-.49-.73-.8-1.2-.77.82-1.48,1.57-2.26,2.39.71.42,1.21.71,1.77,1.04.42-.55.86-1.11,1.3-1.68Z"/>
      <path class="cls-1" d="M33.62,149.09c-.57-.57-1.22-1.22-1.9-1.9.15-.53.32-1.13.6-2.11-3.1,1.81-4.24,3.89-6.76,6.15-.59-.78-1.1-1.46-1.64-2.17,2.01-2.01,4.08-4.08,6.15-6.15-.07-.12-.14-.24-.21-.36-.53.19-1.05.38-1.6.58-.61-.74-1.24-1.51-1.76-2.14.78-.47,2.43-2.79,3.64-1.39,1.65,1.66,3.32,3.29,4.95,4.97,1.59,1.53-.44,3.22-1.47,4.52Z"/>
      <path class="cls-1" d="M44.7,95.18c-2.04,1.61-3.94,3.11-5.83,4.6-2.02-1.53-3.95-2.99-6.1-4.61-1.61,1.32-3.35,2.75-5.11,4.19v2.03h-1.52v-2.1c-1.87-1.78-3.08-2.81-5.16-4.1-1.41,1.1-2.86,2.23-4.54,3.55.32-2.11,1.93-2.64,3.25-3.62,1.12-1.03,1.09-1.18-.29-2.31-.99-1.2-3.68-1.98-3.26-3.77,1.61,1.14,3.21,2.29,4.88,3.47.46-.51.97-.53,1.61-.42-.08,1.22-1.89,1.7-.68,2.67,1.61,1.45,3.25,2.5,5.1,3.75,6.18-4.58,5.73-5.39,11.69.12,1.13-.94,2.11-2.2,3.4-2.71,1.72-.68,2.12-1.8,2.11-3.51.82,2.31,2.5,3.57,4.47,4.56.23.12.31.54.46.82-.32.06-.76.27-.94.14-1.17-.84-2.29-1.76-3.52-2.73Z"/>
      <path class="cls-1" d="M30.59,80.29c.29-.29.49-.49.89-.89.24.46.48.93.66,1.26,2.35-.24,3.02-1.89,4.77-2.88,1.88-1.02.63-2.21-.33-3.55,1.2-.96,1.47.31,2.18.7.93-.68,1.91-1.4,2.89-2.12.65.74-.19,1.07-.58,1.48-2.1,2.23-2.1,2.2.54,4.13,1.01.73,1.95,1.55,2.99,2.39,1.51-1.07,2.9-2.01,4.24-3.02.79-.6.79-.74.88-2.44-1.2-.74-2.4-1.47-2.93-3.06.83-.08.96.6,1.37.84.91.51,1.61,1.11,2.44,1.79,1.06-.87,2.14-1.8,3.29-2.65.16-.12.6.13.91.21-.08.25-.11.7-.23.72-1.33.25-1.86,1.46-2.73,2.24-.76.67-.55,1.44.13,2.12-1.55.29-3.2.74-4.22,2-.76.96-2.04,1.36-2.62,2.51-.07.14-.87.11-.89.04-.31-1.17-1.6-1.27-2.24-2.11-.94-.81-3-3.12-4.23-1.8-1.1,1.23-2.71,1.82-3.97,2.94-.6.32-.29.79-.42,1.17-.07.21-.28.49-.46.51-.2.03-.64-.26-.62-.31.43-1.48-1.22-1.32-1.69-2.22Z"/>
      <path class="cls-1" d="M1.39,74.8c1.92,2.18,4.41.7,6.75,1.79,1.09.45,2.5-.34,3.64.53.04.03.34-.28.75-.62.27,4.6-.41,4.22-4.22,2.98-1.11-.27-2.25.26-3.46-.48-.81-.5-2.18-.1-3.48-.1-.18-1.31-.16-2.63,0-4.1Z"/>
      <path class="cls-1" d="M135.97,164.96c-.75.45-1.5.9-2.43,1.45-2.67-2.77-3.65-6.58-5.97-9.48.66-.44,1.38-.92,2.24-1.49,1.77,1.04,1.87,3.25,3.02,4.76,1.1,1.45,1.91,3.19,3.14,4.75Z"/>
      <path class="cls-1" d="M90.23,84.02c-.03.32.01.88-.09.91-1.26.34-1.89,1.43-2.72,2.24-.81.79-.77,1.86.21,2.24,1.21.46,1.71,1.52,2.5,2.49-1.07-.29-1.93-.98-2.82-1.6-1.25-.87-1.25-.89-2.52.03-1.51,1.09-3,2.21-4.68,3.45-1.9-1.47-3.77-2.92-5.64-4.36.07-.13.14-.27.22-.4,1.87.54,3.35,1.75,4.76,3.05.53.48.83.44,1.39,0,1.65-1.29,3.72-2.01,4.72-4.14.85-1.8,2.76-2.66,4.05-4.09.2.06.4.13.61.19Z"/>
      <path class="cls-1" d="M131.37,86.32c-1.35-1.03-2.54-1.93-3.86-2.95-6.18,4.82-5.93,5.79-11.76-.51,2.23.65,3.89,2.63,5.83,3.85,1.16-.88,2.32-1.89,3.6-2.7.98-.62,1.85-1.16,1.76-2.49.23-.42.98-.43,1.07.18-.14,2.28,3.72,2.29,3.36,4.62Z"/>
      <path class="cls-1" d="M94.85,91.25c.03-.31,0-.88.11-.9,1.53-.33,1.9-1.7,2.58-2.79-.93-.69-1.86-1.39-2.91-2.17,1.82-.88,2.33.78,3.24,1.34.98-.58,1.92-1.14,2.87-1.7.09.11.19.23.28.34-3.9,3.7-2.2,2.45.46,5.8-3.46-.35-2.82-3.39-6.02.28-.2-.07-.4-.13-.6-.2Z"/>
      <path class="cls-1" d="M64.8,89.96c1.36.99,2.36,1.72,3.37,2.46,2.34-.27,3.1-3.23,5.7-3.41-1.1,2.62-4.97,2.94-5.21,6.21h-1.32c.04-.98,1.27-1.78-.43-2.37-.83-.28-1.82-1.21-2.11-2.89Z"/>
      <path class="cls-1" d="M59.4,91.57c-.81.65-1.55,1.24-2.32,1.85-.72,1.89,1.82,1.49,2.12,2.77-1.23.71-1.78-.41-2.67-1.09-.97.93-1.97,1.73-3.19,2.34-1.14-1.24,1.87-2.01,2.35-2.89.36-.47.82-1.39-.5-1.59-.16-.02-.25-.55-.37-.84.75-.17,1.1-.17,1.7.47.82-.57,1.43-1.84,2.88-1.01Z"/>
      <path class="cls-1" d="M106.43,84.4c1.08.73,2.16,1.46,3.42,2.31,1.58-1.2,3.29-2.5,5.45-4.14-.45,1.49-.74,1.81-1.85,2.53-2.27,1.16-2.29,2.93-4.41,4.39.07-2.52-1.98-3.22-2.61-5.09Z"/>
      <path class="cls-1" d="M103.63,93.01c1.33-1.13,2.65-2.29,4.02-3.38.22-.17.7-.02,1.51-.02-1.71,1.75-3.41,2.83-5.14,3.88l-.39-.48Z"/>
      <path class="cls-1" d="M147.05,97.15c1.26-.89,1.98-1.33,2.62-1.86,1.14-.95,1.13-1.01.28-3.05,1.8.56,1.08,1.37,1.19,2.72q-2.35,2.35-4.09,2.19Z"/>
      <path class="cls-1" d="M56.42,69.67c-4.19-2.69-4.31-2.79-4.18-3.71,2.67,1.36,3.52,2.11,4.18,3.71Z"/>
      <path class="cls-1" d="M145.28,100.02c1.5,1.16,2.87,2.22,4.24,3.29-1.92-.1-3.16-1.38-4.57-2.34-.05-.04.15-.44.32-.94Z"/>
      <path class="cls-1" d="M64.21,113.15c1.11.79,2.05,1.44,2.96,2.13.09.07.07.38-.01.53-.22.43-.9.24-1.12-.04-.41-.96-3.04-1.45-1.84-2.63Z"/>
      <path class="cls-1" d="M153.35,102.93c.81-.76,1.31-1.88,2.68-1.39q-1.17,1.48-2.68,1.39Z"/>
      <path class="cls-1" d="M35.61,114.9c.14-1.73,1.59-1.69,2.84-2.53-.58,1.62-1.56,2.12-2.84,2.53Z"/>
      <path class="cls-1" d="M20.82,69.77c-.37-.92-2.25-.49-1.98-2.31,1.2.51,2.03,1.02,1.98,2.31Z"/>
      <path class="cls-1" d="M99.39,65.69c-.79.24-1.48.45-2.2.66-.76-1.19.64-.87,1-1.23.7-.69.64.49,1.19.56Z"/>
      <path class="cls-1" d="M107.21,96.67c-.26.23-.53.47-1.16,1.03-.86-1.5-.26-2.78,1.16-1.03Z"/>
      <path class="cls-1" d="M36.7,110.24c.33-.33.59-.59.78-.78.42.52.85,1.04,1.3,1.6-.66-.26-1.35-.54-2.08-.83Z"/>
      <path class="cls-1" d="M17.77,85.54c-.39.42-.75.86-1.18,1.22-.55.1-.93-.54-.48-.98.4-.26.87-.39,1.31-.58.12.11.24.22.35.33Z"/>
      <path class="cls-1" d="M150.42,106.13c.28-1.32.62-1.93,2.03-1.83-.88.97-.94,1.02-2.03,1.83Z"/>
      <path class="cls-1" d="M17.6,73.69c-.04-.92.43-1.48,1.34-1.55-.44.51-.92,1.07-1.34,1.55Z"/>
      <path class="cls-1" d="M146.11,113.6c.33-.37.56-.64.98-1.13.05.74.09,1.23.16,2.25-.57-.57-.83-.82-1.14-1.12Z"/>
      <path class="cls-1" d="M81.15,69.63c-.36-.7-.68-1.18.09-1.4.64.54.76.68-.09,1.4Z"/>
      <path class="cls-1" d="M65.1,125.48c.46.62.78,1.05,1.25,1.69q-1.18-.43-1.25-1.69Z"/>
      <path class="cls-1" d="M115.94,58.78c-.48.65-.8,1.09-1.25,1.71q.05-1.23,1.25-1.71Z"/>
      <path class="cls-1" d="M69.26,106.46c.28.48.55.96.83,1.45-.12.1-.23.2-.35.3-.5-.36-.76-.86-.93-1.44.15-.1.3-.21.45-.31Z"/>
      <path class="cls-1" d="M18.2,102.32c-1.03.56-1.17.09-1.16-1.12.54.52.82.8,1.16,1.12Z"/>
      <path class="cls-1" d="M98.72,112.03c-.47.04-.87.31-1.02-.26.49-.11.78-.4,1.02.26Z"/>
      <path class="cls-1" d="M17.16,78.08c-.18.43-.24.59-.31.74-.31-.31-.47-.56-.18-.95.2.09.4.17.49.21Z"/>
      <path class="cls-1" d="M162.74,37.26c.31.19.06.31-.08.52-.08-.08-.17-.17-.25-.25.11-.09.22-.18.33-.27Z"/>
      <path class="cls-1" d="M89.72,82.54c-.11.09-.22.17-.33.26-.21-.42,0-.4.33-.51,0,.08,0,.17,0,.25Z"/>
      <path class="cls-1" d="M151.66,88.81c-.19.31-.31.06-.52-.08.08-.08.17-.17.25-.25.09.11.18.22.27.33Z"/>
      <path class="cls-1" d="M146.07,31.01c.16.13.31.25.47.38-.16.06-.31.12-.47.19v-.56Z"/>
      <path class="cls-1" d="M97.9,74.4c.11.22.29.4,0,.56-.11-.22-.3-.4,0-.56Z"/>
      <path class="cls-1" d="M30.56,27.63v.56c-.16-.06-.31-.12-.47-.19.16-.13.31-.25.47-.38Z"/>
      <path class="cls-1" d="M24.11,28.19c-.09-.11-.17-.22-.26-.33.42-.21.4,0,.51.33-.08,0-.17,0-.25,0Z"/>
      <path class="cls-1" d="M143.21,74.16c-.19.31-.31.06-.52-.08.08-.08.17-.17.25-.25.09.11.18.22.27.33Z"/>
      <path class="cls-1" d="M17.6,74.09c-.11.09-.22.17-.33.26-.21-.42,0-.4.33-.51,0,.08,0,.17,0,.25Z"/>
      <path class="cls-1" d="M47.18,20.87c.11.22.29.4,0,.56-.11-.22-.3-.4,0-.56Z"/>
      <path class="cls-1" d="M37.28,79.8c-.19.31-.31.06-.52-.08.08-.08.17-.17.25-.25.09.11.18.22.27.33Z"/>
      <path class="cls-1" d="M144.14,18.1c.31.19.06.31-.08.52-.08-.08-.17-.17-.25-.25.11-.09.22-.18.33-.27Z"/>
      <path class="cls-1" d="M68.83,104.02c-.19.31-.31.06-.52-.08.08-.08.17-.17.25-.25.09.11.18.22.27.33Z"/>
      <path class="cls-1" d="M11.69,73.83c.11.22.29.4,0,.56-.11-.22-.3-.4,0-.56Z"/>
      <path class="cls-1" d="M104.94,107.36c-.22.11-.4.29-.56,0,.22-.11.4-.29.56,0Z"/>
      <path class="cls-1" d="M155.41,144.87c.31.19.06.31-.08.52-.08-.08-.17-.17-.25-.25.11-.09.22-.18.33-.27Z"/>
      <path class="cls-1" d="M95.69,73.32c.31.19.06.31-.08.52-.08-.08-.17-.17-.25-.25.11-.09.22-.18.33-.27Z"/>
      <path class="cls-1" d="M144.9,113.6c-.19.31-.31.06-.52-.08.08-.08.17-.17.25-.25.09.11.18.22.27.33Z"/>
      <path class="cls-1" d="M103.61,119.39c-.12-.07-.24-.13-.36-.2.17-.3.34-.11.56,0-.06.06-.13.13-.2.2Z"/>
      <path class="cls-1" d="M133.11,70.17c-.22.11-.4.29-.56,0,.22-.11.4-.3.56,0Z"/>
      <path class="cls-1" d="M32.57,153.84c-.09-.11-.17-.22-.26-.33.42-.21.4,0,.51.33-.08,0-.17,0-.25,0Z"/>
      <path class="cls-1" d="M10.76,68.96c-.07.12-.13.24-.2.36-.3-.17-.11-.34,0-.56.06.06.13.13.2.2Z"/>
      <path class="cls-1" d="M163.26,122.85c.11.22.29.4,0,.56-.11-.22-.3-.4,0-.56Z"/>
      <path class="cls-1" d="M73.9,9.36c-.19.31-.31.06-.52-.08.08-.08.17-.17.25-.25.09.11.18.22.27.33Z"/>
      <path class="cls-1" d="M43.83,160.61c-.09-.11-.17-.22-.26-.33.42-.21.4,0,.51.33-.08,0-.17,0-.25,0Z"/>
      <path class="cls-1" d="M166.64,63.69c.11.22.29.4,0,.56-.11-.22-.3-.4,0-.56Z"/>
      <path class="cls-1" d="M72.82,160.86c-.11.09-.22.17-.33.26-.21-.42,0-.4.33-.51,0,.08,0,.17,0,.25Z"/>
      <path class="cls-1" d="M40.34,60.79c-.08-.08-.14-.14-.2-.2.22-.11.4-.29.56,0-.12.07-.24.14-.36.2Z"/>
      <path class="cls-1" d="M14.7,57.29c-.08.08-.14.14-.2.2-.11-.22-.29-.4,0-.56.07.12.14.24.2.36Z"/>
      <path class="cls-1" d="M34.02,130.94c.08-.08.14-.14.2-.2.11.22.29.4,0,.56-.07-.12-.14-.24-.2-.36Z"/>
      <path class="cls-1" d="M135.69,163.47c.31.19.06.31-.08.52-.08-.08-.17-.17-.25-.25.11-.09.22-.18.33-.27Z"/>
      <path class="cls-1" d="M116.72,54.44c-.19.31-.31.06-.52-.08.08-.08.17-.17.25-.25.09.11.18.22.27.33Z"/>
      <path class="cls-1" d="M107.19,86.48c-.11.09-.22.17-.33.26-.21-.42,0-.4.33-.51,0,.08,0,.17,0,.25Z"/>
      <path class="cls-1" d="M167.56,44.17c.08-.08.14-.14.2-.2.11.22.29.4,0,.56-.07-.12-.14-.24-.2-.36Z"/>
      <path class="cls-1" d="M170.38,128.13c.08-.08.14-.14.2-.2.11.22.29.4,0,.56-.07-.12-.14-.24-.2-.36Z"/>
      <path class="cls-1" d="M98.18,38.9h-.56c.13-.16.25-.31.38-.47.06.16.12.31.19.47Z"/>
      <path class="cls-1" d="M103.58,32.18c.31.19.06.31-.08.52-.08-.08-.17-.17-.25-.25.11-.09.22-.18.33-.27Z"/>
      <path class="cls-1" d="M3.6,87.56c.08-.08.14-.14.2-.2.11.22.29.4,0,.56-.07-.12-.14-.24-.2-.36Z"/>
      <path class="cls-1" d="M72.57,5.66c-.09-.11-.17-.22-.26-.33.42-.21.4,0,.51.33-.08,0-.17,0-.25,0Z"/>
      <path class="cls-1" d="M149.78,147.13c.31.19.06.31-.08.52l-.25-.25c.11-.09.22-.18.33-.27Z"/>
      <path class="cls-1" d="M140.44,19.74v.56c-.16-.13-.31-.25-.47-.38.16-.06.31-.12.47-.19Z"/>
    </g>
  </g>
</svg>