<?xml version="1.0" encoding="UTF-8"?>
<svg id="Capa_2" data-name="Capa 2" xmlns="http://www.w3.org/2000/svg" viewBox="0 0 204.11 178">
  <defs>
    <style>
      .cls-1 {
        fill: #000;
      }

      .cls-1, .cls-2 {
        stroke-width: 0px;
      }

      .cls-2 {
        fill: #fff;
      }
    </style>
  </defs>
  <g id="Capa_1-2" data-name="Capa 1">
    <g id="Capa_1-2" data-name="Capa 1-2">
      <g>
        <path class="cls-2" d="M73.4,83.86c1.2.16,2.07.37,2.95.37,13.64.02,27.28.03,40.92-.03,1.79,0,3.63-.36,5.38-.82,3.83-1,6.49-3.24,6.93-7.41.28-2.7.46-5.41.62-8.11.27-4.98-.49-9.44-7.23-11.21,6.33-1.62,7.32-5.69,7.25-10.39-.02-1.51.04-3.03-.1-4.54-.62-6.14-3.17-8.95-9.2-10.08-1.48-.28-3.01-.32-4.52-.32-12.88-.02-25.77-.02-38.65,0-1.42,0-2.86.19-4.57.32.66,3.23,1.2,5.85,1.81,8.85,1.69.1,3.31.28,4.94.28,8.19.03,16.37,0,24.55.03,1.79,0,4.04-.26,4.4,2.13.36,2.36.25,4.84-.01,7.22-.08.71-1.34,1.78-2.12,1.83-3.56.19-7.13.09-10.84.09-.2-2.17-.34-3.66-.48-5.15-.17-1.78-1.09-2.77-2.92-2.77-5.15,0-10.31-.11-15.45.13-.88.04-2.13,1.47-2.45,2.49-.44,1.38-.11,2.99-.17,4.5-.37,10.68.9,21.41-1.01,32.61v-.02ZM61.08,84.75c-11.83-20.57-12.09-40.47,3.39-58.24,15.88-18.23,36.09-20.53,58.37-11.27,1.49-2.79,2.88-5.38,4.26-7.94-18.79-12.35-51.94-9.76-71.24,13.55-18.96,22.89-15.58,54.1-2.08,68.86,2.3-1.56,4.65-3.15,7.31-4.96ZM130.96,11.23q-2.58,2.65.64,5.18c15.03,11.96,22.12,27.6,20.04,46.61-3.42,31.2-33.63,51.66-64.09,44.03-9.34-2.34-17.41-6.88-24.13-13.75-1.8-1.85-3.31-2.68-4.87.1,8.45,12.79,31.92,23.53,54.2,18.22,22.32-5.32,41.98-24.68,43.57-51.81,1.12-19.08-9.81-40.11-25.36-48.59h0ZM84.07,177.62v-23.81h-5.23c-4.43.01-7.46,2.15-9.1,6.39-.62,1.6-1.3,3.17-2.33,5.68-1.25-3.68-2.19-6.37-3.09-9.06-.56-1.69-1.33-3.02-3.43-2.99-3.29.04-6.6.01-9.97.01,0,7.09-.01,13.85,0,20.63,0,1.53,0,3.19,2.16,3.3,2.47.13,2.53-1.66,2.54-3.37.03-3.56,0-7.12,0-10.67,2.13,3.66,3.54,7.42,4.75,11.25.72,2.26,2.08,3.02,4.38,3.01,2.44,0,3.95-.76,4.74-3.23,1.27-4.04,2.79-8.01,4.2-11.99.25.07.48.15.73.21v14.64h9.65ZM120.48,177.62v-23.83c-2.99,0-5.71.19-8.4-.06-2.56-.24-3.93.65-4.69,3.09-.86,2.79-2.02,5.48-3.43,9.23-1.42-4.09-2.31-7.11-3.57-9.98-.44-.99-1.78-2.13-2.79-2.22-3.27-.28-6.58-.1-10.25-.1,0,7.25-.01,14.01,0,20.76,0,1.55.09,3.19,2.23,3.27,2.44.09,2.5-1.71,2.51-3.43.02-3.79,0-7.57,0-11.36,2.03,3.96,3.52,7.92,4.77,11.94.71,2.27,2.04,2.99,4.33,3.05,2.77.08,4.12-1.12,4.93-3.63,1.24-3.89,2.71-7.69,4.08-11.53.22.07.45.15.66.21v14.57h9.62ZM.02,149.23c1.72.18,3.03.41,4.34.43,4.69.04,9.38.08,14.07,0,6.62-.1,9.16-3.24,7.5-9.61-.59-2.26-.67-4.15-.01-6.45,1.52-5.31-1.02-8.51-6.6-8.68-4.23-.12-8.48-.07-12.71-.02-2.07.02-4.14.18-6.15.28-.39,4.26-.28,4.49,3.02,4.59,3.33.11,6.65.03,9.99.07,1.58.01,2.65.64,2.54,2.42-.12,1.97-1.63,1.96-2.99,1.87-.85-.06-2.21-.3-2.41-.83-1.38-3.56-4.38-2.56-6.97-2.69-2.39-.11-3.67.97-3.66,3.48C.03,138.9,0,143.73,0,149.21l.02.02ZM204.1,149.63c-1.76-3.98-3.07-6.95-4.37-9.9.62-.58,1.12-.93,1.48-1.39,2.53-3.26,2.12-6.9.82-10.35-1.15-3.06-4.18-3.09-6.95-3.1h-17.98c-.86,3.57.16,4.96,3.19,4.92,3.34-.04,6.67-.09,9.99.11.81.04,1.86.91,2.23,1.67.25.5-.52,2.17-.81,2.16-1.53-.01-3.47.1-4.5-.75-2.35-1.95-6.26-3.3-8.73-2.05-.78.39-1.65,1.53-1.67,2.35-.15,5.23-.08,10.47-.08,15.97h10.69v-9.91c3.15,1.87,3.26,4.68,4.36,6.88.83,1.65,1.49,3.38,3.76,3.39h8.59-.01ZM149.44,129.8c4.39,0,8.14-.06,11.89.01,3.83.07,4.02.28,4.1,4.2.04,2.56-.06,5.14,0,7.7.06,2.42-1.23,3.08-3.43,3.09-2.23,0-3.43-.77-3.37-3.15.06-2.56-.08-5.14,0-7.7.08-2.31-.95-3.36-3.2-3.34-1.37.01-2.72,0-4.09.04-1.83.07-2.81,1.09-2.8,2.88.03,3.46-.12,6.97.34,10.38.54,4,2.46,5.58,6.38,5.7,4.54.13,9.08.13,13.62,0,3.79-.12,5.81-1.57,6.16-5.33.44-4.76.29-9.62-.07-14.4-.22-3.07-2.51-4.84-5.59-4.93-4.99-.13-9.99-.13-14.98.03-2.39.08-4.26,1.25-4.99,4.8h.03ZM96.33,149.28h6.02c2.09-6.28,2.14-6.09,9.34-5.98,4.4.07,3.86,3.33,4.65,6.04h10.97c.17-.48.29-.66.25-.76-2.19-5.29-4.41-10.55-6.62-15.83-2.37-5.7-6.7-8.24-12.98-7.63-.27.02-.53.27-.35.17-3.75,7.98-7.33,15.6-11.3,24.01h.01ZM121.97,177.18c5.08,1.15,5.04,1.13,6.74-2.86.39-.92,1.13-2.32,1.81-2.37,2.83-.27,5.86-.63,8.51.12,1.2.34,1.68,3.19,2.51,4.88.12.25.43.41.6.59h10.06c.16-.55.27-.72.22-.83-1.99-4.89-4.01-9.78-6.01-14.67-2.31-5.64-6.51-8.4-12.6-8.28-.41,0-.83.27-.83.27-3.72,7.81-7.27,15.27-11.02,23.15h0ZM130.17,130.03v19.25h10.58v-19.45h6.57c-.09-4.45-.3-4.84-3.67-4.9-5.6-.11-11.21-.12-16.82,0-3.54.08-3.96.88-3.21,5.11h6.56-.01ZM39.03,144.64c-.68-4.87-.59-5.03,3.37-5.13,1.94-.06,3.87,0,6.19,0v-5.3c-2.61,0-4.73.09-6.82-.04-1-.07-2.62-.31-2.83-.88-1.57-4.21-5.04-2.35-7.78-2.56-1.77-.13-2.83.96-2.84,2.79-.03,5.11,0,10.21,0,16,6.71,0,13.16.25,19.57-.12,2.46-.13,2.47-2.52,1.87-4.75h-10.73ZM62.31,144.57v-19.31h-10.12v24.32c6.33,0,12.49.16,18.61-.08,2.53-.09,2.92-1.57,1.9-4.95h-10.4.01ZM85.15,125.32h-10.18v24.35c5.87,0,11.42.07,16.99-.02,3.82-.07,4.3-.85,3.59-5.2h-10.4s0-19.13,0-19.13ZM28.34,124.98c.41,4.61.41,4.74,3.44,4.78,5.87.09,11.75.02,17.88.02-.38-2.03.31-4.61-2.5-4.73-6.16-.25-12.33-.08-18.82-.08Z"/>
        <path class="cls-1" d="M73.4,83.86c1.9-11.2.64-21.93,1.01-32.61.06-1.51-.27-3.12.17-4.5.32-1.02,1.57-2.44,2.45-2.49,5.14-.25,10.3-.13,15.45-.13,1.84,0,2.77,1,2.92,2.77.13,1.49.28,2.98.48,5.15,3.71,0,7.28.11,10.84-.09.77-.04,2.04-1.12,2.12-1.83.26-2.39.37-4.86.01-7.22-.37-2.39-2.62-2.12-4.4-2.13-8.19-.03-16.37,0-24.55-.03-1.62,0-3.24-.18-4.94-.28-.62-3.01-1.15-5.62-1.81-8.85,1.71-.12,3.14-.32,4.57-.32,12.88-.02,25.77-.02,38.65,0,1.51,0,3.05.06,4.52.32,6.04,1.13,8.59,3.94,9.2,10.08.15,1.5.08,3.02.1,4.54.08,4.7-.92,8.77-7.25,10.39,6.75,1.77,7.51,6.23,7.23,11.21-.15,2.71-.32,5.42-.62,8.11-.44,4.18-3.11,6.41-6.93,7.41-1.75.46-3.57.81-5.38.82-13.64.07-27.28.04-40.92.03-.87,0-1.75-.21-2.95-.37v.02ZM95.6,61.69c0,3.84-.12,6.98.08,10.09.06.8,1.11,2.16,1.72,2.18,3.58.1,7.18-.12,10.76-.24.3-2.78.6-5.54.91-8.32.03-.29-.02-.6-.02-.91-.03-1.8-.9-2.82-2.77-2.82h-10.69.01Z"/>
        <path class="cls-1" d="M61.08,84.74c-2.68,1.81-5.02,3.4-7.31,4.96-13.49-14.76-16.88-45.97,2.08-68.86C75.15-2.46,108.3-5.06,127.09,7.29c-1.37,2.56-2.75,5.15-4.26,7.94-22.27-9.25-42.49-6.95-58.37,11.27-15.49,17.77-15.22,37.66-3.39,58.24Z"/>
        <path class="cls-1" d="M130.96,11.23c15.54,8.48,26.48,29.51,25.36,48.59-1.59,27.13-21.25,46.51-43.57,51.81-22.27,5.31-45.74-5.44-54.2-18.22,1.56-2.79,3.07-1.95,4.87-.1,6.72,6.88,14.79,11.41,24.13,13.75,30.46,7.64,60.67-12.83,64.09-44.03,2.08-19-5.01-34.65-20.04-46.61q-3.2-2.54-.64-5.18h0Z"/>
        <path class="cls-1" d="M84.07,177.62h-9.62v-14.64c-.25-.07-.48-.15-.73-.21-1.41,4-2.93,7.95-4.2,11.99-.77,2.47-2.3,3.23-4.74,3.23-2.3,0-3.66-.76-4.38-3.01-1.21-3.83-2.62-7.59-4.75-11.25,0,3.56.02,7.12,0,10.67-.01,1.71-.08,3.51-2.54,3.37-2.16-.12-2.16-1.77-2.16-3.3-.02-6.77,0-13.54,0-20.63,3.37,0,6.67.03,9.97-.01,2.09-.03,2.87,1.3,3.43,2.99.9,2.7,1.83,5.38,3.09,9.06,1.03-2.51,1.7-4.08,2.33-5.68,1.65-4.25,4.68-6.38,9.1-6.39h5.23v23.81h-.03Z"/>
        <path class="cls-1" d="M120.48,177.62h-9.6v-14.57c-.22-.07-.45-.15-.66-.21-1.37,3.84-2.83,7.66-4.08,11.53-.81,2.51-2.16,3.71-4.93,3.63-2.3-.07-3.63-.78-4.33-3.05-1.25-4.02-2.74-7.97-4.77-11.94,0,3.79.02,7.57,0,11.36-.01,1.71-.07,3.52-2.51,3.43-2.13-.08-2.22-1.72-2.23-3.27-.02-6.76,0-13.52,0-20.76,3.67,0,6.98-.18,10.25.1,1.01.09,2.35,1.23,2.79,2.22,1.27,2.86,2.15,5.89,3.57,9.98,1.41-3.75,2.56-6.44,3.43-9.23.75-2.44,2.13-3.33,4.69-3.09,2.69.25,5.41.06,8.4.06v23.83h-.02Z"/>
        <path class="cls-1" d="M.02,149.23c0-5.48.02-10.29,0-15.12-.02-2.51,1.28-3.59,3.66-3.48,2.59.12,5.59-.87,6.97,2.69.2.52,1.57.77,2.41.83,1.34.08,2.87.1,2.99-1.87.11-1.78-.96-2.41-2.54-2.42-3.33-.03-6.66.03-9.99-.07-3.29-.11-3.42-.34-3.02-4.59,2-.09,4.08-.26,6.15-.28,4.23-.04,8.48-.11,12.71.02,5.57.17,8.12,3.37,6.6,8.68-.66,2.3-.57,4.2.01,6.45,1.67,6.37-.87,9.51-7.5,9.61-4.69.07-9.38.04-14.07,0-1.31-.01-2.63-.25-4.34-.43l-.02-.02ZM10.09,144.12c.3.3.6.59.91.9,1.59-.44,3.34-.6,4.69-1.43.47-.29.35-2.91-.16-3.17-1.2-.6-3.25-1.03-4.11-.39-.94.71-.93,2.68-1.34,4.1h.01Z"/>
        <path class="cls-1" d="M204.11,149.63h-8.59c-2.27,0-2.93-1.74-3.76-3.39-1.1-2.19-1.21-5.01-4.36-6.88v9.91h-10.69c0-5.5-.08-10.74.08-15.97.02-.82.88-1.96,1.67-2.35,2.46-1.25,6.37.1,8.73,2.05,1.03.85,2.98.74,4.5.75.3,0,1.05-1.66.81-2.16-.37-.76-1.42-1.62-2.23-1.67-3.33-.2-6.66-.17-9.99-.11-3.03.04-4.05-1.34-3.19-4.92h17.98c2.79.01,5.8.04,6.95,3.1,1.3,3.45,1.71,7.09-.82,10.35-.36.46-.85.82-1.48,1.39,1.3,2.95,2.62,5.94,4.37,9.9h.01Z"/>
        <path class="cls-1" d="M149.45,129.81c.73-3.55,2.61-4.73,4.99-4.8,4.98-.17,9.99-.17,14.98-.03,3.09.09,5.36,1.86,5.59,4.93.35,4.78.5,9.64.07,14.4-.35,3.76-2.37,5.21-6.16,5.33-4.54.15-9.08.15-13.62,0-3.92-.12-5.86-1.7-6.38-5.7-.46-3.42-.3-6.92-.34-10.38-.01-1.79.97-2.8,2.8-2.88,1.35-.06,2.72-.03,4.09-.04,2.25-.02,3.29,1.03,3.2,3.34-.09,2.56.06,5.14,0,7.7-.06,2.37,1.13,3.16,3.37,3.15,2.18,0,3.48-.67,3.43-3.09-.06-2.56.04-5.14,0-7.7-.08-3.92-.27-4.13-4.1-4.2-3.75-.07-7.5-.01-11.89-.01h-.03Z"/>
        <path class="cls-1" d="M96.34,149.3c3.95-8.41,7.54-16.02,11.3-24.01-.18.1.07-.15.35-.17,6.29-.61,10.61,1.93,12.98,7.63,2.19,5.29,4.42,10.55,6.62,15.83.04.1-.09.28-.25.76h-10.97c-.78-2.71-.25-5.97-4.65-6.04-7.2-.11-7.25-.3-9.34,5.98h-6.04ZM112.64,138.53c-1.13-2.34-1.86-3.84-2.98-6.16-.95,2.35-1.53,3.8-2.31,5.7,1.81.16,3.07.27,5.29.46Z"/>
        <path class="cls-1" d="M121.98,177.19c3.75-7.87,7.3-15.34,11.02-23.15,0,0,.4-.26.83-.27,6.08-.13,10.28,2.62,12.6,8.28,2,4.89,4.02,9.78,6.01,14.67.04.11-.07.29-.22.83h-10.06c-.19-.18-.48-.35-.6-.59-.84-1.69-1.31-4.55-2.51-4.88-2.65-.75-5.68-.39-8.51-.12-.68.07-1.42,1.46-1.81,2.37-1.7,4-1.66,4.01-6.74,2.86h0ZM135.13,160.56c-1.08,2.44-1.76,4.01-2.77,6.3,2.08-.2,3.4-.34,5.31-.52-.92-2.11-1.55-3.52-2.54-5.78h0Z"/>
        <path class="cls-1" d="M130.17,130.05h-6.56c-.74-4.22-.31-5.03,3.21-5.11,5.6-.12,11.21-.11,16.82,0,3.38.07,3.58.47,3.67,4.9h-6.57v19.45h-10.58v-19.25h.01Z"/>
        <path class="cls-1" d="M39.04,144.65h10.72c.6,2.23.59,4.6-1.87,4.75-6.42.37-12.87.12-19.57.12,0-5.79-.02-10.9,0-16,0-1.83,1.09-2.92,2.84-2.79,2.74.21,6.2-1.65,7.78,2.56.21.58,1.84.83,2.83.88,2.09.13,4.21.04,6.82.04v5.3c-2.31,0-4.24-.04-6.19,0-3.95.11-4.05.26-3.37,5.13h.01Z"/>
        <path class="cls-1" d="M62.32,144.57h10.4c1.02,3.38.63,4.85-1.9,4.95-6.14.22-12.28.08-18.61.08v-24.32h10.12v19.31h-.01Z"/>
        <path class="cls-1" d="M85.16,125.33v19.13h10.4c.72,4.33.24,5.13-3.59,5.2-5.55.1-11.12.02-16.99.02v-24.35s10.18,0,10.18,0Z"/>
        <path class="cls-1" d="M28.35,124.99c6.49,0,12.67-.17,18.82.08,2.81.11,2.12,2.7,2.5,4.73-6.14,0-12.02.06-17.88-.02-3.02-.04-3.02-.17-3.44-4.78Z"/>
        <path class="cls-2" d="M95.6,61.69h10.69c1.87,0,2.73,1.02,2.77,2.82,0,.3.06.6.02.91-.29,2.78-.6,5.54-.91,8.32-3.59.11-7.18.34-10.76.24-.63-.02-1.68-1.39-1.72-2.18-.2-3.11-.08-6.25-.08-10.09h-.01Z"/>
        <path class="cls-2" d="M10.1,144.12c.4-1.42.39-3.39,1.34-4.1.85-.64,2.91-.21,4.11.39.5.26.63,2.88.16,3.17-1.35.83-3.1,1-4.69,1.43-.3-.3-.6-.59-.91-.9h-.01Z"/>
        <path class="cls-2" d="M112.64,138.52c-2.22-.19-3.47-.3-5.29-.46.77-1.9,1.35-3.35,2.31-5.7,1.12,2.32,1.85,3.82,2.98,6.16Z"/>
        <path class="cls-2" d="M135.13,160.56c1,2.26,1.61,3.67,2.54,5.78-1.9.19-3.23.31-5.31.52,1.01-2.3,1.69-3.85,2.77-6.3h0Z"/>
      </g>
    </g>
  </g>
</svg>