<?xml version="1.0" encoding="UTF-8"?>
<svg id="Capa_2" data-name="Capa 2" xmlns="http://www.w3.org/2000/svg" viewBox="0 0 544.42 177">
  <defs>
    <style>
      .cls-1 {
        fill: #000;
        stroke-width: 0px;
      }
    </style>
  </defs>
  <g id="Capa_1-2" data-name="Capa 1">
    <g>
      <path class="cls-1" d="M468.41,177c-10.55-5.64-20.15-12.06-30.41-17.36-5.42-2.8-10.93-5.69-15.67-9.46-4.73-3.75-10.58-5.16-15.33-8.93-4.5-3.57-10.21-5.63-15.41-8.36V44.27c12.58-8.02,25.84-14.82,38.58-22.54,7.47-4.53,15-9.19,22.86-13.16,5.05-2.55,9.88-5.53,15.26-8.57,3.29,3.63,8.56,5.33,13.16,7.96,8.6,4.92,17.22,9.86,25.84,14.78,7.07,4.04,14.3,7.76,21.13,12.25,5.07,3.33,10.62,5.92,16.01,8.86v88.6c-10.63,6.38-21.24,12.82-31.93,19.12-4.07,2.4-8.37,4.4-12.48,6.73-8.64,4.88-16.95,10.35-25.97,14.57-2.03.95-3.69,2.68-5.64,4.13ZM464.21,80.8h-43.55c0-1.43-.27-2.69.05-3.78.82-2.8,1.45-5.82,3.03-8.16.93-1.38,3.69-1.38,5.36-2.43,2.6-1.64,5.37-1.4,8.17-1.4,8.92,0,17.85,0,26.73,0v-13.11c-10.05,0-19.75-.05-29.45.03-3.24.02-6.66-.81-9.59,1.43-9.4.44-14.42,6.37-17.86,14.27-.27.62-.98,1.19-.96,1.77.16,5.21-1.9,10.11-1.63,15.42.45,8.71.12,17.46.12,26.2v13.53h16.18v-30.58h43.39v-13.17ZM531.34,51.92c-8.51,0-16.49-.03-24.47.01-4.93.02-9.8-.11-14.71,1.32-5.07,1.48-9.69,3.82-12.68,7.82-4.98,6.65-7.71,14.41-7.83,22.89-.05,3.39-.01,6.79,0,10.18.01,5.88,2.37,13.13,5.81,18.69,4.94,7.99,12.46,11.46,21.42,11.82,8.96.36,17.94.08,26.91.08h5.35v-13.11c-8.92,0-17.61.05-26.31-.02-5.79-.04-12.78-4.56-14.09-9.39-.9-3.32-1.28-6.82-1.55-10.26-.25-3.13-.23-6.31-.02-9.45.7-10.69,6.54-17.68,17.85-17.51,6.3.1,12.61.04,18.91,0,1.83,0,3.65-.18,5.42-.27v-12.82Z"/>
      <path class="cls-1" d="M295.67,43.75c1.31-.76,2.25-1.7,3.26-1.78.96-.07,1.97,1.13,2.98,1.15,5.09.13,10.19.16,15.29.01,2.22-.06,3.49.82,4.46,2.7,3.9,7.61,7.53,15.47,11.95,22.66,5.58,9.1,9.04,19.3,15.54,27.88,2.66,3.51,4.23,7.92,5.88,12.08.58,1.46,1.02,1.9,2.38,1.62-.26-.69-.83-1.43-.72-2.05.27-1.52,1.68-3.69,1.14-4.33-1.29-1.53-1.23-3.02-1.23-4.66,0-18.43,0-36.85,0-55.58h18.79v89.75h-23.77c-4.51-5.03-6.34-11.78-10.28-17.41-3.72-5.32-6.36-11.41-9.5-17.14-4.12-7.53-7.85-15.28-12.7-22.42-1.49-2.19-2.15-4.93-3.38-7.32-.31-.6-1.34-.84-2.77-1.66v66.06h-17.3V43.75Z"/>
      <path class="cls-1" d="M283.76,133.45h-21.15c-2.83-6.48-5.7-13.04-8.9-20.36-10.55,0-21.88.03-33.21-.03-2.01-.01-3.06,1.12-3.72,2.67-2.01,4.75-4.01,9.51-5.8,14.34-.71,1.92-1.39,3.42-3.73,3.41-6.48-.02-12.97,0-20.02,0,2.15-4.93,4.08-9.18,5.85-13.49,4.27-10.37,8.36-20.79,13.17-30.96,2.35-4.98,3.98-10.47,6.18-15.63,2.2-5.16,3.79-10.54,6.32-15.59,2.31-4.59,3.99-9.5,6.04-14.5h21.91c5.48,10.97,9.56,22.4,14.42,33.49,4.04,9.24,8.12,18.5,11.76,27.88,3.33,8.6,6.98,17.01,10.82,25.37.36.79.05,1.88.05,3.38ZM236.46,64.22c-6.09,10.75-9.12,21.93-14.11,32.49h27.2c-4.41-10.95-8.59-21.33-13.09-32.49Z"/>
      <path class="cls-1" d="M0,43.29h78.12v14.19c-9.72.72-19.79-.07-30.27.4v75.45h-18.98v-66.67c0-1.45.04-2.91,0-4.36-.13-3.51-1.08-4.5-4.72-4.53-7.97-.06-15.93-.02-24.15-.02v-14.45Z"/>
      <path class="cls-1" d="M119.47,43.54c24.76-.36,49.38-.72,74-1.02.82-.01,1.65.64,2.69,1.07v14.16h-22.15c-1.7,0-3.54-.42-5.04.13-1.27.46-2.61,1.86-3.06,3.15-.53,1.51-.12,3.35-.12,5.05v67.12h-17.48v-42.91c0-9.21.04-18.42-.02-27.63-.03-4.03-.92-4.86-5.08-4.89-6.79-.05-13.57.01-20.36-.03-1.14,0-2.38-.1-3.4-.55-.62-.27-1.46-1.66-1.28-1.92,2.54-3.71-.07-8.01,1.31-11.72Z"/>
      <path class="cls-1" d="M107.28,133.35h-18.44V43.49c2.7-.69,5.8-.21,8.84-.29,3.12-.08,6.24-.02,9.6-.02v90.17Z"/>
    </g>
  </g>
</svg>