<?xml version="1.0" encoding="UTF-8"?>
<svg id="Capa_2" data-name="Capa 2" xmlns="http://www.w3.org/2000/svg" viewBox="0 0 459.45 178">
  <defs>
    <style>
      .cls-1 {
        fill: #000;
        stroke-width: 0px;
      }
    </style>
  </defs>
  <g id="Capa_1-2" data-name="Capa 1">
    <g>
      <path class="cls-1" d="M144.45,133.98c3.54,1.34,5.43,2.91,7.57,4.69-6.95,5.12-14.67,2.83-22.55,3.57.2-1.81.37-3.4.59-5.39-1.91-.55-4.53-1.31-7.25-2.1-1.45-2.58.52-4.03,2.37-5.78-2.39-3.39-7.09-1.55-10.08-4.68,1.2-1.45,2.45-2.97,3.82-4.63h15.8c-3.08-1.59-6.38-1.41-9.52-1.11-5.28.51-9.43-1.68-13.65-4.49,1.05-4.33,6.06-3.12,8.04-5.95-.9-.72-1.81-1.44-2.71-2.16,1.92.37,3.79-.12,5.87.76,3.33,1.4,7.09.85,10.66-.28-1.31-.47-2.65-.36-3.96-.5-1.36-.15-3.34-1.26-3.91-.73-1.73,1.63-2.04-.9-3.31-.77-1.35.14-2.83-.73-4.21-1.27-1.12-.44-2.17-1.03-3.92-1.89v3.3c-1.4-.46-2.8-.92-4.55-1.49,2.81-3.58,6.13-4.28,10.84-4.15-4.31-2.4-7.7-4.3-11.58-6.46-1.27,1.27-3.02,2.93-4.67,4.69-1.55,1.66-4.25,2.18-4.83,4.8-4.48.99-5.77,6.8-11.02,7.05-1.57.07-2.87,2.8-4.58,3.84-4.26,2.61-8.89,3.71-14.43,2.34.57-1.06.87-2.1,1.54-2.78,4.69-4.79,9.1-9.93,14.28-14.13,6.71-5.44,14.18-9.86,22.21-13.23,1.46-.61,2.68-1.81,4.01-2.74,2.74.13,5.33-.13,6.95-3.34,0-.13.02.29.03.71,1.37-.18,2.73-.36,4.1-.54-.03-.31-.06-.62-.08-.93-1.35.06-2.7.13-4.05.75-2.73.43-5.32.69-6.95,3.34-2.36.46-4.95.44-7.03,1.47-10.16,5.04-20.81,9.47-28.57,18.21-3.01,3.38-5.45,7.27-9,10.5.35-.88.57-1.84,1.06-2.62,2.91-4.64,4.83-9.97,9.32-13.5,1.55-1.22,3.22-2.29,4.82-3.45,1.78-1.3,4.5-2.29,5.09-4,.81-2.36,3.09-2.23,4.06-3.78,1.46-2.34,3.96-2.61,6.22-3.47,2.21-.84,4.42-1.36,6.4-3.22,1.87-1.76,5.01-2.74,7.68-2.95,5.53-.44,10.49-3.44,16.22-3.08,1.57.1,4.41-.4,4.74-3.95-5.28.45-10.19-.59-15.45,1.07-3.61,1.14-7.62,1.73-11.45,2.6-5.48,1.24-9.64,4.89-14.2,7.6-6.24,3.71-11.59,8.87-17.59,13.03-6.48,4.49-13.07,9.09-23.23,7.12,12.09-2.48,21.45-7.32,29.61-16.25-1.75.42-2.83.39-3.53.9-2.35,1.68-4.34,4.03-6.88,5.25-4.23,2.04-8.73,3.55-13.22,4.97-1.44.45-2.95.87-4.33,1.23-1.8.47-4.07-.87-6.16-1.84,5.05-.43,9.85-1.49,14.47-3.44,3.99-1.68,8.41-2.61,10.6-6.98,2.16.22,3.63-.59,4.17-2.78.46-.46.93-.93,1.39-1.39.46-.46.93-.93,1.39-1.39,1.32.16,2.71.12,3.95.52,3.65,1.17,3.62,1.24,5.79-2.52-.91-.97-1.82-1.94-2.93-3.12,6.09-4.38,11.87-8.65,19.48-10.44,4.32-1.02,8.46-.71,15.6-1.42-7.51,1.77-20.84,3.93-27.96,10.77,1.81,1.34,3.11.57,4.81-.56,2.65-1.76,5.63-3.95,8.59-4.16,7.78-.55,15.15-4.06,23.11-3,2.07.28,4.06.09,5.06-2.17-8.51-4.6-17.55-6.87-27.28-6.18-2.3.16-4.63.11-6.93,0-4.09-.18-7.63,1.58-11.16,3.21-.94.43-1.37,1.96-2.77,4.11,2.13-.97,2.98-1.39,3.86-1.73,1-.39,2-.81,3.03-1.04,5.54-1.25,10.98-4.23,16.69-2.94,3.56.8,7.02.98,10.56,1.28,1.05.09,2,1.24.38,2.4-3.3-.17-3.65-1.02-4.03-1.04-2.75-.12-5.52-.15-8.28-.05-8.24.31-15.8,2.52-22.82,8.96-1.8-1.8-3.63-3.63-5.41-5.4.18.89,0,2.7.74,3.23,3.82,2.71,1.43,5.46.28,8.12-.51,1.17-1.57,2.11-2.38,3.15-.46.46-.93.93-1.39,1.39-.46.46-.93.93-1.39,1.39-2.16-.22-3.63.59-4.17,2.78-2.28.66-4.6,1.2-6.83,1.99-6.73,2.38-13.59,4.04-20.77,3.51-2.79-.21-5.53-1.14-8.42-2.31,1.34-.14,2.69-.33,4.03-.4,1.39-.07,2.78-.04,4.17-.01,7.42.13,14.2-2.12,20.64-5.57,4.18-2.24,7.88-5.1,10.66-8.36-1.5-1.5-3.04-3.03-4.88-4.87-.88.54-2.63,1.63-4.54,2.8.74,1.49,1.31,2.63,1.91,3.83-6.35,4.34-13.63,6.32-20.41,9.39-9.63-.63-19.88,2.32-28.14-5.56.89.3,1.82.51,2.67.9,2.41,1.1,4.72,2.14,7.57,1.96,4.39-.28,8.81.07,13.21-.11,6.45-.25,12.04-3.24,17.68-5.97.25-.12.43-.94.27-1.2-.3-.47-.82-.94-1.35-1.1-.64-.19-1.68-.34-2.03,0-2.64,2.64-6.19,1.98-9.27,2.93-7.72,2.4-15.52,1.37-23.11.89-5.79-.37-11.54-3.14-17.45-6.05,2.28-.84,4.07-.93,5.92.06,7.44,3.97,15.64,4.43,23.54,3.25,5.25-.79,11.09-.17,15.83-3.59,9.2-1.76,17.33-6.26,25.73-10.06,1.16-.52,2.18-1.33,3.56-2.19-2.13-3.15-4.08-6.03-6.03-8.91,1.05-.21,2.66.69,4.43-1.63.67-.77.17-1.21-.01-1.11-.6.34-1.1.88-1.63,1.34.91-.13,1.82-.26,1.65-.24-2.7.45-4.31-.45-4.43,1.63-1.77.13-1.52,1.2-1.11,2.37,1.35,3.8,1.09,3.5-1.95,6.05-3.58,3-7.92,4.48-11.83,6.78-2.35,1.38-5.19,2.08-7.9,2.65-8.48,1.8-17.11,1.92-25.73,1.53-1.85-.08-3.65-1.18-6.35-2.1,1.66-.29,2.56-.56,3.46-.58,3.94-.05,7.88-.14,11.81,0,8.57.32,16.21-3.02,23.93-5.98,2.99-1.14,5.73-2.92,9.07-4.66-.53-1.46-1.1-3.05-1.6-4.45-2.16.04-5.23,2.71-5.62,4.94-.27,1.53-.9,1.56-2.15,1.86-2.69.66-5.27,1.77-7.9,2.7-2.42.86-4.8,1.87-7.26,2.58-4.37,1.25-21.7,2.99-25.66,1.39-4.8-1.94-10.95-1.44-14.16-6.75.45,0,.92.06,1.36-.02.41-.07.79-.29,1.18-.44-.39-.31-.74-.73-1.19-.9-.4-.15-.9-.03-1.35-.03-1.4-1.14-2.79-2.28-4.19-3.42.11-.29.22-.57.34-.86,1.37.35,2.8.55,4.09,1.08,4.49,1.84,8.9,3.67,13.98,3.26,4.15-.33,8.36.15,12.51-.13,3.96-.27,7.95-.78,11.81-1.69,5.24-1.24,10.54-2.37,15.56-4.37,4.78-1.9,9.47-4,14.27-5.85,2.2-.85,4.54-1.37,6.85-1.92,2.34-.55,4.77-.76,7.06-1.44,8.76-2.63,17.71-1.16,26.56-1.19,3.78-.01,7.66,1.2,11.44,2.39,6.15,1.95,12.59,2.94,18.52,5.71,1.12.52,2.69.07,4.37.07-4.4-3.13-11.11-5.64-16.09-7.03-5.35-1.49-10.6-3.23-16.26-2.7-5.4-2.97-11.22-.78-16.81-1.36-8.15-.84-15.55,2.28-23.02,4.82-6.5,2.21-12.86,4.84-19.44,6.78-5.41,1.59-10.87,3.08-16.55,3.84-4.22.57-8.38,1.18-12.66,1.27-5.86.13-11.3-1.87-16.92-2.91-.98-.18-1.8-1.25-3.41-2.44,2.04-.12,3.33-.26,4.63-.26,6.03-.02,12.06.15,18.08-.05,10.37-.34,20.33-2.17,30.01-6.44,7.01-3.09,14.07-6.43,21.7-8.06.62-.13,1.17-.7,1.77-.73,6.54-.32,12.95-2.07,19.6-1.49,4.14.36,8.34.09,12.51.06,12.78-.09,24.64,3.33,35.58,9.78,5.25,3.1,9.93,7.04,13.87,11.71.36.43-.5,1.9-.88,3.13,3.42.57,5.96,2.98,8.69,6.37.42.14.2-.13-.02-.4-.21.21-.41.41-.62.62.27.21.54.45.84.62.05.03.28-.27-.2-.83,1.5-3.58,4.08-6.15,7.53-8.06,1.73-.96,2.51-3.54,4.18-4.76,1.48-1.08,3.56-1.4,5.43-1.84,2.46-.58,2.74-4.25,5.91-3.87,2.57.31,4.3-1.88,6.48-2.65,2.44-.85,5.13-.96,7.68-1.53.45-.1.74-.88,2.75-1.57.67-.77.17-1.21-.01-1.11-.6.34-1.1.88-1.63,1.34.91-.13,1.82-.26,1.65-.24-2.97.07-4.68.37-5.53-.35-1.74-1.47-3.56-.74-5.26-.71-1.67.03-3.33.81-4.98,1.3-1.44.43-3.8,1.67-4.13,1.26-1.8-2.23-3.16.04-4.55.22-3.16.42-6.18,2.83-9.48.36-.19-.14-.77-.08-.94.11-2.77,2.93-6.59.25-9.69,2.06,1.17-4.98,6.83-5.46,8.32-9.13,4.33-.78,8.21-1.48,12.07-2.17,1.23-3.48-2.76-2.02-3.38-3.96-.36,1-.65,1.81-.92,2.55-5.61-2.37-11.57-.19-18.27-1.5,2.29-1,3.84-1.62,5.34-2.33,1.94-.92,3.95-1.74,5.72-2.92.99-.66,1.29-.87,2.58-.26,1.34.63,3.35-.3,5.07-.3,3.67,0,5.68-4.51,9.69-3.46,5.34-4.55,11.38-.33,17.04-1.28,1.47-.25,3.16.81,5.36,1.45-1.47-2.26-2.58-3.96-3.3-5.07-1.74.22-3.57,1.06-4.57.48-6.16-3.62-13.26-3.8-19.9-5.87-1.26-2.59,1.6-1.83,2.44-2.78-.24-.28-.47-.79-.72-.8-2.31-.06-4.64.07-6.94-.07-2.03-.12-3.23-1.3-3.44-3.71,3.14.49,6.3,2.45,9.1-.37,1.43-1.44,2.12,2.36,3.94.42,1.05-1.13,2.88-.79,4.18.59,1.79,1.91,3.59-1.91,5.81.06,1.3,1.15,3.62,1.24,5.52,1.58.41.07,1-.83,1.5-1.29.8.8,1.62,1.62,2.53,2.53,1.21-.6,2.45-1.21,3.69-1.83-.47-.54-.89-1.02-1.3-1.5.12-.22.23-.44.35-.67,1.02.48,2.35,1.63,3.02,1.33,6.9-3.11,10.18,2.77,15.07,5.66,1.76,1.32,3.5,3.05,5.17,4.7-.65-2.71-2.24-4.59-5.17-4.7-.94-2.07-1.47-4.16-1.98-6.18,2.03-1.42,3.66-1.14,4.94.57.94,1.26,2.1,1.66,3.57,1.45,2.14,1.55,2.14,1.48,4.82,1.49.79,0,1.64.43,2.35.85,1.08.62,2.06,1.4,3.82,2.62-.08-2.7-2.25-2.94-2.26-3.08.78-1.68,1.27-2.74,1.95-4.18,2.59,2.22,4.35,4.66,7.53,3.76.42-.12,1.1.6,1.62.99.37.27,1,.76.94.95-1.2,3.44,3.51,4.53,2.98,7.86-.44,2.79.12,5.28,3.18,7.04,1.04.6,1.54,4.24.74,5.54-2.75,4.5.12,7.79,1.39,11.59.67,2.01,2.28,3.9,1.56,6.29-2.28-1.02-3.82-3.9-6.96-2.78.93-.93,1.85-1.85,3.42-2.38.42.14.2-.13-.02-.4-.21.21-.41.41-.62.62.27.21.54.45.84.62.05.03.28-.27-.2-.83q-.86-3.6-3.1-5.59c-.28.81-.56,1.61-.87,2.51-1.59-1.91-3.06-3.68-4.53-5.45-2.91,2.29-4.23-1.96-6.71-1.67-.44.05-.98-.82-1.48-1.26-2.78,3.12-5.67.55-8.39-.15-.44,1.11-.76,1.91-1.07,2.69-2.06.17-4.08.33-6.1.49.34,3.46-3.22,1.84-4.19,2.74,1.22,1.44,2.23,2.61,3.21,3.76q1.55-2.92,5.77-5.1c.33.79.54,2.19,1,2.28,5.41,1.07,10.43,2.9,14.73,6.47.25.21.87.41.94.32,2.63-3.32,4.87,1.22,7.36.35.46,1.39.93,2.78,1.39,4.17-.69,0-1.73.29-2-.05-2.04-2.55-3.56-1.08-4.78.66-.83,1.18-1.15,2.71-1.85,4.44,1.63.32,3.05.61,4.38.87.49,3.95.83,4.25,3.74,6.87.51.46.36,1.64-.29,4.18.26.74.79.46.76.26-.09-.66-.39-1.3-.6-1.95-.24.84-.48,1.68-.16,1.68,3.43.47,2.73,4.03,4.32,6.62.48-.48.97-.96,1.45-1.45,5.2-5.25,6.17-11.21,2.95-17.75-.46-.94-.65-2.01-.96-3.01,2.99.52,2.55,4.01,4.97,5.53,4.16-6.19,10.6-9.85,16.71-13.72,3.52-2.23,8.02-2.92,12.07-4.33,2.63-.91,5.22-1.97,7.89-2.74,2.52-.72,5.4,1.09,7.86-1.32.71-.69,2.68-.11,4.07-.11,9.96,0,19.94-.3,29.88.08,10.31.39,20.31,2.86,29.75,6.96,7.93,3.44,16.13,5.96,24.42,8.1,4.93,1.27,10.23,1.35,15.37,1.48,8.74.22,17.49.06,26.34.06v2.78c-4.55-.32-8.7.95-12.83,2.44-1.22.44-2.68.26-4.03.34-17.08.92-33.24-3.54-49.27-8.58-4.09-1.29-7.93-3.28-12.26-3.98-4.06-.66-7.67-3.07-12.07-2.9-1.46.06-3.06-1.31-4.98-1.28-7.41.14-14.91-.63-22.22.27-6.1.75-12.27,1.54-18.3,2.72-4.99.98-9.71,3.33-14.54,5.08-2.19.79-4.37,1.61-6.76,2.5,4.51,1.9,8.47-.43,12.38-1.33,6.96-1.59,13.67-3.96,20.78-5.28,10.08-1.87,20.12-1.35,30.04-.8,6.94.39,13.97,2.61,20.89,4.55,6.65,1.87,12.71,5.57,19.7,6.25,1.44,2.2,4.21.53,5.54,1.6,1.74,1.4,3.41.9,5.12,1.22,1.69.32,3.31.99,5,1.33,1.71.34,3.51-.49,5.16,1.12.74.71,2.62.29,3.99.29,4.87.02,9.74-.16,14.59.05,6.55.28,12.63-1.38,18.63-3.72,1.12-.44,2.45-.36,4.25-.6-1.88,2.48-4.95,1.8-5.9,4.28-1.05.21-2.66-.69-2.78,1.39-1.37.53-3.52-1.29-4.17,1.39-3.1.05-6.14.79-9.13,1.11-4.76.51-9.68.84-14.68-.86-3.72-1.26-8.21-.25-12.18-.33-1.33-2.3-3.46-.91-5.16-1.16-.05,0-.19.57-.35,1.07,1.87,0,3.6,0,5.52.08-.18.31-.22.74-.17.75,3.38.73,6.74,1.83,10.16,2.03,5.72.33,11.48.09,17.23.09.74,0,8.03-2.34,8.78-2.78,1.37-.53,3.52,1.29,4.17-1.39,1.05-.21,2.66.69,2.78-1.39h3.31c-3.79,4.55-8.81,4.92-12.97,6.89-3.03,1.44-6.41,1.73-9.82,1.49-2.3-.16-4.67-.31-6.94.02-5.75.86-11.19-1.19-16.78-1.67-5.03-.43-10.05-2.41-14.77-4.43-1.77-.76-6.23.02-4.85-4.57.06-.21-5.96-3.29-6.18-3.15-1.73,1.12-2.35,2.72-1.93,4.74,15.65,6.69,14.51,9.56,52.55,10.76-2.89,2.01-6.06,2.56-9.49,2.46-4.63-.14-9.31.37-13.89-.13-6.07-.67-12.12-1.72-18.05-3.32-5.92-1.59-10.85-5.15-16.18-7.9-1.86-.96-2.34-2.75-1.88-4.71,1-4.32.98-4.38-3.53-4.82-.23-.02-.46,0-2.38-.81-.74.26-.46.78-.26.76.66-.09,1.3-.39,1.95-.6-.84-.24-1.68-.48-1.69-.16,2.05,1.27,2.34,1.84,2.81,2.16.49.34,1.15.44,2.52.92-2.44,2.63-4.54,4.9-7.07,7.63,6.54,3.45,12.98,5.93,19.4,8.65,6.65,2.82,13.53,4.58,20.32,6.19,6.93,1.64,14.28,2.25,21.6,1.73,7.19-.51,13.86-3.56,21.09-3.96-4.12,2.58-8.67,3.91-13.2,5.26-8.94,2.68-18.15,1.34-27.22,1.24-4.43-.05-8.85-1.94-13.27-3.04-.82-.21-1.59-.88-2.38-.87-.69,0-1.47.58-2.01,1.11-.13.13.35,1.36.79,1.55,6.37,2.81,12.79,5.48,19.92,5.61.93.02,1.85,0,2.78,0,3.71,0,7.43.18,11.12-.05,3.3-.21,6.57-.87,9.85-1.34-3.13,3.62-7.71,3.53-11.78,4.03-5.02.61-10.24.67-15.25.02-7.93-1.03-15.59-3.45-22.64-7.28-1.46-.79-4.23-2.2-1.88-5.04.18-.21-.68-1.61-1.33-2.09-1.02-.77-2.27-1.23-3.62-1.93-1.5.99-3.24,2.14-5.14,3.39,3.09,5.23,7.59,8.06,12.44,10.23,4.73,2.12,9.36,4.93,14.92,4.23,5,3.31,10.75.06,15.93,1.82-9.1,2.75-10.93,2.73-20.19,1.22-7.19-1.18-13.9-3.27-20.59-5.81-.2-.08-.46,0-.69,0-.46-.46-.93-.93-1.39-1.39-.55-2.2-2.02-3-4.17-2.78-.81-1.05-1.88-1.98-2.39-3.16-1.17-2.68-3.57-5.5.34-8.11.53-.35.61-1.61.61-2.44,0-.53-.45-1.38-.86-1.5-.5-.15-1.69.29-1.71.55-.21,2.56-2.36,3.32-3.32,4.57-1.55-.64-2.76-.81-3.48-1.49-4.9-4.64-11.3-5.33-17.41-6.35-4.26-.71-8.74-.19-13.11-.08-.61.02-1.19.87,12.55,6.99,6.02-2.07-8.37-3.71-20.08-6.23.94-.84,1.79-2.19,2.47-2.11,4.59.54,8.88-1.07,13.32-1.53,3.21-.33,6.12,1.13,9.15,1.31,5.42.33,10.09,3.29,15.41,3.76.06-.44.31-1.16.15-1.27-3.71-2.61-7.86-4.94-12.28-5-9.06-.12-18.24-1.31-27.19,1.25-4.12,1.18-8.41,1.92-12.13,4.2-.65.4-.92,1.41-1.62,2.54,7.02.71,13.26.03,19.59,1.33,7.68,1.58,15.39,2.54,22.43,6.33,1.18.64,2.73.6-9.21-4.59-.63-6.92,10.98-1.76,21.76,6.02-1.01,1.18-1.99,2.32-3.17,3.7,1.65,2.08,3.27,3.86,5.68,2.18,1.56-1.09,3.01-.67,4.52-.88.55,2.2,2.02,3,4.17,2.78.46.46.93.93,1.39,1.39,1.85,3.21,5.09,4.83,8.23,5.99,6.72,2.47,13.28,5.9,20.82,5.16.4-.04.82.23,1.84.53-1.76.86-3.08,1.87-4.54,2.14-1.71.32-3.39-.69-5.02-1.09-4.64-1.13-9.15-2.22-13.67-3.99-3.64-1.43-6.59-3.4-9.42-5.75-1.54-1.28-2.85-2.13-4.8-1.29,6.86,8,16.59,12.6,31.5,16.02-6.18.66-10.76.37-15.44-1.83-6.14-2.88-11.67-6.61-17.29-10.33-6.85-4.54-13.39-9.57-21.02-12.97-5.84-2.6-11.83-3.97-18.02-5.27-6.09-1.28-12.07-1.05-19.05-1.28.81,1.36,1.07,2.43,1.71,2.77,1.31.69,2.85,1.45,4.25,1.38,7.9-.39,14.88,3.91,22.61,4.25.21,0,.47.05.61.18,5.05,4.38,12.13,4.48,17.45,8.2,3.47,2.43,6.37,5.71,9.96,7.92,7.11,4.37,11.85,10.72,16.05,17.62.28.46.04,1.23.04,3.19-2.33-3.09-3.81-5.39-5.62-7.38-6.19-6.82-13.2-12.33-21.66-16.44-7.39-3.59-15.12-6.06-22.67-9.08-.8-.32-1.84-.04-2.87-.13q-1.71-1.38-4.02-.09c1.56,0,2.84,0,4.02.09,1.22.97,2.22,2.35,3.48,2.66,5.27,1.27,9.77,4.35,14.93,5.94,3.82,1.18,7.38,3.59,10.67,5.99,3.81,2.78,7.19,6.16,10.78,9.24,2.89,2.48,5.87,4.87,8.73,7.39.78.68,1.29,1.68,2.11,2.8-6.6,2.45-12.11-.29-17.66-2.06-1.2-.38-1.97-2.13-2.73-3.46-1.66-1.41-4.27.38-6.05-2.01-1.26-1.69-3.63-2.51-5.19-4.03-4.47-4.38-9.68-7.74-14.8-11.25-.46-.46-.93-.93-1.7-1.39-.1,0,.1,0,.31,0-.13-.36-.2-.76-.42-1.05-.07-.09-.55.14-.84.23.21.27.43.55.95.82.77.46,1.24.93,1.7,1.39-.19.99.58,2.25-1.03,2.8-2.94,1.01-5.84,2.14-8.79,3.24,3.8,1.32,7.38,2.57,10.95,3.82-2.83.57-3.37,4.72-6.7,4.05.16-.39.23-.89.51-1.16.93-.9,1.55-2.01.28-2.8-1.04-.65-2.17-.28-2.23,1.39,0,.27-.7.51-1.07.76-1.38-2.22-1.92.82-3.21.54-1.08-.23-2.37.51-4.5,1.06-.24-.45-.84-1.6-1.88-3.59-.59,6.42-5.55,2.02-7.32,4.71,6.65,2.07,12.95-1.37,19.41-.9-.25,2.32-2.15.89-3.15,1.45-.6.33-.88,1.23-1.85,2.7,4.37-.39,7.57.31,9.35,4.35-7.52,6.12-16.84,3.11-25.23,5.41,4.55,0,9.12.29,13.63-.09,3.86-.33,5.81,1.54,7.88,4.96-3.64,1.2-6.82,2.24-10.19,3.35.12,1.84,1.8,2.19,2.2,3.27.37.99.33,2.14.47,3.2-3.36.81-6.51,1.56-9.27,2.22.34,1.77.65,3.34,1,5.17h-16.57v-14.8c.94-.32,1.75-.59,3.01-1.03-1.26-.43-2.07-.7-2.84-.96.32-1.61.92-3.22.87-4.81-.07-1.94-1.21-3.29-3.44-3.27-3.7.03-7.4,0-11.79,0-.43,1.44-1.29,3.07-1.31,4.69-.03,2.98-.82,5.46-2.3,8.11-3.51,6.29-6.48,12.89-9.93,19.9-1.53-1.96-2.76-3.35-3.79-4.89-1.28-1.91-.98-4.26.47-6.11,5.39-6.87,7.72-10.03,11.76-21.49.36-1.01.81-2.04.89-3.09.15-2.06-.71-4.7.27-6.09,1.54-2.2-.55-3.46-.33-5.25.69-5.49-2.3-10.06-4.57-14.69-1.69-3.44-3.99-6.58-5.98-9.78-1.6,1.89.99,3.6.72,5.18-.33,1.86-1.45,3.64-1.2,5.7-2.13-2.63-4.42-4.9-4.4-8.93.01-2.48-2.18-4.98-3.48-7.67-1.76,3.71,1.72,6.97,1.11,10.52,3.65,5.27,4.97,12.14,10.95,15.81.46.46.93.93,1.39,1.39.46.93.93,1.85,1.39,2.78-.86-.16-1.97-.04-2.51-.54-1.27-1.18-2.27-2.65-4.44-3.42v2.57c-1.39-.46-2.78-.93-4.17-1.39.21-3.31-2.85-5.27-3.22-8.32-.89.52-1.62.94-2.66,1.37-.1,0,.1,0,.31,0-.13-.36-.2-.76-.42-1.05-.07-.09-.55.14-.84.23.21.27.43.55.95.82,2.37,2.15,2.78,5.63,5.88,6.95-.22,2.16.59,3.63,2.78,4.17.21,1.05-.69,2.66,1.39,2.78.46.46.93.93,1.39,1.39s.93.93,1.39,1.39c.42.73.85,1.45,1.36,2.33-.59.15-1.52.63-1.77.4-1.92-1.79-3.79-3.5-5.29-5.84-3.4-5.31-7.53-10.15-11.52-15.39-.74,1.46-1.01,2.62-1.74,3.31-2.1,1.99-2.9,3.8-.6,6.28.57.62.09,2.21.09,3.35-.73-.93-1.47-1.85-2.2-2.78-3.87,2.27-3.85,2.27-2.92,5.32.81,2.68,1.61,5.36,2.3,8.07.14.55-.24,1.24-.39,1.89-.9-.52-1.62-.95-2.35-1.38-.21-1.05.69-2.66-1.39-2.78.03-3.17-2.58-4.76-4.17-6.95v-3.23c1.6,1.4,2.6,2.27,4.3,3.76-.66-2.77-1.41-4.57-1.46-6.38-.16-6.24-2.3-12.3-1.55-18.64.13-1.06-1.07-2.27-1.43-2.98-1.62.43-2.83.74-4.03,1.06,0-.46,0-.93.4-2.03.14-.42-.13-.2-.4.02.21.21.41.41.62.62.21-.27.45-.54.62-.84.03-.05-.27-.28-.83.2-.86.64-1.32.58-1.77.66-.41.07-.79.29-1.18.44.39.31.74.73,1.19.9.4.15.9.03,1.35.03.16.85.33,2.45.47,2.45,2.79-.06,2.84,2.68,3.51,4.05.81,1.67.02,4.05.25,6.09.2,1.77.85,3.49,1.3,5.24-1.71-1.18-2.29-2.7-2.72-4.26-.27-.97.47-2.44-1.41-2.45v-6.71c-2.94-.73-2.85.92-2.78,2.54-2.48.94-1.27,2.5-.81,4.1.79,2.79,2.64,5.31,2.21,8.41-1.98-1.25-2.32-3.22-2.9-5.35-1.17-4.29-2.99-8.4-4.53-12.59-.65,2.22.61,4.12.34,5.77-.71,4.22,1.52,7.22,3.31,10.51.5.93.68,2.03,1.01,3.05h-1.39c-.46-.46-.93-.93-1.3-1.35-.14-.91-.08-2.05-.6-2.54-2.6-2.4-3.17-5.58-3.64-8.8-.16-1.11.08-2.29-.16-3.38-.17-.79-.91-1.44-1.23-2.22-.3-.73-.4-1.55-.59-2.33-.82,2.16-1.13,4.24-.75,6.18.53,2.68,2.09,5.23,2.29,7.9.24,3.23,2.2,4.21,4.69,5.18.37.43.83.89,1.3,1.35s.93.93,1.39,1.39.93.93,2.03,1.79c.42.14.2-.13-.02-.4-.21.21-.41.41-.62.62.27.21.54.45.84.62.05.03.28-.27-.2-.83-.64-.87-.64-1.33-.64-1.79,2.08-.12,1.18-1.73,1.39-2.78.46.58,1.3,1.14,1.33,1.73.1,2.26.91,4.02,2.85,5.22-.53,3.47,1.2,5.58,4.17,6.95.21,1.05-.69,2.66,1.39,2.78-.86,2.47-2.54,1.57-3.98.83-1.09-.55-1.99-1.47-3.29-2.22-.1,0,.1,0,.31,0-.13-.36-.2-.76-.42-1.05-.07-.09-.55.14-.84.23.21.27.43.55.95.82.31.93.31,1.85.31,2.78-.94-.46-1.91-1.38-2.8-1.3-2.45.2-4.28-.47-5.87-2.38-.42-.5-1.62-.35-2.46-.49-.35-.46-.7-.93-1.05-1.39-.58.46-1.15.93-1.73,1.39h-4.54c.82,1.03,1.18,1.48,1.7,2.13-1.62.76-3.21,1.5-5.58,2.62.73-1.67,1.09-2.52,1.86-4,.14-.42-.13-.2-.4.02.21.21.41.41.62.62.21-.27.45-.54.62-.84.03-.05-.27-.28-.83.2-1.73.8-3.26.59-4.33,1.19-3.87,2.2-7.96,2.52-12.89,2.06.37-1.5.88-2.85,1.01-4.24.27-2.93.58-5.9.34-8.81-.07-.88-1.88-1.62-3.08-2.56-.66,1.37-1.11,2.31-1.91,3.98-.26-2.41-.45-4.13-.71-6.5-1.51.45-2.93.7-4.2,1.3-1.37.64-2.57,1.62-3.87,2.41-5,3.05-7.5,2.9-3.68,11.81,1.18,0,2.59-.25,3.84.08,1,.27,1.81,1.25,2.72,1.93-.41.4-.73.73-1.07,1.05-4.03,3.75-7.01,2.98-8.76-2.24-1.36-4.06-2.74-8.12-4.18-12.15-.82-2.29-2.59-2.96-4.91-2.53-1.6,3.71-1.49,8.18-5.61,11.06,2.23,1.51,3.94,2.67,6.86,4.65-6.11,1.09-6.53,4.25-7,7.75-.15-.91-.32-1.81-.45-2.72-.51-3.49-.8-7.04-1.65-10.44-.25-1-.72-1.33-.05-2.55,1.64-2.98,2.79-6.24,4-9.44.38-1.01.35-2.17.48-3.27.47-3.97.74-7.98,1.49-11.9.3-1.6,1.27-3.46,2.53-4.43,4.7-3.6,8.68-8.54,14.48-10.17,3.15-.89,5.25-2.48,7.1-4.66,3.63-4.3,8.24-5.78,13.67-5.65,4.79.11,12.17-3.02,14.81-6.09.24-.28.13-.86.23-1.72-1.37-.3-2.78-.6-4.24-.92.51-1.85.96-3.5,1.41-5.14,1.39,0,2.78,0,4.81.4.42.14.2-.13-.02-.4l-.62.62c.27.21.54.45.84.62.05.03.28-.27-.2-.83.64-1.67,1.92-2.94,3.11-4.13-.87-.45-2.01-1.05-3.38-1.76-1.4,1.69-2.98,3.58-4.55,5.48-1.38,1.14-2.9,2.15-4.08,3.47-1.12,1.25-2.43-1.75-3.61.55-.71,1.38-1.94,3.02-4.23,3.02-1.43,0-2.98.62-4.25,1.35-2.63,1.53-5.03,3.46-7.7,4.91-.83.45-2.22-.09-3.87-.23-1.56,1.41-3.1,4.28-6.76,3.68-.66-.11-1.48.79-2.24,1.19-1.9.98-3.76,2.56-5.75,2.76-2.97.3-2.73,3.54-4.44,4.16-2.74,1.01-2.74,2.76-3.31,5.06-.86,3.48-1.89,6.94-4.19,10.07-3.21,4.36-5.36,9.36-5.46,15.06-.04,2.36-1.33,4.72-1.23,7.05.3,7.44,1.72,14.68,5.59,21.45-1.37,1.31-2.78,2.67-4.19,4.02-.4-.14-.95-.16-1.18-.44-2.16-2.55-4.18-5.24-6.44-7.7-.96-1.05.05-1.32.22-2.02.88-3.59-.26-5.03-3.92-5.12-3.24-.08-6.48-.08-9.71,0-3.19.08-3.39.5-2.73,4.17.16.9.02,1.84.03,3.33,0,.13-.02-.29-.03-.71-1.37.18-2.73.36-4.1.54.03.31.06.62.08.93,1.35-.06,2.7-.13,4.05-.75,2.27-.98,3.19-.05,2.78,2.78,0,.13-.02-.29-.03-.71-1.37.18-2.73.36-4.1.54.03.31.06.62.08.93,1.35-.06,2.7-.13,4.05-.75,2.48,1.25,5.54,2.6,3.91,6.63-.67.77-.17,1.21.01,1.11.6-.34,1.1-.88,1.63-1.34-.91.13-1.82.26-1.65.24ZM246.15,41.4c-.22-.27-.44-.54-.66-.81-.21.21-.41.41-.62.62.27.21.54.45.84.62.05.03.28-.27-.84-1.24-.46-.46-.93-.93-2.01-1.39.21,0,.41,0,.62,0-.13-.36-.2-.76-.42-1.05-.07-.09-.55.14-.84.23.21.27.43.55,1.26.82.46.46.93.93,2.67,2.2ZM217.05,5.84c.46.46.93.93,4.76,3-.95-1.06-1.22-1.59-1.42-1.56-.66.09-1.3.39-1.95.6.84.24,1.68.48,0-.65-.46-.46-.93-.93-2.01-1.39.21,0,.41,0,.62,0-.13-.36-.2-.76-.42-1.05-.07-.09-.55.14-.84.23.21.27.43.55,1.26.82ZM114.9,87.98c-.27.22-.54.44-.81.66.21.21.41.41.62.62.21-.27.45-.54.62-.84.03-.05-.27-.28-1.24,1.46v-.62c-.36.13-.76.2-1.05.42-.09.07.14.55.23.84.27-.21.55-.43,1.63-2.54ZM255.89,85.89c-.22-.27-.44-.54-.66-.81-.21.21-.41.41-.62.62.27.21.54.45.84.62.05.03.28-.27-1.46-1.24h.62c-.13-.36-.2-.76-.42-1.05-.07-.09-.55.14-.84.23.21.27.43.55,2.54,1.63ZM299.13,58.67c.46.46.93.93,1.39,1.39.21,1.05-.69,2.66,1.39,2.78,0,2.07.18,4.15-.05,6.19-.24,2.13-.88,4.21-1.34,6.32-.93.93-1.85,1.85-2.78,2.78-.46.46-.93.93-4.69,1.86.98.53,1.48.98,1.66.87.6-.34,1.1-.88,1.63-1.34-.91.13-1.82.26,0,0,.46-.46.93-.93,1.39-1.39,2.28.42,3.2-.51,2.78-2.78,4.47-.66,1.75-4.89,3.43-6.96.34-.41-1.19-4.16-2.04-5.55-.21-1.05.69-2.66-1.39-2.78-.46-.46-.93-.93-1.39-1.39-.46-.46-.93-.93-2.01-1.39.21,0,.41,0,.62,0-.13-.36-.2-.76-.42-1.05-.07-.09-.55.14-.84.23.21.27.43.55,1.26.82.46.46.93.93,1.39,1.39ZM143.31,58.67c.46-.46.93-.93,1.39-1.39.46-.46.93-.93,4.69-1.86-.98-.53-1.48-.98-1.66-.87-.6.34-1.1.88-1.63,1.34.91-.13,1.82-.26,0,0-.46.46-.93.93-1.39,1.39-.46.46-.93.93-1.39,1.39-.46.46-.93.93-1.39,1.39-2.08.12-1.18,1.73-1.39,2.78-.39.16-1.11.3-1.12.48-.14,2.93-.22,5.87-.26,8.8-.02,1.85,1.15,2.75,2.77,3.23.29,3.11,1.06,3.88,5.45,4.98-.22-.27-.44-.54-.66-.81-.21.21-.41.41-.62.62.27.21.54.45.84.62.05.03.28-.27-.84-1.24-1.39-1.39-2.78-2.78-4.17-4.17-.46-1.87-1.14-3.73-1.34-5.63-.23-2.27-.06-4.59-.06-6.88,2.08-.12,1.18-1.73,1.39-2.78.46-.46.93-.93,1.39-1.39ZM235.9,108.72h.62c-.13-.36-.2-.76-.42-1.05-.07-.09-.55.14-.84.23.21.27.43.55,1.74,4.12.53-.98.98-1.47.87-1.66-.34-.6-.88-1.1-1.35-1.63.13.91.26,1.82-.62,0ZM248.42,40.59h.62c-.13-.36-.2-.76-.42-1.05-.07-.09-.55.14-.84.23.21.27.43.55,4.63,2.43-.95-1.06-1.22-1.59-1.42-1.56-.66.09-1.3.39-1.95.6.84.24,1.68.48-.62-.65ZM223.53,92.91c-.53.98-.98,1.47-.87,1.66.34.6.88,1.1,1.35,1.63-.13-.91-.26-1.82.47,3.29.53-.98.98-1.47.87-1.66-.34-.6-.88-1.1-1.35-1.63.13.91.26,1.82-.47-3.29ZM119.66,89.25c-1.05.21-2.66-.69,19.39,5.56-1.77,0-3.55-.03-5.32,0-2.02.04-4.04.11-5.67-1.4-1.7,2.23-3.41-.04-5.1-.09-1.67-.05-3.33-.82-4.98-1.3-2.17-.63-2.16-.64-3.36.87,7.78,3.63,16.02,3.94,2.26-2.25,1.05-.21,2.66.69,6.08-1.86-.98-.53-1.48-.98-1.66-.87-.6.34-1.1.88-1.63,1.34.91-.13,1.82-.26,0,0ZM219.83,64.23c-2.08.12-1.18,1.73-1.39,2.78-2.08.12-1.18,1.73-1.56,2.99q-1.29,1.6,0,3.91c0-1.58,0-2.85.17-4.12,2.08-.12,1.18-1.73,1.39-2.78,2.08-.12,1.18-1.73,3-6.15-1.06.95-1.59,1.22-1.56,1.42.09.66.39,1.3.6,1.95.24-.84.48-1.68-.65,0ZM220.6,19.74c.21,0,.41,0,.62,0-.13-.36-.2-.76-.42-1.05-.07-.09-.55.14-.84.23.21.27.43.55,1.48.99q1.61,1.29,3.91,0c-1.58,0-2.85,0-4.75-.17ZM328.34,114.28c-1.37.53-3.52-1.29-4.17,2.75,0-.45.02-.91.03-1.36-5.04,0-10.07-.02-15.11.03-.53,0-1.06.36-1.59.55,5.61.8,11.14.84,16.67-.58,1.37-.53,3.52,1.29,4.98-2.67-.27.22-.54.44-.81.66.21.21.41.41.62.62.21-.27.45-.54.62-.84.03-.05-.27-.28-1.24.84ZM116.26,114.28h.62c-.13-.36-.2-.76-.42-1.05-.07-.09-.55.14-.84.23.21.27.43.55,1.26.82.65,2.68,2.8.86,4.16,1.7,4.55,1.7,9.21,1.05,13.88.24-2.44-.55-5.55.39-7.23-.77-2.71-1.86-4.47,1.56-6.63.21-.65-2.68-2.8-.86-4.79-1.39ZM254.44,58.88q-1.29,1.6,0,3.91c0-1.58,0-2.85.98-5.4-.27.22-.54.44-.81.66.21.21.41.41.62.62.21-.27.45-.54.62-.84.03-.05-.27-.28-1.41,1.05ZM160.01,80.91c-1.37.53-3.52-1.29-4.14,2.78.03-.32.05-.63.08-.95-2.15-.59-4.3-1.17-6.45-1.76-1.94,2.84-5.31.14-8.1,2.35,1.56.15,2.59.33,3.62.34,3.62.04,7.23.01,10.81-1.38,1.37-.53,3.52,1.29,4.98-2.67-.27.22-.54.44-.81.66.21.21.41.41.62.62.21-.27.45-.54.62-.84.03-.05-.27-.28-1.24.84ZM249.08,87.28c.65,1.96.97,3.04,1.37,4.09.1.26.42.45.64.67.24-.99.79-2.04.62-2.95-.1-.56-1.29-.93-1.28,3.57v-.62c-.36.13-.76.2-1.05.42-.09.07.14.55.23.84.27-.21.55-.43-.53-6.01ZM232.79,68.67c1.53-1.82.83-3.78.83-5.67-.88-.08-1.44-.3-1.7-.11-.28.2-.46.82-.38,1.19.32,1.42.76,2.82.81,4.94v-.62c-.36.13-.76.2-1.05.42-.09.07.14.55.23.84.27-.21.55-.43,1.27-1ZM322.97,125.18c-1.52-3.79-3.5-1.18-5.2-.98-.11.01-.14.6-.28,1.24,1.9-.09,3.61-.17,3.65-1.5,3.5.16,5.16.08,4.04-2.61-1.11.72-2.1,1.35-2.2,3.85ZM278.26,54.5c4.64,0,9.27,0,17.28,1.61-.95-1.06-1.22-1.59-1.42-1.56-.66.09-1.3.39-1.95.6.84.24,1.68.48,0-.65,0-.23.05-.65,0-.66-4.63-1.19-9.27-1.19-13.9,0-.06.01,0,.43-3.3,1.14.98.53,1.48.98,1.66.87.6-.34,1.1-.88,1.63-1.34-.91.13-1.82.26,0,0ZM242.09,50.33c-2.32-.24-.97-2.09-1.41-3.16-.49-1.18-.89-2.95-1.78-3.3-1.6-.62-3.62-.72-5.32-.36-1.02.22-1.76,1.72-2.36,2.5-1.61.78-2.94,1.44-4.03,1.97.55,1.71,1.09,3.38,1.73,5.38.84-2.67,1.54-4.9,2.04-7.2,1.44.25,2.66-1.17,3.54-1.14,2.89.1,4.73,2.79,4.8,6.02.03,1.62,0,3.23.77,4.85-2.35,0-3.97.19-5.52-.05-1.55-.25-3.02-.94-4.53-1.44.57,1.82,1.58,2.87,2.66,3.86.14.13.76.02.92-.17,1.45-1.73,1.96,1.36,3.19.59.36-.23.76-.39,1.08-.66.52-.44.98-.93,1.44-2.12,1.82-1.41,2.89-3.19,3.59-6.84-.27.22-.54.44-.81.66.21.21.41.41.62.62.21-.27.45-.54.62-.84.03-.05-.27-.28-1.24.84ZM217.05,62.84c-3.36.09-5.5,2.28-7.88,4.27-1.9,1.59-1.89,3.42-1.86,5.46-1.05.21-2.66-.69-2.78,1.39-4.51,1.49-7.17,5.3-10.44,8.33-.33-.33-.81-1-.96-.93-2.66,1.16-5.29,2.41-8.07,3.72,0,3.07.05,5.81-.02,8.54-.06,2.47,1.13,3.71,3.66,4.13,1.59-1.96,3.59-3.68,4.59-5.86,1.05-2.32,1.13-5.08,1.7-7.64.03-.13.61-.15.98-.23.19,1.81.38,3.53.63,5.85,1.74-2.44,3.06-4.3,4.92-6.91.97,5.75-5.05,9.64-1.62,14.92,1.77-.55,3.59-1.11,6.2-1.91-.56,2.64-1.02,4.79-1.48,6.91,2.68.48,4.89.73,6.57-1.46.37-.48,1.04-.79,1.64-1.03,4.92-2.01,5.07-2.27,3.41-7.08-.63-1.82-1.31-3.63-.57-13.35l-.77-.38c-.48,1.42-1.24,2.81-1.36,4.26-.11,1.31.42,3.83.75,3.85,2.3.11,1.21-1.86,1.34-2.99.17-1.56.04-3.16-1.35,3.18-2.38-.37-2.23-3.16-3.7-4.06-1.74-1.06-4.01-1.24-6.39-1.9.47-1.53,1.11-2.73,1.14-3.94.03-1.33-.5-2.67-.79-4,1.05-.21,2.66.69,2.78-1.39,1.34-.64,2.65-1.35,4.02-1.91,3.51-1.45,5.49-3.99,6.53-9.1-.27.22-.54.44-.81.66.21.21.41.41.62.62.21-.27.45-.54.62-.84.03-.05-.27-.28-1.24.84ZM7.77,57.06c.95,1.06,1.22,1.59,1.42,1.56.66-.09,1.3-.39,1.95-.6-.84-.24-1.68-.48,0,.65,3.49,2.08,5.09,2.75,7.39,2.77,5.28.04,10.56.02,15.84,0,.74,0,8.02-2.34,8.75-3.89.01.42.03.85.04,1.27,1.37-.18,2.73-.36,4.1-.54-.03-.31-.06-.62-.08-.93-1.35.06-2.7.13-4.04,1.31-4.89.28-9.72-.19-14.67,1.2-5.67,1.6-11.53-.79-20.7-2.81ZM251.51,72.73c.68-1.88,1.25-3.45,2.03-5.6-1.19.09-2.59,0-2.65.23-.5,2.19-.89,4.33-2.96,5.76-.25.17.35,1.48.45,2.28.05.43-.11,1.27-.22,1.28-3.39.23-1.52,2.43-1.8,4.78,2.07-2.82,3.63-1.94,5.28-.61.23.18,1.02-.34,2.64-.93-1.78-1-2.92-1.64-4.63-2.6,2.3-.64,3.65-1.43,4.86-1.26,1.99.27,2.48-.74,2.88-2.19q-2.52-2.86-5.89-1.14ZM94.62,43.38c-2.25.21-4.62-.43-6.74,1.39h6.74c-.6.46-1.17,1.28-1.8,1.33-4.5.35-8.44,1.98-11.64,4.36,1.73,1.79,3.41,3.53,5.15,5.33,4.96-2.36,10.56-3.43,16.14-3.97,8.73-.84,17.14,1.25,25.39,4.03,2.47.83,5.11,1.17,7.67,1.73,1.73-2.38,4.45-3.62,5.2-6.51-1.45-.71-2.71-1.32-3.9-1.91-.64.64-1.26,1.06-1.59,1.64-.41.71-.6,1.56-.8,2.12-5.36,1.22-9.83-1.45-14.18-3.1-2.94-1.12-6.46.49-8.78-2.27-3.09,3.28-6.18-.25-9.28,0-.92.07-1.99-.26-2.73.11-4.49,2.22-9.69,1.67-14.56,4.63,1.49-4.66,5.29-3.43,7.76-4.61,3.3-1.57,7.19-1.92,10.75-2.41,5.31-.72,10.82.05,16.25.21,3.68.11,7.04,3.2,11.52,1.42-7.53-2.79-14.69-4.07-22.14-3.52-.69.05-1.58.29-2.05-.04-3.55-2.43-7.52-.98-11.28-1.28-.33-.03-.73.86-1.1,1.33ZM353.39,43.38c-.02-1.91-1.5-1.42-2.49-1.36-6.52.41-13.05.84-19.56,1.38-4.44.37-8.95.59-13.27,1.56-1.36.31-2.7,1.24-4.32,1.31-.31.01-.57,1.37-1.06,2.66,7-2.52,13.45-4.33,20.25-4.14,4.24.12,8.39.08,12.69,1.06,3.11.71,6.49,1.29,9.75,1.82,3.09.51,6.01,2.03,9.01,3.11-1.14.94-2.18,1.25-2.87.89-3.8-1.99-7.89-2.28-12.02-2.98-3.53-.6-6.62-1.76-10.05.16-.64.36-1.97-.63-3.02-.85-1.07-.22-2.76-.76-3.16-.29-1.51,1.79-3.37,1.15-5.11,1.21-1.8.06-3.34.63-5.04,1.26-4.25,1.58-8.8,2.37-13.46,3.54-1.5-1.85-2.77-3.42-3.8-4.71-1.63.83-2.78,1.42-3.69,1.89,2,2.12,4.05,4.3,5.87,6.23,5.15.97,8.97-2.61,13.74-2.81,4.72-.2,9.3-2.71,14.13-2.49,4.67.21,9.58-1.61,14.01,1.28,4.96-.57,9.51,1.06,12.91,2.56,2.38-1.84,4.16-3.21,5.93-4.58-2.14-2.21-4.36-3.23-7.18-3.65-2.79-.42-5.84-.62-8.18-2.66,2.71-.22,5.53.48,8.13-1.39h-8.13ZM286.2,66.44c-1.49-2.69-.5-6.03-3.82-6.36-1.72,1.83-3.37,3.58-5.02,5.32,1.9.66,4.13,1.42,6.29,2.17-1.03,3.72-4.79,1.29-7.03,2.88,1.13,3.68,4.04,4.79,7.18,6.11.95-2.09,1.76-3.88,2.94-6.48,1.41,2.84,2.34,4.71,3.27,6.58,2.38-1.76,5.84-2.41,6.45-6.08-1.98-.83-3.88-1.63-5.78-2.42,2.26-1.01,4.66-.8,5.42-3.65-2.53-1.42-3.51-5.68-7.52-4.22-.74,1.91-1.44,3.72-2.38,6.15ZM154.96,66.76c-1.25-3.09-2.02-4.99-2.96-7.31-2.32,2.5-7.34,2.02-5.57,7.28,1.21.18,2.48.38,5.38.82-3.33,1.39-5.21,2.17-7.51,3.13,2.21,2.2,4.29,4.27,6.49,6.46,1.14-2.26,2.05-4.06,2.99-5.93.65.65,1.24,1.08,1.62,1.64,2.04,3.06,2.87,3.29,5.22,1.14.95-.87,1.68-1.96,2.67-3.13-2.36-1.01-4.28-1.83-6.69-2.86,2.53-1.06,4.42-1.84,6.48-2.71-2.02-2.09-2.71-4.85-6.16-4.93-.53,1.71-1.03,3.33-1.97,6.38ZM214.86,108.13q5.65.54,10.49-3.33c-2.06-4.67-4.11-9.32-6.17-13.97-.23.07-.46.14-.69.21v9.55c-2.18,1.77-3.91,3.17-6.91,5.6,3.38-.75,5.02-1.11,6.67-1.48.3.46.6.91.9,1.37-1.23.59-2.46,1.17-4.3,2.05ZM303.57,95.7c9.25.1,18.75,1.98,27.74-3-1.48-1.2-2.84-2.36-4.29-3.39-.14-.1-.82.55-1.25.85.36.44.72.88,1.57,1.93-4.4-.94-7.26,3.67-11.29,1.33-3.86,2.6-8.38.68-12.47,2.27ZM185.92,77.85c-2.35.92-3.52,1.08-4.23,1.73-1.16,1.07-3.57,1.92-1.47,4.28.21.24-.4,1.28-.73,1.9-.41.76-1.35,1.49-1.32,2.19.1,2.17.93,4.17.1,6.54-.4,1.16,1.12,3,1.77,4.53-.38-7.32,3.02-13.61,5.88-21.16ZM198.93,71.89c4.87,2.58,5.09-2.09,6.84-4.35-1.86-1.27-1.23-5.09-4.95-4.64-.6,1.5-1.18,3.09-1.87,4.64-.65,1.47,2.65,2.9-.02,4.36ZM307.75,108.96c4.91.91,9.89,1.61,14.82,0h-14.82ZM237.17,61.71c-1.38,5.3.47,9.57-2.18,14.31,2.03-1.15,3.23-1.83,4.02-2.28-2.05-3.61-.39-7.4-1.84-12.04ZM290.04,80.87c-2.65,4.47-6.16-2.24-9.05.79,3.53,2.12,7.17,2.75,11.3,1.46-.73-.73-1.22-1.22-2.25-2.25ZM122.58,125.48c3.23-.32,6.36.41,9.37-1.01-1.55-.46-3.11-.27-4.61-.51-1.54-.25-3.02-.92-4.76-1.49v3ZM122.65,108.96c.02.38.04.76.06,1.15,3.85,0,7.71.01,11.56-.04.16,0,.31-.59.56-1.11h-12.18ZM161.19,54.25c-.02-.38-.04-.76-.06-1.15-3.39,0-6.78-.01-10.17.04-.16,0-.31.59-.56,1.11h10.79ZM316.96,129.34c-2.63-.88-5.32-1.71-7.86,0h7.86ZM310.54,99.23c2.14.97,4.37,1.57,6.47,0h-6.47ZM134.76,129.33c-2.18-.23-4.52-2.47-6.86,0h6.86ZM310,125.17c-2.15-.73-4.4-1.78-8.04,0h8.04ZM306.34,136.76c0,.4.01.81.02,1.21,1.7-.12,3.41-.23,5.11-.35l-.05-.86h-5.08ZM304.69,136.18v-.7h-5.56v.7h5.56ZM247.45,44.11c1.54.62,1.81,3.12,4.58,1.32-1.54-.62-1.81-3.12-4.58-1.32ZM294.96,82.65v.7h5.56v-.7h-5.56ZM224.23,72.32c.4,0,.81-.02,1.21-.03-.12-1.7-.23-3.4-.35-5.1-.29.02-.57.04-.86.05v5.08ZM302.12,82.54c.03.4.07.79.1,1.19,1.68-.11,3.36-.22,5.04-.33-.02-.29-.04-.57-.05-.86h-5.08ZM248.51,84.92c-.45-.94-.9-1.89-1.34-2.83-.33.18-.65.36-.98.54.17,1.23.33,2.47.55,4.06,1.05-1.05,1.68-1.68,1.77-1.77ZM259.93,58.94c-.4,0-.8-.01-1.2-.02.12,1.71.24,3.43.35,5.14.28-.02.57-.03.85-.05v-5.08ZM86.05,45.92c-.04-.41-.08-.82-.12-1.23-1.22.18-2.43.35-3.65.53.03.24.05.47.08.71h3.69ZM363.34,45.01c.04.41.08.82.12,1.23,1.22-.18,2.43-.35,3.65-.53-.03-.24-.05-.47-.08-.71h-3.69ZM210.32,82.06l1.24-.07c-.17-1.23-.34-2.45-.52-3.68-.24.02-.49.04-.73.07v3.69ZM244.64,81.15l-1.24.07c.17,1.23.34,2.45.52,3.68.24-.02.49-.04.73-.07v-3.69ZM325.3,79.28l-.03-1.23c-1.24.17-2.48.34-3.72.5.02.24.04.48.06.73h3.69ZM129.4,84.74v-.7h-4.17v.7h4.17ZM262.73,66.02c-.95.51-1.86,1-2.76,1.49,2.05.88,3.53,1.15,2.76-1.49ZM140.26,98.75c0-.41-.02-.82-.03-1.23-1.24.17-2.48.34-3.72.5.02.24.03.48.05.73h3.7ZM138.9,105.71c-.02-.41-.05-.83-.07-1.24-1.23.17-2.46.34-3.69.52.02.24.04.49.07.73h3.69ZM307.48,105.59v-.7h-4.17v.7h4.17ZM305.84,98.76c-.02-.41-.05-.83-.07-1.24l-3.68.52c.02.24.04.49.07.73h3.69ZM137.96,135.37c.04.41.08.82.12,1.23,1.22-.18,2.43-.35,3.65-.53-.03-.24-.05-.47-.08-.71h-3.69ZM136.14,137.67c-.04-.41-.08-.82-.12-1.23-1.22.18-2.43.35-3.65.53.03.24.05.47.08.71h3.69ZM305.87,127.94c-.04-.41-.08-.82-.12-1.23-1.22.18-2.43.35-3.65.53.02.24.05.47.07.71h3.69ZM314.67,83.92c.02.41.05.83.07,1.24,1.23-.17,2.46-.34,3.68-.52-.02-.24-.04-.49-.07-.73h-3.69ZM247.37,90.59c.11-.76.28-1.38.24-1.98-.01-.19-.56-.35-.87-.53-.16.61-.39,1.21-.43,1.82-.01.17.55.37,1.06.69ZM128.01,99.33v.7h2.78v-.7h-2.78ZM243.13,68.4h-.7v2.78h.7v-2.78ZM314.38,124.3c-.75-.11-1.37-.27-1.98-.24-.19.01-.35.56-.53.87.61.16,1.21.39,1.82.43.17.01.37-.55.69-1.06ZM245.98,97.54c.11-.76.28-1.38.24-1.98-.01-.19-.56-.35-.87-.53-.16.61-.39,1.21-.43,1.82-.01.17.55.37,1.06.69ZM401.42,55.6c-.09.22-.3.71-.51,1.2.38.16.82.51,1.13.43.45-.12.81-.56,1.21-.87-.38-.16-.76-.32-1.83-.76ZM51.44,56.99c-.32-.51-.52-1.07-.69-1.06-.61.04-1.22.27-1.82.43.17.31.33.86.53.87.61.04,1.23-.13,1.98-.24ZM126.62,132.7v.7h2.78v-.7h-2.78ZM133.57,132.7v.7h2.78v-.7h-2.78ZM308.21,132.07c-.09.22-.3.71-.51,1.2.38.16.82.51,1.13.43.45-.12.81-.56,1.21-.87-.38-.16-.76-.32-1.83-.76ZM317.16,133.46c-.32-.51-.52-1.07-.69-1.06-.61.04-1.22.27-1.82.43.17.31.33.86.53.87.61.04,1.23-.13,1.98-.24ZM137.09,109c1.06-.44,1.44-.6,1.83-.76-.4-.31-.76-.75-1.21-.87-.32-.08-.75.27-1.13.43.21.49.42.98.51,1.2ZM134.31,139.02c-.09.22-.3.71-.51,1.2.38.16.82.51,1.13.43.45-.12.81-.56,1.21-.87-.38-.16-.76-.32-1.83-.76ZM301.86,139.59c-.75-.11-1.37-.27-1.98-.24-.19.01-.35.56-.53.87.61.16,1.21.39,1.82.43.17.01.37-.55.69-1.06ZM303.3,107.68v.7h2.78v-.7h-2.78ZM208.35,76.74h-.7v2.78h.7v-2.78ZM125.96,78.42c1.06-.44,1.44-.6,1.83-.76-.4-.31-.76-.75-1.21-.87-.32-.08-.75.27-1.13.43.21.49.42.98.51,1.2ZM198.96,27.73v-.7h-2.78v.7h2.78ZM213.16,74.7c-.22-.09-.71-.3-1.2-.51-.16.38-.51.82-.43,1.13.12.45.56.81.87,1.21.16-.38.32-.76.76-1.83ZM120.7,121.23h-.7v2.78h.7v-2.78ZM222.12,58.87c-.29.16-.59.33-.9.49.15.15.34.46.46.43.33-.07.62-.28.93-.43-.15-.15-.31-.31-.5-.49ZM142.61,105.94c-.15.15-.46.34-.44.46.07.33.28.62.44.93.15-.15.46-.34.44-.46-.07-.33-.28-.62-.44-.93ZM246.76,59.86c.29-.16.59-.33.9-.49-.15-.15-.34-.46-.46-.43-.33.07-.62.28-.93.43.15.15.31.31.5.49ZM299.33,106.43c.16.29.33.59.5.9.15-.15.46-.34.43-.46-.07-.33-.28-.62-.43-.93-.15.15-.31.31-.5.49ZM237.22,60.06c-.15.15-.46.34-.44.46.07.33.28.62.44.93.15-.15.46-.34.44-.46-.07-.33-.28-.62-.44-.93ZM246.06,63.33c-.19-.19-.34-.34-.5-.49-.15.31-.36.61-.44.93-.03.11.28.3.44.46.17-.3.33-.6.49-.9ZM226.29,64.43c-.29.16-.59.33-.9.49.15.15.34.46.46.43.33-.07.62-.28.93-.43-.15-.15-.31-.31-.49-.49ZM242.29,66.11c.16.29.33.59.5.9.15-.15.46-.34.44-.46-.07-.33-.28-.62-.44-.93-.15.15-.31.31-.49.49ZM224,74.66c-.15-.15-.34-.46-.46-.43-.33.07-.62.28-.93.43.15.15.34.46.46.43.33-.07.62-.28.93-.43ZM268.32,75.85c-.19-.19-.34-.34-.49-.49-.15.31-.36.61-.44.93-.03.11.28.3.44.46.17-.3.33-.6.49-.9ZM257.59,77.64c.19.19.34.34.49.49.15-.31.36-.61.44-.93.03-.11-.28-.3-.43-.46-.17.3-.33.6-.49.9ZM304.49,117.96c-.16-.29-.33-.59-.49-.9-.15.15-.46.34-.43.46.07.33.28.62.43.93.15-.15.31-.31.5-.49ZM258.98,80.42c.19.19.34.34.49.49.15-.31.36-.61.44-.93.03-.11-.28-.3-.44-.46-.17.3-.33.6-.49.9ZM278.46,80.42c.19.19.34.34.5.49.15-.31.36-.61.43-.93.03-.11-.28-.3-.43-.46-.17.3-.33.6-.5.9ZM137.54,83.2c-.16-.29-.33-.59-.49-.9-.15.15-.46.34-.44.46.07.33.28.62.44.93.15-.15.31-.31.49-.49ZM219.13,83.69c-.15.15-.46.34-.44.46.07.33.28.62.44.93.15-.15.46-.34.44-.46-.07-.33-.28-.62-.44-.93ZM232.84,84.88c.29-.16.59-.33.9-.49-.15-.15-.34-.46-.46-.43-.33.07-.62.28-.93.43.15.15.31.31.5.49ZM317.42,77.64c.19.19.34.34.49.49.15-.31.36-.61.44-.93.03-.11-.28-.3-.43-.46-.17.3-.33.6-.49.9ZM118.07,87.37c-.16-.29-.33-.59-.49-.9-.15.15-.46.34-.44.46.07.33.28.62.44.93.15-.15.31-.31.49-.49ZM328.14,86.97c-.19-.19-.34-.34-.49-.49-.15.31-.36.61-.43.93-.03.11.28.3.43.46.17-.3.33-.6.49-.9ZM125.02,132.85c-.19-.19-.34-.34-.49-.49-.15.31-.36.61-.44.93-.03.11.28.3.44.46.17-.3.33-.6.49-.9ZM140.53,133.05c-.15-.15-.34-.46-.46-.43-.33.07-.62.28-.93.43.15.15.34.46.46.43.33-.07.62-.28.93-.43ZM302.41,133.54c.29-.16.59-.33.9-.49-.15-.15-.34-.46-.46-.43-.33.07-.62.28-.93.43.15.15.31.31.5.49ZM225.59,12.29c.19.19.34.34.49.49.15-.31.36-.61.43-.93.03-.11-.28-.3-.43-.46-.17.3-.33.6-.49.9ZM323.97,88.76c-.16-.29-.33-.59-.5-.9-.15.15-.46.34-.43.46.07.33.28.62.43.93.15-.15.31-.31.5-.49ZM319.8,133.25c-.16-.29-.33-.59-.49-.9-.15.15-.46.34-.43.46.07.33.28.62.43.93.15-.15.31-.31.49-.49ZM330.93,88.76c-.16-.29-.33-.59-.49-.9-.15.15-.46.34-.43.46.07.33.28.62.43.93.15-.15.31-.31.5-.49ZM237.22,18.35c-.15.15-.46.34-.44.46.07.33.28.62.44.93.15-.15.46-.34.43-.46-.07-.33-.28-.62-.43-.93ZM147.68,138.81l.49.49c.15-.31.36-.61.43-.93.03-.11-.28-.3-.43-.46-.17.3-.33.6-.5.9ZM141.02,140.49c.29-.16.59-.33.9-.49-.15-.15-.34-.46-.46-.43-.33.07-.62.28-.93.43l.5.49ZM221.71,91.83c.29-.16.59-.33.9-.49-.15-.15-.34-.46-.46-.43-.33.07-.62.28-.93.43.15.15.31.31.5.49ZM308.87,140c-.15-.15-.34-.46-.46-.43-.33.07-.62.28-.93.43.15.15.34.46.46.43.33-.07.62-.28.93-.43ZM123.34,98.79c.19-.19.34-.34.49-.49-.31-.15-.61-.36-.93-.43-.11-.03-.3.28-.46.43.3.17.6.33.9.49ZM232.55,50.82c.16.29.33.59.49.9.15-.15.46-.34.44-.46-.07-.33-.28-.62-.43-.93-.15.15-.31.31-.5.49ZM226.58,52.61c-.16-.29-.33-.59-.5-.9-.15.15-.46.34-.44.46.07.33.28.62.44.93.15-.15.31-.31.49-.49ZM321.39,98.29c-.15-.15-.34-.46-.46-.43-.33.07-.62.28-.93.43.15.15.34.46.46.43.33-.07.62-.28.93-.43Z"/>
      <path class="cls-1" d="M251.83,168.26h-9.19c.29-3.49.77-6.74.8-10,.1-11.11.06-22.22,0-33.33,0-1.47-.45-2.94-.76-4.84,1.38-.06,3.32-.19,5.27-.24,2.06-.05,4.11-.01,6.5-.01-.89,1.92-1.86,3.49-.7,5.47,1.41,2.39,2.07,5.29,3.72,7.45,4.78,6.26,7.3,13.68,11.06,20.45.28.51.57,1.02,1.33,2.35.74-1.5,1.13-2.32,1.54-3.13,4.25-8.42,8.38-16.92,12.84-25.23,1.38-2.58,1.48-4.55-.59-7.01h14.12c-.98,1.91-3.01,2.89-2.94,5.56.31,13.16.14,26.33.14,39.15,1.22.85,2.14,1.49,4.1,2.85-4.94,1.2-8.64.61-13.68.75,1.71-1.71,2.46-2.46,3.75-3.74v-35.97c-6.75,13.42-13.04,25.94-19.75,39.29-7.37-13.12-13.14-25.98-20.33-39.77v10.79c0,6.48.06,12.96-.03,19.44-.04,3.03-.2,5.95,2.77,7.94.32.22.04,1.32.04,1.78Z"/>
      <path class="cls-1" d="M143.31,171.28c-1.05-.82-2-1.85-3.18-2.39-1.14-.52-2.51-.53-4.62-.91,4.4-4.19,8.76-7.39,11.66-12.15,2.74-4.51,6.57-8.36,10.25-12.9-2.95-3.87-5.74-7.68-8.69-11.37-3.04-3.81-6.22-7.51-9.51-11.46h13.28c-4.43,2.27-1.38,4.71-.66,5.83,2.54,3.9,5.86,7.29,9.33,11.39,3.07-3.75,5.83-7.1,8.56-10.47.69-.85,1.14-1.96,1.96-2.63,1.91-1.57.1-2.63-.45-4.12h10.89c-5.24,6.37-10.26,12.6-15.43,18.7-1.4,1.65-1.68,2.98-.39,4.79,1.9,2.66,3.34,5.69,5.49,8.1,3.43,3.82,6.66,7.71,9.4,12.08.87,1.38,4.01,1.05,3.79,4.53-3.43.48-7.01.07-10.99.26-.33-2.67-.43-5.04-2.29-7.49-3.52-4.62-6.77-9.4-11.17-13.49-4.3,5.4-8.61,10.82-13.17,16.56.4.84,1.51,2.1,1.33,3.13-.18,1-1.69,1.77-2.62,2.64-.58-.46-1.22-1.38-1.73-1.31-1.68.22-.86,1.71-1.05,2.7Z"/>
      <path class="cls-1" d="M199.2,165.45c.87.23,1.5.39,2.13.55.99,1.46-3.07,3.77-9.01,4.58,2.5.52,3.84.8,5.71,1.2-.62.98-1.25,2.24-1.4,2.19-2.58-.93-3.04,1.39-4.15,3.04-.48-3.67-.9-6.91-1.42-10.94,1.54-1.13,2.49-3.31,2.42-6.33-.23-11.1-.18-22.21-.03-33.31.04-2.59-.77-4.39-2.84-5.73.18-.25.27-.45.43-.57.16-.13.38-.27.57-.27,13.4-.01,26.81-.01,40.14-.01.45-1.01.82-1.85,1.77-4v10.46c-5.5-1.7-11.3-.7-17.03-.86-5.73-.16-11.48-.03-17.37-.03v15.29c6.62,0,13.27.15,19.91-.11,1.53-.06,3-1.53,4.67-2.44v8.9c-4-.26-7.92-.63-11.86-.75-4.13-.13-8.27-.03-12.64-.03v19.19Z"/>
      <path class="cls-1" d="M154.51,142.41c-2.31,2.64-4.36,5-6.92,7.93-3.63.43-8.01.53-11.36-3.62.61-2.19,1.76-3.48,4.3-3.27,4.05.34,7.92-.33,11.53-2.35.36-.2,1.33.69,2.44,1.31Z"/>
      <path class="cls-1" d="M269.96,176.19c.9-.96,1.8-1.91,3.15-3.36-1.15-.69-2.28-1.37-3.37-2.02,1.91-2.24,3.75,1.64,5.22-.74.17.62.66,1.65.47,1.8-2.21,1.68-.21,2.47.66,3.5.8-1.86,1.6-3.74,2.63-6.14.76,1.6,1.19,2.49,1.75,3.67.4-1.11.69-1.91.96-2.67h6.55c0,.24.02.48.03.71-1.71.19-3.42.37-5.35.59v3.68c1.6.17,3.45.37,5.31.57-.01.25-.03.51-.04.76h-6.52c-.29-.84-.58-1.65-.9-2.58-.95,1.5-.99,3.6-3.65,2.98-1.31-.31-2.43-.53-3.61-1.29-.52-.34-1.97.75-2.99,1.2-.1-.22-.2-.43-.3-.65Z"/>
      <path class="cls-1" d="M213.01,176.35v-6.44c1.13,1.09,1.86,2.28,2.9,2.69,2.09.82,2.43-1.08,3.02-2.58h10.37v6.67c-.24.02-.49.05-.73.07-.19-1.63-.38-3.26-.6-5.19h-3.48c-.08.22-.54.86-.44,1.38.21,1.03.89,1.98,1.03,3.01.04.3-1.06.77-1.47,1.05-2.4-1.44.95-5.53-3.75-5.93v5.93c-1.32-.25-2.08-.4-3.02-.58.67-.77,1.1-1.25,1.53-1.74-2.77-1.72-4.11-.45-5.37,1.68Z"/>
      <path class="cls-1" d="M305.97,143.69v4.88c-2.58.72-5.04,1.41-7.9,2.21v-7.09h7.9Z"/>
      <path class="cls-1" d="M161.45,176.12c-1.21-1.12-1.69-1.57-2.56-2.38-.92.92-1.83,1.83-2.79,2.79-1.8-.99,1.98-5.26-3.02-5.24v5.3c-.33.04-.67.07-1,.11-.2-1.55-.4-3.1-.62-4.86-.71-.32-1.65-.75-3.5-1.6h14.99c-.45,1.77-.9,3.53-1.5,5.89ZM161.21,172.4c-.05-.4-.1-.8-.15-1.2-1.22.18-2.43.35-3.65.53.68.79,1.31.93,1.93.93.62,0,1.24-.16,1.87-.25Z"/>
      <path class="cls-1" d="M247.18,170.11c-2.85,1.21-4.73,2.01-7.16,3.04,1.73,1.18,2.8,1.91,5.04,3.44-.74-2.05-1.01-2.79-1.31-3.61,2.46-.99,3.08.89,4.26,2.75-1.34.81-2.55,1.54-3.72,2.24-1.06-.49-2.25-.91-3.31-1.55-1.52-.93-2.21-2.52-1.61-4.1.54-1.42,1.61-2.74,3.61-2.44,1.06.16,2.15.13,4.19.23Z"/>
      <path class="cls-1" d="M202.81,175.12c.38-1.23.54-2.86,1.34-4.06,1.4-2.09,3.61-1.03,6.85-.89-2.83,1.1-4.6,1.79-6.57,2.56,3.11,3.3,3.33,3.3,5.08-.75.49,1.73.85,3,1.26,4.43-.27.16-1.48.87-2.72,1.59-1.54-.84-3.19-1.75-5.23-2.87Z"/>
      <path class="cls-1" d="M187.56,171c-1.28.2-2.55.39-4.49.69,1.54.74,2.44,1.17,3.9,1.87-1.93.38-3.33.65-4.74.93,0,.22.01.45.02.67,1.84.22,3.67.44,5.51.66-.02.25-.04.5-.06.75h-6.7v-6.42h6.61c-.02.29-.04.57-.06.86Z"/>
      <path class="cls-1" d="M268.62,171.08c-1.76.17-2.85.28-3.85.38-.14.32-.21.49-.28.65,1.25.31,2.5.63,4.83,1.22-2.2.53-3.48.83-5.93,1.41,2.37.54,3.68.83,4.99,1.13.01.2.03.39.04.59-1.62.17-3.23.34-5.47.57,0-2.27-.44-4.41.15-6.21.4-1.24,2.23-2.01,3.56-3.12.39.68,1.06,1.83,1.96,3.38Z"/>
      <path class="cls-1" d="M251.83,168.5c.98.18,2.14-.52,2.83.99.73,1.6.57,3.81,2.73,4.57v3.94c-1.7-2.46-2.59-3.75-3.71-5.37-.3,1.44-.57,2.77-1.11,5.33-1.16-3.9-.58-6.72-.75-9.46Z"/>
      <path class="cls-1" d="M168.73,173.41c-1.47.53-2.27.82-3.94,1.43,2.21.44,3.59.72,4.96,1l-.02.74c-1.69.1-3.38.2-5.33.31v-6.67h4.94c.05.17.11.35.16.52-1.22.31-2.44.62-4.41,1.12,1.4.6,2.23.95,3.63,1.55Z"/>
      <path class="cls-1" d="M175.8,177.05c-.66-1.11-1.33-2.23-2.22-3.73-.8,1.69-1.21,2.58-2.06,4.38v-8.97c2.32,3.05,4.92,4.51,4.28,8.31Z"/>
      <path class="cls-1" d="M257.3,174.41c.18-2.78,1.19-4.68,3.52-6.66,1.22,3.43.6,6.2-.21,9.04-.27-1.37-.55-2.74-.84-4.22-.9.67-1.57,1.17-2.47,1.84Z"/>
      <path class="cls-1" d="M198.2,107.62c.7,6.03-.43,8.03-4.72,9.26.99-1.57,1.93-2.89,2.67-4.31.67-1.27,1.11-2.66,2.05-4.95Z"/>
      <path class="cls-1" d="M235.12,174.34c-.8-.59-1.47-1.09-2.37-1.77-.3,1.49-.57,2.86-.84,4.23-.22-.02-.44-.05-.66-.07v-6.89c2.8.23,4.01,1.57,3.87,4.5Z"/>
      <path class="cls-1" d="M146.09,169.89c-.45,2.69.32,4.86,3.17,6.15-3.41,2.22-3.78-2.12-5.96-1.97v-2.78c.93-.46,1.85-.93,2.78-1.39Z"/>
      <path class="cls-1" d="M296.35,175.45c-1.63,2.82-4.3.55-6.94,1.95.31-2.55-1.17-4.62,1.38-6.12v4.17h5.56Z"/>
      <path class="cls-1" d="M228.18,112.89c.54,1.11,1.08,2.22,1.9,3.92-1.75.12-2.99.21-4.69.32v-4.24h2.78Z"/>
      <path class="cls-1" d="M290.78,171.28c1.5-2.27,3.57-1.72,5.39-.78,1.78.92,2.02,2.69,1.28,4.49-.11.26-.72.31-1.1.46-.58-3.86-.91-4.11-5.56-4.17Z"/>
      <path class="cls-1" d="M179.31,169.21v7.03q-3.07-3.24,0-7.03Z"/>
      <path class="cls-1" d="M237.6,168.97v7.53q-1.91-1.52,0-7.53Z"/>
      <path class="cls-1" d="M200.6,177.17v-7.32c2.21,1.81-.07,5.07,2.53,6.27-.71.29-1.42.59-2.53,1.05Z"/>
      <path class="cls-1" d="M178.3,116.56c-2.37.87-3.43.62-2.62-2.54.97.94,1.69,1.64,2.62,2.54Z"/>
      <path class="cls-1" d="M256,112.89c2.08.12,1.18,1.73,1.39,2.78-2.08-.12-1.18-1.73-1.39-2.78Z"/>
      <path class="cls-1" d="M116.88,105.94c-1.05-.21-2.66.69-2.78-1.39,1.05.21,2.66-.69,2.78,1.39Z"/>
      <path class="cls-1" d="M251.83,104.55c2.08.12,1.18,1.73,1.39,2.78-2.08-.12-1.18-1.73-1.39-2.78Z"/>
      <path class="cls-1" d="M272.7,98.99v-2.78c2.08.12,1.18,1.73,1.39,2.78h-1.39Z"/>
      <path class="cls-1" d="M254.61,110.11c-2.08-.12-1.18-1.73-1.39-2.78,2.08.12,1.18,1.73,1.39,2.78Z"/>
      <path class="cls-1" d="M4.19,57.28c-.45,0-.96.12-1.35-.03-.45-.17-.8-.59-1.19-.9.39-.15.77-.37,1.18-.44.44-.08.91-.02,1.36-.02v1.39Z"/>
      <path class="cls-1" d="M269.91,44.77c2.08.12,1.18,1.73,1.39,2.78-2.08-.12-1.18-1.73-1.39-2.78Z"/>
      <path class="cls-1" d="M268.52,89.25c2.08.12,1.18,1.73,1.39,2.78-2.08-.12-1.18-1.73-1.39-2.78Z"/>
      <path class="cls-1" d="M256,112.89c-2.08-.12-1.18-1.73-1.39-2.78,2.08.12,1.18,1.73,1.39,2.78Z"/>
      <path class="cls-1" d="M268.52,101.77c.46.46.93.93,1.39,1.39h-1.39v-1.39Z"/>
      <path class="cls-1" d="M268.52,103.16c-.46.46-.93.93-1.39,1.39.46-.46.93-.93,1.39-1.39Z"/>
      <path class="cls-1" d="M271.3,104.55c-.46-.46-.93-.93-1.39-1.39.46.46.93.93,1.39,1.39Z"/>
      <path class="cls-1" d="M276.76,103.97c-.16.16-.39.46-.44.43-.3-.16-.56-.4-.84-.62.21-.21.41-.41.62-.62.22.27.44.54.66.81Z"/>
      <path class="cls-1" d="M174.41,105.74c-.19-.19-.34-.34-.5-.49.31-.15.61-.36.93-.43.11-.03.3.28.46.43-.3.17-.6.33-.9.49Z"/>
      <path class="cls-1" d="M272.7,105.94c-.46-.46-.93-.93-1.39-1.39.46.46.93.93,1.39,1.39Z"/>
      <path class="cls-1" d="M268.52,107.33l.93-1.15c.15.38.31.77.46,1.15h-1.39Z"/>
      <path class="cls-1" d="M273.97,106.75c-.16.16-.39.46-.44.43-.3-.16-.56-.4-.84-.62.21-.21.41-.41.62-.62.22.27.44.54.66.81Z"/>
      <path class="cls-1" d="M269.91,107.33c.46.46.93.93,1.39,1.39h-1.39v-1.39Z"/>
      <path class="cls-1" d="M271.3,108.72c.38.31.77.62,1.15.93-.38.15-.77.31-1.15.46v-1.39Z"/>
      <path class="cls-1" d="M437.67,78.25c.16.16.46.39.43.44-.16.3-.4.56-.62.84-.21-.21-.41-.41-.62-.62.27-.22.54-.44.81-.66Z"/>
      <path class="cls-1" d="M180.67,115.18c-.19.19-.34.34-.49.49-.15-.31-.36-.61-.44-.93-.03-.11.28-.3.44-.46.17.3.33.6.49.9Z"/>
      <path class="cls-1" d="M258.67,116.48c-.16.16-.39.46-.44.43-.3-.16-.56-.4-.84-.62.21-.21.41-.41.62-.62.22.27.44.54.66.81Z"/>
      <path class="cls-1" d="M240.58,117.87c-.16.16-.39.46-.44.43-.3-.16-.56-.4-.84-.62.21-.21.41-.41.62-.62.22.27.44.54.66.81Z"/>
      <path class="cls-1" d="M240.11,1.78c.16.16.46.39.43.44-.16.3-.4.56-.62.84-.21-.21-.41-.41-.62-.62.27-.22.54-.44.81-.66Z"/>
      <path class="cls-1" d="M271.19,92.84c-.16.16-.39.46-.44.43-.3-.16-.56-.4-.84-.62.21-.21.41-.41.62-.62.22.27.44.54.66.81Z"/>
      <path class="cls-1" d="M272.07,96.21c-.21-.27-.43-.55-.64-.82.29-.09.78-.32.84-.23.22.29.29.69.42,1.05-.21,0-.41,0-.62,0Z"/>
      <path class="cls-1" d="M274.09,98.99c.38.31.77.62,1.15.93-.38.15-.77.31-1.15.46v-1.39Z"/>
      <path class="cls-1" d="M141.92,175.45c.46-.46.93-.93,1.39-1.39-.46.46-.93.93-1.39,1.39Z"/>
      <path class="cls-1" d="M141.92,176.07c-.27.21-.55.43-.82.64-.09-.29-.32-.78-.23-.84.29-.22.69-.29,1.05-.42,0,.21,0,.41,0,.62Z"/>
      <path class="cls-1" d="M162.67,176.26c-.16.16-.39.46-.44.43-.3-.16-.56-.4-.84-.62.21-.21.41-.41.62-.62.22.27.44.54.66.81Z"/>
      <path class="cls-1" d="M353.39,43.38v1.39h-6.7c2.93-2,4.93-1.08,6.7-1.39Z"/>
      <path class="cls-1" d="M94.62,44.77v-1.39h6.7c-2.93,2-4.93,1.08-6.7,1.39Z"/>
      <path class="cls-1" d="M265.63,46.96c-.16.16-.39.46-.44.43-.3-.16-.56-.4-.84-.62.21-.21.41-.41.62-.62.22.27.44.54.66.81Z"/>
      <path class="cls-1" d="M268.32,53.6c-.16.29-.33.59-.49.9-.15-.15-.46-.34-.44-.46.07-.33.28-.62.44-.93.15.15.31.31.49.49Z"/>
      <path class="cls-1" d="M235.6,89.77c-.21-1.47-.34-2.38-.47-3.29.46.54,1,1.03,1.35,1.63.1.19-.34.68-.87,1.66Z"/>
      <path class="cls-1" d="M237.91,91.26c-.27.21-.55.43-.82.64-.09-.29-.32-.78-.23-.84.29-.22.69-.29,1.05-.42,0,.21,0,.41,0,.62Z"/>
      <path class="cls-1" d="M251.83,73.19c-.27.21-.55.43-.82.64-.09-.29-.32-.78-.23-.84.29-.22.69-.29,1.05-.42,0,.21,0,.41,0,.62Z"/>
      <path class="cls-1" d="M233.74,101.77v-1.39c.46.46.93.93,1.39,1.39h-1.39Z"/>
    </g>
  </g>
</svg>