<?xml version="1.0" encoding="UTF-8"?>
<svg id="Capa_2" data-name="Capa 2" xmlns="http://www.w3.org/2000/svg" viewBox="0 0 202.82 178">
  <defs>
    <style>
      .cls-1 {
        fill: #000;
        stroke-width: 0px;
      }
    </style>
  </defs>
  <g id="Capa_1-2" data-name="Capa 1">
    <path class="cls-1" d="M0,160.27c7.46-11.94,14.95-23.87,22.39-35.83C47.55,83.98,72.7,43.49,97.86,3.02c.57-.92,1.22-1.79,2.06-3.02,3.74,5.91,7.31,11.53,10.87,17.16,17.09,27.01,34.19,54.03,51.28,81.04,12.87,20.35,25.75,40.69,38.63,61.03.63,1,1.41,1.9,2.12,2.85v7.8h-34.89c1.18,2.88,2.14,5.22,3.26,7.96-5.66,0-10.87-.34-16.01.1-4.52.39-7.43-.85-8.63-5.38-.57-2.16-1.99-2.75-4.22-2.74-47.44.07-94.89.06-142.33.06C0,166.67,0,163.47,0,160.27ZM99,84.08c-1.59,0-2.77,0-3.95,0-10.9,0-21.8.07-32.69-.06-2.27-.03-3.58.66-4.78,2.61-11.31,18.38-22.73,36.7-34.1,55.04-3.77,6.08-7.53,12.18-11.51,18.62h36.74c-4.25-8.27-8.32-16.2-12.68-24.68h43.38v-46.01h19.64c0,1.47,0,2.74,0,4.02,0,16.6-.05,33.2.02,49.79.03,6.12.47,12.27-5.61,16.8h12.69c-3.72-3.79-4.39-7.97-4.36-12.53.09-18.1.03-36.19.05-54.29,0-1.25.12-2.5.19-3.81h19.48v46.64h23.12c.16-.49.39-.86.39-1.24.05-14.6.16-29.2.04-43.79-.03-3.85-3.77-6.96-7.61-6.96-10.3,0-20.6,0-30.9,0-1.46,0-2.93,0-4.47,0,0-5.82-.47-11.24.12-16.55.68-6.08,5.09-9.31,11.21-9.29,3.64,0,7.27,0,11.54,0-8.56-13.52-16.74-26.44-25.13-39.68-8.35,13.45-16.43,26.47-24.85,40.04,4.65,0,8.61-.01,12.57,0,6.52.02,10.92,3.74,11.38,10.18.34,4.86.07,9.76.07,15.14ZM165,121.62c-.1,1.74-.19,2.58-.2,3.43-.01,7.68.1,15.36-.07,23.04-.06,2.64-.65,5.31-1.32,7.88-.72,2.74.15,4.23,2.99,4.24,6.98.02,13.96,0,20.94-.02.53,0,1.05-.19,1.88-.35-8.04-12.68-15.9-25.08-24.23-38.21Z"/>
  </g>
</svg>