<?xml version="1.0" encoding="UTF-8"?>
<svg id="Capa_2" data-name="Capa 2" xmlns="http://www.w3.org/2000/svg" viewBox="0 0 496.01 113.42">
  <defs>
    <style>
      .cls-1 {
        fill: #000;
        stroke-width: 0px;
      }
    </style>
  </defs>
  <g id="Capa_1-2" data-name="Capa 1">
    <g>
      <path class="cls-1" d="M.92.92C165.19.09,331.19-.77,495.23,1.21c1.67,35.84.03,72.46.59,108.5,0,.77-.03,1.46-.08,1.95-.09.82-.29,1.07-.56,1.08-39.83.78-387.47,1.2-494.74-.51C.31,75.5-.66,37.66.78,1.06l.14-.14ZM491.94,4.16C329.83,4.46,162.96.29,3.42,5.58c-.83,21.52-.51,93.53.41,103.33.02.18.08.33.23.44.34.3,1.39.38,2.87.38,161.51-.72,323.72,1.39,485.01-.73.51-.5.69-1.31.72-2.29-.53-34.06,1.09-68.58-.58-102.43l-.14-.14Z"/>
      <path class="cls-1" d="M489.09,8.83c1.66,30.77.05,62.28.58,93.36-.03.97-.21,1.79-.72,2.29-158.83,2.12-318.59,0-477.79.73-2.2.06-3.36-.91-3.3-3.01-.02-30.38-.02-60.66,0-91.08,0-2.18,1.1-3.09,3.3-3.01,159.18.58,318.81-1.12,477.79.58l.14.14ZM476.23,87.03c1.45-4.35-1.29-9.18-1.15-13.57.02-1.86-.52-3.64-1.14-5.38-.87-2.43-.02-4.99-.2-7.54-.12-2.25-1.13-4.35-1.37-6.57.15-11.34-2.31-22.61-1.92-33.93.2-2.45-.8-3.6-3.37-2.77-7.72,2.23-15.26,5.12-22.8,7.9-1.44.57-2.76,1.36-3.6,2.68-1.48,2.3-1.91,5.27-2.13,7.99-.21,3.55-1.01,7.11-1.51,10.69-.69,5.61-.39,11.38-2.01,16.84-1.41,11.01-4.83,21.52-5.88,32.58-.14,1.47-1.53,3.87.94,3.7,4.04-.31,7.81-1.83,11.33-3.15,2.13-.85,4.66-1.46,5.79-3.5,1.11-2.08,1.23-4.54,1.78-6.8.4-3.3,3.64-3.04,6.41-2.71,2.41.5,2.15,3.42,2.58,5.37.6,2.05,0,6.82,3.23,6.06,4.68-1.44,8.92-3.96,13.06-6.18.71-.39,1.38-.86,1.82-1.52l.13-.21ZM269.15,74.49c-.7,2.41-.08,5.07-.47,7.54-.53,3.86-3.71,13.04,3.09,13.2,2.41-.31,4.88-1.54,7.35-1.53,7.48-.24,14.98-.28,22.55-.1,4.29.17,10.56-.72,10.87-6.03.45-4.51,1.18-8.84,1.41-13.23-.15-3.12-6.72-1.44-8.84-1.87-2.8-.15-5.94.35-8.73-.24-.39-.14-.61-.35-.63-.64-.06-.55.72-1.41,1.19-1.92,8.48-9.49,17.64-18.1,25.53-27.78,1.55-3.92,2.11-8.31,2.71-12.4.25-1.99,1.55-4.26.92-5.55-1.19-1.71-4.32-1.09-6.18-1.22-10.84-.27-21.15.06-31.99,1.51-2.63.32-2.62,3.07-3.35,5.08-1.27,3.7-.64,7.64-.53,11.42-.04,2.76.97,4.12,3.88,3.39,2.56-.74,5.16-.71,8.14-.45,2.53.11,2.43,1,.74,2.58-9.37,9.81-19.4,18.32-27.57,28l-.09.24ZM400.6,28.72c-3.04,11.05-4.71,22.03-6.8,32.93-1.66,10.74-4.72,21.47-6.2,32.32-.23,1.58.08,2.73,1.88,2.45,2.77-.56,5.61-1.41,8.38-2,7.62-1.93,15.87-1.69,23.4-4.16,4.94-1.9,1.39-9.95,3.1-13.79,1.11-3.08,1.23-6.17-3.21-5.45-2.98.29-6.01.6-9.03.89-1.53.22-3.36-.17-2.99-2.13,1.83-8.07,3.39-16.26,5.41-24.29,1.48-6.39,3.72-12.71,4.52-19.22.17-1.63-.86-2.54-2.39-2.34-3.27.39-6.53.91-9.81,1.36-2.4.23-5.03.99-6.13,3.18l-.13.25ZM347.32,92.7c.33.35,1.46.14,2.09.02,10.74-2.02,21.33-3.45,31.71-5.07,1.5-.32,2.28-1.5,2.43-2.96.49-4.91,1.23-9.86,1.53-14.9-.02-1.41-1.2-1.85-2.44-1.81-4.58.08-9.14-.4-13.73,1.1-4.85,1.64.48-8.94.72-10.94,2.26-7.73,4.34-15.38,6.39-23.1.86-3.84,2.82-7.38,2.89-11.38.1-2.03-1.23-3.05-3.07-2.68-3.84.76-7.63,1.08-11.5,1.82-4.11.64-5.32,4.79-5.73,8.45-2.35,13.91-5.33,27.62-8.18,41.43-.68,3.63-.48,7.4-1.78,10.89-.76,2.36-.3,5.13-1.19,7.51-.22.7-.37,1.23-.21,1.52l.07.1ZM335.48,23c-.49.37-.77.98-.95,1.72-4.15,21.36-8.46,42.84-12.49,64.27-.31,1.41-.07,3.21,1.56,3.47,1.38.26,2.84-.3,4.15-.73,3.32-1.39,7.94-.63,10.91-2.99,2.63-4.1,2.65-9.8,3.21-14.59.84-7.06,2.21-14.26,4.14-21.16,1.57-4.79,2.34-9.8,3.68-14.63.81-2.89,2.04-5.6,2.34-8.58.27-2.8,2.47-6.45.92-9.04-.41-.47-1.12-.47-1.73-.35-2.09.71-4.64.26-6.84.64-2.04.44-3.4,1.6-5.44,1.5-1.08,0-2.32-.19-3.28.36l-.19.13ZM212.69,92.85c.67.6,1.97.61,2.96.6,13.58,0,26.55.03,39.6-.02,3.92.12,6.34-1.12,6.25-5.37.11-4.19.05-8.29.03-12.67.1-2.14-1.31-3.23-3.36-3.09-7.31,0-14.44,0-21.47,0-2.77.23-3.87-1.37-3.43-3.97.18-1.72,1.76-2.14,3.24-2.11,6.41-.01,12.76.01,19.05-.01,1.9.12,3.08-1.25,2.96-3.11.02-4.3.08-8.39-.04-12.46.02-3.88-2.62-6.02-6.36-4.62-2.97,1.05-6.58.9-9.77.91-3.07.15-5.87.02-8.1-2.6-.79-.75-1.98-1.99-.41-2.7,7.56-1.83,15.66-.05,23.53-.94,1.56-.12,2.35-1.35,2.35-2.84.05-5.62.02-11.11.01-16.54.04-1.71-.86-2.94-2.73-2.92-13.23-.06-26.31-.03-39.41-.01-3.02-.1-6.94.31-7.02,4.17-1.32,9.64,1.11,18.89,1.39,28.45-.18,12.91-.09,25.79-.05,39.1,0,.89.06,2.05.61,2.62l.15.14ZM205.12,95.59c.53-.57.6-1.73.59-2.62-.02-13.18.03-26.01-.02-38.75.01-1.84-1.27-2.73-2.99-2.67-4.36-.02-8.7-.02-13.06,0-1.59-.07-2.94.81-2.96,2.49-.48,3.98,1.24,9.1-2.22,12.04-3.15,2.35-7.14,4.81-10.93,4.34-5.81-.51-10.83-6.62-11.07-12.44-.57-6.85.52-13.82,7.86-16.64,2-.91,3.94-1.77,6.08-1.19,3.28,1.04,6.72,2.28,8.77,5.27.72.95,1.57,2.14,2.84,2.16.78.03,1.6-.35,2.32-.72,3.99-2.23,7.86-4.41,11.64-6.54,1.99-.92,2.46-2.87,1.36-4.77-4.81-9.55-13.61-17.37-24.43-18.31-11.33-1.74-21.37,3.37-28.1,12.06-6.78,8.02-10.73,18.33-9.3,28.45.78,9.96,4.39,18.75,11.71,25.65,6.47,7.42,15.13,11.24,25.31,9.21,2.35-.22,5.51-1.61,7.31.28.73.95.72,2.56,1.8,3.03,4.87.99,10.13.13,15.09.4.79,0,1.76-.11,2.28-.6l.14-.14ZM83.05,39.9c-10.99-28-47.61-28.46-60.23-1.54-3.4,6.76-3.78,14.96-3.62,22.55.12,4.32,1.68,8.37,3,12.5,1.13,3.67,3.53,6.33,6.05,9.2,3.28,5.72,8.98,8.48,14.96,10.75,9.58,3.95,20.15,1.38,28.4-4.41,4.45-2.86,17.34-16.4,7.9-20.05-3.53-1.63-7.08-3.18-10.79-4.66-2.82-1.25-4.06.63-5.61,2.61-12.85,13.54-29.95-3.78-21.22-18.53,6.58-9,14.04-9.2,21.28-.88,1.24,1.51,2.87,1.97,4.59,1.08,4.52-2.23,8.91-4.5,13.46-6.8.73-.39,1.53-.88,1.79-1.62l.05-.2ZM149.09,91.17c.59-.93-.38-3.09-.8-4.66-.46-1.46-.99-2.81-1.63-4.22-5.42-12.48-12.7-24.42-17.22-37.2-3.6-6.05-6.09-12.52-8.89-18.98-2.51-5.4-6.6-9.22-11.41-3.31-9.08,20.32-17.87,40.77-26.53,61.4-.92,2.35-2.92,6.92.7,7.58,4.17.24,8.43.04,12.55.09.92-.03,1.92-.14,2.72-.55,1.44-.68,2.05-2.59,3.13-3.76,1.26-1.4,3.13-1.59,4.98-1.6,5.33.22,10.6-.02,15.95.08,3.34.11,4.72.53,6.58,2.73.58.68,1.19,1.45,1.88,2.01.61.52,1.64,1.02,2.5,1.06,4.14.09,8.52.02,13.33.04.75-.01,1.57-.06,2.05-.57l.11-.15Z"/>
      <path class="cls-1" d="M449.73,70.11c-.17-.18-.2-.54-.14-1.01,1.59-10.11,3.09-19.67,4.78-30.33.48-2.58,1.11,3.6,1.02,4.15.03,7.72-.53,15.67,1.63,23.34.48,2.1-1.99,2.31-3.46,2.93-1.2.3-2.49,1.19-3.72,1.01l-.12-.09Z"/>
      <path class="cls-1" d="M254.54,62.8c-.49.46-1.31.59-2.02.61-4.27.02-8.55-.02-12.8,0-2.66.17-5.97-.45-8.37,1.05-1.46,1.14-1.5,4.87-1.13,7.35.41,3.49,4.11,3.68,6.9,3.64,5.84.03,11.71,0,17.94.01.87.02,1.87.08,2.53.57,1.05.69.96,2.45.96,4.13,0,1.5.02,2.98-.03,4.48.11,6.07-2.76,5.79-7.78,5.84-10.58.03-21.1.01-32.09,0-1.92.12-3.73-.53-3.68-2.72-.16-13.91.18-27.9-.15-41.84-.34-5.03-1.56-9.99-1.61-15.06.35-3.94-1.07-8.67,4.64-7.94,12.1.52,24.16-1.24,36.22-1.52,1.66-.06,2.72.97,2.71,2.6.04,3.56.04,7.23,0,10.9.05,1.76-1.21,2.86-2.95,2.77-6.11.03-12.37,0-18.56.01-2.86-.23-4.73,1.83-5.83,4.35-.66,1.4-.52,2.8.29,4.22,1.02,2.15,2.62,3.7,5.03,3.6,5.81.03,11.62,0,17.49.02.82.02,1.73.15,2.28.69,1.03.93.66,3.18.73,5.03-.17,2.08.49,5.55-.6,7.07l-.14.15Z"/>
      <path class="cls-1" d="M200.3,36.91c-.18.56-.68,1.01-1.19,1.36-2.92,1.49-5.74,4.1-9.04,4.75-1.57.13-3.3-1.08-4.87-2.19-6.62-4.57-10.87-6.89-17.94-1.7-11.75,7.02-10.78,28.02,2,33.55,8.24,4.4,19.13-2.41,20.02-11.34.38-1.87-.28-4.11.73-5.78.46-.65,1.3-.91,2.12-1,2.43-.14,5.06-.18,7.5-.15,2.36-.09,3.48,1.52,3.32,3.79.02,10.45.02,20.94.02,31.65.05,1.51-.42,3.11-2.11,3.26-1.5.17-3.08.05-4.6.08-2.45-.05-5.16.34-6.7-1.31-1.15-1.27-2.35-2.63-4.22-2.6-4.34.03-8.62,1.53-13,1.03-9.68-1.09-18.39-8.08-23.27-16.11-10.92-18.13-3.26-46.71,17.9-52.75,3.33-.49,6.64-1.92,9.96-1.5,4.85,1.16,9.99,2.19,14.01,5.56,3.45,2.71,6.51,5.76,8.83,9.26.37.58.71,1.33.58,1.96l-.05.19Z"/>
      <path class="cls-1" d="M78.41,38.67c-.23.56-.81.98-1.36,1.3-2.78,1.48-5.63,2.97-8.47,4.44-1.27.69-2.79.74-3.91-.27-3.28-3.24-7.05-6.69-11.99-6.27-9.57.56-16.1,9.8-16.73,18.79.61,9.66,8.91,20.33,19.45,18.59,2.83-.63,5.35-2.43,7.62-4.5,1.68-1.45,3.08-3.57,4.88-3.31,3.45.95,6.44,3.02,9.84,4.5,1.16.55,2.25,1.48,1.77,2.88-3.35,6.7-8.63,11.54-14.75,14.31-4.54,1.86-10.26,3.5-15.02,2.7-2.65-.64-5.16-1.68-7.78-2.55-10.81-3.88-16.34-13.32-19.12-24-5.12-20.5,8.23-44.34,31.3-43.56,9.54.49,19.37,6.16,23.91,14.69.34.65.63,1.4.44,2.08l-.07.19Z"/>
      <path class="cls-1" d="M114.12,22.83c2.4.14,3.51,3.45,4.1,5.51.81,2.88,3.02,5.37,4.36,8.25,2.31,4.58,3.82,9.57,5.92,14.22,4.85,10.21,10.8,20.34,14.73,30.9.61,2.29,3.56,7.08-.47,7.46-3.43.04-7.36.85-10.2-1.34-1.39-1.28-2.38-3.08-4.03-3.75-1.75-.82-3.81-.85-5.73-.88-6.33.01-12.66-.02-19.17.02-3.25-.19-4.65,2.93-6.83,4.7-2.78,1.91-6.92.72-10.27,1.03-1.54.06-3.14-.47-2.3-2.34,2.4-5.09,4.89-9.98,6.63-15.37,2.43-4.36,3.88-9.39,5.99-13.98,5.12-9.87,8.96-20.32,13.61-30.38.75-1.5,1.77-3.8,3.46-4.02h.24ZM113.86,54.61c-2.49,4.16-5.79,8.36-5.46,12.69.1.2.28.32.53.39,1.7.15,3.63.02,5.37.06,1.92-.09,3.93.2,5.81-.15.18-.1.29-.28.31-.51-.59-4.71-2.98-8.98-6.41-12.5h-.16Z"/>
      <path class="cls-1" d="M115.41,60.21c.36,1.07.48,1.11.39,1.6-.13.98.6,2.42-.67,2.94-1.28.54-2.42-.22-2.31-1.54.24-1.28,1.73-2.15,2.48-3h.11Z"/>
    </g>
  </g>
</svg>