<?xml version="1.0" encoding="UTF-8"?>
<svg id="Capa_2" data-name="Capa 2" xmlns="http://www.w3.org/2000/svg" viewBox="0 0 342.91 124.45">
  <defs>
    <style>
      .cls-1 {
        fill: #000;
        stroke-width: 0px;
      }
    </style>
  </defs>
  <g id="Capa_1-2" data-name="Capa 1">
    <g>
      <path class="cls-1" d="M201.68,46.06c.69-.32,1.4-.27,2.1-.33,3.22-.3,6.39.21,9.7-.88,3.57-1.18,7.44.27,11.22,1.14.43,1.61,1.1,3.33,1.32,5.11.24,1.91.05,3.88.05,5.76-1.2,1.85-4.38,1.63-4.52,4.49,0,.12-.59.3-.9.29-1.86-.06-2.36,1.09-3.23,2.55-.93,1.55-1.47,3.5-.73,4.29,1.87,2.03.44,3.5-.22,5.07-.51,1.22-1.78,2.11-.08,3.49.62.5.73,1.84.76,2.8.02.86-.59,1.72-.6,2.59-.06,4.95-.03,9.89-.03,14.77-1.93,2.07-4.21,2.64-6.94,2.74-5.4.19-10.6-1.96-16.02-1.14-1.63.25-3.27.48-5.16.76-.29-.38-.77-1.6-1.41-1.69-.82-.12-1.77.67-3.09,1.26-.11-1.43-.37-2.58-.24-3.69.11-.94.92-1.83.94-2.75.03-1.05-1-2.76-.64-3.05,1.55-1.27-.58-1.61-.41-2.54.32-1.68.29-3.42.47-5.13.03-.27.59-.65.54-.73-1.51-2.26-1.69-4.52-1.08-7.26.6-2.7.13-5.63.13-8.67,1.24-.57,2.55-1.18,4.25-1.96,0-2.52-.33-5.36.1-8.08.37-2.38,1.6-4.63,2.62-7.41h3.8c-.45-.62-.61-1.03-.77-1.03-1.76-.05-3.52-.03-5.27-.03-.62-2.29-1.87-3.66-4.72-3.07,0-2.19-.06-4.1.01-6,.11-2.71-.62-5.54,1.05-8.05-1.87-2.48-.93-5.36-1.02-8.05-.09-2.88.78-3.65,3.77-3.44,1.82.13,3.6.68,5.4,1.02,1.64.31,3.54-.78,4.94.89,4.38.45,8.76.9,13.14,1.35.06-.21.11-.43.17-.64-1.08-.41-2.12-.95-3.24-1.21-1.15-.27-2.38-.22-3.56-.4-2.16-.32-4.3-.72-6.46-1.04-2.16-.32-4.27.12-6.54-.88-2.06-.9-4.83-.19-7.78-.19.64-5.04-1.13-10.07,1.55-14.75.22-.04.38-.11.54-.11,10.08,0,20.17,0,30.25,0,2.42,2.75,2.52,6.44,1.49,9.2-1.13,3.04.14,6.18-1.42,8.96-.14.25,0,.92.24,1.08,2.24,1.53,1.95,4.1,1.2,5.71-1.63,3.5-.95,6.56.48,9.92h8.07c.51-2.42-.38-5.28,1.15-7.76.35-.56-.06-1.66-.27-2.47-.59-2.19-.09-3.29,1.82-3.37,2.61-.1,5.23-.03,8.01-.03-.64-1.8-1.71-2.23-3.2-2.14-1.59.09-3.19.08-4.78,0-1.59-.07-2.48-.97-2.58-2.58-.04-.71-.23-1.52.03-2.11,1.87-4.17.63-8.57,1.13-13.09h32.71c0,6.13.04,12.27-.07,18.41,0,.51-.94,1-1.63,1.7-3.22-.4-6.59-1-9.98-1.2-3.47-.21-6.97-.05-10.48.77,1.28.08,2.58.37,3.83.21,6.12-.76,11.99,1.71,18.25,1.03v18.7c1.18.92,2.27,1.75,3.35,2.59.36.28.89.5,1.02.86.84,2.27,1.54,13.29,1.09,16-.28,1.65-1.31,2.3-2.93,2.26-.68-.02-1.51-.1-2,.25-.44.31-.49,1.16-.8,2-5.87-.4-11.83-.25-17.51-1.42-3.11-.64-6.12-.48-9.2-.91q-2.51-2.6-3-6.49c-.8.35-1.51.65-2.38,1.03-.03-.04-.37-.26-.38-.48-.03-3.72-.05-7.43-.01-11.15.02-1.89-.81-2.82-2.7-3.04-1.99-.24-3.94-.83-5.94-1-2.11-.18-4.26-.22-6.36,0-3.37.35-6.68,1.34-10.12,1.21-.11,0-.25.57-.36,1.19.02.11.03-.11.03-.32-.87,0-1.75-.04-2.62,0-.9.05-1.8.17-2.69.26,1.34.79,2.65.82,3.96.77.45-.02.9-.26,1.32-.72Z"/>
      <path class="cls-1" d="M105.72,43.46h-4.02c1.08-2.89,2.2-5.56.25-8.29-.3-.42.44-1.52.59-2.32.11-.58.2-1.27,0-1.8-1-2.66-.68-5.15,0-7.91.77-3.11,1.75-5.95,3.41-8.7.71-1.18.91-2.34,2.56-2.75,1.55-.38,2.97-1.35,4.44-2.05,1.12,1.64,3.28.38,4.23,1.19,1.66,1.41,3.33.89,4.97.88,2.75,0,5.39.25,8.06,1.04,2.4.72,5.18-.81,7.53,1.08.43.35,1.37.04,2.08.05,2.72.03,5.47-.35,8.06,1.02.85.45,1.93.6,2.91.61.85.01,1.73-.61,2.55-.52,1.99.21,3.96.63,5.93,1.02,1.82.37,3.6-.17,5.58.6,2.3.89,5.16.36,7.77.45,2.94.1,3.41.69,3.59,3.73.27,4.63.8,9.25,1,13.88.13,2.96-.63,3.59-3.63,3.61-5.3.04-10.61-.09-15.9.07-1.66.05-3.09-1.18-5.02-.2-1.41.71-3.47.19-5.23.13-2.21-.08-2.95-.81-3.07-3.14-.16-3.24-1.83-6.31-1.06-9.63.22-.94.84-1.81,1-2.75.18-1.02.04-2.09.04-3.08-.82-.43-1.52-1-2.29-1.14-1.51-.27-3.19-.7-4.57-.3-1.29.37-1.41,2.02-1.81,3.41-.46,1.61-1.68,3-1.39,4.91.06.41-.64,1.01-.51,1.32,1.65,3.98-.61,7.89-.11,11.87.41,3.22.16,3.27,3.96,4.03,1,1.27-.43,3.15,1.09,4.34.28.22.41,1.08.21,1.37-1.54,2.23,1.5,4.61-.37,6.97-.67.84-.81,2.99-.21,3.77,1.68,2.17.04,3.06-1.27,3.41-1.19.33-2.76.35-2.97,1.5-.15.84-.09,1.77-.27,2.73-.19,1.01.48,2.19.89,3.73-.49.57-1.24,1.44-2.25,2.63.71.71,1.44,1.44,2.42,2.42-1.39,1.85-3.07,3.6-5.47,4.75-2.96,1.41-5.77,3.13-8.68,4.64-1.28.67-3.7,1.01-3.8,1.74-.27,2-2.06,1.51-2.92,2.42-1.65,1.72-6.16.75-6.66-1.55-.36-1.68-1.09-2.74-2-3.99-.76-1.05.26-3.32-2.24-3.21.89-2.18-1.2-4.87-.02-6.35,2.11-2.65-.59-3.2-1.37-4.99.52-.63,1.13-1.42,1.8-2.15.7-.77,1.46-1.48,2.14-2.16,4.17,1.69,4.87,1.61,5.84-.91h-5.88c1.5-1.95.22-3.94.9-5.03,1.11-1.77.54-3.41.59-5.06.04-1.3.71-2.8-.61-3.96-1.76-1.55,1.58-2.15.71-3.66-.57-.98-.85-2.12-1.49-3.76Z"/>
      <path class="cls-1" d="M58.53,7.21c-.86,2.13-1.09,4.31-.18,6.49-1.67,2.24-.75,4.96-1.2,7.43-3.67.65-7.42-.67-10.77,1.25-3.38-2.26-7.16-.39-10.68-1.18-.59,1.41-2.13,2.51-.73,4.18.17.21.15.75,0,1.03-1.56,3.08.46,6.14.04,9.21-.17,1.22-.29,2.83,1.12,3.14,1.01.22,2.09.37,3.15.53,2.02.31,3.87-1.95,5.88-.93,1.96,1,3.92.99,5.96,1,.51,0,1.02.05,1.76.09-.39.92-.72,1.72-1.17,2.78,1.5.02,3.18-2.04,3.82.97.22,1.04,2.37.43,3.45-.6.37,1.45.7,2.9,1.12,4.32,1.13,3.79.74,4.81-2.64,6.84.64.4,1.3.81,1.96,1.23-.57.8-1.06,1.69-1.75,2.36-.27.27-1.02.04-1.55.04-4.07,0-8.14.07-12.2-.04-1.28-.04-2.55-.59-4.78-1.14-.35.51-1.07,1.5-1.75,2.52-.65.96-1.18,2.69-1.9,2.76-1.6.17-3.24.38-5.04-.47-2.34-1.11-5.17-1.2-7.84-1.74-.71-2.01-2.78-3.97-.67-6.44.11-.13-.49-1.26-.93-1.4-1.48-.48-1.87-1.21-2.07-2.85-.25-2.03-1.48-3.94-2.4-5.86-.1-.21-.9-.08-1.91-.15,1.07,3.17,2.04,6.04,3.05,9.01-.46.38-1.53.83-1.66,1.48-.11.57.91,1.96,1.29,1.91.83-.11,1.67-1.05,2.24.27.38.87.48,1.86.82,3.27-5.26-.3-10.27.88-15.1-2.49.38-2.14-.1-4.27.86-6.75.92-2.37.74-5.59-2.74-7.13-2.43-1.08-.8-4.07-2.18-5.99-.68-.95-.94-3.44.88-4.75.14-.1.25-.25.5-.5,3.76,3.02,4.3,8.11,7.64,11.41.28-.26.76-.71,1.45-1.35-.05-2.76-2.45-4.49-3.71-6.69-1.31-2.28-3.27-4.09-4.6-6.57-1.44-2.68-2.41-5.09-2.36-8.08.1-5.65.03-11.3.03-16.81L3.85,0c.37.14.84.31,1.29.5,1.74.73,3.07.72,5.75.69,6.15-.07,12.37-.57,18.23,2.05.15.07.4.11.5.03,3.09-2.25,5.53.68,8.25.89,3.25.25,6.41.97,9.63,1.2,3.56.25,7.22-.38,11.02,1.86Z"/>
      <path class="cls-1" d="M292.44,43.74c4.56-.2,8.9-1.69,13.45-1.31.87.07,1.76-.36,2.86.05,1.36.51,2.6-.17,3.19-1.75-3-.45-5.98-1.08-8.99-1.31-2.94-.23-5.9-.05-8.87.76,1.76.16,3.51.32,5.27.48,0,.13,0,.26,0,.38-2.26.43-4.51.87-7.14,1.37-.05-.39-.4-1.29-.15-1.5,1.84-1.58-.23-2.33-.82-2.49-1.31-.35-2.78-.11-4.64-.11,0-3.36.03-6.67,0-9.97-.03-3.16-.58-3.64-3.47-3.84-5.48-.38-10.96-.86-16.56-1.3V4.65c.92-.21,1.89-.4,2.85-.65.79-.21,1.81-.93,2.31-.65,3.48,1.88,7.19.54,10.74,1.01,1.49.19,3.17-.74,4.47.78.22.25,1.06.29,1.38.08,3.1-2.03,6.46-.1,9.49-1.07.37,1.01.59,1.62.96,2.61.74-1.03,1.34-1.85,1.64-2.26,2.53.35,4.5.73,6.49.86,2.11.14,4.25-.09,6.36.07,1.97.14,3.91.57,5.87.87,1.75-2.6,3.15.9,5.06.29,1.93-.62,4.2-.14,6.32-.14h6.48c.33.67.67,1.39,1.14,2.35.6-.33,1.25-.55,1.7-.97.48-.45.77-1.1,1.26-1.82.41.83.62,1.11.69,1.42.45,1.96-.75,4.05.97,6.01.86.98-2.22,2.76-.04,4.29-1.67,1.38-.72,3.27-.91,4.92-.23,1.91-.99,2.99-2.81,2.85-3.22-.24-6.56.98-9.69-.94-.77-.47-2.08-.07-3.14-.07-4.3.02-4.48.21-4.55,4.35-.04,2.55.06,5.02-.89,7.58-.52,1.39.69,3.42,1.21,5.52,1.1-.64,1.78-1.03,2.9-1.68-.16.9-.21,1.98-.36,2-3.18.28-5.82,2.4-9.11,2.48-2.32.06-4.76.62-6.92,1.22-1.89.52-3.94,1.5-5.88,2.38-3.32,1.5-6.75,2.13-10.38,1.39-.26-1.95-1.75-3.87.27-6.02Z"/>
      <path class="cls-1" d="M161.7,62.91c1.57.8,2.45,1.25,3.4,1.74.1-.08.51-.24.57-.48.56-2.18,2.56-3.08,4.14-3.95,2.7-1.49,5.16-3.12,7.39-5.28.93-.9,2.61-1.03,4-1.54.42.43.9.94,1.18,1.24-.43,2.34-.82,4.47-1.27,6.93-.98.62-2.25,1.42-3.88,2.46,0,2.1.11,4.36-.04,6.6-.12,1.82.37,3.58-.85,5.51-.81,1.3-.18,3.74.29,5.54.42,1.61-1.7,3.33.38,4.83.36.26.44,1.48.15,1.96-.74,1.22-1.81,2.27.02,3.41-1.84.97.19,1.87.05,2.82-.07.51-.01,1.03-.01,1.6-1.81.5-3.56.95-5.3,1.47-2.34.7-4.25-1.09-6.46-1.06-2.03.02-3.74,1.43-5.94,1.13-2.64-.37-3.91-.78-3.34-3.24.62-2.71-2.23-1.54-2.48-3.3-.25-1.72-1.89-.85-3.2-.35-1.6.62-3.69,1.67-4.28-1.36-2.81-.98-5.62-1.92-8.01.9-1.14-1.25-3.1-.63-3.79-2.91-.59-1.96-1.76,1.02-2.97.62-1.34-.88-2.71-1.78-4.08-2.69,5.96-5.96,6.97-6.09,12.01-1.69.92-.45,1.91-.74,2.64-1.34,1.22-1,2.27-2.21,3.38-3.32v-6.62c2.39-.91,4.83-1.84,7.27-2.78.66-2.92,4.18-2.72,5.87-5.3-2-.83-3.5-1.26-5.18.31-1.48,1.38-3.12,2.63-4.82,3.73-.76.49-1.84.47-2.82.68q-.31-4.85,3.96-5.8c-.55-4.07-3.85-2.33-6.11-2.93-1.23-1.24,1.33-2.67-.19-4.31-.94-1,.31-2.84.91-4.24.18-.42.02-1.03-.1-1.52-.73-3.02-.43-3.69,2.38-3.54,2.89.16,5.93-.96,8.67.78,1.99-1.3,4.47-.15,6.31-.95,4.45-1.94,8.88-.35,13.9-1.1-.54,1.38-.86,2.19-1.18,3.02,1.81,1.14,1.82-.42,2.18-1.66h4.81c-1.39,1.31.56,2.34.03,4.03-2.71-.52-4.35,1.73-6.53,2.78-4.14,1.98-7.06,5.63-11.27,7.35-.56.23-.94.91-1.82,1.8Z"/>
      <path class="cls-1" d="M98.7,55.83c.74.74,1.36,1.36,2.08,2.08-.33,1.18-.9,2.4-.98,3.65-.11,2.03-.67,3.33-2.99,3.34-.44,0-.9.67-1.3,1.08-1.19,1.23-1.5,1.26-3.74,1.03-.81-.08-1.67.18-2.48.36-.8.17-1.76.86-2.34.61-4.71-2.1-9.62-.69-14.42-.92-3.41-.16-6.77-.2-10.05-1.72,1.41-.64,2.74-1.25,4.36-1.98,0-5.09.02-10.35,0-15.61-.02-3.44-.22-3.63-4.15-4.5v-18.74c2.48,0,4.94-.24,7.33.07,2.26.29,4.43,1.21,6.66,1.77.82.21,1.69.2,2.53.28,1.83.18,3.62-.23,5.47.92,1.02.63,2.95-.18,4.46-.39.99-.14,1.97-.49,2.96-.5,2.64-.03,3.36.66,3.41,3.31.06,3,.11,6-.03,9-.07,1.43-.59,2.84-.99,4.65.94,0,1.77-.03,2.6,0,3.47.15,4.46,1.59,3.48,5.03-.27.95-1.05,2.44-.72,2.76,2.15,2.05.21,2.97-1.14,4.43Z"/>
      <path class="cls-1" d="M288.71,97.14c0-3.53-.09-7.06.03-10.58.09-2.7,1.65-5.22,1.04-8.03-.31-1.43-.55-2.88-.92-4.84.68-.58,1.72-1.47,2.85-2.43,2.31,1.54,5.28.38,7.78,1.17,2.67.84,5.44,1.37,8.01,2.35,2.78,1.07,5.64-.12,8.13.81,2.51.93,4.85,2.16,7.64,2.03,1.12,6.79,2.06,13.6,1.38,20.88-.65.55-1.59,1.34-2.9,2.45-2.43,0-5.41.02-8.39,0-1.52-.01-2.87-.26-4.38-.93-3.33-1.49-4.72-1.22-8.06-.12-6.05,1.99-7.91,1.58-12.22-2.74Z"/>
      <path class="cls-1" d="M292.31,53.58c1.79-.5,3.53-.99,5.28-1.47,7.89-2.17,15.69-4.63,23.41-7.33,1.4-.49,3.21.6,4.71-1.78.06,2.47.02,4.32.18,6.16.19,2.34-.71,4.78.96,7.03.51.68.44,2.24.01,3.08-1.57,3.13-.95,6.42-.95,9.64,0,2.54-.69,4.64-2.53,6.38-2.23.51-4.24-.26-6.39-.79-4.21-1.03-8.61-1.31-12.83-2.31-1.98-.46-4.1-.5-5.87-1.14-1.86-.68-3.63-.64-5.42-.98-.78-.15-1.92-1.27-1.95-1.99-.19-4.05-.15-8.11-.03-12.16.02-.69.8-1.36,1.42-2.33Z"/>
      <path class="cls-1" d="M95.33,25.7c-3.51-.7-7.02.97-10.24-1.16-.37-.24-1.04-.1-1.56-.02-5.39.78-10.58-1.33-15.95-1.15-1.56.05-3.15-.82-4.86-1.31V2.45h32.61v23.25Z"/>
      <path class="cls-1" d="M89.2,83.62c.94-1.84.82-3.18-.47-3.71-.44-.18-1.65.31-1.64.41.15,1.72-1.26,1.91-2.01,1.44-3.18-2-5.56.59-8.18,1.32-1.4.39-2.54,2.04-.52,3.59.17.13.02.67.02,1.31-3.83.91-6.69-2.98-10.97-1.63.69-1.84,1.11-2.97,1.77-4.72-1.76.89-2.85,1.44-4.08,2.06-.05-.03-.42-.12-.5-.32q-1.65-4.11,1.85-10.21c-.81-1.53-1.55-2.94-2.41-4.56,4.11-1.67,7.4,1,10.98.58,3.65-.43,7.39-.09,11.09-.09h11.49c-.48,2.46.78,4.88-1.14,7-.16.18-.13.84.05.99,1.68,1.38.94,3.25.94,4.89,0,2.8-1.54,3.53-4.41,2.3-.6-.25-1.22-.44-1.85-.66Z"/>
      <path class="cls-1" d="M11.87,73.83c-.2-1.71-.3-2.55-.4-3.42-4.03.72-5.14,4.37-7.56,7.33.89.67,1.78,1.29,2.62,1.97,1.69,1.37,4.43.83,5.69,3.09.06.11,1.41-.5,2.25-.8.48.48,1.1,1.1,1.73,1.73,1.93-.58,3.45-2.59,5.93-1.62.44,2.81-.32,5.75,1.08,8.54.5.99.04,2.76-.52,3.93-1.17,2.45-3.93,2.37-6.08,3.11-1.73.6-3.16-.2-7.23-2.7-.19-.12-.58-.16-.73-.04-2.82,2.26-5.01-.94-8.1-.33.72-1.49,1.14-2.36,1.66-3.43-.72-.84-1.49-1.74-2.08-2.42.32-1.65.58-3.11.91-4.56.29-1.28.65-2.55,1.01-3.94-.63-.66-1.35-1.41-2.04-2.15,1.42-1.48,2.07-3.05,1.05-5.09-.8-1.6,1.61-3.27.07-5.03-.08-.09,1.17-1.94,1.86-1.98,1.84-.12,3.75.15,5.56.56,1.87.42,3.57.8,5.41-.24.82-.46,2-.47,2.99-.39,1.36.11,2.34,1.63,2.12,3.01-.21,1.35-1.26,2.68-2.34,2.15-2.78-1.37-3.55.48-4.86,2.72Z"/>
      <path class="cls-1" d="M113.61,8.05c.93-.73,1.42-2.57,3.29-1.05.41.34,1.77-.13,2.48-.58,5.17-3.23,10.75-4.55,16.83-4.26,2.34.11,4.64.15,7.07-.8,1.42-.56,3.62,1.21,5.54,1.54,2.34.4,4.29,1.64,6.4,2.52,6.06,2.51,12.4,4.49,17.88,8.96-1.22.59-2.25,1.35-3.38,1.57-1.31.25-2.55-.43-3.84-.84-2.69-.87-5.68-.8-8.52-1.25-1.12-.17-2.18-.93-3.28-.96-.9-.02-1.99,1.13-2.71.89-2.14-.71-4.73-.29-6.37-1.18-2.32-1.27-4.43-.78-6.57-.77-3.96.01-7.73-.47-11.43-1.94-.78-.31-1.89.29-2.85.27-.85-.02-1.71-.54-2.53-.48-1.31.1-2.33-1.36-3.99-.18-1.12.79-3.08.2-4.01-1.46Z"/>
      <path class="cls-1" d="M251.56,95.63c.29,2.14,2.56,1.94,3.71,3.1.65.65,1.73.88,3.05,1.5-5.06,2.54-9.99,1.58-14.17,1.77-1.93-1.68-3.47-3.02-5.3-4.6-.83.76-1.46,1.67-2.32,2.03-.82.34-2.43.49-2.74.05-1.45-2.06-2.96-1.65-4.74-.68-.38.21-1-.02-1.53-.05.02-.06,1.73-4.72,1.8-4.91-1-.18-1.97-.36-3.18-.57,2.92-3-1.37-6.06.18-8.9,1.73-3.16.07-6.49,1.11-9.8,2.7,1.05,2.88,4.26,5,5.71-.99.97-1.87,1.85.03,2.63.24,2.03,2.06.51,2.86,1.27.34,3.39,2.84,4.41,5.63,5.1,2.22,4.33,6.66,4.95,10.62,6.37Z"/>
      <path class="cls-1" d="M34.17,65.91c-.85,3.32.93,6.42-1.27,9.05,1.69,1.04,1.02,2.17.13,3.31,1.79,1.04-1.24,2.34.14,3.29,1.24.86-.9,2.41.76,3.06-.71,1.12-1.47,2.21-2.08,3.39-.12.24.35.78.55,1.19.36-.31.71-.62,1.95-1.7-.92,2.39,1.01,4.46-2.18,5.24-.97.24-.48,1.27,2.08,2.35-1.2.65-2.04,1.39-2.99,1.57-2.12.4-4.28.52-6.65.78v-3.64c2.04-1.09,1.68.88,2.26,1.69.23-.14.68-.33.66-.42-.21-.96-.2-2.18-.81-2.81-1.5-1.56-2.84-3.02-2.39-5.43.11-.57-.44-1.23-.53-1.87-.14-.95-.45-2.03-.15-2.85,1.08-2.91,1.3-5.39-1.04-8.03-1.86-2.1-1.75-5.04-1.2-8.2,1.26.13,2.73-.06,3.83.49,1.61.8,2.53-1.16,4.12-.55,1.22.47,2.76.09,4.8.09Z"/>
      <path class="cls-1" d="M240.94,89.26c-1.49-2.69-3.68-4.84-5.5-7.26-2.41-3.19-4.15-6.88-6.54-10.96,2.79.91,5.1,1.28,6.96,2.39,1.77,1.06,3.22,2.48,5.52,2.08.31-.05.9.57,1.11,1.01.9,1.87,2.49,2.61,4.34,3.37,2.11.86,3.88,2.51,5.91,3.6,1.56.84,3.29,1.37,5.01,2.06-.33,4.46.11,8.38,1.23,10.62-.5.49-1,.97-1.64,1.6-2.1,0-3.48-2.45-5.79-2.14-.37-.54-.61-1.33-1.12-1.59-2.36-1.21-4.73-2.32-6.58-4.38-.5-.56-1.92-.29-2.92-.4Z"/>
      <path class="cls-1" d="M259.24,81.83h-3.98c-.83-1.62-1.58-2.73-3.81-3.41-3.67-1.12-7.05-3.38-10.73-4.78-1.83-.7-3.57-1.79-5.45-2.15-1.79-.35-3.33-.81-4.34-2.35-.83-1.26-2.03-1.11-3.26-1.18-.24-.01-.43-.82-.83-1.62.82-.18,1.43-.49,1.99-.4,1.64.26,3.25.69,4.87,1.02,1.47.3,3-.48,4.49.79.73.62,2.34.27,3.56.27,5.63.02,11.27,0,16.84,0,1.17,2.58-.1,4.75-.57,6.99,2.12,2.14.25,4.54,1.22,6.81Z"/>
      <path class="cls-1" d="M63.66,120.63c1.19,1.03,3.53-.56,3.13,2.35h-7.55c.37-.81.51-1.64,1-2.1.97-.91,1.14-1.93,1.37-3.18.37-2.05-2.08-3.85-.37-5.89-1.04-.61-.53-2.93-2.63-2.37-1.43.38-2.5,1.06-2.4,2.77.21,3.55-.71,7.2,1.32,10.82h-7.08c.78-.99,1.25-1.59,1.72-2.19.29.1.57.19.86.29,0-3.11.07-6.22-.03-9.33-.05-1.48-1.33-2.51-2.77-2.35-1.5.17-2.52.94-2.52,2.63.01,2.47.15,4.95-.05,7.4-.14,1.63.95,1.46,1.82,1.87.3.14.31.88.53,1.63h-7.32c-1.1-1.91.67-1.73,1.72-2.22v-9.85c-1.92-.33-2.6-1.37-1.66-3.68,3.73.53,7.67-.81,11.53.8,1.83-1,3.82-.74,5.77-.71,2.94.04,3.54.67,3.58,3.68.04,3.17,0,6.35,0,9.62Z"/>
      <path class="cls-1" d="M186.8,120.69c1.29.9,3.6-.6,3.08,2.32h-7.07c-.1-.39-.34-.9-.23-1,3.47-3.08,1.84-7.16,1.98-10.82.04-.95-1.27-1.97-2.77-1.77-1.39.18-2.33.9-2.38,2.24-.11,2.99-.04,5.99-.04,8.57.94.89,1.64,1.55,2.95,2.8h-8.21c.05-.62-.07-1.23.18-1.54.27-.32.89-.36,1.77-.66-.35-3.68,1.42-7.81-1.41-11.58-1.34.58-2.39,1.03-3.61,1.55v9.63c.75.69,1.47,1.35,2.83,2.59h-8.23c.03-.59-.12-1.33.12-1.5.98-.68,3.22-.89,2.54-2.21-.85-1.64,1.13-2.21.54-3.6-.44-1.05-.09-2.43-.09-3.58-.84-1.66-4.24-1.48-2.84-4.89,3.73.55,7.69-.83,11.55.82,1.82-1.09,3.84-.75,5.79-.73,2.92.03,3.5.66,3.54,3.73.04,3.18,0,6.36,0,9.63Z"/>
      <path class="cls-1" d="M108.41,115.8q-.07,4.91,5.09,5.79-.77,1.84-10.19,1.49-.09-1.77,2.64-2.2v-16.28q-2.42-.65-3.1-2.59c1.5,0,2.86.04,4.21-.01,1.37-.05,3.11.31,4.04-.38,1.59-1.18,2.31.55,3.55.55,3.31,0,5.56,1.78,5.29,6.72-.2,3.75-2.49,6.64-5.87,6.9-1.75.13-3.53.02-5.66.02ZM108.34,112.62c2.22,0,3.97-.02,5.72,0,1.69.03,2.49-1,2.64-2.46.16-1.53.04-3.09.04-4.5-2.73-2-5.55-1.53-8.4-1.5v8.46Z"/>
      <path class="cls-1" d="M73.7,116.86c3.66,5.23,5.92,5.52,11.97,2.03.06,1.08.51,2.41.09,2.79-1.2,1.08-2.66,2.24-4.18,2.53-3.58.7-7.03-.19-9.08-3.38-2.13-3.31-2.08-7.03-.32-10.59.36-.72,1.02-1.44,1.72-1.83,2.67-1.48,5.89-1.91,8.39-.77,2.6,1.19,4.01,4.09,3.66,7.33-.05.51-.07,1.02-.12,1.88h-12.13ZM74.18,113.74c3.05-.28,5.87.39,8.84-.54-3.61-5.06-5.7-4.94-8.84.54Z"/>
      <path class="cls-1" d="M68.59,92.25c3.19-.8,5.7-1.43,8.23-2.07.54,1.32.82,2.67,1.59,3.63.67.84,1.87,1.31,2.9,1.8,1.38.65,3.18.67,3.86,3-1.59.08-3.13.61-4.21.12-3.68-1.66-7.48-.69-11.21-.96-1.22-.09-2.48.11-3.69-.04-2.89-.35-4.69-3.7-3.66-6.68.47-1.36.93-2.72,1.37-3.98,2.41.62,4.31,1.11,6.45,1.66-.48,1.04-.94,2.05-1.62,3.51Z"/>
      <path class="cls-1" d="M21.2,102.17c0,2.99.05,5.8-.06,8.59-.01.36-.89.68-2.06,1.5,0-2.08.04-3.42,0-4.77-.11-2.79-.35-2.97-4.04-3.25v16.54c.95.91,3.31-.73,2.93,2.35-3,.22-6.08.04-9.16.11q0-1.94,2.7-2.4v-16.25c-3.34-.42-3.98,0-4.09,2.94-.05,1.21,0,2.43,0,3.6-1.28.67-2.13.74-2.12-.93,0-2.62,0-5.24,0-8.03h15.92Z"/>
      <path class="cls-1" d="M308.95,119.06c-1.16,1.67-1.5,3.84-4.08,4.6-2.26.66-4.16,1.17-6.21-.37-.25-.19-1.16.44-1.73.75-1.64.92-2.04-.73-2.89-1.41-.17-.13-.14-.9.01-.98,2.02-1.08-.76-2.27.1-3.33.43-.54.9-1.05,1.47-1.7,1.06,1.59,1.99,2.99,3.05,4.57,2.36-.57,5.21,1.17,7.09-1.93-.45-1.59-1.32-2.6-3.25-2.42-2.63.25-5.09-.14-7.25-2.47-.55-2.58-.53-5.19,2.57-6.95h10.09c-.55,2.21,1.03,4.66-1.78,6.15-1.97-.72-1.21-4.41-4.38-4.18-1.73.13-1.74-.05-4.67,3.01.98.45,1.83,1.02,2.77,1.25,1.94.46,3.94.69,5.89,1.11,2.25.48,1.98,2.9,3.19,4.31Z"/>
      <path class="cls-1" d="M199.01,107.31h7.21c6.68,4.55,6,10.86,2.8,14.38-3.28,3.61-8.75,3.65-12.27.32-4.2-3.97-3.44-8.99,2.27-14.69ZM208.03,113.15c-1.38-1.38-2.5-2.5-3.31-3.31-3.94-1.69-5.2,1.55-7.28,3.26v4.68c1.09,1.41,1.93,2.5,2.46,3.19h5.65q2.42-3.55,2.47-7.82Z"/>
      <path class="cls-1" d="M255.27,107.31c1.75,0,3.51-.03,5.26,0,2.72.05,5.98,2.3,6.89,4.72,1.6,4.23-1.06,10.1-5.38,11.85-3.16,1.28-7.94-.53-9.7-3.53-1.02-1.75-2.52-3.52-1.76-5.51.79-2.1.89-4.68,3.18-6.06.58-.35,1.01-.97,1.5-1.47ZM264.3,118.47c0-1.59.22-3.21-.05-4.73-.36-1.97-1.62-3.54-3.56-4.14-1.89-.59-3.61-.23-5.03,1.52-2.72,3.36-2.72,5.18.51,9.86h5.58c.82-.81,1.69-1.67,2.55-2.52Z"/>
      <path class="cls-1" d="M144.34,119.52c0-1.57-.01-3.14,0-4.72.05-4.43,2.98-7.45,7.32-7.47,1.84-.01,3.66-.23,5.39.99,1.55,1.1,3,1.92,3.3,4.13.23,1.7,2.09,3.28-.07,4.93.09,3.26-1.88,4.57-4.59,5.98-3.51,1.82-6.08.76-8.72-1.25-.97-.74-1.75-1.72-2.63-2.59ZM150.42,121.11c1.56,0,3.3.03,5.05-.03.26,0,.55-.42.74-.71.64-.95,1.4-1.87,1.82-2.91.78-1.96-.95-6.24-3.13-7.5-2.91-1.68-5.01.35-7.41,1.96.36,3.22-1.26,6.96,2.93,9.19Z"/>
      <path class="cls-1" d="M277.03,120.44c1,.75,1.69,1.26,2.94,2.2-3.08,1.01-5.49.28-8.16.08.85-.7,1.71-1.4,2.94-2.41v-9.39c-.9-.51-1.9-1.09-2.93-1.68.2-.4.25-.75.45-.86.71-.4,1.52-.63,2.19-1.09,1.76-1.23,2.93,2.42,5.18.37,1.03-.94,3.63-.16,5.91-.16.64,1.3,1.37,2.77,2.1,4.24-1.65,1.29.15,2.58.04,3.89-.15,1.72-.04,3.47-.04,4.8,1.02.78,1.7,1.3,3.06,2.35-3.39.66-5.86.48-8.57.3.25-.84.35-1.69.54-1.71,1.53-.17,1.9-.96,1.81-2.4-.13-2.11-.17-4.24.01-6.34.13-1.48-.5-2.69-1.57-2.98-1.18-.31-2.79-.09-3.84.53-1.27.74-2.4,1.85-2.13,3.85.3,2.23.07,4.52.07,6.43Z"/>
      <path class="cls-1" d="M228.68,117.98c.65.59,1.17,1.07,1.73,1.58-.2,2.26-2.58,2.78-3.35,4.58h-5.85c-.8-.8-1.67-1.67-2.57-2.57,0-3.49,0-7.02,0-10.56-1.01-.58-2.01-1.15-3.44-1.97,1.26-.9,2.24-1.59,3.51-2.5v-4.87c1.34.69,2.29,1.18,2.89,1.49-.41,1.41-.73,2.5-1.18,4.04h7.64v3.24h-7.25c.36.87.79,1.4.73,1.86-.1.79-.53,1.53-.78,2.31-.46,1.47.88,2.67.22,4.5-.6,1.66,3.36,2.79,5.23,1.29.92-.73,1.68-1.65,2.46-2.43Z"/>
      <path class="cls-1" d="M140.3,111.78c-.6.65-1.06,1.15-1.79,1.95-1.05-1.48-2.04-2.87-3.19-4.48-2.05,1.64-4.01,3.21-5.84,4.67,0,1.52-.04,2.76,0,3.99.09,2.32.74,3.01,3.01,3.19.88.07,1.81-.15,2.62.08.4.11.61.94,1.13,1.84h-11.88c-.75-2.69,1.31-1.68,2.4-1.9.13-.11.37-.22.38-.33.02-3.3.02-6.6.02-10.09-.9-.13-1.88-.27-2.98-.43-.04-2.07.99-2.66,2.77-3.02,2.08-.42,2.45,1.08,3.46,2.54,2.01-2.16,4.39-3.2,7.53-2.13.71,1.25,1.53,2.68,2.35,4.13Z"/>
      <path class="cls-1" d="M33.9,107.49v12.93c1.01,1.85,4.28-1.01,4.28,2.62h-11.68c0-3.34,2.54-1.29,4.07-2.18.05-1.4.14-3.08.17-4.76.03-1.74,0-3.48,0-5.41h-2.94c-.11-1.11-.2-2.05-.31-3.2h6.4Z"/>
      <path class="cls-1" d="M239.88,110.73q-3.15-.62-4.22-3.21h6.32v12.95c1.12,1.62,4.17-.78,4.39,2.6h-11.41c-.61-.9-.88-1.77.82-1.96.35-.04.71.04,1.06-.01,2.42-.34,2.98-.9,3.04-3.18.05-2.29.01-4.59.01-7.19Z"/>
      <path class="cls-1" d="M121.6,90.62c2.28,1.83,4.15,3.34,6.11,4.92-5.29,3.41-7.85,2.87-10.24-1.79-.81.32-1.62.64-2.43.96-.15-.21-.3-.42-.45-.64,1.16-1.16,2.26-2.41,3.52-3.46.73-.61,1.79-1.35,2.6-1.25,1.97.24,2.81-1.1,4.25-2.46.12,1.19.22,2.11.33,3.19-1.17.17-2.14.31-3.69.53Z"/>
      <path class="cls-1" d="M.29,63.99c1.26-1.26,1.64-1.64,2.15-2.15.58.3,1.22.64,1.83.95,1.54-.76,1.16-3.37,3.39-3.26,2.35.11,5-.76,6.42,2.06,1.22-.68,2.34-1.3,3.46-1.93,1.15.72,2.41,1.5,4.72,2.95-2.21-.21-3.3-.54-4.26-.33-.87.19-1.34,2.31-2.62.45-4.6,2.39-9.43.35-15.09,1.25Z"/>
      <path class="cls-1" d="M42.1,2.89c1.08-.73,1.81-1.64,2.59-1.67,3.66-.15,7.33-.04,11-.08,1.73-.02,2.29,1.1,2.82,2.68-1.8,1.06-3.72.39-5.51.47-1.69.08-3.69.32-5.02-.44-1.82-1.05-3.73-.03-5.88-.96Z"/>
      <path class="cls-1" d="M320.56,111.56c-1.97.71-2.06-1.05-2.77-2.21-.25.72-.47,1.33-.68,1.94-2.85-.86-1.57-3.24-1.86-5.04h5.31v5.31ZM319.46,108.15c-.24-.39-.4-.82-.52-.81-.47.03-.93.21-1.39.33.13.23.25.66.4.66.46.03.94-.1,1.51-.18Z"/>
      <path class="cls-1" d="M239,101.04h2.81v4.06h-2.81v-4.06Z"/>
      <path class="cls-1" d="M31.7,105.88c-.93-1.16-1.46-1.82-2.21-2.76.53-.69,1.14-1.47,1.95-2.51.96.73,1.84,1.4,3.04,2.31-.95,1.01-1.61,1.72-2.78,2.96Z"/>
      <path class="cls-1" d="M322.68,106.25c1.98,1.35,1.33,3.46.73,4.89-.45,1.07-1.48,2.88-3.72,2.43.31-.72.59-1.37.87-2.01,3.02-.84,1.91-3.34,2.12-5.31Z"/>
      <path class="cls-1" d="M315.25,106.25c-.35.42-.97.82-1.01,1.27-.14,1.33-.05,2.69-.05,4.03-2.25-3.78-1.48-6.45,2.12-7.43-.35.71-.71,1.42-1.06,2.12Z"/>
      <path class="cls-1" d="M23.48,63.57c.7-.58.52-2.74,2.28-1.16.5.45,1.61.26,2.44.31.81.04,1.62,0,2.44.38-2.35,1-4.75.53-7.16.47Z"/>
      <path class="cls-1" d="M316.31,104.13c1.34-1.44,2.9-1.44,4.25,0h-4.25Z"/>
      <path class="cls-1" d="M315.25,112.62c.8.16,2.03-.53,2.12,1.06-.8-.16-2.03.53-2.12-1.06Z"/>
      <path class="cls-1" d="M320.56,104.13c.35.35.71.71,1.06,1.06-.35-.35-.71-.71-1.06-1.06Z"/>
      <path class="cls-1" d="M321.62,105.19c.35.35.71.71,1.06,1.06-.35-.35-.71-.71-1.06-1.06Z"/>
      <path class="cls-1" d="M233.07,81.92c.12.12.35.3.33.34-.13.23-.31.43-.47.64-.16-.16-.32-.32-.47-.47.21-.17.41-.34.62-.5Z"/>
      <path class="cls-1" d="M315.25,112.62c-.35-.35-.71-.71-1.06-1.06.35.35.71.71,1.06,1.06Z"/>
      <path class="cls-1" d="M318.35,114.3c-.12.12-.3.35-.34.33-.23-.13-.43-.31-.64-.47.16-.16.32-.32.47-.47.17.21.34.41.5.62Z"/>
    </g>
  </g>
</svg>