<?xml version="1.0" encoding="UTF-8"?>
<svg id="Capa_2" data-name="Capa 2" xmlns="http://www.w3.org/2000/svg" viewBox="0 0 196.39 177">
  <defs>
    <style>
      .cls-1 {
        fill: #000;
        stroke-width: 0px;
      }
    </style>
  </defs>
  <g id="Capa_1-2" data-name="Capa 1">
    <g id="Capa_1-2" data-name="Capa 1-2">
      <g>
        <path class="cls-1" d="M94.15,38.62h24.82c.76-.68.26-1.73.82-2.46-.06-1.34.43-2.62.68-3.9.21-1.11.41-2.26.82-3.35.21-.58.09-1.24.34-1.87.24-.63.22-1.35.35-2.02.13-.68.42-1.31.33-2.02.65-.5.12-1.3.53-1.96.38-.61.05-1.65.43-2.27.42-.7-.06-1.5.54-2.12.22-.22-.05-.59-.32-.77-2.65-1.68-4.95-3.81-7.61-5.49-1.53-.97-2.86-2.27-4.34-3.35-1.72-1.27-3.51-2.47-5.24-3.73-1.03-.76-2.01-1.6-3.03-2.39-.35-.27-.73-.49-1.38-.92h1.32c21.38,0,42.74,0,64.11-.02.84,0,1.5.2,2.2.7,1.21.86,2.51,1.61,3.83,2.31,2.09,1.1,4.05,2.41,6.08,3.61,1.4.84,2.84,1.58,4.25,2.42,1.37.81,2.69,1.68,4.07,2.5,1.19.72,2.44,1.35,3.61,2.09,1.42.89,2.86,1.75,4.37,2.52.26.13.45.43.7.68-.09.14-.24.27-.26.43-.13.73-.14,1.48-.34,2.18-.2.69-.4,1.41-.53,2.08-.22,1.14-.44,2.3-.68,3.44-.15.72-.02,1.57-.37,2.16-.42.7.08,1.53-.56,2.1.11.71-.25,1.35-.31,2.03-.1,1.22-.6,2.36-.73,3.58-.1.89-.42,1.79-.53,2.7-.07.55-.29.79-.85.82-.36.02-.72,0-1.08,0h-19.15c-3.8.66-7.64.21-11.46.29-3.81.08-7.62.02-11.43.02h-1.18c.59-2.78,1.14-5.47,1.73-8.26h-16.69c-.64.7-.49,1.74-.72,2.65-.41,1.65-.79,3.31-1,5-.14,1.04-.44,2.08-.62,3.14-.17.99-.32,2.04-.62,2.98-.53,1.61-.75,3.29-1.11,4.92-.29,1.26-.46,2.61-.74,3.89-.36,1.64-.46,3.35-1.11,4.93-.24.58-.16,1.23-.32,1.87-.23.88-.44,1.8-.56,2.71-.12.92-.25,1.88-.49,2.74-.47,1.62-.43,3.36-1.18,4.91.06,1.34-.49,2.6-.67,3.91-.12.89-.31,1.8-.57,2.68-.24.84-.34,1.7-.55,2.55-.16.65-.26,1.34-.38,2.01-.22,1.28-.57,2.55-.87,3.81-.2.86-.27,1.75-.38,2.63-.12.94-.11.95.71.97h29.86c.38-2.45.75-4.85,1.13-7.38.06.1.05.06.02.03-.04-.03-.08-.06-.13-.06h-13.41c.13-1.02.04-2.08.43-2.92.32-.71-.09-1.53.54-2.1-.03-.94.37-1.81.49-2.73.12-.92.52-1.8.44-2.75.64-.52.15-1.31.5-1.96.34-.61.31-1.41.43-2.14.11-.68.15-1.37.32-2.03.41-1.55.77-3.11.93-4.71.03-.31.29-.6.42-.85h44.63c-.31,1.61-.57,3.18-.92,4.72-.3,1.26-.55,2.55-.82,3.81-.27,1.28-.5,2.6-.75,3.89-.21,1.12-.41,2.27-.81,3.36-.22.6-.15,1.23-.32,1.87-.24.88-.44,1.8-.56,2.71-.12.92-.34,1.83-.49,2.74-.17,1.04-.44,2.09-.62,3.14-.17.99-.34,2.02-.62,2.98-.47,1.62-.44,3.36-1.19,4.9.06,1.34-.53,2.59-.65,3.91-.05.57-.18,1.17-.33,1.71-.15.54-.21,1.04-.28,1.58-.03.21-.24.46-.43.58-.98.61-1.99,1.16-2.97,1.76-1.61.97-3.2,1.97-4.8,2.94-1.23.75-2.5,1.44-3.73,2.19-2.18,1.33-4.34,2.7-6.51,4.03-1.18.73-2.43,1.36-3.61,2.09-2.18,1.32-4.35,2.68-6.51,4.04-.82.51-1.64,1-2.46,1.52-.54.34-1.13.31-1.73.31h-68.44c.08-.73.75-.79,1.16-1.11,1.71-1.38,3.51-2.64,5.35-3.85,1.43-.94,2.73-2.1,4.12-3.13,1.01-.76,2.08-1.45,3.1-2.19,1.15-.83,2.28-1.69,3.44-2.51,2.29-1.59,4.51-3.28,6.78-4.89,1.51-1.07,3.02-2.16,4.5-3.29.1-.08.28-.06.4-.08,1.18-5.94,2.37-11.83,3.57-17.87h-3.94c-2.32,0-4.63.09-6.95-.02-2.35-.11-4.64.36-6.98.34-2.32-.02-4.63,0-6.95,0-.17-.53.36-.91.3-1.41-.06-.52.2-.94.3-1.42.37-1.81.64-3.64.94-5.47.53-.53.13-1.26.41-1.83.52-1.06.58-2.24.79-3.36.23-1.29.73-2.56.67-3.9.68-.49-.07-1.42.61-1.91-.11-.71.2-1.35.32-2.02.12-.68.09-1.4.35-2.02.26-.63.14-1.28.33-1.87.3-.89.4-1.79.57-2.68s.51-1.77.59-2.68c.11-1.22.52-2.39.74-3.57.24-1.26.48-2.55.81-3.8.41-1.54.65-3.12.95-4.69h0Z"/>
        <path class="cls-1" d="M85.5,81.25c-.1.22-.3.43-.3.65,0,1.29-.47,2.5-.68,3.75-.16.94-.35,1.91-.6,2.83-.57,2.15-.71,4.39-1.46,6.49-.21.58-.07,1.24-.33,1.87-.26.62-.22,1.34-.35,2.02-.12.68-.43,1.31-.33,2.03-.66.5.08,1.42-.6,1.92.02.94-.27,1.81-.57,2.69-.28.83-.16,1.78-.38,2.63-.27,1.04-.46,2.08-.64,3.14-.17.99-.37,2-.61,2.98-.36,1.46-.77,2.9-.9,4.41-.03.31-.29.6-.45.89h-32.59c-4.89.61-9.8.18-14.7.32-.83.02-1.53-.17-2.22-.62-1.5-.96-3.03-1.86-4.55-2.78-1.56-.94-3.13-1.88-4.69-2.84-2.18-1.34-4.34-2.7-6.51-4.03-1.18-.73-2.43-1.37-3.61-2.1-1.69-1.03-3.35-2.11-5.03-3.15-.78-.49-1.55-.96-2.35-1.41-1.22-.69-1.21-.67-.88-2.03.15-.61.14-1.24.31-1.87.37-1.34.63-2.73.9-4.1.26-1.28.5-2.6.75-3.89.24-1.26.51-2.56.8-3.81.29-1.21.47-2.5.72-3.74.34-1.7.53-3.44,1.12-5.09.22-.6-.13-1.31.4-1.84.1-1.86.85-3.62.92-5.48.64-.53.15-1.31.49-1.97.32-.63.32-1.41.44-2.13.12-.68.14-1.37.33-2.03.54-1.97.93-3.96,1.26-5.97.17-1.04.44-2.09.63-3.14.19-.99.33-2.03.61-2.98.49-1.62.45-3.36,1.19-4.9-.06-1.34.38-2.63.67-3.9.41-1.79.71-3.6,1.11-5.38.29-1.26.49-2.6.74-3.89.21-1.12.41-2.27.81-3.36.22-.6.15-1.23.32-1.87.24-.88.44-1.8.56-2.71.12-.92.36-1.83.5-2.74.08-.52.08-1.11.29-1.56.23-.49.19-.95.29-1.43.1-.49.36-.87.87-1.17,1.9-1.14,3.83-2.24,5.69-3.45,1.77-1.15,3.65-2.12,5.46-3.2,1.78-1.06,3.52-2.19,5.29-3.25,1.15-.7,2.35-1.3,3.49-2,1.94-1.17,3.83-2.42,5.79-3.56,1.03-.61,2.08-1.21,3.09-1.86,1.17-.75,2.43-1.35,3.6-2.1.58-.37,1.13-.57,1.8-.51h50.44c-.11.24-.24.42-.27.61-.12.78-.05,1.63-.36,2.32-.34.74,0,1.6-.58,2.24.06,1.34-.38,2.63-.67,3.9-.41,1.79-.7,3.6-1.11,5.38-.3,1.26-.45,2.62-.74,3.89-.41,1.79-.71,3.6-1.11,5.38-.3,1.26-.45,2.62-.74,3.89-.41,1.79-.71,3.6-1.11,5.38-.29,1.26-.6,2.58-.72,3.9-.05.57-.34,1.12-.28,1.73h-19.22c.38-2.97,1.16-5.77,1.6-8.65h-17.41c-.5-.03-.74.27-.8.7-.07.49-.07.93-.28,1.43-.28.66-.23,1.44-.36,2.17-.12.68-.44,1.32-.3,2.03-.65.56,0,1.5-.62,2.06,0,1.83-.95,3.49-.92,5.33-.64,1.18-.61,2.54-.88,3.8-.27,1.28-.48,2.61-.75,3.89-.29,1.36-.56,2.74-.89,4.1-.16.63-.13,1.28-.33,1.87-.29.89-.4,1.79-.57,2.69-.17.89-.5,1.78-.59,2.68-.12,1.22-.48,2.4-.74,3.57-.38,1.74-.72,3.5-1.08,5.23-.27,1.27-.73,2.56-.68,3.9-.83,2.08-1,4.32-1.48,6.47-.37,1.65-.71,3.32-.99,5-.1.56-.25,1.11-.38,1.72h17.95c.23-1.22,1.16-6.35,1.76-7.35h19.29,0Z"/>
        <path class="cls-1" d="M77.17,138.4c-.25.02-.48,0-.51.06-.17.4-.41.82-.4,1.21.04,1.2-.45,2.31-.71,3.43-.27,1.16-.55,2.34-.82,3.5-.44,1.93-1.05,3.83-1.28,5.81-.58.67-.09,1.67-.75,2.32h-3.21c-.33-1.69-.54-3.39-1.04-5-.23-.74-.31-1.5-.53-2.24-.47-1.61-.85-3.26-1.17-4.9-.25-1.23-.74-2.44-.74-3.73,0-.26-.23-.52-.35-.79-.11.06-.15.07-.18.1s-.07.08-.07.12v16.41h-8.31v-25.83h10.69c.51,2.75,1.4,5.51,1.98,8.33.24,1.16.64,2.31.89,3.48.14.64.21.7,1.12.72.99-4.18,2-8.34,3-12.56h10.63c.35,1.69-.41,3.34-.27,5.05.14,1.74.03,3.5.03,5.24v15.57h-8.03v-16.34.03Z"/>
        <path class="cls-1" d="M88.32,154.76v-25.94h8.2c1.96,0,3.92.09,5.87-.03,1.39-.09,2.48.41,3.55,1.15,1.06.75,2.18,1.42,3.3,2.15v6.85c-1.35.88-2.68,1.75-4.18,2.7,1.83.94,3.49,1.79,5.12,2.64v6.7c-.41.29-.87.65-1.35.97-1.41.92-2.91,1.71-4.29,2.71-.17.13-.49.08-.74.08h-15.5,0ZM97.26,150.13c1.11,0,2.09,0,3.06,0,.67,0,.91-.24.92-.88.02-1.63,0-3.26,0-4.92h-3.99v5.81h0ZM97.29,133.78v5.53c.72,0,1.37,0,2.04,0,.65-.02,1.3.08,1.87-.06v-5.47h-3.91Z"/>
        <path class="cls-1" d="M53.98,132.31v18.64c-.54.41-1.13.9-1.78,1.33-.96.64-2.01,1.15-2.94,1.83-.64.46-1.27.68-2.05.67-2.68-.03-5.35-.03-8.03,0-.69,0-1.19-.19-1.77-.6-1.61-1.13-3.34-2.13-5.02-3.17v-18.65c1.37-.86,2.74-1.67,4.06-2.56.91-.63,1.83-1.03,2.99-1,2.68.07,5.35.05,8.03,0,.53,0,1.05.12,1.39.36,1.53,1.11,3.23,1.96,4.76,3.05.07.05.18.05.36.1ZM44.98,149.79v-16.35h-1.88c-.6,0-1.19.02-1.73.03v16.31h3.61Z"/>
        <path class="cls-1" d="M136.26,155.04h-8.96c-.26-1.62-.51-3.22-.78-4.91h-4.74c-.48,0-.77.29-.75.75.03.95-.47,1.83-.35,2.81.05.39-.23.82-.39,1.32h-8.57c.13-.89.14-1.8.42-2.61.41-1.15.49-2.36.85-3.51.51-1.66.61-3.41,1.15-5.07.21-.62.27-1.33.38-2.01.22-1.29.57-2.55.86-3.82.29-1.23.38-2.51.73-3.72.32-1.11.3-2.3.81-3.37.14-.3.04-.7.11-1.03.07-.32.23-.63.39-1.04h2.38c1.7,0,3.4-.04,5.1,0,1.66.05,3.31.19,4.97.3.46.03.76.28.75.76-.02.95.47,1.78.6,2.68.13.88.36,1.7.57,2.55.16.65.25,1.34.39,2.01.34,1.61.65,3.23.96,4.85.64.51.08,1.31.54,1.96.36.5.2,1.33.37,2,.37,1.4.74,2.8.91,4.26.63.62.16,1.5.57,2.24.34.6.24,1.43.37,2.16.02.13.19.23.4.46h0ZM121.91,145.5c1.18,0,2.25.02,3.32,0,.55,0,.66-.33.53-.98-.18-.87-.3-1.74-.41-2.61-.12-.98-.09-2.01-.35-2.94-.33-1.19-.43-2.4-.58-3.61-.04-.31,0-.65-.32-.79-.25-.11-.54-.14-.96-.24.24,1.37-.49,2.54-.27,3.81.02.1.05.24,0,.3-.49.63-.11,1.4-.34,2.03-.28.74-.26,1.46-.28,2.2,0,.16.07.36,0,.46-.6.73-.17,1.54-.34,2.4v-.02Z"/>
        <path class="cls-1" d="M20.31,138.34v-4.84h-3.94v16.28h3.92v-6.1h8.68c0,2.29,0,4.58-.02,6.88,0,.25-.19.61-.41.74-1.29.84-2.62,1.61-3.94,2.42-.29.18-.56.39-.86.54-.47.24-.89.55-1.49.53-1.7-.05-3.39,0-5.09-.03-.58,0-1.14-.24-1.72-.28-.62-.05-1.23,0-1.85,0-.1,0-.22,0-.28-.06-1.21-.97-2.68-1.52-3.95-2.39-.68-.47-1.38-.89-2.02-1.29v-18.33c1.39-.89,2.78-1.75,4.16-2.64.41-.27.76-.65,1.19-.86.43-.2.85-.42,1.38-.41,2.82.04,5.66.04,8.49,0,.58,0,.89.32,1.31.6,1.52,1,3.11,1.91,4.67,2.86.26.16.44.43.71.7-.12,1.84-.25,3.74-.38,5.69h-8.58Z"/>
        <path class="cls-1" d="M172.88,143.66h-6.38v6.75h7.64v4.6h-16.61v-25.83h16.62v4.88c-1.33,0-2.69.21-3.96-.07-.96-.21-1.88-.19-2.82-.23-.67-.03-.89.23-.9.89-.02,1.43,0,2.85,0,4.34h6.43v4.64h0Z"/>
        <path class="cls-1" d="M148.83,155.02h-8.91v-21.21h-4.93c-.14-.79-.05-1.55-.06-2.3-.02-.77,0-1.53,0-2.34h19.1c.13.68.03,1.44.05,2.19.02.77,0,1.53,0,2.4h-3.86c-1.37,0-1.39.02-1.39,1.34v19.92h0Z"/>
        <path class="cls-1" d="M102.85,159.43h7.23c.77.77,1.53,1.53,2.3,2.29v4.61c-.5.5-1.14,1.14-1.83,1.82.66.49,1.39,1.02,2.12,1.57v4.6c-.88.86-1.75,1.72-2.68,2.66h-7.13v-17.55h0ZM108.67,173.57c0-1.09,0-2.15,0-3.21,0-.52-.32-.76-.87-.78-.67-.02-.95.2-.97.83-.03,1.05,0,2.11,0,3.16h1.85,0ZM106.82,166.5c.46,0,.81.04,1.15,0,.42-.06.72-.29.71-.79,0-.82,0-1.63,0-2.44,0-.52-.32-.77-.86-.79-.65-.02-.97.21-.98.81-.02,1.01,0,2.04,0,3.21h-.02Z"/>
        <path class="cls-1" d="M7.64,162.02c.93-.93,1.77-1.77,2.62-2.62h4.94c.85.87,1.71,1.74,2.61,2.66v3.78h-4.27v-3.22c-.15-.09-.19-.13-.23-.13-1.61-.04-1.64,0-1.65,1.55v9.49h1.81v-2.32c-.24-.04-.52-.09-.84-.15v-3.26h5.17v6.61c-.83.83-1.66,1.66-2.59,2.59-1.28,0-2.67,0-4.04,0-.64,0-1.13-.26-1.57-.68-.67-.64-1.31-1.3-1.96-1.94v-12.37h0Z"/>
        <path class="cls-1" d="M77.31,177h-4.62c-.87-.88-1.73-1.75-2.6-2.62v-12.58c.92-.84,1.74-1.58,2.63-2.39h4.43c.89.89,1.75,1.75,2.75,2.75v12.23c-.85.85-1.71,1.71-2.59,2.59h0ZM75.92,173.57v-10.15c0-.73-.31-.97-1.02-.93-.58.04-.82.3-.82.98v10.1h1.85,0Z"/>
        <path class="cls-1" d="M136.17,159.43h6.08c.87,5.83,1.73,11.63,2.61,17.51h-3.94c-.13-.98-.27-1.96-.41-2.97h-2.49c0,.49.05,1.03-.02,1.58-.06.47-.25.92-.39,1.42h-3.82c-.2-.26.22-.28.2-.43-.18-1.17.36-2.26.34-3.42,0-.52.21-1.04.29-1.57.08-.53.08-1.04.26-1.58.25-.77.13-1.64.33-2.49.27-1.15.23-2.38.36-3.56.06-.53.41-.98.31-1.57-.08-.49.05-.94.26-1.42.17-.39.04-.9.04-1.5h0ZM138.92,163.08c.21,2.1-.5,3.97-.29,5.9.02.19,0,.43-.11.56-.17.23-.32.42-.06.64.18.15.41.3.63.33.34.06.69,0,1.01,0,.24-.9-.22-1.66-.18-2.41.07-1.53-.49-2.98-.36-4.49,0-.14,0-.33-.09-.42-.08-.08-.26-.06-.56-.12h0Z"/>
        <path class="cls-1" d="M48.07,176.98h-7.62v-17.55h3.96v14.17h3.66v3.38Z"/>
        <path class="cls-1" d="M166.5,159.43h3.92v14.15c.64,0,1.23.03,1.82.03h1.88v3.32h-7.62v-17.5h0Z"/>
      </g>
    </g>
  </g>
</svg>