<?xml version="1.0" encoding="UTF-8"?>
<svg id="Capa_2" data-name="Capa 2" xmlns="http://www.w3.org/2000/svg" viewBox="0 0 276.41 178">
  <defs>
    <style>
      .cls-1 {
        fill: #000;
        stroke-width: 0px;
      }
    </style>
  </defs>
  <g id="Capa_1-2" data-name="Capa 1">
    <g>
      <path class="cls-1" d="M7.38.26h1.26c21.31,0,42.62-.03,63.93.02,4.15,0,8.31.26,12.36,1.36.52.14,1.06.19,1.68.31.1-.61.2-1.2.33-1.94.33,0,.68,0,1.04,0,48.13,0,96.27,0,144.4,0,6.95,0,13.58,1.33,19.58,5.03,5.07,3.12,8.72,7.49,11.11,12.95,2.26,5.15,3.26,10.57,3.43,16.15.14,4.63.19,9.26.22,13.89.06,10.14.09,20.28.12,30.42.02,7,.14,14-.05,21-.14,5.2-1.23,10.27-3.93,14.84-3.37,5.71-8.41,9.22-14.71,11.04-3.66,1.06-7.4,1.53-11.21,1.53-13.06,0-26.12.18-39.17-.07-9.61-.18-18.05-3.49-24.47-11.02-.67-.78-1.36-1.55-2.19-2.49-.12,3.18-.23,6.16-.35,9.2h-65.5v-8.7c-.86,1.04-1.64,2.01-2.46,2.96-3.74,4.35-8.6,6.77-14.1,8.06-4.04.95-8.15,1.16-12.28,1.16-22.36,0-44.72,0-67.08,0h-1.41c-.19-41.91-.38-83.72-.58-125.69ZM216.94,38.3h.44c.06.95.16,1.89.17,2.83.04,3.45.08,6.9.04,10.35-.01.96.25,1.25,1.23,1.25,13.12-.03,26.25-.02,39.37-.02.36,0,.72-.03,1.12-.05.03-.32.07-.55.07-.78-.06-6.22-.07-12.45-.21-18.67-.08-3.73-.64-7.41-1.8-10.97-1.83-5.61-5.23-9.79-10.87-11.94-4.11-1.56-8.39-2.04-12.75-2.04-11.81,0-23.61-.02-35.42.02-2.02,0-4.06.16-6.06.45-1.85.27-3.67.81-5.53,1.23-.03-.53-.05-1.08-.08-1.64h-90.43v7.12c-3.55-3.36-7.62-5.26-12.19-6.02-2.72-.45-5.51-.72-8.27-.73-19.18-.06-38.36-.03-57.54-.03-.36,0-.72,0-1.21,0,.17,36.35.34,72.58.51,108.91.63,0,1.1,0,1.56,0,19.08,0,38.16,0,57.23,0,1.39,0,2.79.05,4.16-.11,2.28-.27,4.58-.53,6.8-1.08,7.62-1.88,12.21-6.88,13.94-14.4,2.31-10.03,2.05-20.07-.58-30.02-1.04-3.91-3.02-7.37-5.8-10.34-.55-.58-1.07-1.19-1.65-1.83,2.14-1.43,3.92-3.35,5.34-5.61,2.44-3.89,3.41-8.22,3.73-12.72.15-2.07.03-4.16.03-6.27h14.45c-.55,26.36-1.1,52.64-1.65,79.03h1.25c15.32,0,30.65-.01,45.97.03,1.04,0,1.28-.28,1.3-1.29.51-25.63,1.05-51.26,1.59-76.88,0-.29.05-.58.08-.89h9.49c0,.59,0,1.12,0,1.66.1,18.53.2,37.06.28,55.6.02,3.36.26,6.69,1.11,9.95,1.99,7.7,6.64,12.86,14.41,15.01,2.99.83,6.04,1.14,9.13,1.14,11.84,0,23.68.05,35.52-.04,2.86-.02,5.76-.3,8.55-.87,7.72-1.58,12.9-6.11,14.67-13.92.7-3.07,1-6.29,1.05-9.45.11-7.91-.04-15.83-.08-23.74,0-.29-.04-.59-.07-.89h-41.61c0,4.15.02,8.21,0,12.26,0,1.65-.08,3.31-.18,4.96-.03.47-.23.92-.35,1.39-.09-.01-.18-.03-.26-.04-.06-1.08-.15-2.15-.16-3.23-.05-9.6-.09-19.21-.14-28.81-.02-4.7-.07-9.4-.04-14.1,0-1.25.22-2.51.33-3.76Z"/>
      <path class="cls-1" d="M40.27,174.63c.17-2.72.29-2.88,2.35-2.92-.16-1.44-.27-2.87-.48-4.28-.22-1.44-.2-2.81.42-4.16.28-.6.54-.76,1.24-.55,3.67,1.13,4.37,3.14,4.48,6.48.1,3.01-1.31,4.81-4.45,5.86-1.25.42-2.56.66-3.78,1.15-.82.33-1.52.94-2.27,1.43-.19.12-.37.33-.56.34-2.96.18-5.58-.55-7.49-2.98-1.42-1.81-1.33-4.11.17-5.86.44-.51.91-.98,1.4-1.5-.17-.24-.31-.47-.47-.67-1.39-1.68-1.4-3.55-.36-5.29,1.1-1.83,1.38-3.28.28-5.4-1.76-3.37-.77-7.78,1.64-10.07,2.06-1.96,4.54-2.11,7.1-1.37,1.29.37,2.01,1.4,1.93,3.03.89-1.69,1.61-3.2,2.48-4.63.86-1.42,2.07-2.3,3.88-2,.61.1.86.34.88.98.04,1.34-.38,2.41-1.59,3.05-.83.44-1.06,1.08-1.02,2,.11,2.6.23,5.22-.79,7.7-1.19,2.87-3.72,4.16-7.08,3.49.46-1.08.9-2.1,1.35-3.13.47-1.08.98-2.13,1.38-3.24.23-.65,0-1.16-.68-1.59-.62-.4-1.09-1.06-1.54-1.67-.58-.79-.84-2.06-2.16-1.75-1.19.28-1.24,1.5-1.22,2.42.06,2.32.28,4.63.49,6.95.16,1.77.27,3.52-.45,5.19-.27.64-.07,1.05.51,1.27.85.31,1.72.6,2.59.83,1.26.32,1.78.85,1.89,2.04.11,1.22-.42,2.16-1.55,2.54-1.08.37-2.22.58-3.3.95-.49.17-.97.49-1.33.87-.68.7-1.02,1.68-.53,2.51.34.57,1.14,1.03,1.82,1.22,1.03.28,2.14.27,3.21.41.52.07,1.03.23,1.62.36Z"/>
      <path class="cls-1" d="M175.39,171.05c-1.81-1-3.34.81-5.24.58-.41-2.11-.31-4.23-.14-6.34.24-3,.59-5.99.78-8.98.14-2.31-.11-4.6-1.08-6.74-.22-.49-.68-1.14-1.12-1.22-.76-.13-1.36.53-1.49,1.25-.21,1.12-.28,2.27-.32,3.41-.04,1.08.05,2.16.04,3.24-.01,1.34-.49,2.44-1.86,3.04,2.42,3.86.95,8.19,1.81,12.37-1.73,0-3.25.06-4.76-.05-.31-.02-.67-.66-.83-1.08-.74-2.05-.72-4.19-.6-6.32.14-2.53.44-5.05.53-7.58.14-3.8.13-7.59-2.04-10.94,2.2-2.51,6.42-1.87,7.82,1.17.55-.49,1.08-.99,1.64-1.44,2.43-1.95,5.5-1.41,7.15,1.25,1.38,2.21,1.14,4.58.74,6.98-.21,1.22-.67,2.16-2.05,2.4-.24.04-.41.49-.61.75.32.03.68.17.95.07.59-.23.85-.06.85.53-.01,4.5-.03,8.99-.06,13.49,0,.02-.04.05-.12.16Z"/>
      <path class="cls-1" d="M250.92,149.07c-1.49,2.82-2.13,5.77-2.1,8.85.04,4.12.14,8.24.28,12.36.03.98-.35,1.37-1.25,1.38-1.01.01-2.02.02-3.03,0-.88-.02-1.36-.37-1.26-1.38.37-3.49.6-6.99,1.03-10.47.58-4.65,1.3-9.28,1.99-14.1.48,0,1.25-.07,2,.04.26.04.53.52.64.85.17.48.2,1.01.33,1.68,1.42-1.39,2.83-2.34,4.64-2.42.63-.03,1.28.01,1.9.14,1.03.21,1.57.82,1.63,1.97.19,3.84.56,7.68.7,11.52.14,3.81.07,7.64.14,11.45.01.78-.29,1.21-1,1.2-1.47-.02-2.95-.11-4.42-.26-.26-.03-.65-.5-.67-.78-.15-3.07-.31-6.13-.33-9.2-.03-3.85.17-7.71-.87-11.48-.12-.45-.24-.89-.36-1.34Z"/>
      <path class="cls-1" d="M234.06,148.88c-.9-.15-1.96.58-2.18-1-.91,1.04-1.48,2.13-1.52,3.33-.07,2.62-.02,5.25.07,7.88.07,2.16.29,4.31.36,6.46.05,1.45-.33,2.81-1.3,3.95-.45.53-.83.61-1.41.08-1.71-1.57-2.72-3.54-3.28-5.72-1.27-4.94-1.2-9.84,1-14.55,1.05-2.24,2.61-4.02,5.09-4.77,2.5-.75,4.86-.14,7,1.1.73.43,1.18,1.54,1.51,2.44,1.43,3.89,1.6,7.91.98,11.98-.4,2.69-1.12,5.27-2.59,7.61-.44.71-.88.9-1.64.53-.82-.39-1.7-.66-2.5-1.08-.23-.12-.46-.55-.44-.82.25-2.65.63-5.3.83-7.96.19-2.55.24-5.12.3-7.68.01-.59-.19-1.18-.3-1.79Z"/>
      <path class="cls-1" d="M141.2,166.79c.34-2.92.78-5.93,1.03-8.95.25-2.98.65-5.98-.08-8.97-.81-.17-1.94.59-2.14-.99-1.1,1.17-1.6,2.51-1.61,3.91-.01,2.93.18,5.86.27,8.79.06,2.02.16,4.05.1,6.07-.04,1.35-.58,2.56-1.83,3.41-1.49-.88-2.47-2.23-3.1-3.75-2.41-5.84-2.53-11.72.28-17.46,2.06-4.2,5.75-5.46,10.21-4.08,2.37.73,3.02,2.55,3.55,4.5,1.38,5.12,1.33,10.23-.49,15.25-.34.94-.89,1.82-1.45,2.65-.72,1.07-1.4,1.2-2.6.65-.67-.31-1.33-.64-2.15-1.03Z"/>
      <path class="cls-1" d="M187.99,166.8c.76-5.9,2.01-11.84.95-17.9-.85-.21-1.99.6-2.21-.91l-.3-.03c-.39,1.03-.94,2.03-1.13,3.09-.57,3.23-.05,6.46.23,9.69.16,1.88.19,3.78.12,5.66-.05,1.46-.67,2.74-1.99,3.66-1.44-.94-2.34-2.34-2.96-3.86-2.23-5.48-2.55-11.05-.2-16.55,2.06-4.82,6.37-6.54,11.48-4.64,1.37.51,1.84,1.92,2.37,3.15,1.15,2.7,1.32,5.57,1.23,8.46-.11,3.72-.82,7.31-2.41,10.69-.61,1.31-.76,1.36-2.05.81-1.02-.44-2.04-.86-3.15-1.32Z"/>
      <path class="cls-1" d="M73.52,147.01c0-1.52-.08-3.03.02-4.54.08-1.2.25-2.42.6-3.57.7-2.3,3.83-3.18,5.7-1.67.21.17.31.6.3.89-.07,1.52-.16,3.03-.33,4.54-.28,2.47-.23,3.45.47,4.97.71-.24,1.42-.51,2.15-.72,1.5-.42,2.02.1,1.7,1.62-.22,1.02-.4,2.04-.63,3.25h-4.22c0,1,.02,1.83,0,2.65-.1,3.44-.26,6.88-.3,10.32-.01,1.27.18,2.56.38,3.82.19,1.16.36,1.2,1.49.91.57-.15,1.17-.2,1.89-.33.25,1.76.47,3.38.69,4.99-1.81.54-1.69-1.35-2.99-1.85.09.64.13,1.11.23,1.56.12.55.43,1.08.42,1.62,0,.86-.6,1.15-1.31.67-.52-.35-.93-.87-1.35-1.35-.87-.99-1.37-1.08-2.53-.42-.23.13-.48.24-.74.34-.98.37-1.38.26-1.49-.78-.28-2.44-.63-4.9-.54-7.34.14-3.81.63-7.6.92-11.41.07-.97-.04-1.95-.14-2.92-.08-.77-.51-.94-1.21-.53-1.06.63-1.1.58-1.35-.67-.14-.73-.41-1.43-.56-2.15-.19-.92.15-1.5,1.15-1.61.43-.05.86-.16,1.56-.29Z"/>
      <path class="cls-1" d="M201.11,147.01c0-1.63-.08-3.32.03-4.99.07-1.13.28-2.29.66-3.35.73-2.07,4.06-2.88,5.66-1.4.24.22.32.75.3,1.12-.13,1.82-.31,3.63-.51,5.44-.14,1.3-.13,2.56.58,3.8.93-.27,1.86-.55,2.79-.81.78-.22,1.11.17,1.03.9-.14,1.3-.34,2.59-.54,4.09h-4.3c0,1.83.03,3.48,0,5.13-.06,2.77-.22,5.54-.22,8.3,0,1.27.29,2.54.47,3.81.09.61.45.73,1.03.58.67-.19,1.36-.3,2.22-.48.25,1.79.48,3.4.71,5.01-1.82.61-1.69-1.41-3.02-1.78.11.63.17,1.11.28,1.58.12.51.41,1.02.39,1.52-.03.92-.6,1.2-1.36.66-.49-.34-.88-.83-1.27-1.29-.87-1.02-1.33-1.12-2.52-.47-.06.03-.12.06-.18.09-1.56.8-1.86.64-2.23-1.07-.81-3.73-.41-7.46-.06-11.19.24-2.52.45-5.04.65-7.57.04-.54.04-1.09-.02-1.62-.18-1.55-.39-1.63-1.78-1.06-.23.09-.81-.08-.86-.25-.29-.89-.48-1.82-.67-2.74-.2-.97.19-1.55,1.21-1.68.43-.05.85-.16,1.55-.29Z"/>
      <path class="cls-1" d="M7.66,139.44c-.83,1.7-.86,3.32-.75,4.94.13,1.88.39,3.76.56,5.64.09.96.47,1.48,1.53,1.36,1.07-.12,2.17-.05,3.22-.25.86-.17,1.21.17,1.19.87-.03,1.39-.2,2.78-.28,3.87-1.08.37-1.8.69-2.57.86-.59.13-1.26.24-1.81.07-.75-.23-1.27,0-1.51.58-.32.76-.52,1.59-.6,2.41-.1,1-.02,2.01-.02,3.37-1.11-.38-2.05-.59-2.88-1.01-.99-.5-1.93-.96-3.02-.51-.24-8.49-.47-16.92-.71-25.39,2.69-.61,5.27-.56,7.87-.46,2.36.09,4.72.03,7.08-.03.57-.01.85.13.84.69-.01.54-.04,1.08-.12,1.61-.15.98-.34,1.96-.5,2.84-1.2.09-2.49.21-3.79.29-1.5.09-3.12.4-3.72-1.76Z"/>
      <path class="cls-1" d="M98.6,136.64c.41.52.92.99,1.22,1.56.42.8.87,1.12,1.84.9,4.53-1.02,7.84.08,10.01,3.4,2.39,3.65,2.64,7.64,1.21,11.66-1.27,3.55-1.4,3.51-5.57,2.68-1.31-.26-1.91.13-2.23,1.47-.13.56-.2,1.13-.3,1.7-.03.19-.08.38-.2.93-.48-.56-.94-.89-1.08-1.32-.23-.69-.29-1.45-.33-2.18-.07-1.22-.41-1.71-1.58-1.79-.72-.05-.94-.43-.97-1.04-.01-.29,0-.59,0-.89-.11,0-.2-.03-.23,0-.41.4-.69,1.22-1.4.82-.31-.17-.4-.91-.42-1.4-.17-5.1-.32-10.19-.45-15.29,0-.33.09-.66.15-.99.11-.07.23-.14.34-.22ZM106.99,152.85c.1-.56.22-.9.2-1.24-.07-1.85-.16-3.7-.29-5.55-.04-.57-.16-1.14-.34-1.68-.21-.63-.66-.98-1.39-.92-.72.06-1.1.42-1.14,1.15-.15,2.72.18,5.31,2.03,7.48.2.24.48.41.91.76Z"/>
      <path class="cls-1" d="M52.52,135.62c1.72.12,3.33.17,4.92.37.89.11,1.33.73,1.2,1.68-.31,2.17-.65,4.34-.9,6.52-.08.69-.02,1.42.11,2.11.19,1.04.73,1.3,1.68.83.66-.33,1.27-.78,1.93-1.11.37-.19.81-.25,1.39-.43-.16,2.01-.63,3.74-1.39,5.39-.28.61-.78.32-1.16,0-1.24-1.07-1.9-.97-2.22.62-.44,2.2-.65,4.46-.88,6.7-.24,2.41-.26,4.86-.64,7.25-.17,1.06-.87,2.1-1.51,3.02-.76,1.07-.79,1.23.29,1.97.3.21.67.73.6.99-.1.31-.64.68-.97.67-1.24-.07-2.48-.25-3.7-.49-.18-.03-.36-.58-.36-.89.05-4.36.06-8.72.22-13.07.17-4.83.44-9.65.73-14.47.15-2.49.43-4.96.67-7.64Z"/>
      <path class="cls-1" d="M261.55,166.1c1.71-.56,3.22-1.84,5.26-1.48.1.74.14,1.48.31,2.19.33,1.42,1.16,2.11,2.18,1.92,1.37-.26,2.17-1.4,1.93-2.85-.36-2.12-1.46-3.52-3.98-3.7.9-1.01,1.66-1.87,2.65-2.98-.74,0-1.16-.03-1.57,0-.47.05-.93.16-1.4.25-2.64.48-2.51.47-3.97-1.98-2.53-4.24-.05-8.52,3.38-10.39,4.2-2.29,8.04-.06,8.47,4.93.05.56,0,1.13,0,1.83-1.04,0-2.04.05-3.04-.03-.27-.02-.63-.37-.74-.65-.28-.72-.44-1.49-.66-2.23-.21-.72-.63-1.22-1.44-1.16-.78.06-1.16.55-1.31,1.31-.24,1.21-.06,2.24.81,3.19,1.76,1.92,3.52,3.83,5.14,5.86.94,1.17,1.76,2.5,2.35,3.87.86,2.02.6,4.03-.68,5.87-1.98,2.85-4.24,3.65-7.9,2.78-3.02-.71-5.4-3.39-5.77-6.55Z"/>
      <path class="cls-1" d="M214.67,173.27c0-2.99,0-5.85,0-8.71.02-5.14.06-10.27.06-15.41,0-1.57-.05-1.67,1.54-1.81,1.26-.11,2.54.07,3.81.15.52.03.72.33.72.88.05,5.3.2,10.6.17,15.9-.01,2.53-.37,5.05-.54,7.57-.06.96-.57,1.4-1.48,1.42-1.35.02-2.7,0-4.29,0Z"/>
      <path class="cls-1" d="M19.21,173.27c.08-8.22.18-16.32.2-24.43,0-1.02.34-1.47,1.27-1.48,1.37,0,2.75.03,4.11.15.25.02.66.51.66.78.04,6.52.08,13.04,0,19.55-.02,1.54-.46,3.07-.7,4.6-.1.64-.46.86-1.12.84-1.55-.05-3.1-.02-4.42-.02Z"/>
      <path class="cls-1" d="M66.47,173.16c-1.5-.1-2.88-.21-4.26-.28-.58-.03-.72-.29-.73-.83-.13-6.66-.2-13.32.85-19.92.35-2.2,1.01-4.33,2.09-6.37,1.13.5,1.83,1.34,2.39,2.31,1.14,1.96,1.43,4.14,1.51,6.34.16,4.72-.51,9.36-1.24,14.01-.25,1.56-.41,3.13-.61,4.74Z"/>
      <path class="cls-1" d="M123.08,148.86c.85-.67,1.69-1.35,2.55-2.02.89-.69,1.77-1.41,2.7-2.04.26-.18.7-.08,1.17-.12,0,2.26.02,4.41-.03,6.57,0,.19-.41.55-.61.53-.7-.04-1.41-.16-2.08-.34-1.76-.47-2.82.1-3.2,1.9-.27,1.25-.32,2.55-.59,3.8-.2.9-.6,1.76-.97,2.8.95,1.2,1.96,2.92.94,4.49-1.07,1.66-2.73,3.07-5.14,2.48-.19-1.12-.38-2.27-.56-3.43-.15-.91.46-1.34,1.21-1.73-1.6-4.33-1.04-8.88-1.5-13.32-.03-.27-.04-.54-.11-.8-.52-1.84-.23-1.6,1.33-1.82,1.33-.19,2.7-.11,4.05-.11.95,0,.83.71.77,1.31-.06.52-.21,1.02-.32,1.53.14.1.27.21.41.31Z"/>
      <path class="cls-1" d="M152.22,168.52c-.2-7.91-.41-15.81-.61-23.65,1.14-.14,2.04-.23,2.94-.37.86-.13,1.71-.29,2.83-.49.83,7.93.5,15.67-.07,23.25-1.75.43-3.36.83-5.09,1.25Z"/>
      <path class="cls-1" d="M103.27,172.99c-1.78-.09-3.48-.23-5.19-.25-.79,0-1.07-.22-1.05-1.03.09-3.68.13-7.36.18-11.05.02-1.78,0-3.57,0-5.49,1.23.3,2.17.94,2.95,1.77,1.73,1.83,2.81,4,3.24,6.52.55,3.24.51,6.44-.13,9.53Z"/>
      <path class="cls-1" d="M.57,171.6c0-2.61-.01-5.17.02-7.73,0-.18.37-.52.55-.52.77.03,1.55.07,2.29.27,1.19.32,2.34.77,3.62,1.2v9.98h-3.7c-.32-2.69-.53-2.94-2.79-3.2Z"/>
      <path class="cls-1" d="M214.74,142.3c0-1.49-.02-2.87,0-4.25.01-.87.35-1.44,1.37-1.26,1.46.26,2.91.51,4.37.75.81.13.94.62.79,1.32-.25,1.11-.48,2.23-.74,3.45h-5.8Z"/>
      <path class="cls-1" d="M25.49,137.48c0,1.45.02,2.86-.03,4.27,0,.21-.35.59-.55.6-1.78.05-3.56.03-5.45.03,0-1.57-.05-3.04.02-4.5.04-.78.47-1.32,1.4-1.16,1.48.26,2.97.5,4.6.76Z"/>
      <path class="cls-1" d="M117.87,170.76c.89-.66,1.76-1.35,2.69-1.96.39-.26.92-.56,1.32-.49.29.05.63.69.65,1.09.07,1.03,0,2.08-.08,3.11-.02.26-.38.72-.53.7-.31-.04-.64-.3-.87-.55-.17-.18-.16-.51-.29-.74-.13-.24-.31-.62-.48-.62-.24,0-.55.23-.71.45-.34.48-.59,1.35-1.26.99-.43-.23-.51-1.12-.72-1.73-.05-.14.03-.32.05-.49.07.08.15.16.22.24Z"/>
      <path class="cls-1" d="M157.19,168.61v3.54c-1.19,0-2.33.1-3.44-.05-.53-.07-1.34-.56-1.41-.98-.14-.78.22-1.67,1.14-1.89,1.19-.29,2.42-.42,3.71-.63Z"/>
      <path class="cls-1" d="M230.8,174.24c.24-.9.28-1.81.72-2.43.23-.33,1.48-.43,1.72-.15.58.67.84,1.62,1.29,2.59h-3.73Z"/>
      <path class="cls-1" d="M189.24,174.32c-.76,0-1.44.07-2.09-.03-.45-.07-1.24-.4-1.23-.58.04-.62.22-1.34.62-1.8.22-.26,1.05-.25,1.45-.05.89.44,1.36,1.25,1.26,2.46Z"/>
      <path class="cls-1" d="M141.13,171.41c.54,1.01.99,1.85,1.55,2.89-.96,0-1.71.03-2.46,0-.75-.04-1.13-.4-1.09-1.23.03-.77-.04-1.52,1.03-1.59.37-.02.73-.04.98-.06Z"/>
      <path class="cls-1" d="M87.26,59.79c.14.17.17.24.22.26,5.92,2.25,8.76,7.09,10.45,12.75,1.83,6.13,1.99,12.46,1.79,18.79-.12,3.55-.58,7.06-1.55,10.5-2.02,7.18-6.82,11.24-14.06,12.47-2.29.39-4.63.63-6.95.64-18.7.05-37.41.02-56.11.05-.96,0-1.17-.32-1.17-1.21-.07-19.07-.16-38.14-.25-57.21-.07-14.61-.13-29.22-.19-43.82,0-1.46,0-1.46,1.42-1.46,19.18.01,38.35-.02,57.53.08,4.54.02,8.94.95,12.85,3.49.06.04.11.08.17.11,2.06,1.26,3.19,2.79,2.97,5.5-.38,4.78-.3,9.59-.41,14.39-.03,1.38-.02,1.38,1.4,1.39,1.15,0,2.3.01,3.45,0,.48,0,.77.12.76.68-.11,4.79-.51,9.53-2.66,13.92-1.93,3.95-4.84,6.89-9.06,8.39-.18.06-.35.16-.6.28ZM62.84,81.99c-.08,0-.16,0-.24,0,0-1.45.09-2.91-.02-4.35-.29-3.92-1.1-4.6-5.03-4.64-1.03-.01-1.34.29-1.32,1.31.07,4.46.08,8.92.1,13.38.02,3.11.25,3.3,3.39,2.76,1.64-.28,2.42-.92,2.65-2.6.27-1.93.32-3.89.47-5.84ZM62.6,43.21c-.11-1.46-.18-2.57-.28-3.68-.03-.33-.12-.67-.2-.99-.38-1.42-1.26-2.17-2.74-2.28-.71-.05-1.42.02-2.13-.05-.88-.09-1.17.2-1.16,1.12.06,3.11.04,6.22.05,9.33q0,2.85,2.91,2.7c1.6-.08,2.71-.9,3.05-2.47.28-1.31.37-2.67.5-3.67Z"/>
      <path class="cls-1" d="M213.87,63.6c0,7.3-.02,14.61.02,21.91,0,1.21.22,2.42.39,3.62.06.39.24.78.43,1.13.48.9,1.22,1.47,2.26,1.46,1.05,0,1.9-.55,2.21-1.5.42-1.27.81-2.6.84-3.92.1-4.22.06-8.45.01-12.68-.01-.92.23-1.21,1.17-1.2,11.4.03,22.8.03,34.2,0,.79,0,1.13.16,1.13,1.05.01,6.8.18,13.6.07,20.39-.05,3.09-.35,6.23-1.03,9.24-1.54,6.84-6.1,10.81-12.84,12.26-2.33.5-4.75.82-7.13.84-12.62.08-25.23.1-37.85-.01-2.5-.02-5.06-.44-7.49-1.08-6.18-1.62-10.01-5.78-11.54-11.88-.73-2.92-1.2-5.99-1.23-9-.18-19.04-.21-38.08-.29-57.12q0-1.31,1.34-1.31c2.47,0,4.94-.04,7.41.02.91.02,1.16-.31,1.17-1.16.08-5.48.19-10.95.29-16.43.03-1.45.13-2.91.11-4.36,0-.71.29-1.02.91-1.23,2.81-.96,5.71-1.43,8.66-1.44,9.03-.03,18.06-.03,27.09-.03,3.79,0,7.58-.12,11.36.07,2.65.13,5.32.48,7.91,1.08,5.65,1.29,9.26,4.89,11.06,10.38,1.16,3.53,1.67,7.18,1.77,10.87.13,5.21.11,10.41.2,15.62.02.94-.2,1.28-1.22,1.28-11.37-.03-22.73-.03-34.1,0-.95,0-1.21-.29-1.2-1.21.02-2.67,0-5.34-.1-8.01-.04-1.14-.17-2.3-.45-3.4-.37-1.49-1.48-2.33-2.72-2.31-1.23.03-2.28.92-2.58,2.46-.26,1.32-.41,2.68-.41,4.02-.04,7.2-.02,14.41-.02,21.61h.19Z"/>
      <path class="cls-1" d="M160.62,111.88h-43.02c0-1.49-.02-2.92,0-4.36.11-5.68.24-11.36.36-17.04.38-17.75.76-35.49,1.14-53.24.02-.95.04-1.89.05-2.84q.02-1.57-1.5-1.57c-6.02,0-12.04,0-18.06,0h-1.28c0-1.96-.03-3.8,0-5.65.1-4.97.25-9.94.32-14.91.01-.9.26-1.14,1.15-1.14,27.6.02,55.2.02,82.8,0,.92,0,1.15.3,1.12,1.17-.17,6.49-.31,12.98-.42,19.47-.01.85-.29,1.07-1.11,1.07-6.19-.03-12.38,0-18.57-.04-1.04,0-1.3.3-1.32,1.32-.18,10.82-.41,21.64-.63,32.45-.2,9.63-.4,19.27-.6,28.9-.11,5.21-.24,10.41-.36,15.62,0,.23-.05.46-.08.78Z"/>
      <path class="cls-1" d="M59.22,87.4c0-.57,0-1.13,0-1.7-.01-3.14-.04-6.29-.02-9.43,0-.32.27-.63.41-.95.18.27.53.54.53.82.03,3.37.04,6.75,0,10.12,0,.42-.31.84-.48,1.25-.14-.04-.29-.08-.43-.13Z"/>
      <path class="cls-1" d="M59.14,38.26c.39.39.81.6.81.83.01,2.12-.03,4.24-.11,6.36-.01.31-.31.61-.7.86v-8.04Z"/>
    </g>
  </g>
</svg>