<?xml version="1.0" encoding="UTF-8"?>
<svg id="Capa_2" data-name="Capa 2" xmlns="http://www.w3.org/2000/svg" viewBox="0 0 176.39 178">
  <defs>
    <style>
      .cls-1 {
        fill: #000;
        stroke-width: 0px;
      }
    </style>
  </defs>
  <g id="Capa_1-2" data-name="Capa 1">
    <g>
      <g>
        <path class="cls-1" d="M139.36,163.05c-1.96.11-3.81,1.09-5,2.28-1.9,1.91-4.87,1.99-6.41,4.28-.46.68-1.35.34-2.03.51-2.32.58-4.85.41-6.87,2.14-1.43,1.23-3.61-.2-5.02.86-4.35,3.25-9.81,2.78-14.57,4.58-.52.2-1.32.43-1.65.19-.76-.57-2.02-.47-2.34-1.63,1.47-2.79,5.04-.71,6.78-2.9q-2.1-2.2-5.3-2.85c3.86-1.54,7.61-2.34,11.36-3.05,2.15-.41,4.07-1.28,6.04-2.12.16-.07.26-.53.2-.75-.06-.22-.34-.48-.56-.52-.42-.08-.98-.17-1.29.03-2.12,1.38-4.71,1.2-6.93,2.18-.87.39-1.67.47-2.46-.06-.63-.43-.84-.84-.47-1.75.34-.82-.73-.51-1.14-.52-3.66-.03-7.34-.17-10.99.07-6.15.4-12.17-.98-18.29-1.01-2.15,0-3.7-1.82-5.96-2.14-7.61-1.07-13.45-5.97-19.72-9.88-2.07-1.29-3.96-2.85-6.01-4.16-1.33-.85-2.85-2.17-4.2-2.07-4.78.35-6.59-3.42-8.91-6.15-3.37-3.97-5.92-8.54-8.57-13.08-3.33-5.71-4.89-11.75-6.61-17.95-2.01-7.22-2.24-14.52-2.44-21.87-.08-3.2,1.28-6.25.88-9.49-.11-.85-.02-1.72-.02-2.7-1.25.09-1.72.82-1.74,1.62-.05,3.2-.33,6.3-1.75,9.27-.46.96-.16,2.31-.16,3.48-.01,4.97,0,9.94,0,15.28-1.29-1.49-1.7-2.81-1.67-4.39.07-3.18-.11-6.29-1.53-9.31-.87-1.87.33-4.38-1.5-6.2-1.27.18.41,2.64-1.93,2.11.58-1.6.81-3.26-.18-5.01-.5-.9-.52-2.51-.05-3.43,2.07-4.04,2.14-8.57,3.47-12.77,1.87-5.91,5.22-11.08,8.07-16.52,2.64-5.03,6.74-8.81,9.95-13.32,5.08-7.14,12.07-12.22,18.89-17.54,4.64-3.62,10.04-5.45,15.22-7.87,3.23-1.51,6.96-2.01,9.62-4.74,1-1.03,2.64-.04,3.75-.71,3.36-2.03,7.27-1.31,10.86-2.31,3.9-1.09,8.07-1.49,12.09-.86,6.15.95,12.55-.14,18.49,1.81,3.6,1.18,7.3,2.17,10.82,3.65,1.82.77,3.7,1.42,5.77,1.65,2.18.23,3.69,2.04,5.43,3.29,2.94,2.11,5.89,4.23,8.96,6.14.88.55,1.72,1.11,2.37,1.86.58.66,2.14,1.24,1,2.36-.81.8-1.47-.44-2.12-.93-.36-.27-.67-.43-1.12-.11-1.21.86-2.2.3-3.08-.59-1.39-1.4-4.01-1.08-4.75-3.4.82-.14,1.72.3,2.48-.31q-3.46-2.96-5.69-2.69c.65,1.49,2.52,1.68,3.27,3.07-2.94.45-5.05-1.59-7.49-2.57-2.36-.95-4.92-1.24-7.19-2.57-1.44-.84-2.91.69-4.42.97-.58.11-.37,2.15.26,2.16,1.37.02,2.52.69,3.65,1.15,3.32,1.36,7.01,1.92,9.85,4.36l.05-.05c-.85.05-1.69.09-3.46.19,3.63,2.01,6.44,3.61,9.29,5.12.94.5,2.44.37,1.46,2.21-.19.36.77,1.25,1.5,1.24,1.37-.02,2.02,1.02,2.96,1.66.56.38,1.6.47,1.22,1.4-.32.79-1.24.54-1.92.35-4.57-1.23-8.74-3.4-12.94-5.51-1.24-.62-2.38-1.66-4.48-1.08,2.58,1.8,4.79,3.44,7.11,4.9.63.4,1.22.75,1.62,1.35.24.36.33.83-.08,1.15-.2.16-.6.3-.78.21-1.01-.53-1.99-1.12-2.97-1.72-2.45-1.51-4.99-2.7-8.32-2.6,1.13,1.71,2.58,2.21,4.06,2.52,1.11.23,1.85.72,2.27,1.75l-.21.22c-1.76.53-3.13-1.71-5.01-.69,1.33,2.65,4.16,2.79,6.41,3.87.5.24,1.19.09,1.68.34.78.41.69,1.3.46,1.93-.21.56-.85.72-1.45.27-2.57-1.92-5.61-2.82-8.58-3.77-1.78-.57-3.6-1.97-5.71-.39-.88.66-1.82-.71-2.83-.7-1.04,0,.69,2.1-1.21,1.64-.82-.2-1.73-.03-2.45-.03-.74-1.04,3.1-1.31.12-2.58-2.71-1.15-5.62-1.3-8.4-1.56-4.8-.44-9.73-.58-14.5.02-6.61.84-13.28,1.97-19.16,5.55-.13.08-.24.22-.37.23-2.92.16-3.63,2.26-4.08,4.61l.07-.07c-3.7-.91-4.38-.95-7.22,1.73-1.96,1.84-4.58,3.03-5.85,5.58-5.24,3.19-8.03,8.5-11.49,13.23-1.2,1.63-2,3.44-2.8,5.27-1.77.81-3.46,1.97-5.32,2.35-2.07.42-1.94,1.31-1.24,2.69.38.76.61,1.66,1.53,2.02v.28s.23.1.23.1c.41.67.44,1.37.21,2.1-1.71,1.05-2.61,2.49-2.23,4.56-.53,1.21.38,2.17.57,3.26-1.56,1.35-2.06,3.31-1.45,4.98,1.09,2.97.62,5.94.73,8.92.09,2.51.39,4.93,1.59,7.17.08.61.16,1.22.24,1.84.26.62.52,1.25.78,1.87-1.11,1.23-1.09,1.27.94,1.73,1.86,5.36,5.32,9.76,8.62,14.24,1.37,1.86,3.56,2.91,5.27,4.49,4.85,4.5,10.68,7.62,16.36,10.93,2.97-.23,4.76,2.38,7.45,3.06,2.59.66,5.51.47,7.77,2.32,4.52-.36,8.91,1.51,13.41.92,2.82-.37,5.59-1.17,8.35-1.88.67-.17,1.23-.77,2.02-.68.68.08,1.6-.3,1.89.57.33.98-.68.98-1.24,1.37-2.87,2.04-6.34,1.89-9.52,2.31-4.18.56-8.52.46-12.73.03-4.08-.42-8.13-1.46-11.93-3.19-2.33-1.06-4.97-1.58-6.55-3.92-.33-.5-.97-.54-1.5-.76-3.29-1.35-6.77-2.35-9.47-4.87-.38-.35-.84-.35-1.19-.11-.67.46-.33.99.05,1.45.37.45.83.84,1.14,1.33.22.36.28.94-.2,1.14-2.29.94-1.12,1.9.01,2.7,1.5,1.07,3.1,2,4.8,3.07-2.26,1.71-3.01-1.17-4.55-1.13-1.87.05-2.44-1.93-3.93-2.44-1.64,2.31-1.63,3.05.26,4.12,1.5.84,3.04,1.68,4.66,2.21,4.89,1.61,9.01,4.92,14.03,6.25.71.19,1.39.51,2.09.33.66-.18.86-.76.45-1.33-.36-.5-2.53-.74-.11-1.43,2.46-3.67,5.73-2.62,9.07-1.64,2.65.77,5.58,1.27,8.13.71,3.92-.86,7.63-.46,11.51-.28,2.64.12,5.56-.1,8.32-1.13,4.12-1.55,8.19-3.24,12.24-4.93-.4-.68-2.25-.99-.76-2.38,1.5-1.39,2.87-2.96,4.55-4.09,3.75-2.54,7.13-5.45,10.15-9.03.36.72.6,1.2.84,1.68,3.65-2.12,4.3-6.37,6.57-9.46.71-.97.14-2.85.2-4.32.07-1.68,1.54-3.49,3.06-3.46.57,0,1.13.85,1.7,1.32.73-2.16,1.66-4.26,1.25-6.61,1.14-.04,2.28-.09,3.42-.13-.05,2.75-.69,5.35-1.95,7.79-.79,1.53-1.8,2.99-1.2,4.87.89.32,1.18-3.12,2.42-.42.56,1.23.99,1.13,1.75.19.95-1.18,1.93-2.09,1.88-3.97-.08-3.02,1.67-5.7,2.62-8.52,1.02-3.02,1.39-5.94-.15-8.75-1.07-1.96-.64-3.97-.8-5.96-.08-1.01.09-2.09-1.52-1.99-.96.06-1.14-.7-1.09-1.5.13-2.03-.5-3.84-1.67-5.48-.05-2.3-.15-4.61-.14-6.91.01-1.96-.49-4.07,1.46-5.57.44-.34.55-1.13.09-1.57-1.51-1.44-2.81-3.42-5.42-2.53.09-3.63,1.05-7.07,3.51-9.71,2.5-2.69,6-3.28,9.54-2.63,1,.18,1.71.28,2.76.02,1.96-.49,4.04.33,5.66,1.34,1.42.88,3.59,1.24,3.71,3.82.05,1.1.83,2.9,2.89,2.49,1.23-.24,1.16,1.05,1.73,1.59,3.77,3.54,4.58,8.23,4.85,13.01.24,4.24.09,8.51.09,12.76,0,1.02.19,2.2-.24,3.02-1.72,3.26-1.19,6.78-1.62,10.2-.61,4.81-1.1,9.66-2.44,14.38-1.37,4.79-2.41,9.67-4.52,14.23-.36.77-.45,1.75-.99,2.34-2.77,3.02-4.09,6.92-6.38,10.23-3.32,4.81-12.52,14.01-17.4,17.36-.81.56-1.67.39-2.52.42h0c-.11-.21-.17-.57-.32-.61-.47-.12-.51.3-.58.63l.04-.04ZM155.13,147.78c-.21-.16-.44-.47-.64-.45-1.21.14-2.76,2.05-2.77,3.41,0,.46.25.85.8.71.53-.13,2.62-3.14,2.6-3.67ZM103.64,9.48c1.26.31,2.52.78,3.95-.19-1.53-.31-2.76-.42-3.95.19ZM128.68,11.4c-.32-.88-1.12-.65-1.77-.61-.43.03-.67.42-.26.83.39.38.75.91,1.42.72.42-.12.73-.39.61-.94Z"/>
        <path class="cls-1" d="M63.65,40.71c.22-.95.92-1.4,1.75-1.75,5.48-2.31,11.03-4.26,16.93-5.43,5.23-1.04,10.39-.57,15.58-.81.56-.03,1.17-.08,1.66.5-.98.84-2.15.44-3.21.44-7.06-.04-13.92.97-20.7,3.08-2.6.81-5.13,1.63-7.48,2.98-1.42.81-2.95,1.08-4.57.96l.05.05Z"/>
        <path class="cls-1" d="M20.22,143.66c-2.76.14-4.36-2.41-6.88-1.89-.33.07-.79-.4-.7-.92.35-2.05-.84-3.54-1.84-5.1-.31-.48-.69-.99-.78-1.53-.12-.67-.24-1.57.63-1.85.64-.21,1.4-.32,1.86.57,1.4,2.7,3.55,4.86,5.39,7.23.82,1.05,2.15,1.73,2.31,3.49Z"/>
        <path class="cls-1" d="M53.84,165.43c3.43-.31,5.9,1.9,8.86,2.6,2.82.67,5.56,1.43,8.45,1.22,1.68-.12,3.12.37,4.5,1.19.16.1.24.53.18.76-.06.23-.3.54-.51.6-.41.11-.88.14-1.31.07-4.91-.81-9.7-2.17-14.66-2.83-1.89-.25-4.47-1.04-5.51-3.6Z"/>
        <path class="cls-1" d="M24.82,141.26c1.49.29,2.08,1.36,3.1,1.86.92.45,2.64,1.28,1.94,2.82-.56,1.23-1.88-1.2-2.91.16-.28.37-1.23-.05-1.08-.76.31-1.46-.79-2.61-1.05-4.08Z"/>
        <path class="cls-1" d="M53.09,47.76c1.34-2.47,3.7-3.5,6.16-4.4l-.05-.05c-1.65,2.03-2.9,4.63-6.16,4.4l.05.05Z"/>
        <path class="cls-1" d="M18.34,138.37c-.22-1.43-1.95-2.09-2.18-3.71-.06-.42.48-.84.89-.59,1.22.74,2.52,1.48,2.57,3.18.02.62-.13,1.15-1.28,1.12Z"/>
        <path class="cls-1" d="M60.07,41.6c1.33.27,2.23-1.22,3.58-.89l-.05-.05c-.51,2.48-2.42,2.63-4.41,2.64,0,0,.05.05.05.05l.9-1.82-.07.07Z"/>
        <path class="cls-1" d="M69.87,174.75c.44-.1.87-.32,1.26-.26,1.03.15,2.33-.59,3.01.79.08.17-.08.67-.23.72-1.25.46-2.51.73-3.55-.45-.19-.21-.3-.49-.48-.8Z"/>
        <path class="cls-1" d="M125.36,32.65c1.69.03,3.32.22,4.34,1.83l-.08.09c-1.71,0-3.55.38-4.47-1.7l.21-.22Z"/>
        <path class="cls-1" d="M92.83,167.88c2.54-.44,4.16-.45,5.78.05-1.62.43-3.24.55-5.78-.05Z"/>
        <path class="cls-1" d="M21.42,139.39c.46.11.81.3.72.87-.08.5-.32.78-.86.66-.46-.1-.81-.34-.73-.88.07-.47.32-.78.87-.65Z"/>
        <path class="cls-1" d="M24.85,147.32c-.1.46-.32.77-.86.66-.47-.1-.78-.34-.7-.87.07-.49.32-.78.85-.67.46.1.78.34.71.88Z"/>
        <path class="cls-1" d="M62.8,163.41c-1.31.82-2.31.49-3.58.19,1.32-.87,2.32-.52,3.58-.19Z"/>
        <path class="cls-1" d="M133.2,22.18c-1.17.1-1.98-.36-2.57-1.6,1.51-.2,2.14.54,2.53,1.64l.03-.04Z"/>
        <path class="cls-1" d="M49.54,51.67c-.44.39-.82.77-1.25,1.08-.05.04-.48-.25-.48-.39-.01-.58.15-1.13.89-1.09.24.01.47.21.84.39Z"/>
        <path class="cls-1" d="M122.46,37.65c-.38.46-.94.5-1.5.42-.25-.04-.66-.18-.69-.33-.11-.51.31-.59.71-.61.56-.02,1.15-.09,1.49.52Z"/>
        <path class="cls-1" d="M129.7,34.48c.51.06,1.11-.15,1.46.41.03.05-.24.41-.41.45-.61.13-1.02-.12-1.13-.77l.08-.09Z"/>
        <path class="cls-1" d="M133.16,22.22c.53.03,1.12-.22,1.51.33.03.05-.22.43-.39.46-.65.14-1.01-.18-1.09-.83l-.03.04Z"/>
        <path class="cls-1" d="M52.21,48.63c.03-.56.33-.84.88-.88l-.05-.05c0,.58-.32.85-.88.88l.05.05Z"/>
        <path class="cls-1" d="M52.16,48.59c-.09.22-.19.44-.28.66-.11-.11-.22-.21-.32-.32.22-.1.44-.19.66-.29l-.05-.05Z"/>
        <path class="cls-1" d="M139.36,163.96c0-.31,0-.61,0-.92l-.04.04c.3,0,.6-.01.91-.02h0c.02.61-.33.85-.89.86l.03.03Z"/>
        <path class="cls-1" d="M139.33,163.93l-.32.68c-.11-.12-.22-.24-.34-.36l.69-.28-.03-.03Z"/>
        <path class="cls-1" d="M128.75,19.58c.23.1.46.2.7.3-.12.11-.24.22-.35.33-.1-.23-.19-.46-.29-.69,0,0-.05.05-.05.05Z"/>
        <path class="cls-1" d="M53.47,147.01c-.07-.09-.15-.17-.22-.26.09-.07.18-.21.26-.2.08,0,.15.16.23.24-.09.07-.18.14-.27.21Z"/>
      </g>
      <g>
        <path class="cls-1" d="M118.22,100.54v-2.96c-1.42-.84-1.85-2.24-2.58-3.61.9-.04,1.68-.08,2.64-.13,0-.75,0-1.47,0-2.18-.03-5.77-.04-11.54-.09-17.31-.03-3.55.63-4.22,4.24-4.22,4.74,0,9.47,0,14.21,0,.7,0,1.48.19,1.85-.73.06-.15.4-.23.63-.27,1.78-.34,3.56-.66,5.44-1.01.1.66.18,1.24.28,1.92.67.06,1.32.11,2.16.19-.51,1.4-.08,3.18-2.25,3.7,0,.56,0,1.16,0,1.76,0,5.22,0,10.44,0,15.67,0,.79,0,1.58-.04,2.37-.12,2.57-1.04,3.47-3.61,3.48-4.92.02-9.84,0-14.76,0-.7,0-1.49-.21-1.84.74-.05.13-.28.22-.45.28-1.85.74-3.7,1.47-5.82,2.31ZM138.21,73.5c-2.62,0-4.98,0-7.34,0-1.15,0-2.31-.04-3.46.06-1.77.16-2.59,1.05-2.73,2.82-.02.3,0,.61,0,.91.02,5.04.04,10.07.06,15.11,0,.47.07.94.11,1.47,3.68,0,7.25.06,10.82-.03,1.5-.04,2.29-.94,2.5-2.42.07-.54.07-1.09.07-1.63,0-4.55-.01-9.1-.02-13.65,0-.78,0-1.57,0-2.63Z"/>
        <path class="cls-1" d="M35.19,93.51h13.88c.84-2.71.65-5.33-.55-8.07-7.03-.1-14.05-.19-21.16-.29-.43-1.16-.83-2.27-1.32-3.6.93,0,1.59,0,2.24,0,6.19.09,12.38.12,18.57.3,1.43.04,2.09-.58,2.64-1.7.74-1.53.9-4.53-.72-6.45h-13.32v7.25h-6.56v-7.09c-2.44,0-2.05-2.06-2.79-3.59.9-.08,1.65-.14,2.08-.18.79-.56,1.29-1.07,1.9-1.3,1.69-.64,3.42-1.16,5.27-1.78.05,1.04.09,1.93.14,3,.53.04,1.05.11,1.57.11,4.55.01,9.11.07,13.66-.03,1.31-.03,2,.45,2.56,1.52,2.07,3.92,2.36,7.73-.56,11.4-.11.14-.19.31-.29.48.53.88,1.12,1.73,1.57,2.65,1.74,3.53,1.5,6.91-.87,10.1-.41.55-.84.96-1.63.95-7.46-.03-14.93-.02-22.37-.02-.39-1.33-.49-7.18-.16-10.19.97-.02,1.98-.05,2.98-.06,1.03-.01,2.05,0,3.25,0v6.57Z"/>
        <path class="cls-1" d="M85.48,97.15c-1.69-.36-2.58,1.24-4.09,1.45-1.42.2-2.8.72-4.36,1.15-.08-.85-.15-1.6-.23-2.46-.57-.03-1.09-.09-1.62-.09-4.55,0-9.1,0-13.65,0-.61,0-1.22.02-1.82-.03-1.82-.16-2.89-1.19-3.13-2.98-.04-.3-.03-.61-.03-.91,0-7.34,0-14.68,0-22.02,0-.3.03-.6.06-1.13,2.19-.65,4.41-1.32,6.85-2.05,0,.86,0,1.52,0,2.17,0,6.13-.02,12.26-.02,18.38,0,.61-.02,1.22.05,1.82.14,1.32.64,1.93,1.94,1.96,3.75.07,7.49.03,11.42.03v-22.29c2.21-.69,4.29-1.33,6.58-2.05.17,1.73.05,3.34.07,4.94.02,1.58,0,3.15,0,4.73,0,1.64,0,3.28,0,4.91,0,1.58,0,3.15,0,4.73,0,1.63,0,3.26,0,4.97.69.12,1.27.22,1.96.34v4.42Z"/>
        <path class="cls-1" d="M112.82,97.13h-24.88v-23c-2.1-.53-1.44-2.37-1.96-3.64,2.7-1.29,5.52-1.88,8.47-2.32.06.37.11.66.15.94.05.29.09.58.15,1.02h16.8c4.62,8.86,4.13,17.81,1.26,27ZM94.52,73.88v19.36c4.26.1,8.41.21,12.6.31,2.15-6.76,1.89-13.2-.48-19.66h-12.12Z"/>
        <path class="cls-1" d="M33.74,109.6v-2.25h-5.21c-.15-.44-.27-.66-.3-.89-.39-3.19-.2-3.39,3.01-3.39,1.45,0,2.9.02,4.36.04.09,0,.18.12.28.19-.02.66-.47.76-.99.76-.97,0-1.94,0-2.9.02-1.85.02-1.86.03-1.7,2.2.87,0,1.76.08,2.64-.02.82-.09,1.63-.38,2.54-.6.21.34.62.68.61,1-.04,1.01-.24,2.01-.36,3.02-.07.57-.36.92-.92.92-2.23.02-4.46,0-6.84-.33.27-.22.52-.6.8-.62.96-.08,1.93-.04,2.9-.04.66,0,1.31,0,2.09,0Z"/>
        <path class="cls-1" d="M95.85,110.94v-5.18c-1.01-.09-1.19.45-1.18,1.17,0,.97,0,1.94,0,2.9,0,.52-.1.97-.81,1.02-.5-1.67.4-3.58-.44-5.19-.16.02-.32.04-.48.06v4.74c-.49.19-.9.35-1.6.62v-6.53c1.02-1.15,1.89.22,2.87.68,1.19-.27,2.18-1.81,3.62-.51-.87,1.53-.45,3.19-.48,4.79-.02.93-.4,1.32-1.5,1.41Z"/>
        <path class="cls-1" d="M115.23,104.78c.55-.21,1.05-.4,1.51-.57,1.7.56,2.01,2.37,3.39,3.58v-3.19c.53-.16.91-.27,1.49-.44,0,2.07.05,4-.04,5.93-.02.36-.59.7-1.13,1.29-.47-2.44-1.87-3.94-3.22-5.57,0,1.2-.05,2.4.01,3.59.05.99-.36,1.46-1.46,1.52-.61-1.99.57-4.15-.55-6.14Z"/>
        <path class="cls-1" d="M68.44,110.61c.05-1.88.11-3.5.12-5.12.02-2.26,0-2.27,2.32-2.28,1.39,0,2.78,0,4.17,0,.54,0,1.13-.07,1.31.87-1.92.05-3.81.1-5.75.15-.46,1.81-.08,3.48-.24,5.33,1.17.03,2.18.01,3.17.1.93.08,2.04-.42,3.06.96-1.62,0-2.91-.03-4.19.02-.7.03-1.41.14-2.09.33-.79.22-1.4-.04-1.89-.36Z"/>
        <path class="cls-1" d="M89.98,104.53c-.17,2.2.42,4.01-.14,5.97-.34.13-.75.3-1.29.51-.09-.66-.15-1.18-.23-1.79h-2.66c-.34.65-.23,1.86-1.64,1.65v-2.79h4.29v-2.6h-2.7c-.12.68-.23,1.37-.37,2.17h-1.11c-.09-.16-.19-.26-.19-.37-.15-2.75-.15-2.76,2.54-2.75,1.07,0,2.14,0,3.51,0Z"/>
        <path class="cls-1" d="M63.97,110.4c-1.74.17-3.51.33-5.46.52-.97-.79.1-1.88-.08-2.88-.18-.99-.04-2.03-.04-3.24.81-.06,1.46-.09,2.1-.15,1.02-.09,2.04-.16,3.04-.31.65-.09.98.23.96.76-.06,1.56-.21,3.11-.34,4.67-.01.18-.1.34-.19.63ZM62.61,109.75v-4.18h-2.66v4.3c.94-.04,1.75-.08,2.66-.12Z"/>
        <path class="cls-1" d="M45.64,105.88c0,1.26-.02,2.52,0,3.77.02.9-.34,1.37-1.41,1.32-.08-1.99-.16-3.98-.24-6.05,1.45-.68,1.88-.59,2.83.74.48.67.93,1.37,1.74,1.95,0-.71,0-1.41,0-2.12,0-.81.48-1.04,1.42-.97,0,1.89.02,3.81,0,5.73-.01.75-.54.84-1.03.76-.49-.97-.91-1.88-1.41-2.74-.48-.83-1.04-1.61-1.57-2.42-.11.01-.23.02-.34.03Z"/>
        <path class="cls-1" d="M108.25,104.93c.54-.09.88-.16,1.22-.19,1.25-.11,2.51-.2,3.77-.32.9-.09,1.14.19,1.03,1.08-.11.89-.14,1.79-.17,2.69-.03.71,0,1.42,0,2.24-2.01.21-3.83.4-5.82.61-.84-.76.17-1.83.01-2.84-.16-1.05-.04-2.14-.04-3.27ZM109.8,109.78h2.69v-4.15h-2.69v4.15Z"/>
        <path class="cls-1" d="M81.79,110.93v-2.76h-2.79c-.67.88.48,2.54-1.43,2.82-.21-1.08-.56-2.16-.57-3.23-.01-1.03.32-2.06.52-3.18.3-.08.64-.17.96-.25.07.08.14.12.15.17.08.77.14,1.54.23,2.45h2.61c.78-.74-.59-2.66,1.61-2.72.05.41.14.8.15,1.2.02,1.38-.03,2.76.01,4.13.03.93-.41,1.3-1.45,1.38Z"/>
        <path class="cls-1" d="M134.6,110.95q-.27-1.65.21-2.76h-3.08c-.76.83.48,2.69-1.54,2.82-.42-1.12.21-2.46-.73-3.45.87-.74.34-1.82.68-2.67.1-.26.63-.35,1.17-.63.09,1.06.16,1.87.23,2.77h2.7c.05-.38.13-.78.16-1.17.03-.36,0-.72,0-1.19.45-.15.87-.28,1.5-.49,0,.9,0,1.61,0,2.32,0,1-.05,2,0,3,.05.98-.32,1.47-1.32,1.45Z"/>
        <path class="cls-1" d="M122.37,110.37c1.34-1.01,2.91-.23,4.39-.78v-1.55c-.74,0-1.45.02-2.16,0-.65-.02-1.29-.08-2.03-.13v-3.12c2.03-.28,3.97-.17,5.9-.11.02.12.04.25.07.37-.35.12-.69.32-1.05.35-.78.06-1.57.05-2.36.04-.99-.01-1.29.48-1.07,1.49,1.03.33,2.07.22,3.13-.04,1.28-.32,1.51-.08,1.3,1.17-.12.71-.16,1.43-.26,2.37-1.95.34-3.91.08-5.86-.05Z"/>
        <path class="cls-1" d="M104.6,108.33h-4.05c-.66.97.34,2.63-1.63,2.6-.52-2,.01-4.07-.29-6.17.58-.33,1.06-.74,1.87-.19.43.29,1.17.12,1.77.14.71.02,1.43,0,2.18,0,.52,1.17.33,2.22.14,3.63ZM103.05,105.57h-2.73v2.05c.95-.05,1.8-.09,2.73-.14v-1.91Z"/>
        <path class="cls-1" d="M140.77,108.5c-.48.88.38,2.49-1.47,2.41-.64-2,.04-4.04-.4-6.12.58-.29,1.01-.85,1.89-.25.47.32,1.29.13,1.95.17.7.04,1.41.06,2.21.1v3.23c-1.33.71-2.77.09-4.18.46ZM140.68,107.42c2.59.46,2.98.18,2.53-1.88h-2.53v1.88Z"/>
        <path class="cls-1" d="M38.44,105.58v1.81h3.42c-1.17,1.26-2.38.41-3.4.96v1.66h4.48c0,.15.02.3.02.45-.96.43-2.06.31-3.04.17-1.07-.15-2.06.9-3.17.14v-5.88c.28-.11.79-.52,1.11-.4,1.66.64,3.36.14,5.02.37.05,0,.1.07.15.1q-.44.62-2.04.63c-.79,0-1.57,0-2.55,0Z"/>
        <path class="cls-1" d="M56.99,110.43c-1.42.26-2.86.24-4.44,0v-4.67c-.65-.21-1.18-.38-1.96-.63,2.29-1.12,4.35-.25,6.6-.31-.95,1.18-2.11.27-3.12.9-.31,1.11-.12,2.41-.06,3.94,1.02.1,2,.19,2.99.29,0,.16,0,.32-.01.47Z"/>
        <path class="cls-1" d="M107.08,104.53c0,1.85-.02,3.6,0,5.35.01.83-.51.99-1.38,1.12-.11-1.94-.06-3.84-.04-5.74,0-.75.55-.83,1.4-.73Z"/>
        <path class="cls-1" d="M138.19,104.56c0,1.82.01,3.67,0,5.53,0,.71-.53.84-1.27.92-.26-1.93-.11-3.83-.1-5.73,0-.71.54-.85,1.37-.71Z"/>
      </g>
    </g>
  </g>
</svg>