<?xml version="1.0" encoding="UTF-8"?>
<svg id="Capa_2" data-name="Capa 2" xmlns="http://www.w3.org/2000/svg" viewBox="0 0 266.78 178">
  <defs>
    <style>
      .cls-1 {
        fill: #000;
        stroke-width: 0px;
      }
    </style>
  </defs>
  <g id="Capa_1-2" data-name="Capa 1">
    <g>
      <path class="cls-1" d="M15.17,0h246.71c-3.77,21.53-7.52,42.92-11.31,64.57h16.2c-1.22,7-2.38,13.71-3.56,20.42-1.65,9.35-3.45,18.67-4.93,28.05-2.95,18.66-18.8,34.88-37.42,37.89-3.14.51-6.37.76-9.55.76-67.35.04-134.7.03-202.05.03-.85,0-1.71,0-2.8,0,3.82-21.73,7.58-43.17,11.39-64.86H0C5.08,57.79,10.1,29.02,15.17,0ZM134.87,135.47c2.99,0,5.7.22,8.37-.05,5.82-.58,9.67-4.46,10.56-10.3.81-5.3.82-5.18,6.28-5.36,2.07-.07,3.08.57,3.89,2.45,1.69,3.91,3.6,7.72,5.54,11.51.38.75,1.25,1.76,1.91,1.78,5.39.14,10.78.08,16.64.08-3.17-6.29-6.11-12.13-9.12-18.1,5.86-2.94,9.62-7.52,11.31-13.76,3.42-12.67-4.19-22.73-17.22-22.76-5.15-.01-10.3,0-15.45,0-4.34,0-8.69,0-13.14,0-3.21,18.29-6.37,36.3-9.57,54.51ZM188.89,29.6c-2.62-6.81-6.62-11.23-12.66-13.22-17.9-5.91-40.06,3.41-43.31,26.52-1.86,13.23,3.99,23.21,15.5,26.98,11.43,3.74,22.37,2.18,32.6-4.24,2.28-1.43,3.68-3.13,3.84-6.01.15-2.69.96-5.33,1.43-8,.76-4.32,1.47-8.64,2.24-13.17h-25.27c-.71,3.95-1.37,7.63-2.1,11.68h9.49c-.15,4.47-.62,5.32-4.51,6.1-2.42.48-5.03.63-7.47.32-6.1-.77-9.33-5.1-8.74-11.22.1-1.06.21-2.14.46-3.17,1.39-5.68,4.53-9.84,10.42-11.35,5.33-1.37,10.06-.77,12.98,4.78,5.07-2.02,9.99-3.98,15.09-6.01ZM235.88,55.17h-28.44c.17-.81.41-1.38.39-1.93-.11-3.08,1.59-3.53,4.23-3.39,4.07.21,8.16.11,12.24-.01.76-.02,2.06-.61,2.17-1.13.84-3.94,1.44-7.93,2.16-12.2h-17.8c.32-1.86.59-3.43.9-5.2h28.31c.92-5.16,1.82-10.15,2.74-15.28h-45.58c-3.19,18.14-6.36,36.16-9.57,54.47,1.01,0,1.86,0,2.71,0,10.89,0,21.77.02,32.66,0,6.34-.01,10.82-3.82,11.95-10.08.29-1.62.57-3.24.93-5.24ZM133.67,70.41c-4.24-17.95-8.38-35.58-12.64-53.17-.15-.61-1.52-1.29-2.34-1.31-4.47-.13-8.95.09-13.41-.12-2.45-.12-3.8.66-5.02,2.81-6.13,10.78-12.44,21.46-18.68,32.19-3.74,6.42-7.45,12.85-11.42,19.7,4.39,0,8.33-.05,12.27.01,4.33.06,7.77-1.68,10.08-5.26.95-1.48,1.99-1.81,3.56-1.79,5.25.06,10.5.1,15.75,0,1.89-.04,2.88.4,2.97,2.48.06,1.49.55,2.97.85,4.48h18.03ZM122.62,81.05c-1.87,10.52-3.74,20.8-5.52,31.09-1.03,5.97-4.16,8.65-10.37,8.64-5.7-.02-7.91-2.72-6.85-8.35.2-1.05.37-2.1.56-3.15,1.65-9.34,3.31-18.67,5.02-28.31-5.15,0-10.09.07-15.03-.04-1.72-.04-2.29.54-2.57,2.24-1.6,9.65-3.34,19.29-5.06,28.92-2.17,12.11,2.52,20.43,13.41,23.47,2.32.65,4.76,1.01,7.17,1.14,13.95.77,26.16-4.29,29.67-19.05,2.86-12.01,4.53-24.3,6.76-36.6h-17.18ZM78.39,29.56c-2.3-6.65-6.75-10.95-13.13-13.22-19.58-6.96-41.13,7.18-42.69,27.94-.71,9.5,1.48,17.88,9.92,23.35,7.65,4.96,16.12,5.06,24.69,2.89,7.24-1.84,12.93-5.84,16.71-12.53-4.42-3.11-8.68-6.11-12.69-8.92-2.03,1.8-3.7,3.78-5.79,5.06-7.14,4.36-15.06.88-15.65-6.92-.38-5.02,1.21-9.64,5.03-13.14,5.95-5.44,14.51-4.32,18.69,2.45,4.95-2.31,9.91-4.62,14.91-6.95ZM69.52,103.4h-19.53c.51-2.52.93-4.64,1.39-6.91h29.52c.91-5.2,1.78-10.22,2.68-15.34h-46.76c-3.19,18.17-6.35,36.16-9.56,54.45,4.94-.26,9.73.79,14.05-2.15,5.06-3.45,4.88-9.11,6.07-14.42h19.4c.91-5.21,1.79-10.22,2.74-15.64ZM247.86,80.96c-5.1,0-9.69.34-14.2-.1-4.41-.42-7.12,1.11-9.43,4.83-2.81,4.53-6.27,8.67-9.66,13.27-2.24-5.69-4.25-10.92-6.38-16.09-.31-.75-1.16-1.8-1.78-1.81-5.56-.14-11.13-.08-16.95-.08,4.66,10.48,9.21,20.52,13.55,30.65.7,1.64.86,3.74.61,5.53-.87,6.09-2.04,12.14-3.09,18.16,3.25,0,6.26.19,9.23-.05,3.27-.26,6-1.97,7.55-4.82,1.17-2.15,1.66-4.68,2.41-7.05,1.08-3.44.54-7.2,3.1-10.38,8.37-10.42,16.48-21.05,25.04-32.05Z"/>
      <path class="cls-1" d="M144.28,170.5c-1.34,1.42-2.25,2.4-3.17,3.37-.19.2-.42.38-.84.76-.8-1.21-1.55-2.36-2.4-3.64-1.53,1.89-.3,5.01-2.32,6.54-.34-.12-.68-.24-1.02-.37.59-3.31,1.18-6.62,1.77-9.92.31-.1.62-.21.92-.31,1.13,1.63,2.26,3.25,3.37,4.85,2.23-1.13,2.78-4.49,6.22-4.56-.87,3.59-.81,7.13-2.14,10.25-.47-.12-.93-.25-1.4-.37.31-2.05.63-4.1,1.01-6.6Z"/>
      <path class="cls-1" d="M87.44,169.94c-.67-.14-1.33-.29-2-.42-1-.2-2.34-.87-2.95-.47-1.31.88-2.51,2.19-3.2,3.59-.27.55.71,2.31,1.51,2.69,1.75.83,3.56.52,4.92-1.68-1.07-.25-1.93-.45-2.78-.65-.05-.26-.11-.52-.16-.78,1.42-.24,2.84-.47,4.32-.72.25,4.11-.36,5.05-3.52,5.85-2.51.64-5.02-.41-5.92-2.47-.97-2.23.14-5.37,2.43-6.87,2.6-1.71,5.23-1.29,7.35,1.93Z"/>
      <path class="cls-1" d="M25.58,171.97c1.46-.12,2.93-.23,4.43-.35.17,4.12-.51,5.09-3.83,5.8-2.47.53-5.02-.69-5.78-2.75-.84-2.29.4-5.36,2.73-6.75,2.73-1.64,5.24-1.14,7.78,2.01-1.19-.17-1.87-.27-2.55-.35-1.28-.15-2.93-.85-3.74-.3-1.18.8-2.06,2.41-2.46,3.85-.17.59,1.08,2.05,1.96,2.36,1.7.61,3.39.26,4.4-1.92-1.1-.24-2.02-.45-2.93-.65,0-.32,0-.63,0-.95Z"/>
      <path class="cls-1" d="M63.83,176.98c.45-2.84.86-5.69,1.38-8.52.08-.45.68-1.17.94-1.13.57.08,1.25.46,1.57.93,1.21,1.73,2.29,3.56,3.53,5.53,1.49-2.1.24-5.21,2.44-6.7.29.09.59.19.88.28-.47,3.01-.91,6.04-1.52,9.02-.03.17-1.91.38-2.2,0-1.35-1.74-2.45-3.68-3.76-5.73-1.51,2.12-.16,5.24-2.42,6.75-.28-.14-.57-.28-.85-.43Z"/>
      <path class="cls-1" d="M172.37,177.6c-2.69-.02-4.6-1.91-4.61-4.56-.02-3.32,2.74-6.02,6.17-6.03,2.69,0,4.71,1.92,4.69,4.49-.03,3.16-3.06,6.13-6.24,6.1ZM176.62,171.69c.13-2.03-1.07-2.79-2.85-2.86-2.23-.08-4.17,1.78-4.18,3.96,0,1.91,1.06,2.8,2.92,2.83,2.36.04,4.08-1.61,4.11-3.94Z"/>
      <path class="cls-1" d="M192.21,167.32c-.63,3.46-1.21,6.67-1.85,10.2-3.52-1.1-3.58-4.94-5.92-6.74-.6,2.16-1.18,4.31-1.83,6.44-.03.1-.69.01-1.41.01.61-3.41,1.2-6.67,1.85-10.29,3.52,1.28,3.69,5,5.94,6.95q1.45-6.22,3.22-6.57Z"/>
      <path class="cls-1" d="M236.96,175.7c2.66-1.6,5.81,1.77,8.16-1.77-1.37-.35-2.59-.44-3.58-.97-1.16-.62-2.11-1.63-3.14-2.47,1.06-1.09,1.92-2.6,3.21-3.18,1.97-.88,3.96-.25,5.9,2.13-1.11,0-1.76.08-2.38-.02-.92-.15-1.84-.64-2.74-.6-.76.03-1.5.62-2.25.96-.01.29-.02.57-.03.86,1.2.29,2.49.39,3.58.91,1.09.53,2.92,1.78,2.78,2.2-.4,1.28-1.36,2.79-2.52,3.34-2.2,1.06-4.51.51-6.98-1.4Z"/>
      <path class="cls-1" d="M204.26,169.5c-2.65.6-5.33-2.56-7.48,1.19,1.47.32,2.8.4,3.92.91,1.02.47,2.65,1.54,2.55,2.11-.2,1.21-1.1,2.75-2.15,3.28-2.38,1.19-4.83.71-6.93-1.83h7.37c.06-.41.12-.82.18-1.23-1.09-.3-2.29-.39-3.24-.94-1.2-.69-2.19-1.74-3.26-2.64,1.1-1.05,2.02-2.53,3.33-3.05,1.98-.79,3.97-.23,5.71,2.2Z"/>
      <path class="cls-1" d="M214.21,173.07c-1.16,0-2.13.08-3.08-.02-1.7-.18-2.45.44-2.56,2.21-.05.77-.8,1.5-1.72,2,.53-3.47-.03-7.16,1.91-10.09.35.09.7.17,1.05.26-.11,1.2-.22,2.4-.35,3.74h4.48c2.09-.7-.28-4.19,3.02-3.84-.65,7.93-1.18,9.61-3.22,9.75.15-1.25.29-2.47.48-4Z"/>
      <path class="cls-1" d="M112.06,167.53c-.14,1.14-.29,2.27-.46,3.6h4.95c1.17-.99-.22-3.85,2.63-3.92-.74,8.26-1.15,9.57-3.29,9.9.17-1.27.33-2.48.51-3.87h-4.9c-.57,1.41-1.15,2.86-1.74,4.3-1.22-5.2.3-10.09,2.28-10.02Z"/>
      <path class="cls-1" d="M36.15,171.29c1.18,0,2.15-.1,3.09.02,1.75.22,2.43-.51,2.57-2.21.06-.72.68-1.4,1.37-1.92.49,5.54-.74,9.72-2.74,9.96.17-1.26.33-2.46.52-3.91-.8-.05-1.61-.13-2.42-.15-.86-.03-1.72,0-2.39,0-.72,1.65-1.34,3.07-1.95,4.49l-.75-.38c.04-5.51,1.09-9.22,3.19-10-.16,1.37-.3,2.56-.48,4.12Z"/>
      <path class="cls-1" d="M120.79,176.95c1.78-2.85,3.53-5.72,5.39-8.52.36-.54,1.2-1.15,1.73-1.08.51.07,1.14.91,1.32,1.53.8,2.67,1.46,5.38,2.45,9.12-3.8-3.64-7.25-3.22-10.64-.14-.08-.3-.16-.61-.24-.91ZM125.11,173.46h3.52c-.39-1.4-.71-2.54-1.13-4.03-.92,1.55-1.62,2.73-2.39,4.03Z"/>
      <path class="cls-1" d="M152.08,173.78c-.72,1.48-1.29,2.64-1.87,3.8l-1.06-.45c.57-3.24,1.15-6.48,1.75-9.9,1.74,0,3.27.02,4.8,0,2-.03,3.5.65,3.49,2.88-.01,2.11-1.23,3.42-3.35,3.64-1.32.14-2.67.03-3.76.03ZM152.34,172.76c1.84-.81,3.39-1.49,4.95-2.17-.59-.53-1.13-1.42-1.78-1.52-1.87-.28-3.89-.38-3.16,3.69Z"/>
      <path class="cls-1" d="M225.56,176.84c.58-3.13,1.16-6.25,1.78-9.59,1.79,0,3.42,0,5.06,0,1.77,0,3.06.68,3.19,2.62.13,2.02-.89,3.43-2.84,3.81-1.4.27-2.88.05-4.06.05-.85,1.47-1.52,2.63-2.2,3.79-.31-.23-.62-.46-.93-.68ZM228.17,172.64c2.23-.64,3.8-1.03,5.3-1.58.18-.07.13-1.5.02-1.52-1.45-.31-2.93-.48-4.57-.7-.23,1.17-.4,1.99-.76,3.81Z"/>
      <path class="cls-1" d="M105.33,175.1c-1.43,2.01-3.35,2.93-5.87,2.21-2.1-.61-3.36-2.16-3.25-4.29.14-2.68,1.46-4.84,4.2-5.68,2.43-.74,4.56-.36,6.43,2.96-1.45-.49-2.18-.67-2.85-.97-2.06-.92-3.99-.65-5.05,1.3-.59,1.08-.77,3.11-.14,3.92.61.77,2.53.66,3.86.63.77-.02,1.52-.63,2.28-.98.13.3.25.6.38.9Z"/>
      <path class="cls-1" d="M5.52,173.72c-.61,1.3-1.19,2.56-1.77,3.81l-1.05-.42c.49-2.91.92-5.83,1.51-8.72.09-.45.87-1.07,1.35-1.09,2.2-.12,4.41-.05,6.76-.05-.55,2.96-2.65,1.58-3.95,1.7-1.72.16-3.2.11-2.52,2.73h3.32q-.41,1.7-3.66,2.05Z"/>
      <path class="cls-1" d="M49.1,176.99c.44-2.55.87-5.09,1.33-7.77-1.12-.13-2.23-.26-3.37-.39.74-1.8,2.61-2.07,9.29-.65-1.14.41-2.28.81-3.93,1.4-1.54,1.88.19,5.77-2.47,7.83-.28-.14-.56-.28-.84-.41Z"/>
      <path class="cls-1" d="M61.22,167.36c-.8,8.15-1.3,9.6-3.25,9.67.69-7.56,1.24-9.32,3.25-9.67Z"/>
      <path class="cls-1" d="M162.14,177.24q.86-9.5,2.91-9.82c-.95,3.41-.42,7.09-2.91,9.82Z"/>
      <path class="cls-1" d="M223.15,167.42q-1.67,9.3-3.15,9.74c-.42-4.23,1.16-9.47,3.15-9.74Z"/>
      <path class="cls-1" d="M17.31,167.34c-.25,6.43-1.29,9.54-3.17,9.77.96-8.4,1.22-9.25,3.17-9.77Z"/>
      <path class="cls-1" d="M157.26,105.62c.61-3.4,1.17-6.53,1.77-9.89,3.78,0,7.44-.19,11.06.06,3.34.23,4.72,3.03,3.25,6.12-1.15,2.42-3.2,3.61-5.81,3.69-3.28.1-6.56.02-10.27.02Z"/>
      <path class="cls-1" d="M109.23,34.3c.98,5.58,1.83,10.48,2.73,15.57h-11c2.7-5.09,5.33-10.04,8.27-15.57Z"/>
    </g>
  </g>
</svg>