<?xml version="1.0" encoding="UTF-8"?>
<svg id="Capa_2" data-name="Capa 2" xmlns="http://www.w3.org/2000/svg" viewBox="0 0 464.1 122.59">
  <defs>
    <style>
      .cls-1 {
        fill: #000;
        stroke-width: 0px;
      }
    </style>
  </defs>
  <g id="Capa_1-2" data-name="Capa 1">
    <g>
      <path class="cls-1" d="M455.06,67.8c.4-2.13-.47-3-2.61-2.61,0-.65-.14-1.83.02-1.87,3.12-.82,4.91-3.57,7.52-5.11.75-.44,1.33-.99,2.26-.85.61.09,1.44-.28,1.71.49.18.51.2,1.36-.1,1.71-1.28,1.46-2.8,2.72-4.07,4.2-.78.91-1.25,2.07-1.87,3.11-.68,1.16-1.81.93-2.87.92Z"/>
      <path class="cls-1" d="M260.84,3.93c.15-.92-.54-2.29.9-2.54.9-.16,2.43-.62,2.78.5.32,1.05,1.32,2.92-1.07,3.35-.1-.75.07-1.81-.36-2.2-.86-.76-.98.76-1.65.89-.19.04-.4,0-.6,0Z"/>
      <path class="cls-1" d="M352.08,6.54c-1.84-.77-3.14-2.08-3.91-3.91,2.92.27,3.64.99,3.91,3.91Z"/>
      <path class="cls-1" d="M345.56,1.32h-5.21c1.65-1.76,3.56-1.76,5.21,0Z"/>
      <path class="cls-1" d="M452.45,57.37v-3.91c1.79,1.31,1.79,2.6,0,3.91Z"/>
      <path class="cls-1" d="M348.17,2.63c-.99-.2-2.5.65-2.61-1.3.99.2,2.5-.65,2.61,1.3Z"/>
      <path class="cls-1" d="M258.23,7.84c.2-.99-.65-2.5,1.3-2.61-.2.99.65,2.5-1.3,2.61Z"/>
      <path class="cls-1" d="M263.45,5.23c-.2.99.65,2.5-1.3,2.61.2-.99-.65-2.5,1.3-2.61Z"/>
      <path class="cls-1" d="M259.54,5.23c-.03-.9.4-1.34,1.3-1.3.03.9-.4,1.34-1.3,1.3Z"/>
      <g>
        <path class="cls-1" d="M452.86,66.06c-1.17-.31-4.55.73-4.96-.51.01-2.07,3.54-5.13,4.21-7.44.96-2.3.77-5.42-1.24-7.03-3.06-2.24-8.99,3.85-13.06,7.88-.78.71-1.59,1.48-2.53,1.75-1.34.08.92-4.01.94-5.07.33-1.67-.36-3.36-1.8-4.29-3.27-2.1-6.45.39-9.03,2.71-2.04,1.68-3.81,3.23-5.53,5.02-1.15,1.1-2.46,2.71-3.96,3.22-.42.07-.34-.33.26-1.07,2.7-3.14,7.36-6.92.98-9.51-3.01-1.26-5.9.93-7.79,3.26-1.04,1.14-2.41,3.16-3.82,3.13-.94-.06-1.74-1.35-2.78-2.86-2.59-3.87-7.25-6.6-11.96-6.07-9.18,1.22-9.64,11.81-14.89,16.75-1.26,1.14-2.74,2.03-4.26,2.83-2.67,1.2-7.08,3.78-9.45,1.75-2.57-2.61,4.21-13.23,6.55-14.25.9-.38.71.64.4,1.31-.47,1.71-5.44,7.75-1.42,8.11,5.45-.37,13.97-8.11,6.21-12.81-3.73-2.16-8.35-5.43-12.57-2.85-1.65.93-2.89,2.45-4.3,3.68-2.57,2.44-6,3.43-8.8,5.56-3.26,2.65-7.21,4.95-11.61,6.26-.91.21-5.84,2.35-3.88.09,14-14.7-3.36-23.64-12.22-8.48-1.75,3.09-3.9,6.39-7.53,7.23-15.16,3.67,29.41-37.28,31.28-42.46,1.73-2.78,4.29-5.1,6.18-7.84,2.95-4.26,2.3-7.95-.26-10.14-3.05-2.94-10.22-2.72-14.69.33-4.23,2.56-7.38,7.09-9.7,11.29-5.57,9.6-12.97,19.9-16.56,29.93-.36.98-.79,2.08-1.42,2.83-.69.84-1.62,1.29-2.8,1.47-10.15-.3-13.01,5.34-20.06,12.27-2.26,2.06-6.76,4.55-9.51,2.61-2.47-2.86,12.17-13.88,19.64-20.7,8.88-9.01,38.65-34.33,29.36-42.38-2.15-1.44-5.43-1.5-8.86-1.27-3.74.27-6.67,2.08-9.41,4.49-14.71,12.77-23.66,27.61-33.65,44.4-1.03,1.66-2.43,3.72-3.92,4.67-.54.34-1.04.58-1.63.65-2.07.25-3.13-1.66-5.32-1.31-5.81,1.27-8.09,8.14-13.27,10.69-3.21.6,1.41-4.65,1.9-5.96,2.41-3.67-.79-10.39-5.35-8.88-2.47,1.04-3.99,3.46-5.55,5.55-2.33,3.12-4.97,7.69-5.44,11.17-.6,3.51,2.56,6.59,5.79,7.32,1.63.38,3.74-.47,5.02-.48.27,0,.61.02.83.16.4.22.37.69.29,1.1-1.04,3.52-4.53,7.32-6.41,10.63-4.63,10.62-15.38,21.16-18.22,32.51-.82,3.35,1.47,6.16,4.98,5.46,2.42-.41,4.17-2.51,5.53-5.01,8.83-17.63,17.35-35.58,34.17-44.9,3.42-1.76,6.19.59,10.14.3,2.92-.22,5.74-1.76,8.69-1.38,2.99.3,5.95,2.98,9.09,3.12,2.61.2,4.78-1.6,6.82-2.96,4.54-3.07,5.61.59,9.37,1.3,1.31.1,2.4-.62,3.46-1.36,1.9-1.42,4.2-2.99,6.67-2.33,4.73,1.22,8.18,7.4,14.01,6.04,2.99-.55,5.52-2.57,8.36-2.44,1.84.02,3.65.68,5.49.65,2.8-.12,5.2-1.63,7.6.23.64.4,1.32.88,1.99,1.29,3.24,1.95,8.98,2.41,12.86.88,3.04-1.31,5.44-4.3,8.95-4.34.74-.05,1.47.04,2.18.24,3.07.82,6.17,4.09,9.89,3.53,2.7-.26,4.79-2.54,6.79-4.04.92-.64,1.78-.93,2.81-.6,1.56.44,3.35,2.35,5.26,2.73,3.86.71,6.26-2.7,9.24-5.18,1.28-.99,4.35-4.12,5.09-1.33.37,1.55.2,3.28.91,4.76.98,2.09,3.62,2.45,6.03,1.21,1.72-.85,3.17-2.27,4.53-3.58.91-.69,1.69-1.94,2.66-1.81.79.34,1.06,2.65,1.5,3.63,1.1,3.14,4.98,5.43,8.44,5.22,2.8-.18,5.25-1.91,7.21-3.84,1.74-1.6,4.75-5.82.97-6.42h-.1ZM334.87,55.48c.26.35-.22,1.24-.98,2.27-1.64,2.14-3.78,5.09-6.4,5.9-.84.21-1.61-.45-1.54-1.3.16-1.51,1.58-2.39,2.8-3.48,1.58-1.29,4.21-4.12,6.08-3.43l.04.05ZM328.67,28.95c1.79-3.06,4.14-5.54,6.1-8.59,2.17-3.43,4.64-6.73,7.83-9.26,1.48-1.29,3.1-2.45,3.64-2.3.43.06.25.86.17,1.16-4.44,12.49-16.12,20.94-23.62,31.36-.58.96-3.88,5.16-3.24,1.91,1.03-3.41,7.15-10.29,9.06-14.17l.06-.1ZM300.03,27.72c2.21-2.5,4.78-4.87,6.72-7.74,2.47-3.34,9.09-14.08,13.5-12.99,3.27,3.33-11.28,17.73-13.99,20.42-5.34,4.98-9.16,10.21-14.09,15-1.32,1.26-2.69,2.48-4.12,3.48-5.81,3.75,5.25-8.98,6.17-10.35,2.02-2.52,3.83-5.49,5.73-7.7l.09-.11ZM266.17,62.46c-1.73,4.59-6.47,7.83-9.47,11.7-.83,1.04-1.62,2.46-2.65,3.21-1.4.85-.91-.79-.39-1.43.4-.6,1-1.24,1.54-1.83,3.07-2.88,12.91-18.73,11.01-11.76l-.04.11ZM300.53,65.58c-7.51,9.47-6.8.63-.15-7.82.6-.68,1.68-1.68,2.46-1.43,2.08,1.38-1,7.58-2.23,9.15l-.08.1ZM391,70.27c-.89.52-2.05.58-2.91,0-1.68-1.08-.48-4.22.05-6.89.16-.69.34-1.47.85-1.94,1.32-.93,2.57,1.42,3.41,2.27.85.94,1.73,2.48,1.07,3.65-.52,1.08-1.29,2.18-2.34,2.84l-.12.07Z"/>
        <path class="cls-1" d="M266.25,61.36c0-.1.22-.59.16-.66-.24.03-.71.53-.22.68l.06-.02Z"/>
        <path class="cls-1" d="M333.77,55.69c-.11.28.19.68.36.3.1-.41.08-.59-.29-.38l-.07.08Z"/>
        <path class="cls-1" d="M76.52,55.15c.49-2.36-1.32-4.56-3.61-3.8-7.7,2.81-15.97,14.23-19.28,20.09-1.88,3.93-4.94,7.12-8.44,9.71-3.67,2.93-8.08,3.9-12.92,5.26-8.29,2.81-19.35,3.16-24.75-4.47-4.64-6.17-1.72-15.98,2.85-22,4.07-5.53,9.34-9.67,14.39-14.48,2.6-2.42,5.55-4.35,8.52-6.25,2.93-1.92,5.66-3.95,8.58-5.65,2.04-1.22,4.24-2.16,6.26-3.46,2.17-1.31,4.14-2.73,6.29-3.67,1.88-.85,3.84-1.45,5.73-2.31,3.59-1.65,6.97-3.77,10.76-4.85,8.58-2.41,17.26-5.47,26.02-7.28,13.11-2.7,19.76,4.51,3.39,11.74-3.47,1.69-9.48,1.45-7.76,5.99,6.03,10.53,31.34-7.56,22.93-16.5-5.38-5.29-14.59-5.82-21.94-6.13C57.5,4.85-23.12,46.25,6.35,87.59c9.44,8.56,21.05,8.32,33.01,4.14.99-.16,1.74-.15,1.85.79.12,1.08-.92,3.34-1.6,5.47-1.78,5.35-2.91,11.19-.72,15.17,1.86,3.38,4.44,2.66,6.18-.61,6.63-11.5,13.48-25.84,19.29-38.21,1.19-2.41,3.05-4.81,4.62-6.74,1.82-2.34,3.54-5.44,5.25-7.89,1.09-1.28,1.98-2.81,2.27-4.46l.02-.1ZM12.8,88.69c.16,0,.78-.03.91-.03-.27,0-.67.03-.91.03h0Z"/>
        <path class="cls-1" d="M221.74,72.32c13.67-13.39,42.53-60.46,40.89-67.79-.72-1.57-3.61,2.21-4.46,3.19-23.68,28.69-43.99,70.27-79.12,83.91-1.8.48-3.6.46-4.86-.31-3.88-2.76-1.24-8.89-.04-12.67,1.26-3.31,2.41-7.09,4.12-9.37,1.72-2.36,4.23-3.99,6.21-6.12,1.48-1.53,2.66-3.34,4.06-4.93,2.79-3.09,6.16-5.57,8.71-8.94,4.13-5.02,9.87-3.83,16.38-3.55,2.49.03,9.79.86,9.07-2.64-1.1-2.42-5.33-4.09-8.02-4.82-5.33-1.16-5.59-.23-3.75-5.7,1.13-3.48,3.68-7.77,2.28-11.23-4.03-5.45-19.08,5.15-21.88,9.75-1.82,2.51-3.26,5.26-6.1,6.75-7.32,4.06-19.37,3.48-28.4,2.11-1.26-.26-3.93-.47-3.4-2.19.59-1.42,2.11-2.67,3.15-4.03,2.59-3.39,5.43-6.77,8.79-9.64,2.85-2.61,5.46-5.06,8.39-7.33,1.53-1.21,3.18-1.85,4.32-3.1.53-.65.54-1.32-.1-1.92-1.96-1.66-5.82-1.86-8.45-1.39-19.56,2.01-28.89,39.52-46.36,28.36-1.16-.48-2.37-.64-3.65-.38-2.24.41-4.44,1.75-6.76,2.42-1.62.55-3.6.73-4.95,1.76-1.08.94-.34,2.38-.11,3.58.26,1.03.27,2.11-.11,3.12-1.25,3.23-3.6,6-4.86,9.27-1.1,3.33-3.17,6.03-6.65,7.04-2.21.74-7.12,2.43-4.96-.49,2.34-2.71,6.22-5.6,5.38-9.66-.48-2.72-2.95-5.48-5.5-6.02-3.77-.87-7.81,3.03-11.04,5.75-5.42,4.55-2.61,11.64,1.92,15.93,2.46,2.63,6.15,5.23,9.86,4.3,3.71-.54,6.99-4.93,10.79-3.02,1.82.93,3.68,2.41,5.83,2.64,2.19.29,4.38-.54,6.26-1.65,5.02-3.07,8.24-8.21,9.22-.15.79,8.47,1.57,14.06,8.93,19.55,7.99,6.78,19.76.29,28.42-4.92,2.42-1.5,4.29-1.36,6.02,1.14,12.05,22.91,42.91-2.11,54.5-16.55l.05-.06ZM146.71,46.54c1.78-1.8,4.89-1.42,7.89-1.94,9.71-1.16,25.58-2.78,24.82,3.41-.51,3.24-3.44,5.57-5.22,8.21-1.15,1.59-2.09,3.36-2.93,5.21-1.92,4.16-3.2,8.99-5.29,12.91-1.22,2.25-3.15,3.76-5.31,5.06-7.82,4.76-19.05,11.76-26.77,8.14-5.51-2.63-2.85-9.63-1.51-14.24,1.77-5.14,3.55-9.98,5.99-14.59,1.66-3,4-5.79,5.95-8.67.73-1.15,1.42-2.43,2.32-3.42l.07-.07ZM121.61,48.38c1.11-.88,2.42-1.56,3.89-2.07,19.06-6.97-2.42,18.83-15.79,23.72-4.6,1.27-1.44-5.08-.18-7.33,1.71-3.02,4.02-5.63,6.33-8.23,1.81-1.96,3.64-4.4,5.64-6.01l.11-.08ZM91.94,58.7c-.98,1.47-2.93,3.08-4.4,4-3.45,2.19-2.45-2.42-1.33-3.84,1.2-1.33,5.24-3.35,6.1-2.4.47.63.08,1.47-.28,2.1l-.08.13Z"/>
        <path class="cls-1" d="M345.6,10.44c.13.02.27-.21.29-.54.01-.25.15-.63.09-.68-.36.03-.63.97-.43,1.2l.05.03Z"/>
      </g>
    </g>
  </g>
</svg>