<svg fill="none" viewBox="0 0 193 43" xmlns="http://www.w3.org/2000/svg" xmlns:xlink="http://www.w3.org/1999/xlink"><linearGradient id="a"><stop offset="0" stop-color="#676767"/><stop offset=".000234375" stop-color="#3d3d3d"/><stop offset=".3247" stop-color="#6c6c6c"/><stop offset=".6731" stop-color="#646464"/><stop offset="1" stop-color="#979797"/></linearGradient><linearGradient id="b" gradientUnits="userSpaceOnUse" x1="5.07336" x2="5.10641" xlink:href="#a" y1="7.33527" y2="7.33527"/><linearGradient id="c" gradientUnits="userSpaceOnUse" x1="18.2023" x2="18.293" xlink:href="#a" y1="4.94881" y2="4.94881"/><linearGradient id="d" gradientUnits="userSpaceOnUse" x1="38.325" x2="38.3905" xlink:href="#a" y1="4.47052" y2="4.47052"/><linearGradient id="e" gradientUnits="userSpaceOnUse" x1="13.0536" x2="-1.12871" xlink:href="#a" y1="6.97611" y2="6.97611"/><linearGradient id="f" gradientUnits="userSpaceOnUse" x1="25.0513" x2="9.94974" xlink:href="#a" y1="-3.14372" y2="25.2595"/><linearGradient id="g" gradientUnits="userSpaceOnUse" x1="3.49963" x2="24.3399" xlink:href="#a" y1="7.45569" y2="7.45569"/><linearGradient id="h" gradientUnits="userSpaceOnUse" x1="50.6818" x2="17.683" xlink:href="#a" y1="-3.97971" y2="34.4716"/><linearGradient id="i" gradientUnits="userSpaceOnUse" x1="10.3244" x2="44.9639" xlink:href="#a" y1="13.8033" y2="13.8033"/><linearGradient id="j" gradientUnits="userSpaceOnUse" x1="23.1361" x2="46.6211" y1="28.9392" y2="28.9392"><stop offset="0" stop-color="#979797"/><stop offset=".507" stop-color="#646464"/><stop offset="1" stop-color="#6c6c6c"/></linearGradient><g fill="#fff"><path d="m64.4551 34.6557v-21.7275h7.1545c1.4635 0 2.7281.2354 3.8483.7062 1.1202.4707 1.9693 1.2131 2.5836 2.2451.6143 1.0321.9214 2.4082.9214 4.092 0 1.6658-.3071 3.0238-.9214 4.0558-.6143 1.0321-1.4815 1.8107-2.5836 2.2995-1.1021.4889-2.3848.7243-3.8483.7243h-4.0651v7.6046zm3.0894-10.2481h3.6315c1.5718 0 2.7643-.3622 3.5592-1.0864.795-.7243 1.1924-1.8287 1.1924-3.3315 0-1.5029-.3794-2.6255-1.1201-3.3497-.7408-.7243-1.9512-1.0864-3.6134-1.0864h-3.6496z"/><path d="m88.4666 34.9636c-1.7886 0-3.2882-.3621-4.5168-1.1045-1.2105-.7423-2.1319-1.702-2.7642-2.9332-.6324-1.2131-.9395-2.553-.9395-4.0196 0-1.4123.2891-2.7159.8672-3.8928.5782-1.1769 1.4273-2.1184 2.5475-2.8427 1.1021-.7061 2.4571-1.0683 4.0289-1.0683 1.2647 0 2.3849.2535 3.3786.7605.9936.507 1.7524 1.2312 2.3306 2.1909.5601.9596.8491 2.1184.8491 3.4945 0 .2172.0001.4526-.018.7061s-.0542.507-.1084.7786h-11.0028c.1264 1.4123.4697 2.4986 1.0117 3.2953.542.7786 1.2105 1.3399 2.0235 1.6658s1.6983.4888 2.6739.4888c.7047 0 1.4273-.0724 2.2042-.2172.7588-.1449 1.4815-.3803 2.1681-.6881l.3794 2.209c-.5962.2535-1.3009.5251-2.15.7786-.8492.2534-1.8609.3983-2.963.3983zm-5.113-9.8317h8.0037c0-.7061-.1264-1.3398-.3975-1.8649-.271-.5251-.6684-.9416-1.2285-1.2131-.542-.2897-1.2466-.4346-2.0958-.4346-1.2466 0-2.1861.3078-2.8546.9234-.6865.6156-1.1563 1.4847-1.4273 2.5892z"/><path d="m97.0488 34.6558v-15.2093h2.2945l.3433 2.5168c.7774-.9596 1.9334-2.5168 4.5344-2.5168h.832l-.38 2.1728s-.253 0-.433 0c-.814 0-2.494.3259-4.21 2.2995v10.737z"/><path d="m134.701 34.6558v-15.2093h2.295l.343 2.5168c.777-.9596 1.933-2.5168 4.535-2.5168h.831l-.38 2.1728s-.252 0-.433 0c-.813 0-2.493.3259-4.21 2.2995v10.737z"/><path d="m108.755 34.6557v-13.0365h-2.638l.38-2.1727h2.258v-3.6032c0-1.3579.361-2.4443 1.084-3.2591s1.789-1.2131 3.198-1.2131c.524 0 .975.0362 1.355.1086.379.0725.741.163 1.066.2897l-.434 2.3538c-.253-.0905-.488-.1629-.722-.2172-.235-.0544-.506-.0725-.813-.0725-.597 0-1.066.163-1.41.507-.343.344-.506.8872-.506 1.6658v3.4402h4.084v2.1727h-4.084v13.0365z"/><path d="m124.276 34.9636c-1.59 0-2.945-.3621-4.065-1.0683-1.121-.7061-1.97-1.6657-2.566-2.8608-.596-1.195-.885-2.5348-.885-4.0014s.289-2.8065.885-4.0015 1.445-2.1547 2.566-2.8608c1.12-.7061 2.475-1.0683 4.065-1.0683 1.571 0 2.927.3622 4.065 1.0683 1.12.7061 1.987 1.6658 2.583 2.8608.597 1.195.886 2.5349.886 4.0015s-.289 2.8064-.886 4.0014c-.596 1.1951-1.445 2.1547-2.583 2.8608-1.12.7243-2.475 1.0683-4.065 1.0683zm0-2.4806c1.499 0 2.674-.4707 3.469-1.4303.813-.9597 1.21-2.2995 1.21-4.0015s-.397-3.0419-1.21-4.0015-1.97-1.4304-3.469-1.4304c-1.5 0-2.656.4708-3.469 1.4304s-1.211 2.2814-1.211 4.0015c0 1.702.398 3.0418 1.211 4.0015.813.9596 1.969 1.4303 3.469 1.4303z"/><path d="m144.854 34.6557v-15.2092h2.168l.56 2.9151-1.048-.4888c.957-1.0321 1.879-1.7382 2.782-2.1366.903-.3983 1.843-.5975 2.837-.5975.74 0 1.463.1268 2.15.3621.686.2354 1.3.67 1.86 1.2675.561.5975.994 1.4485 1.319 2.5167l-.777-.344c.452-1.1769 1.157-2.1184 2.096-2.7883.94-.6881 2.204-1.0321 3.794-1.0321 1.265 0 2.331.2354 3.216.7061.867.4708 1.518 1.1951 1.97 2.1547.433.9596.65 2.1908.65 3.6937v8.9806h-2.782v-8.9444c0-1.4304-.271-2.4625-.831-3.1143s-1.464-.9777-2.729-.9777c-.885 0-1.608.1448-2.131.4164-.542.2716-.94.6337-1.211 1.0683-.271.4345-.452.8872-.542 1.376-.09.4889-.126.9416-.126 1.358v8.8177h-2.783v-8.3831c0-1.2494-.144-2.1909-.451-2.8789-.308-.67-.723-1.1407-1.247-1.3942-.542-.2535-1.156-.3802-1.861-.3802-1.03 0-1.933.2172-2.746.6699s-1.355 1.1588-1.626 2.1546l.343-1.5209v11.7328z"/><path d="m175.946 34.9635c-.975 0-1.752-.1811-2.33-.5432s-.976-.8148-1.229-1.3761c-.253-.5612-.379-1.1406-.379-1.7563v-19.9168h2.782v18.3235c0 .8691.054 1.5209.163 1.9555.108.4345.343.7242.686.8691.344.1448.867.2172 1.59.2172l-.397 2.2271z"/><path d="m180.283 42.1696 3.505-8.2021-6.323-14.5393h3.107l4.734 11.2983 4.282-11.2983h3.107l-9.304 22.7414z"/></g><path d="m5.07031 7.35197c.01836-.01839.01836-.01839.03671-.03678 0 0-.01835.01839-.03671.03678.01836-.01839 0 0 0 0z" fill="url(#b)"/><path d="m18.2946 4.92529c-.0366.01833-.0549.01833-.0915.03666.0366 0 .0549-.01833.0915-.03666z" fill="url(#c)"/><path d="m38.3857 4.45459c-.0183 0-.0366.01833-.0732.01833.0366 0 .0549 0 .0732-.01833z" fill="url(#d)"/><path d="m5.06913 7.35147s.01807-.0181 0 0c.01807-.0181.01807-.03621.03614-.03621l3.4508-3.54882c.75882-.77857.74075-2.0279-.03613-2.78836-.77689-.742355-2.02351-.724249-2.78233.05432l-3.43273 3.53071c-1.06596 1.06827-1.644104 2.53487-1.60797 4.03769.054201 2.1727 1.31889 4.0377 3.2882 4.9068-.28907-.6699-.46974-1.3942-.48781-2.1547-.03613-1.48466.54201-2.93316 1.57183-4.00143z" fill="url(#e)"/><path d="m11.9347 20.551 10.7499-10.1576c.0181-.0181.0361-.0181.0361-.0362 1.066-1.06825 1.6261-2.49864 1.608-3.96524-.0903-.10864-.1807-.19917-.2891-.30781-1.5718-1.50281-3.7579-1.91926-5.7633-1.1588.3252-.10863.6865-.12674 1.0298 0h.018c.7589.25349.9757.88721 1.0299 1.1407.0542.25348.1445.90531-.4156 1.4666l-10.7318 10.17565c-.01807.0182-.03613.0182-.03613.0363-1.04789 1.0501-1.60797 2.4262-1.60797 3.9109s.57815 2.8608 1.60797 3.911c.48781.4888 1.02983.8509 1.60793 1.1225-.271-.6518-.4336-1.3398-.4516-2.1003-.0362-1.5028.542-2.9875 1.6079-4.0377z" fill="url(#f)"/><path d="m24.058 6.08403c.1084.09053.1987.19917.2891.30781 0-.39834-.0362-.79668-.1446-1.19501-.4336-1.86494-1.7706-3.36776-3.5773-3.98337h-.018c-1.9693-.688039-4.1916-.16296-5.655 1.28554l-7.5701 7.04332c-.01806.01811-.03613.03621-.0542.05432-.68654.68806-1.48149.45266-1.71636.34402-.23488-.09053-.97562-.47076-.99369-1.43039-.01807-.43455.1626-.851.45167-1.1407-1.02982 1.06827-1.60796 2.51677-1.57183 4.00143.01807.7605.19874 1.5029.48781 2.1547.0542.0181.1084.0543.18067.0724 2.07771.8329 4.33609.3621 5.90793-1.195l7.552-7.04332c.0181-.0181.0361-.03621.0542-.05432.1446-.14485.3252-.27159.5059-.34401-.0361.0181-.0723.03621-.1265.05431.0362-.0181.0723-.03621.1265-.05431.0361-.01811.0542-.01811.0903-.03622 2.0235-.76046 4.2096-.34401 5.7815 1.1588z" fill="url(#g)"/><path d="m44.926 7.17041c-.271-.52508-.6323-1.01394-1.084-1.44849-1.4815-1.41229-3.5411-1.88305-5.4562-1.26744.4878-.14485 1.0298-.10864 1.5176.12674.5962.30781.9937.851 1.1021 1.52093s-.1084 1.30364-.5782 1.79251l-23.0535 23.10354c-.7588.7605-.7588 2.0098 0 2.7884.3794.3802.8853.5794 1.3912.5794.5058 0 1.0117-.1992 1.3911-.5794l23.0536-23.1217c.9756-.95961 1.5537-2.19084 1.7163-3.49449z" fill="url(#h)"/><path d="m43.8402 5.72181c.4336.41644.7949.90531 1.084 1.4485.0723-.54319.0723-1.12259-.0181-1.68388-.3071-1.91926-1.4815-3.53071-3.2159-4.39981-2.3126-1.1588022-5.0949-.724253-6.9197 1.12258l-20.5783 20.5687c-.6143.6156-1.6261.6156-2.2404 0-.3071-.3078-.4697-.7062-.4697-1.1226 0-.4165.1626-.8148.4517-1.1045-1.066 1.0683-1.6441 2.5349-1.608 4.0377.0181.7424.1807 1.4485.4517 2.1003 2.0416.9234 4.5168.5613 6.1789-1.1226l20.5784-20.58675c.2348-.23538.5058-.39833.7949-.48886-.1445.05432-.3071.10863-.4517.18106.1446-.07243.3072-.12674.4517-.18106.0181 0 .0362-.01811.0723-.01811 1.897-.63372 3.9567-.16296 5.4382 1.24933z" fill="url(#i)"/><path d="m46.0445 17.7444c-.7588-.7604-2.0054-.7604-2.7823 0l-19.5486 19.6091c-.7588.7604-.7588 2.0098 0 2.7883.3795.3803.8853.5794 1.3912.5794s1.0118-.1991 1.3912-.5794l19.5485-19.609c.7769-.7786.7769-2.0098 0-2.7884z" fill="url(#j)"/></svg>