<?xml version="1.0" encoding="UTF-8"?>
<svg id="Layer_1" xmlns="http://www.w3.org/2000/svg" viewBox="0 0 438.36 418.83">
  <defs>
    <style>
      .cls-1 {
        fill: #231f20;
      }
    </style>
  </defs>
  <g>
    <g>
      <path class="cls-1" d="M141.14,160.82c-1.6,0-3.35-.05-5.23-.15-4.77-.26-8.73-.78-8.76-.78-.48-.06-.82-.5-.76-.98.06-.48.5-.81.98-.76.04,0,3.93.51,8.63.77,6.21.34,10.98.1,13.8-.69l.07-.02,30.96-30.08c.35-.34.9-.33,1.24.02.34.35.33.9-.02,1.24l-31.11,30.23c-.1.1-.23.17-.37.21l-.3.09c-2.16.61-5.22.91-9.13.91Z"/>
      <path class="cls-1" d="M127.28,159.88c-.2,0-.39-.07-.56-.2-.37-.31-.42-.86-.12-1.23.26-.31,1.3-1.47,3.01-3.09.16-.16.35-.33.54-.51.35-.33.91-.31,1.24.04.33.35.31.91-.04,1.24-.18.17-.35.33-.52.49-1.93,1.83-2.86,2.93-2.87,2.94-.17.21-.42.32-.68.32Z"/>
      <path class="cls-1" d="M130.87,156.25c-.24,0-.47-.09-.64-.28-.33-.36-.31-.91.05-1.24,7.28-6.74,23.57-19.18,50.88-26.81.47-.13.95.14,1.08.61.13.47-.14.95-.61,1.08-26.96,7.53-43,19.78-50.16,26.41-.17.16-.38.23-.59.23Z"/>
      <path class="cls-1" d="M127.26,159.89s-.08,0-.12,0c-.29-.04-.54-.21-.67-.47-.12-.24-11.81-24.69.74-44.17.09-.15.2-.31.3-.46,1.56-2.33,3.38-4.47,5.44-6.42,4.35-4.11,9.25-6.39,14.57-6.8.3-.02.59-.04.89-.05,13.94-.5,26.6,11.74,31.3,19.57,1.29,2.15,2.8,5.25,2.6,7.74-.03.36-.28.67-.63.77-.01,0-.08.02-.1.02-1.21.3-30.16,7.51-50.12,26.39,0,0-.11.1-.12.11l-.53.51c-.99.97-1.97,1.97-2.9,2.97-.17.18-.41.29-.66.29ZM149.27,103.25c-.26,0-.52,0-.78.01-.27.01-.55.02-.83.05-4.91.37-9.46,2.5-13.5,6.32-1.97,1.86-3.7,3.9-5.16,6.08-.11.17-.21.32-.3.47-10.48,16.27-3.26,36.27-1.16,41.28.67-.7,1.37-1.41,2.08-2.09l.54-.51s.1-.1.17-.15c18.91-17.89,45.77-25.46,50.26-26.63-.1-1.55-.93-3.72-2.35-6.09-4.41-7.34-16.08-18.73-28.95-18.73Z"/>
      <path class="cls-1" d="M246.72,160.24h0l-96.38-.38c-.48,0-.87-.4-.87-.88,0-.48.39-.87.88-.87h0l96.38.38c.48,0,.87.4.87.88,0,.48-.39.87-.88.87Z"/>
      <path class="cls-1" d="M148.45,102.97c-.12,0-.24-.02-.35-.07-.44-.2-.64-.71-.45-1.16l33.57-76.15c.2-.44.71-.64,1.15-.45.44.2.64.71.45,1.16l-33.57,76.15c-.14.33-.47.52-.8.52Z"/>
      <path class="cls-1" d="M127.68,115.87L56.59,55.84c-.37-.31-.42-.86-.1-1.23.31-.37.86-.42,1.23-.1l71.11,60.05-.55.68-.6.64Z"/>
      <path class="cls-1" d="M147.58,102.98c-.39,0-.75-.27-.85-.67-.04-.16-4.16-16.53-11.09-24.94-.31-.37-.25-.93.12-1.23.37-.31.93-.25,1.23.12,7.18,8.71,11.26,24.94,11.43,25.63.12.47-.17.94-.64,1.06-.07.02-.14.03-.21.03Z"/>
      <path class="cls-1" d="M27.87,194.61c-.17,0-.34-.05-.48-.15-.34-.22-.48-.65-.34-1.03,14.19-38.83,36-66.8,64.81-83.15.42-.24.95-.09,1.19.33s.09.96-.33,1.19c-27.58,15.65-48.67,42.14-62.73,78.77l40.45-37.48c.35-.33.93-.33,1.26.02.33.35.34.88-.02,1.21l-43.22,40.05c-.17.15-.38.23-.6.23Z"/>
      <path class="cls-1" d="M27.87,194.61c-.45,0-.83-.34-.87-.8-.04-.48.32-.91.8-.95.26-.02,26.04-2.34,51.16-15.14,0,0,0,0,0,0,.05-.02.1-.05.15-.06.46-.15.96.1,1.11.55.14.42-.06.87-.45,1.06,0,0-.01,0-.02.01h0c-25.44,12.96-51.55,15.3-51.81,15.32-.03,0-.05,0-.07,0Z"/>
      <path class="cls-1" d="M71.53,179.9c-3.98,0-6.47-.41-6.63-.44-.42-.07-.73-.43-.73-.86,0-.44.01-10.87,6.07-25.21,5.96-14.12,15.52-26.76,28.41-37.57.37-.31.92-.26,1.23.11.31.37.26.92-.11,1.23-12.67,10.63-22.06,23.05-27.92,36.91-5,11.83-5.78,21.12-5.91,23.76,1.84.22,6.86.65,13.3-.2,10.15-1.34,19.13-5.1,26.68-11.18,1.23-.99,2.43-2.05,3.57-3.15.35-.34.9-.33,1.24.02.34.35.33.9-.02,1.24-1.17,1.14-2.41,2.23-3.69,3.25-7.8,6.28-17.07,10.17-27.55,11.55-3.02.4-5.72.53-7.95.53Z"/>
      <path class="cls-1" d="M139.99,253.75c-.29,0-.55-.14-.71-.37-27.34-37.07-32.73-69.8-33.51-86.01-.02-.48.35-.89.83-.92.48-.04.89.35.92.83.75,15.67,5.88,46.98,31.47,82.71l-3.45-77.75c-3.54,17.96-13.33,29.06-13.45,29.19-.16.18-.4.29-.64.29-.24,0-.48-.1-.65-.27-.13-.14-13.36-14.36-11.36-37.59.08-.98.19-1.98.33-2.99,2.62-18.94,8.54-35.43,15.82-44.11.18-.22.37-.43.55-.64-4.12-.89-16.26-2.92-26.62,1.16-.29.12-.63.07-.87-.13-2.31-1.87-4.58-3.79-6.74-5.7-37.81-33.25-35.73-55.47-35.63-56.4.05-.41.37-.73.78-.77,15.66-1.65,38.86-1.47,60.49,8.75,10.36,4.9,16.39,10.2,18.52,12.28,17.69-34.96,44.56-49.64,45.51-50.15.2-.11.44-.14.66-.09.31.08.56.33.63.65,11.33,50.04-.34,88.53-2.5,94.98,37.16,8.48,66.66,37.72,66.96,38.02.21.21.3.51.24.8-.06.29-.26.53-.54.64-37.14,14.67-87.35,2.98-95.78.84,4.4,50.46-10.02,90.97-10.44,92.14-.03.09-.08.18-.14.26h0s0,0,0,0c-.02.03-.04.05-.07.08h0s0,0,0,0h0c-.15.15-.35.24-.57.25h0s-.03,0-.03,0c0,0,0,0,0,0h0ZM135.9,159.92c.47,0,.85.37.87.84l3.87,87.25c3.67-12.09,12.59-46.83,8.75-88.07-.03-.29.09-.57.31-.75.22-.18.52-.25.8-.17.55.15,54.81,14.98,94.61.03-5.43-5.11-32.75-29.56-66.07-36.82-.25-.05-.46-.21-.58-.44-.12-.22-.14-.49-.05-.73.15-.4,14.81-40.25,3.02-93.77-5.1,3-28.59,18.09-44.33,49.92-.13.26-.38.44-.67.48-.29.04-.58-.07-.77-.28-.06-.07-6.25-6.83-18.95-12.82-11.62-5.47-31.2-11.39-58.72-8.63-.01,1.76.29,6.81,3.49,14.36,3.72,8.77,12.22,22.8,31.58,39.83,2.03,1.78,4.14,3.58,6.3,5.33,13.08-4.92,28.06-.87,28.7-.69.3.08.54.32.61.62.08.3,0,.62-.23.84-.51.5-1.02,1.06-1.51,1.64-8.34,9.94-13.44,28.85-15.43,43.23-.14.97-.24,1.95-.32,2.9-1.68,19.48,7.65,32.33,10.23,35.48,2.71-3.41,13.16-17.84,13.61-38.73,0-.47.39-.85.87-.86h.01Z"/>
      <path class="cls-1" d="M65.04,179.47c-.22,0-.45-.08-.62-.25-.34-.34-.35-.89,0-1.24l61.17-61.78c.34-.34.9-.35,1.24,0,.34.34.35.89,0,1.24l-.23.24-60.93,61.54c-.17.17-.4.26-.62.26Z"/>
      <path class="cls-1" d="M121.44,201.74s-.08,0-.12,0c-.48-.07-.81-.51-.75-.99l5.83-41.84c.07-.48.51-.81.99-.75.48.07.81.51.75.99l-5.83,41.84c-.06.44-.44.76-.87.76Z"/>
    </g>
    <path class="cls-1" d="M148.69,252.39v-.03c.04-2.69,2.26-4.92,5.03-4.88,2.78.04,4.91,2.3,4.87,4.99v.03c-.04,2.69-2.26,4.92-5.03,4.88s-4.91-2.3-4.87-4.99ZM158.14,252.49v-.03c.03-2.48-1.87-4.53-4.42-4.56s-4.54,1.99-4.58,4.46v.03c-.03,2.48,1.87,4.53,4.42,4.56,2.57.04,4.54-1.99,4.58-4.46ZM151.74,249.72l2.27.03c.64,0,1.17.22,1.5.55.24.24.4.58.4.99v.03c-.01.82-.57,1.3-1.33,1.47l1.54,2.06h-.93s-1.44-1.95-1.44-1.95h-.03s-1.27-.02-1.27-.02l-.03,1.91h-.75s.07-5.08.07-5.08ZM153.9,252.24c.71,0,1.21-.31,1.22-.89v-.03c0-.53-.43-.88-1.15-.89l-1.49-.02-.03,1.8,1.45.02Z"/>
  </g>
  <g>
    <path class="cls-1" d="M196.16,215.64h10.65c9.64,0,16.31,6.62,16.31,15.26v.09c0,8.64-6.66,15.34-16.31,15.34h-10.65v-30.69ZM206.82,243.13c7.76,0,12.71-5.26,12.71-12.05v-.09c0-6.79-4.95-12.14-12.71-12.14h-7.19v24.29h7.19Z"/>
    <path class="cls-1" d="M229.08,231.07v-.09c0-8.46,6.36-15.87,15.69-15.87s15.61,7.32,15.61,15.78t0,.09c0,8.46-6.36,15.87-15.69,15.87s-15.61-7.32-15.61-15.78ZM256.79,231.07v-.09c0-6.97-5.08-12.67-12.1-12.67s-12.01,5.61-12.01,12.58v.09c0,6.97,5.09,12.67,12.1,12.67s12.01-5.61,12.01-12.58Z"/>
    <path class="cls-1" d="M267.7,215.64h3.24l19.33,24.59v-24.59h3.38v30.69h-2.76l-19.82-25.16v25.16h-3.38v-30.69Z"/>
    <path class="cls-1" d="M207.52,264h3.24l13.98,30.91h-3.73l-3.59-8.11h-16.7l-3.64,8.11h-3.55l13.98-30.91ZM216.07,283.68l-6.97-15.65-7.01,15.65h13.98Z"/>
    <path class="cls-1" d="M230.79,264.22h3.24l19.33,24.59v-24.59h3.38v30.69h-2.76l-19.82-25.16v25.16h-3.38v-30.69Z"/>
    <path class="cls-1" d="M273.53,267.42h-10.3v-3.2h24.11v3.2h-10.3v27.49h-3.51v-27.49Z"/>
    <path class="cls-1" d="M290.36,279.65v-.09c0-8.46,6.36-15.87,15.69-15.87s15.61,7.32,15.61,15.78t0,.09c0,8.46-6.36,15.87-15.69,15.87s-15.61-7.32-15.61-15.78ZM318.07,279.65v-.09c0-6.97-5.08-12.67-12.1-12.67s-12.01,5.61-12.01,12.58v.09c0,6.97,5.09,12.67,12.1,12.67s12.01-5.61,12.01-12.58Z"/>
    <path class="cls-1" d="M328.98,264.22h3.24l19.33,24.59v-24.59h3.38v30.69h-2.76l-19.82-25.16v25.16h-3.38v-30.69Z"/>
    <path class="cls-1" d="M363.92,264.22h3.46v30.69h-3.46v-30.69Z"/>
    <path class="cls-1" d="M375.01,279.65v-.09c0-8.46,6.36-15.87,15.69-15.87s15.61,7.32,15.61,15.78t0,.09c0,8.46-6.36,15.87-15.69,15.87s-15.61-7.32-15.61-15.78ZM402.71,279.65v-.09c0-6.97-5.09-12.67-12.1-12.67s-12.01,5.61-12.01,12.58v.09c0,6.97,5.08,12.67,12.1,12.67s12.01-5.61,12.01-12.58Z"/>
    <path class="cls-1" d="M195.77,312.8h13.68c3.86,0,6.88,1.14,8.86,3.07,1.62,1.67,2.54,3.95,2.54,6.62v.09c0,5.04-3.03,8.07-7.32,9.29l8.29,11.62h-6.36l-7.54-10.7h-6.75v10.7h-5.39v-30.69ZM209.05,328.01c3.86,0,6.31-2.02,6.31-5.13v-.09c0-3.29-2.37-5.09-6.36-5.09h-7.85v10.3h7.89Z"/>
    <path class="cls-1" d="M227.77,312.8h5.39v30.69h-5.39v-30.69Z"/>
    <path class="cls-1" d="M238.72,312.8h5.96l9.25,23.59,9.21-23.59h5.83l-12.76,30.91h-4.73l-12.76-30.91Z"/>
    <path class="cls-1" d="M274.23,312.8h22.75v4.82h-17.36v7.98h15.39v4.82h-15.39v8.24h17.58v4.82h-22.97v-30.69Z"/>
    <path class="cls-1" d="M303.6,312.8h13.68c3.86,0,6.88,1.14,8.86,3.07,1.62,1.67,2.54,3.95,2.54,6.62v.09c0,5.04-3.03,8.07-7.32,9.29l8.29,11.62h-6.36l-7.54-10.7h-6.75v10.7h-5.39v-30.69ZM316.88,328.01c3.86,0,6.31-2.02,6.31-5.13v-.09c0-3.29-2.37-5.09-6.36-5.09h-7.85v10.3h7.89Z"/>
    <path class="cls-1" d="M346.17,312.58h5l13.5,30.91h-5.7l-3.11-7.41h-14.51l-3.16,7.41h-5.52l13.5-30.91ZM353.88,331.3l-5.3-12.27-5.26,12.27h10.57Z"/>
    <path class="cls-1" d="M192.87,361.38h7.45l8.02,21.61,8.02-21.61h7.28l-12.41,30.91h-5.96l-12.41-30.91Z"/>
    <path class="cls-1" d="M228.38,361.38h23.15v6.01h-16.44v6.22h14.47v6.01h-14.47v6.44h16.66v6.01h-23.37v-30.69Z"/>
    <path class="cls-1" d="M257.75,361.38h6.22l14.38,18.89v-18.89h6.66v30.69h-5.74l-14.86-19.51v19.51h-6.66v-30.69Z"/>
    <path class="cls-1" d="M292.38,361.38h23.15v6.01h-16.44v6.22h14.47v6.01h-14.47v6.44h16.66v6.01h-23.37v-30.69Z"/>
    <path class="cls-1" d="M320.39,376.81v-.09c0-8.72,6.79-15.87,16.09-15.87,5.52,0,8.86,1.49,12.06,4.21l-4.25,5.13c-2.37-1.97-4.47-3.11-8.02-3.11-4.91,0-8.81,4.34-8.81,9.56v.09c0,5.61,3.86,9.73,9.29,9.73,2.46,0,4.65-.61,6.36-1.84v-4.38h-6.79v-5.83h13.33v13.33c-3.16,2.67-7.5,4.87-13.11,4.87-9.56,0-16.13-6.71-16.13-15.78Z"/>
    <path class="cls-1" d="M366.64,361.16h6.23l13.15,30.91h-7.06l-2.81-6.88h-12.98l-2.81,6.88h-6.88l13.15-30.91ZM373.74,379.22l-4.08-9.95-4.08,9.95h8.15Z"/>
    <path class="cls-1" d="M388.2,387.59l3.99-4.78c2.76,2.28,5.66,3.73,9.16,3.73,2.76,0,4.43-1.1,4.43-2.89v-.09c0-1.71-1.05-2.59-6.18-3.9-6.18-1.58-10.17-3.29-10.17-9.38v-.09c0-5.57,4.47-9.25,10.74-9.25,4.47,0,8.29,1.4,11.4,3.9l-3.51,5.08c-2.72-1.88-5.39-3.02-7.98-3.02s-3.95,1.18-3.95,2.67v.09c0,2.02,1.31,2.67,6.62,4.03,6.22,1.62,9.73,3.86,9.73,9.21v.09c0,6.09-4.65,9.51-11.27,9.51-4.65,0-9.34-1.62-13.02-4.91Z"/>
  </g>
  <g>
    <path class="cls-1" d="M26.5,305.72h8.1v1.17h-6.83v4.02h6.1v1.16h-6.1v4.91h-1.27v-11.27Z"/>
    <path class="cls-1" d="M41.07,312.27v-6.55h1.27v6.47c0,2.43,1.29,3.8,3.44,3.8s3.4-1.26,3.4-3.72v-6.55h1.27v6.46c0,3.28-1.88,4.99-4.7,4.99s-4.68-1.71-4.68-4.89Z"/>
    <path class="cls-1" d="M57.66,305.72h1.19l7.1,9.03v-9.03h1.24v11.27h-1.01l-7.28-9.24v9.24h-1.24v-11.27Z"/>
    <path class="cls-1" d="M74.56,305.72h3.91c3.54,0,5.99,2.43,5.99,5.6v.03c0,3.17-2.45,5.63-5.99,5.63h-3.91v-11.27ZM78.48,315.81c2.85,0,4.67-1.93,4.67-4.43v-.03c0-2.5-1.82-4.46-4.67-4.46h-2.64v8.92h2.64Z"/>
    <path class="cls-1" d="M94.77,305.64h1.19l5.14,11.35h-1.37l-1.32-2.98h-6.13l-1.34,2.98h-1.3l5.13-11.35ZM97.91,312.87l-2.56-5.75-2.58,5.75h5.14Z"/>
    <path class="cls-1" d="M106.35,311.39v-.03c0-3.19,2.38-5.83,5.7-5.83,2.04,0,3.27.72,4.39,1.79l-.87.93c-.95-.9-2.01-1.55-3.54-1.55-2.5,0-4.36,2.03-4.36,4.62v.03c0,2.61,1.88,4.65,4.36,4.65,1.54,0,2.56-.6,3.64-1.63l.84.82c-1.17,1.19-2.46,1.98-4.51,1.98-3.25,0-5.65-2.56-5.65-5.8Z"/>
    <path class="cls-1" d="M123.04,305.72h1.27v11.27h-1.27v-11.27Z"/>
    <path class="cls-1" d="M131.3,311.39v-.03c0-3.11,2.33-5.83,5.76-5.83s5.73,2.69,5.73,5.79t0,.03c0,3.11-2.33,5.83-5.76,5.83s-5.73-2.69-5.73-5.8ZM141.47,311.39v-.03c0-2.56-1.87-4.65-4.44-4.65s-4.41,2.06-4.41,4.62v.03c0,2.56,1.87,4.65,4.44,4.65s4.41-2.06,4.41-4.62ZM138.16,302.39l1.29.6-1.82,1.74h-1l1.53-2.33Z"/>
    <path class="cls-1" d="M149.67,305.72h1.19l7.1,9.03v-9.03h1.24v11.27h-1.01l-7.28-9.24v9.24h-1.24v-11.27Z"/>
  </g>
</svg>