<?xml version="1.0" encoding="UTF-8"?>
<svg id="Capa_2" data-name="Capa 2" xmlns="http://www.w3.org/2000/svg" viewBox="0 0 197.48 178">
  <defs>
    <style>
      .cls-1 {
        stroke-width: 0px;
      }
    </style>
  </defs>
  <g id="Capa_1-2" data-name="Capa 1">
    <g>
      <path class="cls-1" d="m94.69,38.84h24.96c.76-.68.26-1.74.82-2.47-.06-1.35.43-2.63.68-3.92.21-1.12.41-2.27.82-3.37.21-.58.09-1.25.34-1.88.24-.63.22-1.36.35-2.03.13-.68.42-1.32.33-2.03.65-.5.12-1.31.53-1.97.38-.61.05-1.66.43-2.28.42-.7-.06-1.51.54-2.13.22-.22-.05-.59-.32-.77-2.66-1.69-4.98-3.83-7.65-5.52-1.54-.98-2.88-2.28-4.36-3.37-1.73-1.28-3.53-2.48-5.27-3.75-1.04-.76-2.02-1.61-3.05-2.4-.35-.27-.73-.49-1.39-.93h1.33C125.28.01,146.76.01,168.25,0c.84,0,1.51.2,2.21.7,1.22.86,2.52,1.62,3.85,2.32,2.1,1.11,4.07,2.42,6.11,3.63,1.41.84,2.86,1.59,4.27,2.43,1.38.81,2.71,1.69,4.09,2.51,1.2.72,2.45,1.36,3.63,2.1,1.43.9,2.88,1.76,4.39,2.53.26.13.45.43.7.68-.09.14-.24.27-.26.43-.13.73-.14,1.49-.34,2.19-.2.69-.4,1.42-.53,2.09-.22,1.15-.44,2.31-.68,3.46-.15.72-.02,1.58-.37,2.17-.42.7.08,1.54-.56,2.11.11.71-.25,1.36-.31,2.04-.1,1.23-.6,2.37-.73,3.6-.1.9-.42,1.8-.53,2.72-.07.55-.29.79-.85.82-.36.02-.72,0-1.09,0h-19.26c-3.82.66-7.68.21-11.52.29-3.83.08-7.66.02-11.49.02h-1.19c.59-2.8,1.15-5.5,1.74-8.31h-16.78c-.64.7-.49,1.75-.72,2.66-.41,1.66-.79,3.33-1.01,5.03-.14,1.05-.44,2.09-.62,3.16-.17,1-.32,2.05-.62,3-.53,1.62-.75,3.31-1.12,4.95-.29,1.27-.46,2.62-.74,3.91-.36,1.65-.46,3.37-1.12,4.96-.24.58-.16,1.24-.32,1.88-.23.88-.44,1.81-.56,2.73-.12.93-.25,1.89-.49,2.76-.47,1.63-.43,3.38-1.19,4.94.06,1.35-.49,2.61-.67,3.93-.12.89-.31,1.81-.57,2.7-.24.84-.34,1.71-.55,2.56-.16.65-.26,1.35-.38,2.02-.22,1.29-.57,2.56-.87,3.83-.2.86-.27,1.76-.38,2.64-.12.95-.11.96.71.98.31,0,.62,0,.93,0h29.1c.38-2.46.75-4.88,1.14-7.42.06.1.05.06.02.03-.04-.03-.08-.06-.13-.06-4.45,0-8.89,0-13.49,0,.13-1.03.04-2.09.43-2.94.32-.71-.09-1.54.54-2.11-.03-.95.37-1.82.49-2.75.12-.93.52-1.81.44-2.77.64-.52.15-1.32.5-1.97.34-.61.31-1.42.43-2.15.11-.68.15-1.38.32-2.04.41-1.56.77-3.13.94-4.74.03-.31.29-.6.42-.85h44.88c-.31,1.62-.57,3.2-.93,4.75-.3,1.27-.55,2.56-.82,3.83-.27,1.29-.5,2.61-.75,3.91-.21,1.13-.41,2.28-.81,3.38-.22.6-.15,1.24-.32,1.88-.24.88-.44,1.81-.56,2.73-.12.93-.34,1.84-.49,2.76-.17,1.05-.44,2.1-.62,3.16-.17,1-.34,2.03-.62,3-.47,1.63-.44,3.38-1.2,4.93.06,1.35-.53,2.6-.65,3.93-.05.57-.18,1.18-.33,1.72-.15.54-.21,1.05-.28,1.59-.03.21-.24.46-.43.58-.99.61-2,1.17-2.99,1.77-1.62.98-3.22,1.98-4.83,2.96-1.24.75-2.51,1.45-3.75,2.2-2.19,1.34-4.36,2.72-6.55,4.05-1.19.73-2.44,1.37-3.63,2.1-2.19,1.33-4.37,2.7-6.55,4.06-.82.51-1.65,1.01-2.47,1.53-.54.34-1.14.31-1.74.31-9.68,0-19.36,0-29.04,0h-39.78c.08-.73.75-.79,1.17-1.12,1.72-1.39,3.53-2.65,5.38-3.87,1.44-.95,2.75-2.11,4.14-3.15,1.02-.76,2.09-1.46,3.12-2.2,1.16-.83,2.29-1.7,3.46-2.52,2.3-1.6,4.54-3.3,6.82-4.92,1.52-1.08,3.04-2.17,4.53-3.31.1-.08.28-.06.4-.08,1.19-5.97,2.38-11.9,3.59-17.97h-3.96c-2.33,0-4.66.09-6.99-.02-2.36-.11-4.67.36-7.02.34-2.33-.02-4.66,0-6.99,0-.17-.53.36-.92.3-1.42-.06-.52.2-.95.3-1.43.37-1.82.64-3.66.95-5.5.53-.53.13-1.27.41-1.84.52-1.07.58-2.25.79-3.38.23-1.3.73-2.57.67-3.92.68-.49-.07-1.43.61-1.92-.11-.71.2-1.36.32-2.03.12-.68.09-1.41.35-2.03.26-.63.14-1.29.33-1.88.3-.89.4-1.8.57-2.7.17-.9.51-1.78.59-2.69.11-1.23.52-2.4.74-3.59.24-1.27.48-2.56.81-3.82.41-1.55.65-3.14.96-4.72Z"/>
      <path class="cls-1" d="m85.99,81.7c-.1.22-.3.43-.3.65,0,1.3-.47,2.51-.68,3.77-.16.95-.35,1.92-.6,2.85-.57,2.16-.71,4.41-1.47,6.53-.21.58-.07,1.25-.33,1.88-.26.62-.22,1.35-.35,2.03-.12.68-.43,1.32-.33,2.04-.66.5.08,1.43-.6,1.93.02.95-.27,1.82-.57,2.71-.28.83-.16,1.79-.38,2.64-.27,1.05-.46,2.09-.64,3.16-.17,1-.37,2.01-.61,3-.36,1.47-.77,2.92-.91,4.43-.03.31-.29.6-.45.9-10.92,0-21.85,0-32.77,0-4.92.61-9.85.18-14.78.32-.83.02-1.54-.17-2.23-.62-1.51-.97-3.05-1.87-4.58-2.8-1.57-.95-3.15-1.89-4.72-2.86-2.19-1.35-4.36-2.72-6.55-4.05-1.19-.73-2.44-1.38-3.63-2.11-1.7-1.04-3.37-2.12-5.06-3.17-.78-.49-1.56-.97-2.36-1.42-1.23-.69-1.22-.67-.88-2.04.15-.61.14-1.25.31-1.88.37-1.35.63-2.75.91-4.12.26-1.29.5-2.61.75-3.91.24-1.27.51-2.57.8-3.83.29-1.22.47-2.51.72-3.76.34-1.71.53-3.46,1.13-5.12.22-.6-.13-1.32.4-1.85.1-1.87.85-3.64.93-5.51.64-.53.15-1.32.49-1.98.32-.63.32-1.42.44-2.14.12-.68.14-1.38.33-2.04.54-1.98.94-3.98,1.27-6,.17-1.05.44-2.1.63-3.16.19-1,.33-2.04.61-3,.49-1.63.45-3.38,1.2-4.93-.06-1.35.38-2.64.67-3.92.41-1.8.71-3.62,1.12-5.41.29-1.27.49-2.61.74-3.91.21-1.13.41-2.28.81-3.38.22-.6.15-1.24.32-1.88.24-.88.44-1.81.56-2.73.12-.93.36-1.84.5-2.76.08-.52.08-1.12.29-1.57.23-.49.19-.96.29-1.44.1-.49.36-.87.87-1.18,1.91-1.15,3.85-2.25,5.72-3.47,1.78-1.16,3.67-2.13,5.49-3.22,1.79-1.07,3.54-2.2,5.32-3.27,1.16-.7,2.36-1.31,3.51-2.01,1.95-1.18,3.85-2.43,5.82-3.58,1.04-.61,2.09-1.22,3.11-1.87,1.18-.75,2.44-1.36,3.62-2.11.58-.37,1.14-.57,1.81-.51.05,0,.1,0,.16,0h50.56c-.11.24-.24.42-.27.61-.12.78-.05,1.64-.36,2.33-.34.74,0,1.61-.58,2.25.06,1.35-.38,2.64-.67,3.92-.41,1.8-.7,3.62-1.12,5.41-.3,1.27-.45,2.63-.74,3.91-.41,1.8-.71,3.62-1.12,5.41-.3,1.27-.45,2.63-.74,3.91-.41,1.8-.71,3.62-1.12,5.41-.29,1.27-.6,2.59-.72,3.92-.05.57-.34,1.13-.28,1.74h-19.33c.38-2.99,1.17-5.8,1.61-8.7h-17.04c-.16,0-.31,0-.47,0-.5-.03-.74.27-.8.7-.07.49-.07.94-.28,1.44-.28.66-.23,1.45-.36,2.18-.12.68-.44,1.33-.3,2.04-.65.56,0,1.51-.62,2.07,0,1.84-.96,3.51-.93,5.36-.64,1.19-.61,2.55-.88,3.82-.27,1.29-.48,2.62-.75,3.91-.29,1.37-.56,2.76-.9,4.12-.16.63-.13,1.29-.33,1.88-.29.89-.4,1.8-.57,2.71-.17.9-.5,1.79-.59,2.69-.12,1.23-.48,2.41-.74,3.59-.38,1.75-.72,3.52-1.09,5.26-.27,1.28-.73,2.57-.68,3.92-.83,2.09-1.01,4.34-1.49,6.51-.37,1.66-.71,3.34-1,5.03-.1.56-.25,1.12-.38,1.73h18.05c.23-1.23,1.17-6.39,1.77-7.39h19.4Z"/>
      <path class="cls-1" d="m77.61,139.17c-.25.02-.48,0-.51.06-.17.4-.41.82-.4,1.22.04,1.21-.45,2.32-.71,3.45-.27,1.17-.55,2.35-.82,3.52-.44,1.94-1.06,3.85-1.29,5.84-.58.67-.09,1.68-.75,2.33h-3.23c-.33-1.7-.54-3.41-1.05-5.03-.23-.74-.31-1.51-.53-2.25-.47-1.62-.85-3.28-1.18-4.93-.25-1.24-.74-2.45-.74-3.75,0-.26-.23-.52-.35-.79-.11.06-.15.07-.18.1-.03.03-.07.08-.07.12,0,5.48,0,10.96,0,16.5h-8.36v-25.97h10.75c.51,2.77,1.41,5.54,1.99,8.38.24,1.17.64,2.32.89,3.5.14.64.21.7,1.13.72,1-4.2,2.01-8.39,3.02-12.63h10.69c.35,1.7-.41,3.36-.27,5.08.14,1.75.03,3.52.03,5.27v15.66h-8.07v-16.43Z"/>
      <path class="cls-1" d="m88.83,155.63v-26.09h8.25c1.97,0,3.94.09,5.9-.03,1.4-.09,2.49.41,3.57,1.16,1.07.75,2.19,1.43,3.32,2.16v6.89c-1.36.88-2.7,1.76-4.2,2.72,1.84.95,3.51,1.8,5.15,2.65v6.74c-.41.29-.87.65-1.36.98-1.42.93-2.93,1.72-4.31,2.73-.17.13-.49.08-.74.08-5.17,0-10.34,0-15.59,0Zm8.99-4.66c1.12,0,2.1.01,3.08,0,.67-.01.92-.24.93-.88.02-1.64,0-3.28,0-4.95h-4.01v5.84Zm.03-16.44v5.56c.72,0,1.38.01,2.05,0,.65-.02,1.31.08,1.88-.06v-5.5h-3.93Z"/>
      <path class="cls-1" d="m54.3,133.05v18.74c-.54.41-1.14.91-1.79,1.34-.97.64-2.02,1.16-2.96,1.84-.64.46-1.28.68-2.06.67-2.69-.03-5.38-.03-8.07,0-.69,0-1.2-.19-1.78-.6-1.62-1.14-3.36-2.14-5.05-3.19v-18.75c1.38-.86,2.76-1.68,4.08-2.57.92-.63,1.84-1.04,3.01-1.01,2.69.07,5.38.05,8.07,0,.53,0,1.06.12,1.4.36,1.54,1.12,3.25,1.97,4.79,3.07.07.05.18.05.36.1Zm-9.06,17.58v-16.44c-.66,0-1.28,0-1.89,0-.6,0-1.2.02-1.74.03v16.4h3.63Z"/>
      <path class="cls-1" d="m137.04,155.91h-9.01c-.26-1.63-.51-3.24-.78-4.94-1.58,0-3.18,0-4.77,0-.48,0-.77.29-.75.75.03.96-.47,1.84-.35,2.83.05.39-.23.82-.39,1.33h-8.62c.13-.9.14-1.81.42-2.62.41-1.16.49-2.37.85-3.53.51-1.67.61-3.43,1.16-5.1.21-.62.27-1.34.38-2.02.22-1.3.57-2.56.86-3.84.29-1.24.38-2.52.73-3.74.32-1.12.3-2.31.81-3.39.14-.3.04-.7.11-1.04.07-.32.23-.63.39-1.05h2.39c1.71,0,3.42-.04,5.13.01,1.67.05,3.33.19,5,.3.46.03.76.28.75.76-.02.96.47,1.79.6,2.7.13.88.36,1.71.57,2.56.16.65.25,1.35.39,2.02.34,1.62.65,3.25.97,4.88.64.51.08,1.32.54,1.97.36.5.2,1.34.37,2.01.37,1.41.74,2.82.92,4.28.63.62.16,1.51.57,2.25.34.6.24,1.44.37,2.17.02.13.19.23.4.46Zm-14.43-9.6c1.19,0,2.26.02,3.34,0,.55-.01.66-.33.53-.99-.18-.87-.3-1.75-.41-2.62-.12-.99-.09-2.02-.35-2.96-.33-1.2-.43-2.41-.58-3.63-.04-.31.01-.65-.32-.79-.25-.11-.54-.14-.97-.24.24,1.38-.49,2.55-.27,3.83.02.1.05.24,0,.3-.49.63-.11,1.41-.34,2.04-.28.74-.26,1.47-.28,2.21,0,.16.07.36-.01.46-.6.73-.17,1.55-.34,2.41Z"/>
      <path class="cls-1" d="m20.44,139.11v-4.87h-3.96v16.37h3.94v-6.13h8.73c0,2.3.01,4.61-.02,6.92,0,.25-.19.61-.41.74-1.3.84-2.63,1.62-3.96,2.43-.29.18-.56.39-.86.54-.47.24-.89.55-1.5.53-1.71-.05-3.41,0-5.12-.03-.58-.01-1.15-.24-1.73-.28-.62-.05-1.24,0-1.86-.01-.1,0-.22,0-.28-.06-1.22-.98-2.69-1.53-3.97-2.4-.68-.47-1.39-.89-2.03-1.3v-18.43c1.4-.89,2.8-1.76,4.18-2.65.41-.27.76-.65,1.2-.86.43-.2.85-.42,1.39-.41,2.84.04,5.69.04,8.54,0,.58,0,.89.32,1.32.6,1.53,1.01,3.13,1.92,4.7,2.88.26.16.44.43.71.7-.12,1.85-.25,3.76-.38,5.72h-8.6Z"/>
      <path class="cls-1" d="m173.86,144.46h-6.42v6.79h7.68v4.63h-16.7v-25.97h16.71v4.91c-1.34,0-2.71.21-3.98-.07-.97-.21-1.89-.19-2.84-.23-.67-.03-.9.23-.91.9-.02,1.44,0,2.87,0,4.36h6.47v4.67Z"/>
      <path class="cls-1" d="m149.68,155.89h-8.96v-21.33h-4.96c-.14-.79-.05-1.56-.06-2.31-.02-.77,0-1.54,0-2.35h19.21c.13.68.03,1.45.05,2.2.02.77,0,1.54,0,2.41-1.32,0-2.6,0-3.88,0-1.38,0-1.4.02-1.4,1.35,0,6.05,0,12.1,0,18.14v1.89Z"/>
      <path class="cls-1" d="m103.44,160.32h7.27c.77.77,1.54,1.54,2.31,2.3v4.64c-.5.5-1.15,1.15-1.84,1.83.66.49,1.4,1.03,2.13,1.58v4.63c-.88.86-1.76,1.73-2.7,2.67h-7.17v-17.65Zm5.85,14.22c0-1.1.01-2.16,0-3.23-.01-.52-.32-.76-.87-.78-.67-.02-.96.2-.98.83-.03,1.06,0,2.12,0,3.18h1.86Zm-1.86-7.11c.46,0,.81.04,1.16-.01.42-.06.72-.29.71-.79-.01-.82.01-1.64,0-2.45-.01-.52-.32-.77-.86-.79-.65-.02-.98.21-.99.81-.02,1.02,0,2.05,0,3.23Z"/>
      <path class="cls-1" d="m7.7,162.93c.94-.94,1.78-1.78,2.63-2.63h4.97c.85.87,1.72,1.75,2.62,2.67v3.8h-4.29v-3.24c-.15-.09-.19-.13-.23-.13-1.62-.04-1.65,0-1.66,1.56,0,3.15,0,6.31,0,9.54h1.82v-2.33c-.24-.04-.52-.09-.84-.15v-3.28h5.2v6.65c-.83.83-1.67,1.67-2.6,2.6-1.29,0-2.68-.01-4.06,0-.64,0-1.14-.26-1.58-.68-.67-.64-1.32-1.31-1.97-1.95v-12.44Z"/>
      <path class="cls-1" d="m77.76,177.99h-4.65c-.87-.88-1.74-1.76-2.61-2.63v-12.65c.93-.84,1.75-1.59,2.64-2.4h4.45c.89.89,1.76,1.76,2.77,2.77v12.3c-.85.85-1.72,1.72-2.6,2.6Zm-1.4-3.45c0-3.43,0-6.82,0-10.21,0-.73-.31-.98-1.03-.94-.58.04-.82.3-.82.99,0,2.94,0,5.88,0,8.82v1.34h1.86Z"/>
      <path class="cls-1" d="m136.94,160.32h6.11c.87,5.86,1.74,11.7,2.62,17.61h-3.96c-.13-.99-.27-1.97-.41-2.99h-2.5c0,.49.05,1.04-.02,1.59-.06.47-.25.93-.39,1.43h-3.84c-.2-.26.22-.28.2-.43-.18-1.18.36-2.27.34-3.44,0-.52.21-1.05.29-1.58.08-.53.08-1.05.26-1.59.25-.77.13-1.65.33-2.5.27-1.16.23-2.39.36-3.58.06-.53.41-.99.31-1.58-.08-.49.05-.95.26-1.43.17-.39.04-.91.04-1.51Zm2.77,3.67c.21,2.11-.5,3.99-.29,5.93.02.19,0,.43-.11.56-.17.23-.32.42-.06.64.18.15.41.3.63.33.34.06.69.01,1.02.01.24-.91-.22-1.67-.18-2.42.07-1.54-.49-3-.36-4.52.01-.14,0-.33-.09-.42-.08-.08-.26-.06-.56-.12Z"/>
      <path class="cls-1" d="m48.35,177.97h-7.66v-17.65h3.98v14.25h3.68v3.4Z"/>
      <path class="cls-1" d="m167.44,160.32h3.94v14.23c.64.01,1.24.03,1.83.03.61,0,1.23,0,1.89,0v3.34h-7.66v-17.6Z"/>
    </g>
  </g>
</svg>