<?xml version="1.0" encoding="UTF-8"?>
<svg id="Capa_2" data-name="Capa 2" xmlns="http://www.w3.org/2000/svg" viewBox="0 0 119.47 178">
  <defs>
    <style>
      .cls-1 {
        stroke-width: 0px;
      }
    </style>
  </defs>
  <g id="Capa_1-2" data-name="Capa 1">
    <g>
      <path class="cls-1" d="m17.94,178c-.15-.05-.29-.1-.44-.14-.61-.14-1.2-.35-1.74-.68-1.87-1.11-2.2-4.14-.15-5.56.75-.52,1.59-.81,2.48-.96,1.33-.22,2.67-.21,3.99.09.53.12,1.03.3,1.5.57.61.36,1.11.82,1.38,1.5.05.12.05.25.08.4-.11.03-.19.08-.27.08-.67,0-1.34,0-2.01,0-.16,0-.31-.03-.43-.14-.52-.45-1.17-.55-1.81-.62-.65-.07-1.29-.05-1.93.1-.33.07-.64.19-.93.37-.93.6-.84,2.12.09,2.58.3.15.62.28.94.33.96.15,1.91.15,2.86-.1.48-.12.63-.22.96-.54-.03-.12-.13-.09-.21-.09-.74,0-1.47,0-2.21,0-.22,0-.45.04-.68-.08-.12-.47-.09-.94-.01-1.46.14-.02.27-.06.4-.06,1.65,0,3.31,0,4.96,0,.11,0,.22.03.35.05.02.16.06.31.07.46.05,2.19.03,3.27-.09,3.73-.51.12-1.56.12-2.14,0-.04-.17-.09-.36-.13-.52-.06-.02-.09-.04-.1-.03-.62.31-1.27.54-1.96.66-.04,0-.08.04-.11.07h-2.68Z"/>
      <path class="cls-1" d="m119.47,177.87c-.24.02-.49.05-.73.05-2.48,0-4.96,0-7.44-.01-.24,0-.48-.02-.75-.03-.04-.16-.09-.28-.09-.41-.01-.49,0-.98,0-1.47,0-1.52,0-3.04,0-4.56,0-.24-.05-.49.1-.74.1-.01.21-.04.32-.04,1.28-.06,7.86-.03,8.4.04.18.27.08.59.09.9,0,.31.05.62-.05.93-.23.16-.48.1-.72.1-1.54,0-3.08,0-4.62,0-.24,0-.49-.04-.72.06-.13.21-.08.39-.04.56.07.04.11.08.15.09.24.02.49.04.73.04,1.45,0,2.9,0,4.36,0,.24,0,.49-.03.76.09.12.54.05,1.09.04,1.61-.19.21-.41.16-.6.16-1.41,0-2.81,0-4.22,0-.38,0-.76,0-1.12,0-.2.23-.15.44-.1.66.19.17.43.11.64.11,1.59,0,3.17,0,4.76,0,.29,0,.58,0,.87.01v1.88Z"/>
      <path class="cls-1" d="m89.69,178c-.15-.05-.29-.13-.44-.14-.54-.06-1.05-.22-1.54-.42-1.33-.55-2.05-1.56-2.11-2.99-.05-1.06.35-1.96,1.2-2.64.68-.54,1.48-.82,2.31-1.01.5-.12,1.01-.16,1.53-.17.87,0,1.74-.04,2.6.15.7.16,1.38.38,1.97.81.39.28.71.61.92,1.04.06.12.09.25.12.38.03.11-.06.22-.18.24-.09.01-.18.02-.27.02-.51,0-1.03,0-1.54,0-.23,0-.43-.04-.63-.19-.56-.42-1.21-.57-1.89-.6-.67-.03-1.34-.07-2,.13-.27.08-.56.18-.8.34-1.02.66-.94,2.22.15,2.77.41.2.84.29,1.28.36.88.13,1.74.03,2.58-.21.27-.08.52-.24.78-.38.07-.04.1-.13.15-.19-.13-.19-.3-.14-.44-.14-.67,0-1.34,0-2.01,0-.2,0-.39-.03-.6-.04-.16-.4-.1-.78-.07-1.15.01-.12.1-.2.22-.22.11-.02.22-.03.33-.03,1.45-.03,2.9-.05,4.35-.07.2,0,.4.02.61.03.03.1.09.18.09.26,0,1.21,0,2.41,0,3.62,0,.08-.04.17-.06.28-.66.11-1.3.05-1.96.04-.08-.22-.16-.42-.25-.66-.13.04-.24.07-.33.11-.58.29-1.2.48-1.85.56-.13.02-.25.09-.37.13h-1.88Z"/>
      <path class="cls-1" d="m102.03,178c-.17-.05-.34-.11-.51-.14-.62-.11-1.22-.28-1.77-.59-1.04-.59-1.6-1.47-1.61-2.67-.01-1.14,0-2.28,0-3.42,0-.13.03-.26.04-.41.42-.18.84-.09,1.26-.1.42-.01.84-.03,1.3.03.03.17.07.31.07.46,0,.92,0,1.83,0,2.75,0,.18,0,.36,0,.54.01.6.32,1.01.84,1.27.1.05.2.09.31.12.9.26,1.81.26,2.71,0,.19-.06.37-.15.54-.27.37-.26.59-.6.59-1.07,0-.16,0-.31,0-.47,0-.87,0-1.74,0-2.61,0-.22.02-.44.02-.65.1-.05.16-.09.22-.1.78-.02,1.56-.04,2.37,0,.04.15.09.27.09.4,0,1.25.01,2.5,0,3.75,0,1.09-.54,1.86-1.46,2.39-.61.35-1.28.52-1.96.65-.17.03-.34.09-.51.14h-2.55Z"/>
      <path class="cls-1" d="m60.81,94.76c.16-.02.3-.05.43-.05,1.95-.06,7.2-.02,7.81.06.03.11.07.23.08.36.01.2,0,.4,0,.6,0,16.74,0,33.48,0,50.22,0,1.39-.12,2.77-.46,4.12-.97,3.81-3.31,6.41-6.97,7.82-1.28.49-2.6.78-3.96.95-1.29.16-2.59.17-3.88.09-1.81-.12-3.59-.48-5.27-1.19-2.57-1.09-4.53-2.83-5.75-5.36-.65-1.36-1.01-2.81-1.17-4.31-.09-.85-.1-1.69-.1-2.54,0-16.6,0-33.21,0-49.81,0-.31-.04-.62.05-.93.25-.13.5-.09.74-.09,2.28,0,4.56,0,6.84,0,.22,0,.44.01.69.02.03.15.08.28.09.4.01.25,0,.49,0,.74,0,16.18,0,32.36,0,48.54,0,.49,0,.98.02,1.47.02.7.15,1.38.37,2.04.52,1.62,1.6,2.65,3.26,3.06,1.22.3,2.44.29,3.65-.04,1.49-.41,2.49-1.35,3.02-2.79.26-.7.4-1.42.44-2.16.02-.4.02-.8.02-1.21,0-16.34,0-32.67,0-49.01,0-.31-.04-.62.06-1Z"/>
      <path class="cls-1" d="m96.44,158.87c-.57.11-4.42.14-8.07.06-.15,0-.3-.03-.45-.05-.04-.27.08-.47.15-.67,1.33-3.89,2.67-7.78,4-11.67,1.58-4.63,3.16-9.26,4.74-13.89.59-1.73,1.17-3.47,1.78-5.2.15-.43.15-.8,0-1.23-1.42-4.12-2.82-8.24-4.23-12.37-1.36-4-2.73-7.99-4.09-11.99-.72-2.11-1.45-4.23-2.18-6.34-.08-.23-.19-.45-.19-.71.08-.03.14-.07.2-.07,2.68,0,5.36-.02,8.05-.02.08,0,.17.04.29.06.08.23.17.45.25.69,1.33,4.05,2.67,8.11,4,12.16.86,2.61,1.71,5.22,2.57,7.83.06.17.11.34.18.5.02.05.09.08.17.15.31-.79.53-1.59.8-2.37.26-.78.51-1.57.77-2.36.26-.81.53-1.61.79-2.42.26-.79.51-1.57.77-2.36.26-.79.52-1.57.77-2.36.26-.79.51-1.57.77-2.36.26-.81.52-1.62.78-2.42.26-.79.51-1.57.77-2.36.26-.78.52-1.57.78-2.36.15-.03.28-.07.41-.07,2.62,0,5.23-.01,7.85-.01.13,0,.26.03.39.04.06.24-.04.42-.11.6-.76,2.22-1.52,4.44-2.29,6.66-2.76,8.05-5.53,16.1-8.29,24.15-.01.04-.03.08-.05.13q-.2.6.01,1.22c.24.7.49,1.39.72,2.09,2.69,7.84,5.39,15.68,8.08,23.52.58,1.69,1.16,3.38,1.75,5.07.08.23.15.47.23.74-.12.04-.21.09-.31.1-.18.02-.36,0-.54,0-2.35,0-4.69,0-7.04-.01-.24,0-.49-.02-.69-.02-.23-.19-.25-.43-.32-.63-.92-2.8-1.83-5.61-2.74-8.41-1.28-3.91-2.56-7.81-3.83-11.72-.07-.21-.15-.42-.22-.62-.23.05-.23.23-.27.37-.32.95-.63,1.91-.95,2.86-1.91,5.82-3.82,11.63-5.73,17.45-.07.21-.15.42-.22.6Z"/>
      <path class="cls-1" d="m.23,94.77c.62-.08,7.76-.09,8.4-.02.03.11.08.23.08.36.01.24,0,.49,0,.74,0,18.01,0,36.02,0,54.03,0,.31-.03.62.05.97.13.02.25.06.38.07.22.01.45,0,.67,0,4.47,0,8.94,0,13.41,0,.26,0,.53-.04.81.06.13.23.08.48.08.72,0,1.72,0,3.44,0,5.16,0,.54,0,1.07,0,1.61,0,.15-.03.3-.05.47-.13.03-.24.06-.34.07-.2.01-.4,0-.6,0-7.33,0-14.66-.02-21.99-.03-.29,0-.58.04-.89-.07-.03-.12-.07-.24-.08-.37-.01-.2,0-.4,0-.6,0-20.74,0-41.48,0-62.21,0-.31-.05-.62.07-.95Z"/>
      <path class="cls-1" d="m59.78,60.54c-3.91,0-7.82,0-11.73,0-.11,0-.22,0-.34,0-.34.04-.61-.07-.83-.34-.04-.05-.09-.1-.14-.14-5.54-5.55-11.08-11.1-16.62-16.66-.7-.7-.61-.47-.61-1.45,0-7.78,0-15.56,0-23.33,0-1-.09-.77.6-1.46,5.51-5.52,11.02-11.04,16.53-16.56.7-.7.45-.6,1.45-.6,7.8.01,15.6.03,23.4.05.94,0,.73-.08,1.39.58,5.51,5.49,11.03,10.97,16.54,16.46.76.76.65.48.65,1.57,0,7.76,0,15.51,0,23.27,0,1.04.1.78-.63,1.51-5.56,5.54-11.12,11.07-16.68,16.6-.1.09-.19.19-.29.28-.12.12-.26.17-.42.17-.18,0-.36,0-.54,0-3.91,0-7.82,0-11.73,0v.05Zm27.5-30.24c0-3.51,0-7.02,0-10.53,0-.18,0-.36,0-.54.01-.24-.06-.44-.24-.6-.07-.06-.13-.13-.19-.19-5.03-5.05-10.06-10.11-15.09-15.16-.66-.66-.47-.59-1.46-.59-7,.02-13.99.03-20.99.05-.16,0-.31,0-.47,0-.29-.02-.53.07-.71.29-.07.09-.16.16-.24.24-4.79,4.79-9.58,9.57-14.37,14.36-.3.3-.59.61-.91.89-.26.23-.38.49-.34.83.01.11,0,.22,0,.34,0,7.06,0,14.13,0,21.19,0,.92-.08.72.55,1.34,5.01,5.01,10.02,10.02,15.04,15.02.63.63.42.55,1.34.55,7.04.02,14.08.03,21.12.04.13,0,.27,0,.4,0,.31.02.55-.1.77-.32.6-.6,1.22-1.18,1.82-1.78,1.45-1.46,2.89-2.93,4.33-4.39,3.04-3.06,6.08-6.12,9.12-9.18.57-.57.5-.4.51-1.22,0-3.55,0-7.11,0-10.66Z"/>
      <path class="cls-1" d="m63.39,177.81c-.02-.14-.07-.29-.07-.44,0-2.05,0-4.11,0-6.16,0-.15.04-.3.06-.45.26-.14.51-.09.75-.09,1.56,0,3.13,0,4.69,0,.89,0,1.79,0,2.68,0,.22,0,.45-.04.69.09.11.53.06,1.08.03,1.6-.15.2-.34.17-.51.18-.83,0-1.65,0-2.48,0-.89,0-1.79.03-2.68.05-.15,0-.3.03-.47.05-.03.1-.08.18-.08.27-.03.38.06.48.44.5.25.01.49,0,.74,0,1.36,0,2.72,0,4.09,0,.24,0,.49-.04.76.08.14.5.08,1.03.04,1.54-.22.18-.45.12-.67.12-1.52,0-3.04,0-4.55,0-.24,0-.49.01-.75.02-.04.15-.1.28-.1.4,0,.31.08.39.39.41.18,0,.36,0,.54,0,1.54,0,3.08,0,4.62,0,.24,0,.49-.04.74.09.11.55.08,1.1.03,1.61-.12.17-.26.15-.39.16-.31,0-.63,0-.94,0-2.28,0-4.55,0-6.83,0-.24,0-.49.03-.76-.07Z"/>
      <path class="cls-1" d="m34.32,177.81c-.01-.81-.02-1.59-.03-2.39-.13-.03-.23-.09-.33-.09-1.39,0-2.77,0-4.16,0-.06,0-.13.03-.23.05-.02.12-.07.24-.07.37,0,.51,0,1.03,0,1.54,0,.17-.03.35-.04.55-.18.02-.33.06-.48.06-.71-.02-1.42.06-2.16-.05-.02-.13-.06-.23-.06-.34,0-2.17,0-4.34,0-6.5,0-.09.02-.18.04-.29.1-.03.2-.08.31-.08.69,0,1.39,0,2.08,0,.06,0,.13.03.23.05.02.11.07.24.07.36,0,.51,0,1.03,0,1.54,0,.17.03.35.05.54.14.03.24.06.35.07.88.05,3.84.01,4.32-.06.03-.11.08-.23.08-.36.01-.51,0-1.03,0-1.54,0-.17.03-.35.04-.51.49-.13,1.96-.15,2.62-.04.16.19.11.42.11.64,0,1.18,0,2.37,0,3.55,0,.76,0,1.52,0,2.28,0,.22.04.45-.09.65-.52.12-2.05.12-2.67-.01Z"/>
      <path class="cls-1" d="m85.43,177.79c-.11.03-.17.06-.23.06-.74,0-1.47,0-2.21.01-.27,0-.48-.09-.61-.33-.01-.02-.02-.04-.04-.06-.53-.8-.35-.71-1.4-.72-1.18,0-2.36,0-3.55,0-.18,0-.36,0-.54,0-.2,0-.34.09-.45.25-.15.22-.3.44-.46.66-.08.12-.19.19-.34.19-.8,0-1.6-.02-2.4-.03-.02,0-.04-.02-.06-.04-.07-.2.09-.33.19-.47.82-1.22,1.65-2.44,2.48-3.66.53-.78,1.05-1.55,1.57-2.33.09-.13.18-.26.27-.39.12-.18.28-.28.5-.28.27,0,.54,0,.8,0,.54,0,1.07,0,1.61,0,.22,0,.38.09.5.28.28.43.56.86.84,1.29,1.1,1.71,2.19,3.42,3.29,5.13.08.13.15.26.24.41Zm-6.15-5.04c-.28.26-1.1,1.43-1.44,2.05-.03.05-.01.12-.02.21.12.02.22.05.33.05.78,0,1.55,0,2.33-.01.06,0,.12-.05.2-.08-.02-.09-.03-.18-.07-.25-.22-.42-1.13-1.75-1.33-1.97Z"/>
      <path class="cls-1" d="m2.83,172.69c-.08.27-.09.51,0,.75.22.16.48.1.72.1,1.41,0,2.81,0,4.22,0,.24,0,.49-.04.71.07.12.54.12,1.2,0,1.74-.2.13-.43.08-.64.08-1.41,0-2.81,0-4.22,0-.24,0-.49.01-.76.02-.04.16-.09.28-.09.4-.01.45,0,.89,0,1.34,0,.2-.02.39-.04.61-.11.03-.19.07-.27.08-.68.05-1.92.01-2.33-.06-.16-.19-.11-.42-.11-.64,0-1.07,0-2.14,0-3.22,0-.85,0-1.7,0-2.55,0-.22-.04-.45.09-.65.15-.14.34-.1.51-.1,1,0,2.01,0,3.01,0,1.47,0,2.95,0,4.42,0,.22,0,.44.01.68.02.04.11.08.19.08.27,0,.53.06,1.06-.04,1.58-.24.14-.46.09-.68.09-1.5,0-2.99,0-4.49,0-.24,0-.49-.04-.77.08Z"/>
      <path class="cls-1" d="m38.08,172.46c-.04-.59-.07-1.16.02-1.71.21-.16.42-.11.61-.11,1.27,0,2.55,0,3.82,0,1.7,0,3.4,0,5.1,0,.24,0,.49-.05.71.08.13.52.13,1.18,0,1.75-.13.02-.28.07-.43.07-.8.02-1.61.02-2.41.03-.24,0-.49-.04-.73.07-.16.17-.11.38-.11.58,0,1.27,0,2.55,0,3.82,0,.24-.01.49-.02.75-.46.18-.91.09-1.34.1-.44,0-.89.06-1.32-.04-.17-.21-.12-.44-.12-.66,0-1.25,0-2.5,0-3.75,0-.24-.02-.48-.02-.68-.18-.2-.37-.17-.54-.17-.83,0-1.65,0-2.48,0-.22,0-.45.04-.72-.12Z"/>
      <path class="cls-1" d="m53.92,170.74c.65-.13,2.1-.12,2.59,0,.14.2.09.43.09.64,0,1.23,0,2.45,0,3.68,0,.24-.04.49.11.71.25.11.49.07.74.07,1.25,0,2.5,0,3.75,0,.22,0,.44-.02.64.06.13.51.14,1.26.02,1.9-.13.02-.28.07-.43.07-.54,0-1.07,0-1.61,0-1.7,0-3.39,0-5.09,0-.24,0-.49-.01-.69-.02-.2-.21-.15-.42-.15-.61,0-1.23,0-2.45,0-3.68,0-.71,0-1.43,0-2.14,0-.22,0-.44.02-.69Z"/>
      <path class="cls-1" d="m12.86,170.65c.12.63.15,3.32.09,6.64,0,.17-.03.35-.05.55-.18.03-.33.07-.48.07-.73-.01-1.46.05-2.22-.05-.02-.16-.06-.29-.06-.41,0-2.12,0-4.24,0-6.36,0-.11.03-.22.04-.35.43-.18.88-.08,1.32-.09.44-.02.89,0,1.36,0Z"/>
      <path class="cls-1" d="m67.75,50.19c0-.39-.02-.63-.02-.88,0-.74.02-1.48,0-2.21-.02-.44.12-.75.44-1.06,1.45-1.42,2.89-2.86,4.33-4.3,1.57-1.56,3.13-3.13,4.69-4.7.08-.08.15-.16.24-.24.2-.18.27-.4.26-.66,0-.13,0-.27,0-.4,0-2.84,0-5.68,0-8.52,0-.26.04-.54-.07-.79-.17-.16-.38-.13-.58-.13-.78,0-1.56-.01-2.35-.01-4.22,0-8.45.02-12.67.04-.26,0-.53-.04-.82.08-.02.11-.06.21-.06.32,0,1.7,0,3.4,0,5.1,0,.11.03.21.05.35.15.03.27.06.4.07.38,0,.76,0,1.14,0,2.32,0,4.65,0,6.97.02.83,0,1.65.04,2.48.07.06,0,.13.03.18.04.07.18-.08.25-.17.33-1.02,1.03-2.05,2.06-3.07,3.09-.77.78-1.55,1.54-2.32,2.33-.24.24-.48.36-.83.35-.92-.02-1.83,0-2.75,0-.13,0-.26-.02-.37-.03-.06-.2.08-.27.17-.36.84-.84,1.68-1.67,2.51-2.51.14-.14.3-.26.38-.49-.11-.03-.18-.07-.26-.08-.2-.01-.4,0-.6,0-1.92,0-3.84,0-5.77,0-.24,0-.49,0-.68-.01-.21-.15-.18-.31-.18-.47,0-.78,0-1.56,0-2.35,0-.22-.02-.44-.03-.69-.16-.03-.28-.07-.41-.07-.2-.01-.4,0-.6,0-4.85,0-9.7.01-14.55.02-.26,0-.53.01-.83.02-.03.16-.08.28-.08.41,0,1.43,0,2.86,0,4.29,0,.24.06.44.24.6.13.12.25.25.38.38,2.94,2.94,5.88,5.88,8.81,8.83.57.57.51.41.51,1.22,0,.83,0,1.65,0,2.48,0,.18-.01.35-.02.59-.12-.07-.2-.1-.26-.15-.12-.1-.22-.22-.34-.33-3.86-3.85-7.72-7.71-11.57-11.56-.63-.63-.55-.41-.55-1.34,0-4.85,0-9.7,0-14.55,0-.13.01-.27,0-.4-.03-.29.07-.52.3-.71.08-.07.16-.16.24-.24,3.15-3.14,6.3-6.28,9.44-9.43.05-.05.1-.09.14-.14.21-.27.48-.39.82-.34.09.01.18,0,.27,0,6.26.01,12.51.02,18.77.03.95,0,.75-.08,1.4.57,3.12,3.11,6.24,6.22,9.35,9.33.62.62.55.44.55,1.34,0,4.85,0,9.7,0,14.55,0,.04,0,.09,0,.13.06.46-.14.79-.47,1.11-3.89,3.85-7.77,7.72-11.65,11.58-.14.14-.29.27-.54.49ZM51.58,13.88c-.09.31-.06.58-.06.84,0,4.33,0,8.67,0,13,0,.16,0,.31,0,.47.01.13.05.25.08.42.22.01.41.03.61.04.58.01,1.16.02,1.74.03,1.3,0,2.59.01,3.89.01.18,0,.36.03.53-.13.1-.23.06-.5.06-.77,0-4.35,0-8.71,0-13.06,0-.16,0-.31,0-.47-.01-.13-.05-.25-.08-.37-.09-.02-.16-.06-.22-.06-2.08,0-4.15,0-6.23,0-.09,0-.17.03-.31.05Zm9.61,9.69c.18.02.33.05.48.05.38,0,.76,0,1.14,0,1.52,0,3.04,0,4.55,0,.22,0,.45.05.65-.11.12-.25.07-.52.07-.79,0-2.68,0-5.36,0-8.04,0-.18,0-.36-.01-.54,0-.11-.06-.21-.08-.3-.24-.11-.46-.08-.69-.08-1.09,0-2.19,0-3.28,0-.78,0-1.56,0-2.34,0-.17,0-.36-.03-.5.12-.08.52-.1,8.93,0,9.64Zm-12.49-7.6c-.16-.01-.23.12-.32.21-2.04,2.04-4.07,4.08-6.12,6.11-.26.26-.36.53-.36.89.02.8,0,1.61,0,2.41,0,.83,0,1.65,0,2.48,0,.17-.03.36.16.53.16,0,.36.03.55.03.56,0,1.12,0,1.68,0,1.25,0,2.5,0,3.75,0,.22,0,.45.05.65-.11.02-.06.05-.12.05-.18,0-4.09,0-8.18,0-12.26,0-.04-.04-.07-.06-.11Zm28.89,7.62c.19-.64.04-1.09-.39-1.51-1.94-1.91-3.86-3.85-5.78-5.77-.11-.11-.22-.22-.34-.32-.06-.05-.15-.05-.26-.09-.02.2-.05.35-.05.5,0,2.21,0,4.42,0,6.63,0,.07,0,.14,0,.2.03.12.07.25.1.35.61.1,4.22.14,6.26.07.15,0,.3-.04.48-.06Z"/>
    </g>
  </g>
</svg>