<?xml version="1.0" encoding="UTF-8"?>
<svg id="Capa_2" data-name="Capa 2" xmlns="http://www.w3.org/2000/svg" viewBox="0 0 313.24 108.49">
  <defs>
    <style>
      .cls-1, .cls-2 {
        stroke-width: 0px;
      }

      .cls-2 {
        fill: #fff;
      }
    </style>
  </defs>
  <g id="Capa_1-2" data-name="Capa 1">
    <g>
      <path class="cls-2" d="m205.22,40.39c-.57-.03-.96-.06-1.34-.06-25.75,0-51.51,0-77.26-.02-.95,0-1.36.28-1.62,1.21-6.05,21.9-12.12,43.79-18.19,65.68-.1.36-.15.73-.24,1.17.47.04.81.09,1.16.09,11.5,0,23.01,0,34.51.03.97,0,1.24-.41,1.47-1.22,3.84-13.9,7.7-27.79,11.52-41.7.29-1.05.69-1.43,1.83-1.43,12.33.05,24.66.03,37,.03,1.48,0,3.39.5,4.32-.23.98-.77,1.06-2.72,1.47-4.17,1.79-6.39,3.55-12.79,5.38-19.38Z"/>
      <path class="cls-1" d="m118.9,0c-8.64,31.06-17.26,62.12-25.92,93.18-1.6,5.74-4.56,10.6-10.46,12.67-3.33,1.17-6.91,1.94-10.43,2.17-6.64.43-13.32.4-19.99.44-10.59.06-21.19.03-31.78,0-4.32,0-8.5-.82-12.37-2.8-4.01-2.06-7.13-5.02-7.82-9.65-.3-2.04-.1-4.3.45-6.3,5.95-21.75,12.01-43.47,18.04-65.2,2.15-7.75,4.29-15.49,6.43-23.24.11-.41.14-.84.2-1.26,12.38,0,24.76,0,37.14,0-.09.29-.2.57-.28.87-3.78,13.6-7.55,27.21-11.33,40.81-3.49,12.56-6.98,25.12-10.46,37.68-.72,2.6.26,4.29,2.87,5.02.42.12.85.24,1.28.24,3.22.01,6.46.11,9.67-.04,3.49-.17,4.72-1.32,5.65-4.71.27-.96.53-1.93.8-2.89C67.75,51.32,74.88,25.66,82.02,0c12.29,0,24.59,0,36.88,0Z"/>
      <path class="cls-1" d="m313.24,0c-2.19,7.9-4.37,15.81-6.58,23.77-.62,0-1.14,0-1.66,0-12.73,0-25.45,0-38.18.02-.87,0-1.74.07-2.61.16-3.3.34-4.49,1.35-5.38,4.55-2.52,9.08-5.05,18.16-7.56,27.25-2.13,7.7-4.26,15.41-6.39,23.11-.97,3.51.56,5.64,4.26,5.77,2.83.1,5.66.05,8.5.05,11.07,0,22.14,0,33.21,0,.52,0,1.04,0,1.75,0-.1.51-.14.91-.25,1.3-1.96,7.12-3.94,14.23-5.88,21.36-.23.86-.6,1.16-1.52,1.16-19.66-.03-39.31.02-58.97-.05-5-.02-9.76-1.18-13.98-4.03-5.13-3.47-7.02-8.59-5.37-14.54,4.96-17.87,9.92-35.75,14.89-53.62,1.97-7.07,3.89-14.16,5.94-21.21,1.74-5.97,4.97-10.85,11.25-12.72,3.47-1.03,7.15-1.38,10.74-2.03.59-.11,1.19-.19,1.78-.29,20.66,0,41.33,0,61.99,0Z"/>
      <path class="cls-1" d="m216.46,0c-2.2,7.9-4.4,15.79-6.61,23.72h-79.77c.1-.45.17-.85.28-1.24,1.95-7.07,3.91-14.14,5.86-21.22.11-.41.14-.84.2-1.26,26.68,0,53.36,0,80.04,0Z"/>
      <path class="cls-1" d="m205.22,40.39c-1.83,6.59-3.59,12.99-5.38,19.38-.41,1.45-.49,3.4-1.47,4.17-.92.73-2.84.23-4.32.23-12.33,0-24.66.02-37-.03-1.14,0-1.55.38-1.83,1.43-3.82,13.9-7.69,27.8-11.52,41.7-.22.81-.5,1.22-1.47,1.22-11.5-.04-23.01-.02-34.51-.03-.34,0-.68-.05-1.16-.09.09-.44.14-.81.24-1.17,6.07-21.89,12.14-43.78,18.19-65.68.26-.93.66-1.21,1.62-1.21,25.75.03,51.51.02,77.26.02.39,0,.77.03,1.34.06Z"/>
    </g>
  </g>
</svg>