<?xml version="1.0" encoding="UTF-8"?>
<svg id="Capa_2" data-name="Capa 2" xmlns="http://www.w3.org/2000/svg" viewBox="0 0 182.25 158.96">
  <defs>
    <style>
      .cls-1, .cls-2 {
        stroke-width: 0px;
      }

      .cls-2 {
        fill: #fff;
      }
    </style>
  </defs>
  <g id="Capa_1-2" data-name="Capa 1">
    <g>
      <path class="cls-2" d="m65.53,74.89c1.07.14,1.85.33,2.63.33,12.18.02,24.36.03,36.54-.03,1.6,0,3.24-.32,4.8-.73,3.42-.89,5.8-2.89,6.19-6.62.25-2.41.41-4.83.55-7.24.24-4.45-.44-8.43-6.46-10.01,5.65-1.45,6.54-5.08,6.47-9.28-.02-1.35.04-2.71-.09-4.05-.55-5.48-2.83-7.99-8.22-9-1.32-.25-2.69-.29-4.04-.29-11.5-.02-23.01-.02-34.51,0-1.27,0-2.55.17-4.08.29.59,2.88,1.07,5.22,1.62,7.9,1.51.09,2.96.25,4.41.25,7.31.03,14.62,0,21.92.03,1.6,0,3.61-.23,3.93,1.9.32,2.11.22,4.32-.01,6.45-.07.63-1.2,1.59-1.89,1.63-3.18.17-6.37.08-9.68.08-.18-1.94-.3-3.27-.43-4.6-.15-1.59-.97-2.47-2.61-2.47-4.6,0-9.21-.1-13.8.12-.79.04-1.9,1.31-2.19,2.22-.39,1.23-.1,2.67-.15,4.02-.33,9.54.8,19.12-.9,29.12Zm-11.01.79c-10.56-18.37-10.8-36.14,3.03-52.01,14.18-16.28,32.23-18.33,52.12-10.06,1.33-2.49,2.57-4.8,3.8-7.09-16.78-11.03-46.38-8.72-63.62,12.1-16.93,20.44-13.91,48.31-1.86,61.49,2.05-1.39,4.15-2.81,6.53-4.43ZM116.93,10.03c-2.3,2.37-2.29,2.36.57,4.63,13.42,10.68,19.75,24.65,17.9,41.62-3.05,27.86-30.03,46.13-57.23,39.32-8.34-2.09-15.55-6.14-21.55-12.28-1.61-1.65-2.96-2.39-4.35.09,7.55,11.42,28.5,21.01,48.4,16.27,19.93-4.75,37.49-22.04,38.91-46.27,1-17.04-8.76-35.82-22.65-43.39Zm-41.88,148.58v-21.26c-1.72,0-3.19,0-4.67,0q-5.93.02-8.13,5.71c-.55,1.43-1.16,2.83-2.08,5.07-1.12-3.29-1.96-5.69-2.76-8.09-.5-1.51-1.19-2.7-3.06-2.67-2.94.04-5.89.01-8.9.01,0,6.33-.01,12.37,0,18.42,0,1.37,0,2.85,1.93,2.95,2.21.12,2.26-1.48,2.27-3.01.03-3.18,0-6.36,0-9.53,1.9,3.27,3.16,6.63,4.24,10.05.64,2.02,1.86,2.7,3.91,2.69,2.18,0,3.53-.68,4.23-2.88,1.13-3.61,2.49-7.15,3.75-10.71.22.06.43.13.65.19v13.07h8.59Zm32.52,0v-21.28c-2.67,0-5.1.17-7.5-.05-2.29-.21-3.51.58-4.19,2.76-.77,2.49-1.8,4.89-3.06,8.24-1.27-3.65-2.06-6.35-3.19-8.91-.39-.88-1.59-1.9-2.49-1.98-2.92-.25-5.88-.09-9.15-.09,0,6.47-.01,12.51,0,18.54,0,1.38.08,2.85,1.99,2.92,2.18.08,2.23-1.53,2.24-3.06.02-3.38,0-6.76,0-10.14,1.81,3.54,3.14,7.07,4.26,10.66.63,2.03,1.82,2.67,3.87,2.72,2.47.07,3.68-1,4.4-3.24,1.11-3.47,2.42-6.87,3.64-10.3.2.06.4.13.59.19v13.01h8.57ZM0,133.26c1.54.16,2.71.37,3.88.38,4.19.04,8.38.07,12.56,0,5.91-.09,8.18-2.89,6.7-8.58-.53-2.02-.6-3.71-.01-5.76,1.36-4.74-.91-7.6-5.89-7.75-3.78-.11-7.57-.06-11.35-.02-1.85.02-3.7.16-5.49.25-.35,3.8-.25,4.01,2.7,4.1,2.97.1,5.94.03,8.92.06,1.41.01,2.37.57,2.27,2.16-.11,1.76-1.46,1.75-2.67,1.67-.76-.05-1.97-.27-2.15-.74-1.23-3.18-3.91-2.29-6.22-2.4-2.13-.1-3.28.87-3.27,3.11.03,4.3,0,8.61,0,13.5Zm182.24.36c-1.57-3.55-2.74-6.21-3.9-8.84.55-.52,1-.83,1.32-1.24,2.26-2.91,1.89-6.16.73-9.24-1.03-2.73-3.73-2.76-6.21-2.77-1.89,0-3.79,0-5.68,0-3.47,0-6.94,0-10.38,0-.77,3.19.14,4.43,2.85,4.39,2.98-.04,5.96-.08,8.92.1.72.04,1.66.81,1.99,1.49.22.45-.46,1.94-.72,1.93-1.37-.01-3.1.09-4.02-.67-2.1-1.74-5.59-2.95-7.8-1.83-.7.35-1.47,1.37-1.49,2.1-.13,4.67-.07,9.35-.07,14.26h9.55v-8.85c2.81,1.67,2.91,4.18,3.89,6.14.74,1.47,1.33,3.02,3.36,3.03,2.27,0,4.53,0,7.67,0Zm-48.81-17.71c3.92,0,7.27-.05,10.62.01,3.42.06,3.59.25,3.66,3.75.04,2.29-.05,4.59,0,6.88.05,2.16-1.1,2.75-3.06,2.76-1.99,0-3.06-.69-3.01-2.81.05-2.29-.07-4.59,0-6.88.07-2.06-.85-3-2.86-2.98-1.22.01-2.43,0-3.65.04-1.63.06-2.51.97-2.5,2.57.03,3.09-.11,6.22.3,9.27.48,3.57,2.2,4.98,5.7,5.09,4.05.12,8.11.12,12.16,0,3.38-.11,5.19-1.4,5.5-4.76.39-4.25.26-8.59-.06-12.86-.2-2.74-2.24-4.32-4.99-4.4-4.46-.12-8.92-.12-13.38.03-2.13.07-3.8,1.12-4.46,4.29Zm-47.43,17.4h5.38c1.87-5.61,1.91-5.44,8.34-5.34,3.93.06,3.45,2.97,4.15,5.39h9.8c.15-.43.26-.59.22-.68-1.96-4.72-3.94-9.42-5.91-14.14q-3.18-7.63-11.59-6.81c-.24.02-.47.24-.31.15-3.35,7.13-6.55,13.93-10.09,21.44Zm22.9,24.91c4.54,1.03,4.5,1.01,6.02-2.55.35-.82,1.01-2.07,1.62-2.12,2.53-.24,5.23-.56,7.6.11,1.07.3,1.5,2.85,2.24,4.36.11.22.38.37.54.53h8.98c.14-.49.24-.64.2-.74-1.78-4.37-3.58-8.73-5.37-13.1q-3.1-7.56-11.25-7.39c-.37,0-.74.24-.74.24-3.32,6.97-6.49,13.64-9.84,20.67Zm7.32-42.1v17.19h9.45v-17.37h5.87c-.08-3.97-.27-4.32-3.28-4.38-5-.1-10.01-.11-15.02,0-3.16.07-3.54.79-2.87,4.56h5.86Zm-81.39,13.04c-.61-4.35-.53-4.49,3.01-4.58,1.73-.05,3.46,0,5.53,0v-4.73c-2.33,0-4.22.08-6.09-.04-.89-.06-2.34-.28-2.53-.79-1.4-3.76-4.5-2.1-6.95-2.29-1.58-.12-2.53.86-2.54,2.49-.03,4.56,0,9.12,0,14.29,5.99,0,11.75.22,17.48-.11,2.2-.12,2.21-2.25,1.67-4.24h-9.57Zm20.79-.06v-17.24h-9.04v21.72c5.65,0,11.15.14,16.62-.07,2.26-.08,2.61-1.4,1.7-4.42h-9.29Zm20.4-17.19h-9.09v21.74c5.24,0,10.2.06,15.17-.02,3.41-.06,3.84-.76,3.21-4.64h-9.29v-17.08Zm-50.73-.3c.37,4.12.37,4.23,3.07,4.27,5.24.08,10.49.02,15.97.02-.34-1.81.28-4.12-2.23-4.22-5.5-.22-11.01-.07-16.81-.07Z"/>
      <path class="cls-1" d="m65.53,74.89c1.7-10,.57-19.58.9-29.12.05-1.35-.24-2.79.15-4.02.29-.91,1.4-2.18,2.19-2.22,4.59-.22,9.2-.12,13.8-.12,1.64,0,2.47.89,2.61,2.47.12,1.33.25,2.66.43,4.6,3.31,0,6.5.1,9.68-.08.69-.04,1.82-1,1.89-1.63.23-2.13.33-4.34.01-6.45-.33-2.13-2.34-1.89-3.93-1.9-7.31-.03-14.62,0-21.92-.03-1.45,0-2.89-.16-4.41-.25-.55-2.69-1.03-5.02-1.62-7.9,1.53-.11,2.8-.29,4.08-.29,11.5-.02,23.01-.02,34.51,0,1.35,0,2.72.05,4.04.29,5.39,1.01,7.67,3.52,8.22,9,.13,1.34.07,2.7.09,4.05.07,4.2-.82,7.83-6.47,9.28,6.03,1.58,6.71,5.56,6.46,10.01-.13,2.42-.29,4.84-.55,7.24-.39,3.73-2.78,5.72-6.19,6.62-1.56.41-3.19.72-4.8.73-12.18.06-24.36.04-36.54.03-.78,0-1.56-.19-2.63-.33Zm19.82-19.8c0,3.43-.11,6.23.07,9.01.05.71.99,1.93,1.54,1.95,3.2.09,6.41-.11,9.61-.21.27-2.48.54-4.95.81-7.43.03-.26-.02-.54-.02-.81-.03-1.61-.8-2.52-2.47-2.52-2.94,0-5.87,0-9.55,0Z"/>
      <path class="cls-1" d="m54.52,75.67c-2.39,1.62-4.48,3.04-6.53,4.43-12.05-13.18-15.07-41.05,1.86-61.49C67.09-2.2,96.69-4.52,113.47,6.51c-1.22,2.29-2.46,4.6-3.8,7.09-19.89-8.26-37.94-6.21-52.12,10.06-13.83,15.87-13.59,33.63-3.03,52.01Z"/>
      <path class="cls-1" d="m116.93,10.03c13.88,7.57,23.65,26.35,22.65,43.39-1.42,24.23-18.98,41.53-38.91,46.27-19.89,4.74-40.85-4.86-48.4-16.27,1.39-2.49,2.74-1.74,4.35-.09,6,6.14,13.21,10.19,21.55,12.28,27.2,6.82,54.18-11.46,57.23-39.32,1.86-16.97-4.47-30.94-17.9-41.62-2.86-2.27-2.87-2.26-.57-4.63Z"/>
      <path class="cls-1" d="m75.05,158.61h-8.59v-13.07c-.22-.06-.43-.13-.65-.19-1.26,3.57-2.62,7.1-3.75,10.71-.69,2.21-2.05,2.88-4.23,2.88-2.05,0-3.27-.68-3.91-2.69-1.08-3.42-2.34-6.78-4.24-10.05,0,3.18.02,6.36,0,9.53-.01,1.53-.07,3.13-2.27,3.01-1.93-.11-1.93-1.58-1.93-2.95-.02-6.05,0-12.09,0-18.42,3.01,0,5.96.03,8.9-.01,1.87-.03,2.56,1.16,3.06,2.67.8,2.41,1.63,4.8,2.76,8.09.92-2.24,1.52-3.64,2.08-5.07q2.21-5.69,8.13-5.71c1.47,0,2.94,0,4.67,0v21.26Z"/>
      <path class="cls-1" d="m107.57,158.61h-8.57v-13.01c-.2-.06-.4-.13-.59-.19-1.22,3.43-2.53,6.84-3.64,10.3-.72,2.24-1.93,3.31-4.4,3.24-2.05-.06-3.24-.7-3.87-2.72-1.12-3.59-2.45-7.12-4.26-10.66,0,3.38.02,6.76,0,10.14-.01,1.53-.06,3.14-2.24,3.06-1.9-.07-1.98-1.54-1.99-2.92-.02-6.04,0-12.07,0-18.54,3.28,0,6.23-.16,9.15.09.9.08,2.1,1.1,2.49,1.98,1.13,2.55,1.92,5.26,3.19,8.91,1.26-3.35,2.29-5.75,3.06-8.24.67-2.18,1.9-2.97,4.19-2.76,2.4.22,4.83.05,7.5.05v21.28Z"/>
      <path class="cls-1" d="m0,133.26c0-4.89.02-9.19,0-13.5-.02-2.24,1.14-3.21,3.27-3.11,2.31.11,4.99-.78,6.22,2.4.18.46,1.4.69,2.15.74,1.2.07,2.56.09,2.67-1.67.1-1.59-.86-2.15-2.27-2.16-2.97-.03-5.95.03-8.92-.06-2.94-.1-3.05-.3-2.7-4.1,1.79-.08,3.64-.23,5.49-.25,3.78-.04,7.57-.1,11.35.02,4.97.15,7.25,3.01,5.89,7.75-.59,2.05-.51,3.75.01,5.76,1.49,5.69-.78,8.49-6.7,8.58-4.19.06-8.38.04-12.56,0-1.17-.01-2.35-.22-3.88-.38Zm8.99-4.56c.27.27.54.53.81.8,1.42-.39,2.98-.54,4.19-1.28.42-.26.31-2.6-.14-2.83-1.07-.54-2.9-.92-3.67-.35-.84.63-.83,2.39-1.2,3.66Z"/>
      <path class="cls-1" d="m182.25,133.62c-3.13,0-5.4,0-7.67,0-2.03,0-2.62-1.55-3.36-3.03-.98-1.96-1.08-4.47-3.89-6.14v8.85h-9.55c0-4.91-.07-9.59.07-14.26.02-.73.79-1.75,1.49-2.1,2.2-1.12,5.69.09,7.8,1.83.92.76,2.66.66,4.02.67.27,0,.94-1.48.72-1.93-.33-.68-1.27-1.45-1.99-1.49-2.97-.18-5.95-.15-8.92-.1-2.71.04-3.62-1.2-2.85-4.39,3.44,0,6.91,0,10.38,0,1.89,0,3.79,0,5.68,0,2.49.01,5.18.04,6.21,2.77,1.16,3.08,1.53,6.33-.73,9.24-.32.41-.76.73-1.32,1.24,1.16,2.63,2.34,5.3,3.9,8.84Z"/>
      <path class="cls-1" d="m133.44,115.92c.65-3.17,2.33-4.22,4.46-4.29,4.45-.15,8.92-.15,13.38-.03,2.76.08,4.79,1.66,4.99,4.4.31,4.27.45,8.61.06,12.86-.31,3.36-2.12,4.65-5.5,4.76-4.05.13-8.11.13-12.16,0-3.5-.11-5.23-1.52-5.7-5.09-.41-3.05-.27-6.18-.3-9.27-.01-1.6.87-2.5,2.5-2.57,1.21-.05,2.43-.03,3.65-.04,2.01-.02,2.94.92,2.86,2.98-.08,2.29.05,4.59,0,6.88-.05,2.12,1.01,2.82,3.01,2.81,1.95,0,3.11-.6,3.06-2.76-.05-2.29.04-4.59,0-6.88-.07-3.5-.24-3.69-3.66-3.75-3.35-.06-6.7-.01-10.62-.01Z"/>
      <path class="cls-1" d="m86.01,133.32c3.53-7.51,6.73-14.31,10.09-21.44-.16.09.06-.13.31-.15q8.42-.82,11.59,6.81c1.96,4.72,3.95,9.42,5.91,14.14.04.09-.08.25-.22.68h-9.8c-.7-2.42-.22-5.33-4.15-5.39-6.43-.1-6.47-.27-8.34,5.34h-5.38Zm14.56-9.61c-1.01-2.09-1.66-3.43-2.66-5.5-.85,2.1-1.37,3.39-2.06,5.09,1.62.14,2.74.24,4.72.41Z"/>
      <path class="cls-1" d="m108.91,158.23c3.35-7.03,6.52-13.7,9.84-20.67,0,0,.36-.23.74-.24q8.15-.18,11.25,7.39c1.79,4.37,3.59,8.73,5.37,13.1.04.1-.06.26-.2.74h-8.98c-.17-.16-.43-.31-.54-.53-.75-1.51-1.17-4.06-2.24-4.36-2.37-.67-5.07-.35-7.6-.11-.61.06-1.27,1.3-1.62,2.12-1.52,3.57-1.48,3.58-6.02,2.55Zm11.74-14.85c-.96,2.18-1.57,3.58-2.47,5.63,1.86-.18,3.04-.3,4.74-.46-.82-1.88-1.38-3.14-2.27-5.16Z"/>
      <path class="cls-1" d="m116.22,116.13h-5.86c-.66-3.77-.28-4.49,2.87-4.56,5-.11,10.01-.1,15.02,0,3.02.06,3.2.42,3.28,4.38h-5.87v17.37h-9.45v-17.19Z"/>
      <path class="cls-1" d="m34.84,129.17h9.57c.54,1.99.53,4.11-1.67,4.24-5.73.33-11.49.11-17.48.11,0-5.17-.02-9.73,0-14.29,0-1.63.97-2.61,2.54-2.49,2.45.19,5.54-1.47,6.95,2.29.19.52,1.64.74,2.53.79,1.87.12,3.76.04,6.09.04v4.73c-2.06,0-3.79-.04-5.53,0-3.53.1-3.62.23-3.01,4.58Z"/>
      <path class="cls-1" d="m55.63,129.1h9.29c.91,3.02.56,4.33-1.7,4.42-5.48.2-10.97.07-16.62.07v-21.72h9.04v17.24Z"/>
      <path class="cls-1" d="m76.03,111.92v17.08h9.29c.64,3.87.21,4.58-3.21,4.64-4.96.09-9.93.02-15.17.02v-21.74h9.09Z"/>
      <path class="cls-1" d="m25.3,111.62c5.8,0,11.31-.15,16.81.07,2.51.1,1.89,2.41,2.23,4.22-5.48,0-10.73.05-15.97-.02-2.7-.04-2.7-.15-3.07-4.27Z"/>
      <path class="cls-2" d="m85.35,55.09c3.67,0,6.61,0,9.55,0,1.67,0,2.44.91,2.47,2.52,0,.27.05.54.02.81-.26,2.48-.54,4.95-.81,7.43-3.21.1-6.41.3-9.61.21-.56-.02-1.5-1.24-1.54-1.95-.18-2.78-.07-5.58-.07-9.01Z"/>
      <path class="cls-2" d="m9,128.7c.36-1.27.35-3.03,1.2-3.66.76-.57,2.6-.19,3.67.35.45.23.56,2.57.14,2.83-1.21.74-2.77.89-4.19,1.28-.27-.27-.54-.53-.81-.8Z"/>
      <path class="cls-2" d="m100.57,123.7c-1.98-.17-3.1-.27-4.72-.41.69-1.7,1.21-2.99,2.06-5.09,1,2.07,1.65,3.41,2.66,5.5Z"/>
      <path class="cls-2" d="m120.65,143.38c.89,2.02,1.44,3.28,2.27,5.16-1.7.17-2.88.28-4.74.46.9-2.05,1.51-3.44,2.47-5.63Z"/>
    </g>
  </g>
</svg>