<?xml version="1.0" encoding="UTF-8"?>
<svg id="Capa_2" data-name="Capa 2" xmlns="http://www.w3.org/2000/svg" viewBox="0 0 179.7 178">
  <defs>
    <style>
      .cls-1 {
        stroke-width: 0px;
      }
    </style>
  </defs>
  <g id="Capa_1-2" data-name="Capa 1">
    <g>
      <path class="cls-1" d="m22.37,28.52v26.44h-7.24v-31.94c2.48-1.02,5.16-1.67,7.78-2.49,2.11-.66,4.24-1.32,6.38-1.92,2.07-.58,4.12-1.3,6.18-1.93,2.64-.8,5.27-1.64,7.92-2.4,1.56-.44,3.08-1.03,4.64-1.45,1.58-.42,3.07-1.1,4.63-1.46,1.75-.41,3.44-1,5.17-1.48,2.44-.68,4.82-1.6,7.27-2.27,1.72-.47,3.42-1.01,5.13-1.56,2.52-.8,5.07-1.53,7.58-2.35,1.58-.52,3.21-.97,4.83-1.44,2.39-.69,4.78-1.38,7.13-2.19.57-.19,1.02-.08,1.46.06,2.59.77,5.15,1.61,7.73,2.42,2.11.67,4.2,1.43,6.35,1.95,2.16.53,4.24,1.31,6.38,1.91,2.44.69,4.81,1.62,7.26,2.29,2.14.59,4.26,1.24,6.39,1.89,2.07.63,4.1,1.39,6.18,1.94,1.68.45,3.32.98,4.97,1.51,2.57.83,5.17,1.57,7.74,2.39,1.69.54,3.43,1.01,5.15,1.52,2.43.72,4.86,1.48,7.28,2.24,2.84.89,5.69,1.71,8.52,2.63.15.05.32.05.51.07v56.49h-7.26V28.5c-1.13-.33-2.16-.67-3.21-.92-1.05-.26-2.05-.68-3.12-.93-2.04-.48-3.99-1.34-6.01-1.9-2.19-.6-4.32-1.43-6.55-1.91-.99-.21-1.92-.72-2.89-1.02-2.38-.73-4.8-1.33-7.16-2.13-2.05-.69-4.12-1.28-6.18-1.95-2.67-.87-5.37-1.67-8.06-2.48-1.55-.47-3.09-1.02-4.64-1.43-1.53-.41-2.98-1.09-4.49-1.38-1.41-.27-2.69-.87-4.08-1.16-1.31-.27-2.54-.93-3.85-1.23-1.22-.28-2.38-.7-3.56-1.12-1.17-.42-2.42-.54-3.58-1.06-.41-.18-1.05-.01-1.63.16-2.18.66-4.31,1.46-6.56,1.91-.99.2-1.91.72-2.89,1.01-1.92.57-3.84,1.13-5.74,1.75-2.51.82-5.13,1.33-7.56,2.42-1.46-.02-2.74.72-4.08,1.13-1.33.41-2.79.5-3.98,1.34-1.57.02-2.91.85-4.38,1.24-1.47.39-2.94.76-4.38,1.25-1.43.49-2.88.93-4.33,1.36-1.4.42-2.75,1.05-4.15,1.33-1.46.29-2.77.99-4.22,1.25-1.93.34-3.69,1.23-5.61,1.66-2.04.46-4.01,1.27-6.01,1.91-1.03.33-2.07.61-3.14.92Z"/>
      <path class="cls-1" d="m76.61,73.47v4.55h42.17v11.23h-1.53c-9.26,0-18.52-.03-27.78.03-1.39,0-2.37-.51-3.27-1.41-2.85-2.84-5.69-5.68-8.52-8.53-.31-.31-.56-.68-1.05-1.28v19.73c-1.47.25-10.74.32-14.69.11v-35.08c1.65-.62,3.41-.5,5.16-.5,15.61,0,31.21-.01,46.82.02,1.58,0,3.16.28,4.87.44-.08-.07-.03-.04,0,0,.03.04.06.1.06.15,0,3.49,0,6.97,0,10.52h-42.26Z"/>
      <path class="cls-1" d="m14.72,97.97H0c.61-1.34.38-2.69.38-4.03.01-9.55.02-19.09,0-28.64,0-.77.28-1.6-.21-2.36-.05-.08.22-.49.41-.58.25-.1.57-.03.86-.03,13.62,0,27.24,0,40.86.01.71,0,1.41.26,2.13.32.69.06,1.45-.16,2.08.05,1.58.51,3.2,1,4.6,1.94,2.23,1.49,3.9,3.46,4.92,5.96.2.5.5.97.61,1.49.18.81.29,1.64.35,2.47.06.75-.03,1.52.02,2.27.1,1.37-.32,2.68-.81,3.86-.68,1.6-1.5,3.17-2.87,4.42-1.41,1.29-2.86,2.46-4.64,3.17-.65.26-1.32.47-2.01.63-2.39.56-4.8.27-7.2.3-4.48.05-8.96.01-13.78.01-3.41-3.5-6.98-7.17-10.55-10.83-.03-.03-.11,0-.17,0-.05.02-.11.03-.15.06-.05.03-.11.08-.11.12,0,6.4,0,12.81,0,19.36Zm.04-19.89h26.34c.23,0,.49.07.69-.01.63-.25,1.27-.35,1.65-1.16.31-.64.19-1.21.27-1.68-.88-1.47-2.17-1.73-3.7-1.72-7.85.05-15.7.02-23.56.02h-1.7v4.54Z"/>
      <path class="cls-1" d="m154.04,121.83c-1,1.71-1.89,3.26-2.81,4.79-1.04,1.74-2.27,3.36-3.37,5.07-.75,1.17-1.69,2.22-2.56,3.31-2.46,3.06-4.97,6.08-7.74,8.87-1.03,1.04-1.88,2.32-3.02,3.25-1.66,1.34-3.07,2.94-4.67,4.33-1.54,1.33-3.09,2.65-4.65,3.95-2.52,2.11-5.13,4.14-7.8,6.06-2.94,2.11-6.01,4.05-9,6.09-2.67,1.81-5.49,3.37-8.18,5.16-1.12.74-2.44,1.17-3.57,1.89-1.88,1.21-3.98,2.01-5.81,3.3-.21.15-.69.13-.92-.02-2.02-1.28-4.19-2.28-6.26-3.46-2.69-1.54-5.34-3.16-7.97-4.81-2.87-1.81-5.7-3.68-8.53-5.57-1.47-.98-2.88-2.05-4.32-3.07-1.21-.87-2.45-1.71-3.64-2.61-.62-.47-1.13-1.07-1.82-1.51-.99-.64-1.79-1.57-2.73-2.3-2.7-2.14-5.17-4.51-7.65-6.89-.85-.82-1.91-1.47-2.64-2.4-1.24-1.6-2.74-2.94-4.09-4.42-1.37-1.5-2.72-3.03-3.95-4.66-2.16-2.86-4.3-5.75-6.23-8.77-1.05-1.65-2.04-3.35-3.05-5.03-.08-.13-.08-.31-.14-.55h8.44c.51.82,1.07,1.83,1.75,2.75,1.48,2.01,2.89,4.07,4.43,6.05,1.34,1.73,2.91,3.26,4.13,5.09.22.33.57.58.86.87,2.72,2.72,5.42,5.45,8.16,8.15,1.18,1.16,2.39,2.3,3.69,3.33,1.85,1.46,3.66,2.98,5.49,4.45,1.2.97,2.5,1.83,3.76,2.73,1.98,1.41,3.9,2.9,5.96,4.18,2.09,1.29,4.1,2.7,6.21,3.97,2.01,1.21,4.05,2.37,6,3.69,1.43.96,3.05,1.63,4.68,2.48,2.56-1.44,5.28-2.89,7.91-4.48,2.44-1.47,4.71-3.22,7.19-4.61,2.02-1.14,3.85-2.53,5.73-3.83,1.73-1.19,3.43-2.51,5.1-3.82,1.97-1.55,3.87-3.18,5.91-4.65,1.2-.86,2.27-1.91,3.32-2.95,2.95-2.9,5.86-5.84,8.78-8.76,1.16-1.16,2.04-2.55,3.12-3.76,1.14-1.26,2.18-2.58,3.17-3.95,1.39-1.92,2.89-3.76,4-5.86.44-.82.94-1.16,1.84-1.14,2.15.04,4.31.01,6.47.01.27,0,.54.03,1.03.07Z"/>
      <path class="cls-1" d="m179.51,98c-14.56,0-29.13,0-43.62,0-.82-.5-1.24-1.34-2.1-1.81-.64-.34-1.01-1.21-1.72-1.61-.1-.06-.19-.15-.25-.25-.82-1.31-2.18-2.08-3.2-3.18-1.03-1.11-2.13-2.15-3.21-3.22-.58-.57-.95-1.2-.95-2.06.01-7.68,0-15.36,0-23.03.68-.22,1.23-.88,2.01-.17.22.2.88.19,1.18,0,.76-.48,1.55-.3,2.32-.31,2.5-.03,5.01.03,7.51-.02,1.31-.03,1.69.08,1.68,1.63-.04,7.34-.02,14.68-.02,22.02v1.16h40.54c0,3.61,0,7.09,0,10.58,0,.09-.11.18-.17.28Z"/>
      <path class="cls-1" d="m70.73,56.7c-2.97-6.12-5.91-12.18-8.97-18.48,1.25.48,2.3.88,3.35,1.3,3,1.2,5.98,2.43,8.99,3.59.61.24.8.59.73,1.15-.16,1.28.28,2.37.9,3.48.46.82,1.07,1.34,1.84,1.84,1.36.9,2.84,1,4.35.86.56-.05,1.1-.41,1.63-.67,2.7-1.35,3.48-4.24,3.11-6.22-.16-.86-.47-1.75-1.13-2.5-.91-1.04-1.83-1.97-3.27-2.19-.14-.02-.25-.23-.45-.43,2.65-2.65,5.3-5.3,7.95-7.95.39-.39.81-.38,1.19-.02.59.56,1.16,1.15,1.73,1.72,2.06,2.06,4.12,4.12,6.3,6.3-.34.17-.65.33-.95.48-.24.12-.5.22-.73.35-3.04,1.78-4.44,5.26-2.15,8.68.83,1.24,2,1.88,3.21,2.36.9.36,2.15.4,3.06.08,1.53-.53,3.07-1.25,3.81-2.93.45-1.03.87-2.04.7-3.21-.1-.66.17-1,.9-1.17.93-.22,1.84-.61,2.71-1.03,2.24-1.07,4.54-1.96,6.88-2.79.79-.28,1.54-.67,2.57-1.12-.23.48-.36.75-.49,1.02-1,2.03-2.11,4.01-2.99,6.1-1.62,3.89-3.73,7.53-5.51,11.43h-39.3Z"/>
      <path class="cls-1" d="m64.64,114.08c-.41,0-.75-.01-1.09,0-.54.02-.82-.22-.96-.75-.34-1.25-.67-2.49-1.35-3.63-.25-.43.11-1.16-.66-1.58-.18,1.97,0,3.9-.11,5.89h-2.01c.56-1.22.23-2.47.28-3.7.06-1.34.05-2.68,0-4.01-.05-1.22.27-2.47-.28-3.71h1.94c.37,1.03.75,2.09,1.14,3.15.38,1.03.78,2.05,1.33,3.05v-6.18c.6-.03,1.15-.05,1.75-.08v11.55Z"/>
      <path class="cls-1" d="m126.9,103.47v5.91c-.31.28-.66.59-.95.85.36,1.26.7,2.43,1.08,3.75-.42.04-.74.1-1.05.09-.89-.03-.98-.17-1.17-1.06-.21-.95-.51-1.87-.76-2.78h-.92c-.15,1.23.01,2.49-.09,3.79h-1.98v-11.48c1.29,0,2.62.05,3.94-.02.84-.05,1.45.21,1.92.95Zm-3.78.91v4.1c.39,0,.73.02,1.07,0,.71-.05.95-.31.97-1.06.01-.46,0-.92,0-1.38,0-1.75-.04-1.78-1.85-1.74-.05,0-.1.04-.19.09Z"/>
      <path class="cls-1" d="m12.16,102.6c.23.23.51.52.81.82v6.11c-.28.22-.68.53-.96.75.37,1.29.69,2.43,1.06,3.71-.39.04-.71.1-1.02.09-.89-.03-.98-.17-1.17-1.05-.21-.95-.51-1.87-.76-2.78h-.91c-.15,1.23.01,2.49-.09,3.79h-1.98v-11.42h5.04Zm-2.98,1.76v4.08c.21.02.38.04.54.04.17,0,.35.01.52,0,.72-.06.96-.3.98-1.05.02-.52,0-1.04,0-1.56q0-1.58-1.66-1.58c-.11,0-.21.04-.38.07Z"/>
      <path class="cls-1" d="m104.48,102.58h2.11v11.42h-2.03v-4.75h-1.77v4.77h-2.01v-11.43h1.99v4.81h1.71v-4.82Z"/>
      <path class="cls-1" d="m15.27,114.08c-.89-.71-1.32-1.59-1.27-2.78.07-2.15.05-4.31,0-6.46-.01-.67.28-1.18.63-1.66.3-.42.69-.71,1.31-.64.75.08,1.51,0,2.27.02,1.04.04,1.73.69,1.74,1.73.03,2.68.02,5.36,0,8.04,0,1.03-.7,1.72-1.71,1.76-.99.03-1.98,0-2.97,0Zm.89-1.75c.29,0,.51,0,.74,0,1.15-.03,1.3-.16,1.31-1.25.01-1.68,0-3.36,0-5.04,0-1.75-.05-1.79-1.86-1.75-.05,0-.09.05-.19.1v7.93Z"/>
      <path class="cls-1" d="m127.96,108.3c0-1.26-.02-2.58,0-3.91.02-1.17.74-1.82,1.97-1.85.87-.01,1.74,0,2.56,0,.42.44.81.86,1.37,1.45v2.26q-2.01.22-2.14-1.91h-1.59v2.59c1.08.75,2.63.71,3.74,1.63v4.28c-.37.33-.81.71-1.41,1.23-.72,0-1.7.02-2.68,0-1.07-.03-1.79-.75-1.82-1.82-.02-.63,0-1.26,0-1.89q2.04-.19,2.19,1.93h1.59v-2.69c-1.16-.4-2.43-.83-3.77-1.29Z"/>
      <path class="cls-1" d="m93.71,103.41c.28-.27.58-.55.9-.87,1.06,0,2.16,0,3.26,0,1.2,0,1.71.48,1.77,1.7.04.69,0,1.37,0,2.1h-1.75c0-.26,0-.53,0-.81-.05-1.12-.21-1.27-1.33-1.25-.87.02-1.11.23-1.11,1.11-.02,1.98-.02,3.96,0,5.93,0,.78.31,1,1.22,1,.91,0,1.2-.22,1.21-1.01,0-.75.29-1.69-.98-1.86v-1.59h2.74c0,1.5.03,3,0,4.5-.02,1-.74,1.68-1.76,1.71-1.1.03-2.21,0-3.3,0-.3-.3-.59-.59-.88-.87,0-3.26,0-6.52,0-9.79Z"/>
      <path class="cls-1" d="m167.97,114.08c-.41-.41-.82-.82-1.22-1.22v-10.22h2.04v9.62c.6.03,1.14.05,1.64.08.54-.68.53-1.4.53-2.14-.02-2.5,0-4.99,0-7.57h1.75c0,3.24.01,6.48,0,9.72,0,1.02-.71,1.69-1.74,1.72-.99.03-1.98,0-2.97,0Z"/>
      <path class="cls-1" d="m162.97,107.82h2.73c0,1.53.02,3.03,0,4.53-.02,1.02-.72,1.69-1.75,1.72-1.1.03-2.21,0-3.31,0l-.87-.87v-9.8c.28-.26.58-.53.93-.86,1.02,0,2.12,0,3.22,0,1.2,0,1.69.48,1.78,1.7.02.23,0,.47,0,.7v1.4h-1.75c0-.27,0-.54,0-.81-.05-1.12-.22-1.27-1.33-1.24-.86.02-1.1.23-1.11,1.11-.02,1.98-.02,3.96,0,5.94,0,.78.31.99,1.23.99.91,0,1.17-.22,1.2-1.02.02-.57,0-1.14,0-1.71-.38-.04-.65-.07-.99-.11v-1.66Z"/>
      <path class="cls-1" d="m56.55,102.6c.21.22.49.51.81.84,0,2.96,0,5.98,0,8.99,0,1.14-.5,1.62-1.65,1.64-1.04.01-2.08,0-3.06,0-.3-.3-.54-.54-.83-.83v-9.87c.22-.22.46-.46.77-.77h3.97Zm-.97,1.69c-.25,0-.36,0-.48,0-1.57.02-1.58.03-1.59,1.49,0,1.62,0,3.24,0,4.86q0,1.66,1.75,1.68c.1,0,.2-.08.32-.13v-7.9Z"/>
      <path class="cls-1" d="m40.17,113.26c-.23.23-.52.51-.82.81-.97,0-1.95,0-2.94,0-1.2,0-1.69-.48-1.77-1.7-.02-.23,0-.46,0-.7v-1.4h1.75c0,.32-.02.65,0,.98.05.87.33,1.12,1.14,1.08.6-.03.9-.32.95-.93,0-.12,0-.23,0-.35v-1.35c-1.31-.44-2.58-.87-3.84-1.3,0-1.3.03-2.51-.01-3.73-.03-.85.25-1.53.87-2.11h3.9c.19.26.43.59.83,1.14,0,.3-.03.93,0,1.56.07,1.08.09,1.08-.78,1.13-.28.01-.57,0-.97,0,0-.38.02-.72,0-1.05-.04-.76-.31-1.03-1-1.05-.82-.02-1.07.22-1.09,1.13-.02.52,0,1.03,0,1.49,1.29.43,2.51.85,3.79,1.28v5.07Z"/>
      <path class="cls-1" d="m47.22,106.35h-1.75c0-.37.02-.7,0-1.04-.05-.76-.31-1.02-1.02-1.03-.73,0-1.04.25-1.07.98-.02.57,0,1.14,0,1.74,1.28.43,2.5.84,3.8,1.28v4.96c-.22.22-.46.46-.77.77h-3.96c-.23-.23-.52-.52-.81-.81v-2.91c.53-.03,1.08-.05,1.74-.09,0,.47-.03.86,0,1.25.05.6.36.86,1,.87.74.02,1.05-.24,1.08-.96.02-.46,0-.91,0-1.34-1.11-.98-2.58-.98-3.8-1.66v-5.04c.23-.14.63-.37,1.33-.78h3.34c.3.3.58.58.87.87v2.93Z"/>
      <path class="cls-1" d="m154.25,102.58h2.62c.16,1.35.43,2.63.77,3.9.32,1.22.34,2.52.76,3.7.43,1.23.27,2.6,1.02,3.82h-1.94c-.15-.37-.36-.8-.51-1.25-.38-1.11-.37-1.11-1.28-1.12-1.1-.02-1.09-.01-1.53,1.22-.12.35-.32.68-.54,1.15h-1.61c.44-3.84,1.75-7.49,2.24-11.41Zm.96,2.41c0,.94.13,1.55-.04,2.06-.18.54-.31,1.04-.33,1.61-.02.51-.2,1.01-.29,1.46h2.15c-.18-.42-.38-.71-.43-1.01-.15-.99-.22-2-.38-2.99-.05-.28-.31-.53-.68-1.13Z"/>
      <path class="cls-1" d="m72.7,114.07h-1.64c-.14-.55-.3-1.12-.41-1.7-.11-.54-.42-.77-.96-.75-.57.02-1.15,0-1.76,0-.18.78-.35,1.53-.55,2.37h-1.87c.81-3.77,1.62-7.53,2.47-11.45.4,0,.91,0,1.41,0,1.02.02,1.11.17,1.27,1.14.22,1.4.41,2.82.94,4.14.24.59.04,1.17.28,1.8.47,1.2.6,2.54.86,3.83.03.16-.01.33-.03.62Zm-2.79-3.89c.23-1.54-.53-2.89-.34-4.33.02-.15-.33-.35-.51-.53-.19.87-.38,1.61-.51,2.37-.14.81-.21,1.62-.32,2.49h1.67Z"/>
      <path class="cls-1" d="m.45,102.54c1.4,0,2.73-.01,4.06,0,.87.01,1.46.6,1.47,1.48.02,1.45.02,2.91,0,4.36-.02,1.09-.73,1.8-1.8,1.84-.35.02-.7,0-1.05,0h-.92v3.77c-.6.03-1.15.05-1.76.08v-11.55Zm1.72,5.94c.38,0,.61,0,.84,0,1-.04,1.19-.22,1.22-1.16.01-.4,0-.81,0-1.21q0-1.82-1.77-1.82c-.1,0-.19.09-.3.14v4.05Z"/>
      <path class="cls-1" d="m175.55,112.34h4.08v1.66h-5.85v-11.38h5.9c0,.31.04.59,0,.87-.08.48-.33.82-.89.81-1.05-.01-2.09,0-3.22,0v3.12h3v1.77h-3.01v3.16Z"/>
      <path class="cls-1" d="m114.39,102.57h5.76c-.1.52-.2,1.03-.33,1.68h-3.7v3.16h3.06v1.71h-3.06c-.09,1.07-.02,2.08-.05,3.15h4.01c.16.57-.67,1.18.49,1.72-2.25.17-4.18.05-6.18.1v-11.51Z"/>
      <path class="cls-1" d="m32.86,107.37v1.77h-3.03v3.17h3.7v1.74h-5.47v-11.42h5.49v1.64h-3.76v3.1h3.07Z"/>
      <path class="cls-1" d="m145.49,102.58h5.48v1.68h-3.75v3.11h3.03c.03.6.05,1.15.08,1.76h-3.08v3.17h3.69v1.74h-5.46v-11.46Z"/>
      <path class="cls-1" d="m23.16,114.05h-2.1v-11.47h5.81v1.7h-3.71v3.15h2.67v1.69h-2.67v4.93Z"/>
      <path class="cls-1" d="m89.48,102.6v1.63h-3.77c-.08,1.06-.02,2.08-.04,3.15h2.71v1.76h-2.66v4.89h-2.06v-11.42h5.83Z"/>
      <path class="cls-1" d="m75.53,102.6v9.66h3.35c.13.6.26,1.16.39,1.76h-5.75v-11.42h2.01Z"/>
      <path class="cls-1" d="m109.49,104.28h-1.76v-1.66h5.5c0,.52,0,1.03,0,1.54-.1.05-.19.13-.29.13q-1.76.03-1.76,1.69c0,2.33,0,4.66,0,6.99,0,.31.14.62.23,1.01h-1.93v-9.7Z"/>
      <path class="cls-1" d="m140.88,112.32h3.79v1.64s-.01.05-.05.05c-1.79,0-3.57,0-5.42,0v-11.44h1.68v9.74Z"/>
      <path class="cls-1" d="m48.68,102.57h1.63v11.43c-.48.02-1.02.05-1.63.08v-11.52Z"/>
      <path class="cls-1" d="m92.25,114.04h-1.64v-11.41h1.64v11.41Z"/>
    </g>
  </g>
</svg>